<svg width="510" height="332" viewBox="0 0 510 332" fill="none" xmlns="http://www.w3.org/2000/svg">
<path d="M435.592 29.5127H247.194C238.423 29.5127 231.312 36.6106 231.312 45.3662V315.13C231.312 323.885 238.423 330.983 247.194 330.983H435.592C444.363 330.983 451.474 323.885 451.474 315.13V45.3662C451.474 36.6106 444.363 29.5127 435.592 29.5127Z" fill="#A9BAE6"/>
<path d="M432.42 41.6621H251.211V304.424H432.42V41.6621Z" fill="#F6F5F5"/>
<path d="M432.418 41.6636C432.475 144.126 435.789 267.702 424.259 295.062C373.474 300.001 314.01 301.587 251.207 301.882L275.079 42.4556L432.418 41.6636Z" fill="#E4E4E4"/>
<path d="M416.143 286.782C336.987 299.428 284.083 300.095 241.176 296.914C246.736 237.829 248.965 139.673 251.207 41.6753L346.591 41.8866L432.918 47.5746C434.176 149.287 434.313 243.24 416.143 286.782Z" fill="white"/>
<path d="M388.175 68.1341L292.848 65.8945L292.506 80.389L387.833 82.6285L388.175 68.1341Z" fill="#708CD5"/>
<path d="M406.551 103.604L320.566 101.583L320.41 108.218L406.394 110.238L406.551 103.604Z" fill="#708CD5"/>
<path d="M378.672 117.422L320.227 116.049L320.07 122.683L378.515 124.056L378.672 117.422Z" fill="#D3DFFF"/>
<path d="M293.473 101.338L273.117 100.859L272.638 121.179L292.994 121.657L293.473 101.338Z" fill="white" stroke="#708CD5" stroke-width="6" stroke-miterlimit="10"/>
<path d="M390.506 140.189L319.699 138.525L319.543 145.16L390.349 146.823L390.506 140.189Z" fill="#708CD5"/>
<path d="M405.34 155.011L319.355 152.991L319.199 159.625L405.183 161.645L405.34 155.011Z" fill="#D3DFFF"/>
<path d="M292.602 138.279L272.246 137.801L271.767 158.12L292.123 158.599L292.602 138.279Z" fill="white" stroke="#708CD5" stroke-width="6" stroke-miterlimit="10"/>
<path d="M404.813 177.487L318.828 175.467L318.672 182.102L404.656 184.122L404.813 177.487Z" fill="#708CD5"/>
<path d="M356.938 190.836L318.484 189.933L318.328 196.567L356.782 197.47L356.938 190.836Z" fill="#D3DFFF"/>
<path d="M291.731 175.221L271.375 174.743L270.896 195.062L291.252 195.54L291.731 175.221Z" fill="white" stroke="#708CD5" stroke-width="6" stroke-miterlimit="10"/>
<path d="M403.937 214.429L317.953 212.409L317.797 219.043L403.781 221.063L403.937 214.429Z" fill="#708CD5"/>
<path d="M385.538 228.47L317.613 226.875L317.457 233.509L385.381 235.105L385.538 228.47Z" fill="#D3DFFF"/>
<path d="M290.863 212.163L270.508 211.685L270.029 232.004L290.384 232.482L290.863 212.163Z" fill="white" stroke="#708CD5" stroke-width="6" stroke-miterlimit="10"/>
<path d="M351.174 249.872L317.09 249.071L316.933 255.706L351.018 256.506L351.174 249.872Z" fill="#708CD5"/>
<path d="M402.735 265.557L316.75 263.537L316.594 270.172C349.86 270.951 392.217 272.506 400.86 271.182C402.172 269.694 402.879 267.865 402.735 265.557Z" fill="#D3DFFF"/>
<path d="M290.281 248.832L269.926 248.354L269.447 268.674L289.802 269.152L290.281 248.832Z" fill="white" stroke="#708CD5" stroke-width="6" stroke-miterlimit="10"/>
<path d="M382.204 31.3382V51.6189H300.578V31.3382C300.577 29.7996 300.88 28.276 301.47 26.8545C302.06 25.4329 302.924 24.1414 304.014 23.0536C304.276 22.7906 304.553 22.5427 304.843 22.3113C306.941 20.5697 309.585 19.6186 312.313 19.6237C314.391 19.6246 316.442 19.158 318.314 18.2586C319.106 17.8763 319.861 17.4222 320.57 16.902C322.96 15.1382 324.717 12.6516 325.579 9.81186C326.445 6.97343 328.201 4.4878 330.59 2.72128C332.978 0.954771 335.872 0.000813821 338.844 0L343.938 0C346.911 0.000816292 349.804 0.954774 352.192 2.72129C354.581 4.4878 356.337 6.97343 357.203 9.81186C358.065 12.6516 359.822 15.1382 362.212 16.902C362.921 17.4222 363.676 17.8763 364.468 18.2586C366.34 19.158 368.391 19.6246 370.469 19.6237C373.58 19.6275 376.562 20.863 378.762 23.059C380.962 25.2551 382.2 28.2325 382.204 31.3382Z" fill="#EE6F57"/>
<path d="M388.831 41.6621V56.7382H293.957V41.6621H300.581V51.619H382.207V41.6621H388.831Z" fill="#E4E4E4"/>
<path d="M341.392 19.0255C345.391 19.0255 348.633 15.9502 348.633 12.1566C348.633 8.36294 345.391 5.2876 341.392 5.2876C337.394 5.2876 334.152 8.36294 334.152 12.1566C334.152 15.9502 337.394 19.0255 341.392 19.0255Z" fill="white"/>
<path d="M184.962 107.105C182.067 106.558 179.361 101.729 178.421 99.8777C178.19 99.4243 178.117 98.9075 178.213 98.4082L179.365 92.3122C179.365 92.3122 182.023 92.7634 181.818 96.2974C181.803 96.6651 181.866 97.0318 182.003 97.3734L183.021 100.031L186.03 97.7059L184.38 93.055C184.38 93.055 182.172 93.6606 181.031 93.2973C178.69 92.5514 181.759 90.7296 182.73 90.5358C183.7 90.342 185.836 89.5669 186.807 91.2141C187.777 92.8612 188.36 93.8302 188.36 93.8302C188.36 93.8302 189.427 90.1482 188.699 81.9123C188.667 81.5418 189.597 81.5497 189.858 81.815C190.64 82.6089 191.885 85.0263 191.951 92.3768C191.951 92.3768 192.081 83.8109 193.553 82.9296C194.766 82.2029 195.379 86.3954 194.524 93.5055C194.524 93.5055 196.108 87.3493 197.241 87.3383C199.154 87.3197 197.266 103.78 192.458 108.685L184.962 107.105Z" fill="#F9B384"/>
<path d="M194.038 104.586C193.953 105.405 193.859 106.198 193.756 106.966V106.975C193.464 109.416 193.042 111.84 192.491 114.236C192.466 114.338 192.449 114.432 192.423 114.526C190.961 120.507 190.696 123.433 185.705 122.648L180.568 116.812L180.517 116.753L180.141 116.326L181.183 113.254L181.32 112.853L182.089 110.618L182.183 110.328L183.5 106.48L184.03 104.919L194.038 104.586Z" fill="#F9B384"/>
<path d="M98.6075 317.09L97.2998 321.169C88.334 324.109 83.1047 327.478 82.7695 331.408H108.696L110.774 317.749C105.523 319.028 101.316 318.138 98.6075 317.09Z" fill="#1F3C88"/>
<path d="M101.856 306.949L98.6055 317.09C101.314 318.138 105.521 319.028 110.772 317.749L112.113 308.94L101.856 306.949Z" fill="#F9B384"/>
<path d="M146.182 316.638L146.943 306.309L134.763 306.949L134.098 316.471C139.254 318.111 143.516 317.469 146.182 316.638Z" fill="#F9B384"/>
<path d="M160.833 331.408C160.498 327.478 155.918 322.094 145.875 320.814L146.183 316.638C143.517 317.469 139.255 318.112 134.099 316.471L133.055 331.408H160.833Z" fill="#1F3C88"/>
<path d="M136.314 109.756L121.621 109.859V87.6753H135.869L135.878 89.0319L135.946 96.0623L136.049 107.35L136.314 109.756Z" fill="#F9B384"/>
<path d="M135.944 97.129C133.303 99.9019 126.414 96.7707 123.508 93.7162L135.876 90.0986L135.944 97.129Z" fill="#E28B6D"/>
<path d="M139.356 82.5563C139.36 84.2276 139.231 85.8965 138.971 87.5475C138.253 92.0183 136.356 95.8834 131.98 96.0028C121.637 96.3014 118.689 90.3973 116.74 85.5681C114.791 80.7304 117.954 69.1013 117.954 69.1013L131.339 67.7788L138.689 73.7939C139.146 76.6921 139.369 79.6224 139.356 82.5563Z" fill="#F9B384"/>
<path d="M117.154 82.8024C117.154 82.8024 120.105 82.6667 120.609 75.0644C125.885 76.827 129.741 75.2198 132.795 71.7125C135.402 75.1489 142.698 76.2251 145.163 69.1893C146.943 64.1057 142.029 56.5335 134.87 61.1194C127.855 57.5817 117.214 57.8242 114.152 66.5029C114.152 66.5029 103.507 71.4021 114.779 82.1891C115.005 82.4054 117.154 82.8024 117.154 82.8024Z" fill="#102048"/>
<path d="M157.843 189.484L149.722 312.068H130.633L135.405 193.117L138.325 191.766L157.843 189.484Z" fill="#102048"/>
<path d="M108.125 172.711L94.7344 312.068H115.533L135.334 196.316L157.841 189.491L158.838 164.748L108.695 163.61L108.125 172.711Z" fill="#1F3C88"/>
<path opacity="0.6" d="M111.11 173.016C122.471 177.087 149.123 172.434 154.658 166.764L150.725 158.914L106.887 164.729L111.11 173.016Z" fill="#102048"/>
<path d="M153.637 164.873C153.27 165.027 152.894 165.189 152.509 165.334C147.91 167.198 143.141 168.616 138.269 169.566C135.12 170.189 131.929 170.58 128.722 170.735C123.693 171.016 118.649 170.608 113.73 169.523L120.098 110.259L120.876 103.033C120.876 103.033 129.209 113.271 138.398 101.966L153.637 164.873Z" fill="white"/>
<path opacity="0.3" d="M128.722 170.735C123.693 171.016 118.649 170.608 113.73 169.523L120.098 110.26L122.372 106.979C127.987 120.613 133.739 150.804 128.722 170.735Z" fill="#1F3C88"/>
<path d="M121.622 100.687C127.953 127.52 130.558 155.132 121.23 185.794C114.313 188.42 106.782 188.391 98.7228 186.078L100.717 130.335L53.7787 162.544L50.9297 144.982C68.9732 127.76 100.17 101.742 121.622 100.687Z" fill="#708CD5"/>
<path opacity="0.3" d="M152.508 165.334C147.909 167.199 143.14 168.616 138.268 169.566C135.439 153.372 134.815 126.769 137.114 114.765L152.508 165.334Z" fill="#1F3C88"/>
<path opacity="0.6" d="M192.494 114.236C192.469 114.338 192.451 114.432 192.426 114.526C190.964 120.507 190.699 123.433 185.708 122.648L180.571 116.812L180.52 116.753L181.186 113.255L181.323 112.854L182.092 110.618L182.186 110.328L192.494 114.236Z" fill="#E28B6D"/>
<path d="M191.604 119.67C191.604 119.67 178.997 146.333 171.518 146.973C164.268 147.593 160.834 140.574 160.834 140.574L165.962 179.54C159.936 182.355 153.364 183.729 145.731 182.381C138.953 160.411 136.391 132.004 135.887 100.367C141.374 100.708 152.242 101.176 156.133 103.673C163.113 108.152 171.732 124.15 171.732 124.15L181.775 110.499L191.604 119.67Z" fill="#708CD5"/>
<path d="M37.9141 82.1025C37.9141 82.1025 38.6771 69.3475 39.9775 69.9494C41.278 70.5512 43.8861 81.642 43.8861 81.642L41.0973 86.1343L37.9141 82.1025Z" fill="#6F3428"/>
<path d="M76.2814 312.424L76.6592 316.622C76.9793 320.18 75.8702 323.72 73.5759 326.463C71.2816 329.205 67.9899 330.926 64.4249 331.245L63.3438 331.342C59.7788 331.662 56.2327 330.555 53.4854 328.265C50.7381 325.974 49.0147 322.688 48.6942 319.13L48.3164 314.932L76.2814 312.424Z" fill="#EE6F57"/>
<path d="M57.9845 109.156L30.0195 111.664L48.3143 314.932L76.2792 312.424L57.9845 109.156Z" fill="#FBC343"/>
<path opacity="0.3" d="M48.5997 105.889L38.668 106.779L54.704 284.95L64.6357 284.06L48.5997 105.889Z" stroke="#6F3428" stroke-width="8" stroke-miterlimit="10"/>
<path d="M76.2753 312.427L48.3174 314.935L47.5823 306.744L47.0695 301.053L45.4883 283.563L73.4547 281.054L75.0274 298.545L75.5402 304.236L76.2753 312.427Z" fill="#102048"/>
<path d="M75.0282 298.545L47.0703 301.053L47.5827 306.744L75.5406 304.236L75.0282 298.545Z" fill="#FBC343"/>
<path d="M30.0156 111.665L37.7835 80.5882C37.7835 80.5882 40.4648 81.7755 43.717 79.7705L57.9828 109.156L30.0156 111.665Z" fill="#EE6F57"/>
<path d="M118.704 81.5161C118.579 81.0578 116.492 80.4276 116.032 80.3008C115.321 80.1048 114.546 80.0084 113.852 80.3211C111.328 81.4593 111.666 85.067 112.973 86.9628C113.71 88.0497 114.8 88.8486 116.06 89.2239C116.518 89.355 120.86 89.4068 120.669 88.7102C120.669 88.7071 118.708 81.5316 118.704 81.5161Z" fill="#F9B384"/>
<path d="M39.2499 154.012C39.1033 153.524 38.8599 153.071 38.5342 152.679C38.2085 152.287 37.8071 151.965 37.3539 151.731C36.9008 151.498 36.4051 151.357 35.8965 151.319C35.3879 151.28 34.8768 151.345 34.3935 151.507C31.2123 152.604 28.4413 154.464 28.0122 157.629C27.6213 160.511 29.0651 169.716 35.5144 170.899L34.9879 166.169C34.9879 166.169 38.9365 165.249 39.7262 163.541C40.279 162.345 40.3158 157.351 39.2499 154.012Z" fill="#F9B384"/>
<path d="M158.863 122.353C159.202 124.368 159.491 126.388 159.768 128.41C160.055 130.43 160.282 132.458 160.542 134.481L161.205 140.566C161.398 142.598 161.587 144.63 161.712 146.669L161.38 146.708C161.031 144.695 160.745 142.674 160.463 140.653L159.701 134.58C159.486 132.551 159.239 130.525 159.051 128.493C158.853 126.462 158.667 124.43 158.531 122.392L158.863 122.353Z" fill="#1F3C88"/>
<path d="M101.386 122.025C101.381 124.287 101.326 126.547 101.259 128.806C101.202 131.066 101.085 133.323 101.001 135.581L100.63 142.351C100.479 144.607 100.323 146.862 100.104 149.114L99.77 149.098C99.7639 146.835 99.8221 144.576 99.8844 142.316L100.155 135.541C100.285 133.285 100.382 131.027 100.538 128.772C100.685 126.516 100.843 124.261 101.052 122.009L101.386 122.025Z" fill="#1F3C88"/>
<path d="M129.077 81.3041C129.258 82.1087 128.926 82.868 128.336 83.0001C127.745 83.1321 127.12 82.5868 126.94 81.7821C126.759 80.9775 127.091 80.2181 127.681 80.0861C128.272 79.9541 128.896 80.4994 129.077 81.3041Z" fill="#102048"/>
<path d="M137.596 80.3093C137.561 81.1331 137.043 81.7803 136.439 81.7548C135.835 81.7292 135.373 81.0406 135.408 80.2168C135.443 79.3929 135.961 78.7457 136.566 78.7712C137.17 78.7968 137.631 79.4854 137.596 80.3093Z" fill="#102048"/>
<path d="M132.846 80.9849C133.139 81.6899 133.093 82.4501 133.282 83.0281C133.355 83.2964 133.498 83.5409 133.696 83.7372C133.939 83.912 134.21 84.0451 134.498 84.131C134.902 84.2819 135.254 84.5464 135.51 84.8925C135.657 85.0924 135.744 85.3291 135.762 85.5759C135.78 85.8227 135.729 86.0697 135.614 86.2889C135.403 86.6297 135.118 86.9181 134.779 87.1321C134.485 87.3293 134.203 87.5395 133.899 87.7239L133.679 87.4726C133.903 87.1963 134.15 86.9458 134.386 86.6824C134.612 86.4786 134.799 86.2351 134.937 85.9641C135.119 85.5693 134.731 85.1377 134.17 84.9147C133.881 84.7832 133.465 84.6673 133.128 84.3244C132.834 84.0135 132.642 83.6196 132.58 83.1962C132.439 82.4056 132.6 81.7295 132.523 81.0721L132.846 80.9849Z" fill="#E28B6D"/>
<path d="M124.996 79.1437C125.133 78.6169 125.44 78.1495 125.869 77.8136C126.31 77.4609 126.853 77.2581 127.418 77.2347C127.965 77.2033 128.509 77.329 128.987 77.5969C129.465 77.8648 129.855 78.2636 130.113 78.7462L129.851 78.9536C129.183 78.3877 128.335 78.0789 127.459 78.0829C127.031 78.1043 126.613 78.2238 126.238 78.4323C125.864 78.6407 125.542 78.9325 125.299 79.2849L124.996 79.1437Z" fill="#102048"/>
<path d="M133.82 78.0987C133.95 77.6891 134.181 77.3185 134.491 77.0208C134.824 76.7006 135.248 76.4913 135.704 76.4215C136.622 76.2699 137.609 76.7362 137.971 77.5501L137.704 77.7503C137.161 77.3624 136.493 77.1883 135.83 77.2613C135.514 77.3095 135.21 77.4203 134.937 77.5872C134.641 77.7885 134.363 78.0165 134.108 78.2682L133.82 78.0987Z" fill="#102048"/>
<path d="M129.09 89.248C130.582 91.5796 132.571 91.8333 134.106 89.3789L129.09 89.248Z" fill="white"/>
<path opacity="0.4" d="M139.394 81.9873C139.385 83.8483 139.243 85.7064 138.97 87.5473C138.451 87.3807 137.998 87.0538 137.677 86.6137C137.356 86.1736 137.183 85.6431 137.184 85.0986C137.184 83.8103 138.172 82.1835 139.394 81.9873Z" fill="#FC8879"/>
<path opacity="0.4" d="M125.448 89.3745C126.97 89.3745 128.204 88.1426 128.204 86.623C128.204 85.1035 126.97 83.8716 125.448 83.8716C123.925 83.8716 122.691 85.1035 122.691 86.623C122.691 88.1426 123.925 89.3745 125.448 89.3745Z" fill="#FC8879"/>
<path d="M116.896 84.2567C116.406 83.8852 115.891 83.5468 115.355 83.2439C115.148 83.1261 114.913 83.0653 114.675 83.0678C114.414 83.1126 114.169 83.2248 113.964 83.3932L113.684 83.212C113.742 83.0137 113.845 82.8315 113.986 82.6802C114.127 82.5288 114.302 82.4124 114.496 82.3402C114.701 82.2795 114.916 82.2609 115.129 82.2854C115.341 82.3099 115.546 82.3771 115.732 82.4829C116.374 82.8289 116.879 83.3836 117.162 84.0549L116.896 84.2567Z" fill="#E28B6D"/>
<path opacity="0.6" d="M39.7275 163.541L35.7605 175.573L34.9414 166.17C37.4065 165.635 38.7528 164.649 39.7275 163.541Z" fill="#6F3428"/>
</svg>
