<svg width="110" height="109" viewBox="0 0 110 109" fill="none" xmlns="http://www.w3.org/2000/svg">
<path d="M54.2405 6.05518C42.9982 6.05518 32.2164 10.5211 24.267 18.4706C16.3175 26.4201 11.8516 37.2018 11.8516 48.4441C11.8516 49.8066 11.8516 51.1388 12.0635 52.471C12.8437 60.6468 15.9823 68.4199 21.0975 74.8453C26.2128 81.2707 33.0846 86.0717 40.8774 88.6648C48.6702 91.2578 57.0485 91.5312 64.9938 89.4516C72.9391 87.372 80.1092 83.0291 85.6324 76.9508C91.1556 70.8725 94.7942 63.3205 96.1056 55.213C97.4171 47.1054 96.3451 38.7915 93.0199 31.2818C89.6947 23.7722 84.2595 17.3902 77.375 12.9118C70.4906 8.43331 62.4534 6.05126 54.2405 6.05518ZM54.2405 12.1107C63.8141 12.1191 72.9976 15.9056 79.7949 22.6474V25.6752C67.8282 21.5545 54.8187 21.6078 42.8863 25.8266C41.933 24.8976 40.7364 24.2573 39.4346 23.9796H38.6777C38.3143 22.708 37.9813 21.4363 37.7088 20.1343C37.4363 18.8324 37.2849 17.6818 37.1335 16.4405C42.3888 13.6016 48.2674 12.1137 54.2405 12.1107ZM45.1571 29.8838C56.153 26.2016 68.0702 26.3403 78.9774 30.2774C77.5021 37.9698 74.2806 45.2208 69.561 51.4718C68.2409 50.9128 66.7795 50.7786 65.3797 51.0879C63.9799 51.3971 62.711 52.1345 61.7493 53.1977C60.6896 52.5921 59.6299 51.9866 58.7216 51.2902C52.6094 47.2121 47.505 41.797 43.7946 35.4549C44.3943 34.7113 44.8309 33.8499 45.0761 32.9267C45.3212 32.0034 45.3695 31.0389 45.2177 30.0957L45.1571 29.8838ZM33.046 18.9838C33.046 19.6196 33.2277 20.2857 33.3488 20.9216C33.6213 22.2538 33.9846 23.5557 34.348 24.8577C33.1885 25.5443 32.2554 26.5551 31.6635 27.7657C31.0717 28.9762 30.8471 30.3335 31.0174 31.6702C26.2375 34.7904 21.9684 38.6305 18.3613 43.0546C19.0852 38.264 20.76 33.6665 23.2871 29.5327C25.8142 25.3988 29.1425 21.8122 33.0763 18.9838H33.046ZM33.046 66.5502C31.864 66.9469 30.8077 67.6486 29.9837 68.5843C29.1597 69.5199 28.5972 70.6564 28.353 71.8791H26.4152C21.5255 66.0471 18.6011 58.8208 18.0585 51.2296L18.3916 50.6543C22.183 44.7754 27.1396 39.7364 32.9552 35.8485C33.8271 36.7591 34.929 37.4171 36.1442 37.7529C37.3594 38.0887 38.6427 38.0898 39.8585 37.756C43.9058 44.6017 49.4422 50.4485 56.0571 54.863C57.2985 55.6805 58.5702 56.4374 59.8418 57.1641C59.7375 58.3222 59.9249 59.488 60.3868 60.5552C54.8478 64.9581 48.4558 68.1645 41.6146 69.9716C40.8214 68.4896 39.5272 67.3378 37.963 66.7222C36.3989 66.1065 34.6668 66.067 33.0763 66.6107L33.046 66.5502ZM54.2405 84.7168C48.0823 84.7212 42.0258 83.1472 36.6491 80.1449L37.4968 79.9632C38.7017 79.5679 39.7784 78.8565 40.6145 77.9032C41.4506 76.9499 42.0156 75.7896 42.2505 74.5435C49.9935 72.5718 57.2218 68.9577 63.4449 63.9463C64.9235 64.8104 66.6695 65.0967 68.3467 64.7501C70.0238 64.4035 71.5133 63.4485 72.5282 62.0691C76.8 63.1799 81.1944 63.7496 85.6082 63.7646H87.213C84.2919 70.046 79.6361 75.3614 73.7942 79.0844C67.9523 82.8073 61.1678 84.7826 54.2405 84.7774V84.7168ZM73.9513 57.7696C73.9484 56.5006 73.6032 55.2559 72.9521 54.1666C77.991 47.5846 81.4976 39.9611 83.2163 31.8518C84.7302 32.5583 86.2239 33.3456 87.6974 34.2135C91.0275 42.0825 91.4778 50.8733 88.9691 59.0413C83.9422 59.43 78.8855 59.0316 73.9816 57.8605L73.9513 57.7696Z" fill="black"/>
</svg>
