<svg width="332" height="352" viewBox="0 0 332 352" fill="none" xmlns="http://www.w3.org/2000/svg">
<path d="M265.124 226.858C265.473 227.726 265.622 228.661 265.562 229.595C265.782 228.494 266.204 227.442 266.805 226.494C267.03 226.141 267.386 225.761 267.791 225.864C268.198 225.968 268.328 226.478 268.342 226.898C268.382 228.056 268.121 229.204 267.585 230.231C268.334 229.285 269.302 228.535 270.405 228.046C270.496 227.99 270.599 227.957 270.705 227.948C270.811 227.94 270.918 227.957 271.017 227.998C271.228 228.13 271.234 228.432 271.198 228.679C271.048 229.649 270.651 230.564 270.044 231.336C269.436 232.108 268.641 232.71 267.733 233.084L267.137 233.171C265.852 232.817 264.747 231.993 264.041 230.862C263.335 229.732 263.08 228.377 263.326 227.067C263.418 226.573 263.699 225.999 264.201 225.99C264.651 225.982 264.956 226.44 265.124 226.858Z" fill="#FF725E"/>
<path d="M278.513 253.598C276.774 252.503 274.852 251.728 272.838 251.311C274.036 247.224 274.091 242.886 272.999 238.769C272.616 237.133 271.895 235.595 270.881 234.255C270.37 233.589 269.728 233.035 268.995 232.625C268.262 232.216 267.453 231.961 266.618 231.876C265.715 231.86 264.819 232.05 263.999 232.43C263.179 232.809 262.456 233.37 261.883 234.069L259.789 238.913C259.665 239.617 259.581 240.328 259.538 241.041C259.287 245.754 260.346 250.443 262.596 254.591C260.413 256.998 258.05 261.146 258.762 265.955H283.633C284.067 261.342 282.31 256.34 278.513 253.598Z" fill="#455A64"/>
<path d="M261.485 256.137C261.475 256.129 261.54 256.036 261.673 255.867C261.863 255.616 262.069 255.377 262.289 255.152C263.096 254.314 264.026 253.603 265.047 253.044C266.561 252.2 268.229 251.668 269.952 251.477C272.071 251.201 274.226 251.502 276.189 252.348C278.151 253.194 279.85 254.554 281.104 256.285C282.149 257.668 282.906 259.246 283.333 260.927C283.627 262.052 283.749 263.216 283.694 264.379C283.681 264.693 283.649 265.007 283.597 265.317C283.591 265.428 283.568 265.536 283.529 265.639C283.618 264.077 283.465 262.511 283.075 260.995C282.622 259.365 281.859 257.837 280.827 256.495C279.595 254.827 277.943 253.516 276.039 252.695C274.135 251.874 272.047 251.574 269.989 251.824C268.305 251.994 266.67 252.488 265.174 253.278C263.804 254.035 262.56 254.999 261.485 256.137Z" fill="#263238"/>
<path d="M259.408 242.824C259.319 242.279 259.304 241.725 259.363 241.176C259.402 239.84 259.628 238.516 260.034 237.242C260.449 235.953 261.18 234.789 262.162 233.856C262.549 233.45 263.031 233.146 263.564 232.972C263.598 233.028 263.04 233.331 262.348 234.048C261.462 234.997 260.794 236.128 260.392 237.363C260.001 238.61 259.745 239.895 259.63 241.196C259.609 241.745 259.534 242.29 259.408 242.824Z" fill="#263238"/>
<path d="M273.789 262.79C275.311 261.181 276.886 259.623 278.513 258.12C277.255 259.967 275.651 261.553 273.789 262.79Z" fill="#263238"/>
<path d="M271.016 261.342C271.16 259.677 271.556 258.043 272.19 256.497C272.046 258.162 271.65 259.796 271.016 261.342Z" fill="#263238"/>
<path d="M263.633 258.58C264.781 259.95 265.534 261.608 265.808 263.374C265.061 261.786 264.336 260.188 263.633 258.58Z" fill="#263238"/>
<path d="M271.617 246.965C272.634 245.204 273.865 243.575 275.283 242.117C274.267 243.879 273.035 245.508 271.617 246.965Z" fill="#263238"/>
<path d="M269.859 239.186C271.021 237.045 272.402 235.03 273.979 233.173C272.817 235.314 271.437 237.329 269.859 239.186Z" fill="#263238"/>
<path d="M267.059 241.228C267.421 242.967 267.532 244.749 267.391 246.52C267.029 244.78 266.918 242.998 267.059 241.228Z" fill="#263238"/>
<path d="M255.887 244.767C258.33 245.791 260.605 247.179 262.635 248.882C260.331 247.602 258.08 246.229 255.887 244.767Z" fill="#263238"/>
<g opacity="0.3">
<path d="M264.838 251.463C266.083 250.813 267.466 250.472 268.87 250.468C270.319 250.396 271.94 250.542 272.921 251.611V251.663C269.241 251.439 265.607 252.573 262.707 254.85C262.739 254.149 262.953 253.469 263.326 252.875C263.7 252.282 264.22 251.795 264.838 251.463Z" fill="black"/>
</g>
<path d="M276.663 202.615C277.374 202.424 278.12 202.395 278.844 202.53C278.004 202.255 277.222 201.826 276.537 201.266C276.282 201.058 276.018 200.744 276.137 200.437C276.256 200.128 276.667 200.075 276.997 200.103C277.906 200.181 278.779 200.493 279.532 201.009C278.862 200.334 278.367 199.507 278.089 198.598C278.054 198.522 278.037 198.438 278.041 198.355C278.044 198.271 278.068 198.189 278.109 198.116C278.232 197.963 278.469 197.987 278.658 198.038C279.403 198.246 280.081 198.644 280.627 199.191C281.173 199.738 281.569 200.417 281.776 201.162L281.788 201.636C281.39 202.607 280.642 203.393 279.691 203.839C278.741 204.284 277.658 204.356 276.657 204.041C276.279 203.922 275.857 203.648 275.897 203.255C275.933 202.902 276.32 202.707 276.663 202.615Z" fill="#FF725E"/>
<path d="M326.827 170.825C326.958 171.55 326.924 172.295 326.729 173.006C327.074 172.192 327.567 171.448 328.182 170.813C328.411 170.576 328.746 170.339 329.042 170.484C329.339 170.629 329.358 171.043 329.302 171.369C329.148 172.268 328.764 173.112 328.187 173.819C328.915 173.208 329.781 172.784 330.71 172.583C330.789 172.555 330.874 172.545 330.957 172.556C331.04 172.566 331.12 172.596 331.189 172.643C331.331 172.779 331.288 173.013 331.221 173.197C330.951 173.922 330.498 174.564 329.907 175.063C329.316 175.561 328.606 175.898 327.847 176.042L327.374 176.014C326.439 175.537 325.718 174.725 325.354 173.741C324.99 172.756 325.009 171.671 325.407 170.7C325.557 170.334 325.865 169.936 326.253 170.009C326.602 170.074 326.764 170.476 326.827 170.825Z" fill="#FF725E"/>
<path d="M291.9 235.863C292.269 235.876 292.614 235.919 292.966 235.952C293.611 228.847 291.457 221.633 293.627 214.841L293.339 215.211C290.722 215.624 288.043 215.384 285.542 214.512C284.297 214.068 283.155 213.376 282.185 212.478C281.216 211.58 280.439 210.494 279.902 209.286C279.389 208.066 279.23 206.727 279.443 205.421C279.655 204.116 280.231 202.896 281.104 201.902C283.563 199.332 287.895 199.467 290.981 201.237C293.957 202.945 296.043 205.813 298.007 208.638C299.033 207.819 300.179 207.161 301.403 206.686C297.975 201.965 294.659 197.009 293.578 191.308C292.395 185.07 294.724 177.679 300.515 175.075C305.446 172.857 311.629 174.861 315.104 179.003C315.376 179.327 315.606 179.678 315.848 180.021L315.732 179.685C316.586 177.488 318.271 175.715 320.421 174.748C321.493 174.283 322.657 174.07 323.824 174.126C324.991 174.182 326.129 174.505 327.152 175.071C328.163 175.658 329.001 176.501 329.581 177.515C330.162 178.529 330.465 179.679 330.459 180.848C330.356 182.161 329.906 183.424 329.153 184.504C328.4 185.585 327.372 186.446 326.175 186.997C323.856 188.026 321.264 188.266 318.796 187.68C319.111 189.878 319.099 192.111 318.759 194.306C317.819 199.254 315.912 203.968 313.145 208.177C313.876 208.66 314.554 209.22 315.166 209.847C319.635 214.525 319.922 222.037 317.581 228.068C315.239 234.099 308.897 238.547 304.497 243.29L304.492 243.287C306.299 246.57 307.447 250.174 307.872 253.897C308.647 252.288 309.853 250.925 311.357 249.96C312.86 248.995 314.602 248.466 316.388 248.432C318.308 248.446 320.459 249.3 321.053 251.126C321.577 252.734 320.695 254.477 319.551 255.724C318.102 257.175 316.311 258.238 314.343 258.815C312.375 259.391 310.293 259.463 308.29 259.022L308.241 257.847C308.392 260.55 308.327 263.261 308.047 265.954H279.668C279.668 265.954 272.084 235.129 291.9 235.863Z" fill="#455A64"/>
<path d="M247.137 277.856H314.289V265.954H247.137V277.856Z" fill="#FF725E"/>
<path d="M309.274 275.496L301.108 311.062H261.086L252.152 275.496H309.274Z" fill="#FF725E"/>
<path d="M247.172 277.872C247.172 278.002 262.319 278.108 280.999 278.108C299.686 278.108 314.83 278.002 314.83 277.872C314.83 277.741 299.686 277.636 280.999 277.636C262.319 277.636 247.172 277.741 247.172 277.872Z" fill="#263238"/>
<path d="M286.633 237.035C286.753 236.946 286.883 236.872 287.021 236.813C287.401 236.615 287.795 236.447 288.2 236.308C289.704 235.809 291.295 235.626 292.873 235.769C295.222 235.98 297.482 236.771 299.449 238.072C301.827 239.707 303.766 241.902 305.098 244.462C306.441 246.997 307.354 249.738 307.802 252.572C308.14 254.878 308.293 257.208 308.258 259.538C308.246 261.524 308.183 263.127 308.143 264.234C308.121 264.755 308.103 265.178 308.089 265.51C308.144 265.52 308.193 265.55 308.227 265.595C308.261 265.64 308.276 265.696 308.271 265.752C308.266 265.808 308.239 265.86 308.198 265.897C308.156 265.934 308.101 265.955 308.045 265.954C307.989 265.954 307.935 265.932 307.894 265.893C307.854 265.855 307.829 265.803 307.824 265.747C307.82 265.691 307.837 265.635 307.872 265.591C307.907 265.547 307.957 265.518 308.013 265.509C308.008 265.176 308.003 264.753 307.996 264.232C307.995 263.075 307.993 261.484 307.991 259.54C307.987 257.226 307.809 254.916 307.458 252.629C306.998 249.839 306.088 247.141 304.766 244.641C303.462 242.135 301.572 239.98 299.257 238.361C297.341 237.077 295.142 236.279 292.849 236.035C291.302 235.872 289.738 236.012 288.245 236.448C287.191 236.772 286.653 237.078 286.633 237.035Z" fill="#263238"/>
<path d="M292.636 221.968C292.604 221.858 292.589 221.745 292.591 221.631C292.561 221.308 292.548 220.984 292.551 220.659C292.557 219.463 292.698 218.271 292.971 217.106C293.361 215.368 294.027 213.703 294.943 212.175C295.478 211.266 296.116 210.423 296.846 209.662C297.62 208.829 298.516 208.119 299.503 207.555C300.492 206.992 301.561 206.581 302.672 206.336C303.709 206.132 304.767 206.054 305.823 206.103C307.604 206.21 309.353 206.625 310.992 207.33C312.095 207.791 313.147 208.365 314.133 209.042C314.487 209.272 314.736 209.488 314.914 209.621C315.087 209.76 315.175 209.837 315.167 209.848C314.783 209.641 314.411 209.413 314.053 209.166C313.048 208.543 311.99 208.012 310.891 207.577C309.271 206.922 307.553 206.541 305.807 206.451C304.782 206.413 303.756 206.496 302.75 206.698C301.677 206.94 300.647 207.339 299.691 207.883C298.735 208.428 297.866 209.114 297.114 209.918C296.398 210.657 295.77 211.475 295.241 212.356C294.328 213.847 293.65 215.471 293.231 217.168C292.939 218.313 292.761 219.484 292.698 220.664C292.7 221.099 292.679 221.534 292.636 221.968Z" fill="#263238"/>
<path d="M319.016 191.939C318.87 191.187 318.789 190.425 318.775 189.66C318.72 188.957 318.649 188.123 318.494 187.209C318.347 186.219 318.077 185.252 317.69 184.329C316.978 182.643 316.109 181.027 315.097 179.502C314.321 178.328 313.733 177.683 313.776 177.642C313.793 177.625 313.962 177.767 314.242 178.051C314.626 178.461 314.985 178.894 315.316 179.349C316.408 180.85 317.322 182.473 318.039 184.186C318.438 185.135 318.706 186.134 318.838 187.155C318.955 187.98 319.023 188.812 319.042 189.646C319.094 190.41 319.086 191.176 319.016 191.939Z" fill="#263238"/>
<path d="M315.355 255.753C316.72 256.605 317.942 257.667 318.977 258.899C317.612 258.047 316.39 256.985 315.355 255.753Z" fill="#263238"/>
<path d="M317.738 253.382C319.32 252.975 320.956 252.815 322.587 252.909C321.005 253.316 319.369 253.476 317.738 253.382Z" fill="#263238"/>
<path d="M315.93 249.196C316.825 247.95 317.728 246.709 318.637 245.473C318.159 246.973 317.209 248.278 315.93 249.196Z" fill="#263238"/>
<path d="M312.754 247.273C312.586 249.126 312.167 250.948 311.508 252.688C311.676 250.835 312.095 249.013 312.754 247.273Z" fill="#263238"/>
<path d="M310.628 256.868C310.559 256.79 311.007 256.273 311.63 255.712C312.253 255.151 312.815 254.759 312.885 254.837C312.954 254.914 312.506 255.432 311.883 255.993C311.26 256.553 310.698 256.945 310.628 256.868Z" fill="#263238"/>
<path d="M300.758 255.01C301.062 254.424 301.475 253.901 301.974 253.468C302.722 252.689 303.389 252.115 303.464 252.188C303.159 252.774 302.746 253.297 302.247 253.73C301.5 254.509 300.833 255.082 300.758 255.01Z" fill="#263238"/>
<path d="M298.617 245.897C299.111 244.609 299.837 243.423 300.759 242.398C300.266 243.686 299.54 244.872 298.617 245.897Z" fill="#263238"/>
<path d="M292.335 238.478C292.607 240.043 292.628 241.643 292.397 243.215C292.125 241.649 292.104 240.05 292.335 238.478Z" fill="#263238"/>
<path d="M279.148 240.992C280.425 242.429 281.649 243.912 282.817 245.438C281.275 244.251 280.021 242.731 279.148 240.992Z" fill="#263238"/>
<path d="M277.461 253.943C279.041 253.992 280.604 254.294 282.088 254.837C280.508 254.788 278.946 254.487 277.461 253.943Z" fill="#263238"/>
<path d="M291.133 258.455C291.508 256.647 292.358 254.971 293.595 253.599C292.793 255.227 291.972 256.846 291.133 258.455Z" fill="#263238"/>
<path d="M286.578 252.242C286.298 250.981 286.269 249.677 286.492 248.405C286.772 249.666 286.801 250.97 286.578 252.242Z" fill="#263238"/>
<path d="M301.293 263.196C301.599 261.769 302.384 260.49 303.518 259.572C302.792 260.789 302.05 261.998 301.293 263.196Z" fill="#263238"/>
<path d="M285.681 264.095C284.891 262.928 284.317 261.629 283.988 260.259C284.778 261.425 285.351 262.725 285.681 264.095Z" fill="#263238"/>
<path d="M309.953 235.22C311.683 235.025 313.431 235.083 315.145 235.391C313.415 235.586 311.666 235.529 309.953 235.22Z" fill="#263238"/>
<path d="M315.613 225.531C317.199 224.099 318.948 222.859 320.824 221.838C319.239 223.27 317.49 224.51 315.613 225.531Z" fill="#263238"/>
<path d="M315.023 213.085C316.381 212.189 317.737 211.291 319.091 210.389C318.048 211.688 316.627 212.631 315.023 213.085Z" fill="#263238"/>
<path d="M308.68 208.686C308.922 206.641 309.415 204.633 310.146 202.707C309.904 204.753 309.411 206.761 308.68 208.686Z" fill="#263238"/>
<path d="M298.078 205.549C299.006 206.696 299.729 207.995 300.216 209.388C299.289 208.24 298.566 206.941 298.078 205.549Z" fill="#263238"/>
<path d="M288.945 226.548C289.016 226.464 290.224 227.389 291.816 228.367C293.403 229.353 294.771 230.019 294.727 230.12C292.537 229.42 290.552 228.194 288.945 226.548Z" fill="#263238"/>
<path d="M303.754 231.27C304.892 230.273 306.189 229.473 307.592 228.904C306.454 229.902 305.156 230.701 303.754 231.27Z" fill="#263238"/>
<path d="M306.239 221.226C306.162 221.143 307.119 220.203 308.009 218.831C308.91 217.466 309.388 216.213 309.494 216.25C309.058 218.252 307.899 220.024 306.239 221.226Z" fill="#263238"/>
<path d="M301.374 218.96C301.197 217.341 301.273 215.704 301.6 214.108C301.777 215.727 301.7 217.364 301.374 218.96Z" fill="#263238"/>
<path d="M298.686 228.886C298.245 227.27 298.052 225.597 298.112 223.923C298.552 225.539 298.746 227.212 298.686 228.886Z" fill="#263238"/>
<path d="M291.18 198.981C291.504 199.889 291.768 200.817 291.972 201.759C292.296 202.667 292.561 203.595 292.764 204.537C291.761 202.855 291.214 200.94 291.18 198.981Z" fill="#263238"/>
<path d="M285.887 216.416C287.328 215.343 288.78 214.286 290.243 213.243C289.103 214.674 287.598 215.77 285.887 216.416Z" fill="#263238"/>
<path d="M278.703 211.063C280.463 210.685 282.231 210.346 284.006 210.048C282.354 210.836 280.528 211.185 278.703 211.063Z" fill="#263238"/>
<path d="M285.695 205.083C286.248 205.217 286.764 205.471 287.207 205.826C287.986 206.325 288.572 206.8 288.516 206.888C287.963 206.754 287.447 206.5 287.004 206.145C286.225 205.646 285.639 205.171 285.695 205.083Z" fill="#263238"/>
<path d="M282.203 198.625C283.506 199.385 284.523 200.552 285.096 201.947C284.117 200.853 283.152 199.745 282.203 198.625Z" fill="#263238"/>
<path d="M277.445 204.778C279.083 205.153 280.707 205.59 282.312 206.087C280.603 206.084 278.925 205.632 277.445 204.778Z" fill="#263238"/>
<path d="M310.406 196.498C311.062 195.37 311.778 194.278 312.552 193.227C313.22 192.106 313.948 191.023 314.733 189.98C313.699 192.398 312.232 194.606 310.406 196.498Z" fill="#263238"/>
<path d="M308.289 188.962C308.283 187.078 308.53 185.201 309.023 183.383C309.029 185.267 308.782 187.143 308.289 188.962Z" fill="#263238"/>
<path d="M300.965 190.134C301.076 190.113 301.383 191.563 302.108 193.222C302.82 194.886 303.665 196.103 303.574 196.17C302.051 194.508 301.132 192.382 300.965 190.134Z" fill="#263238"/>
<path d="M292.359 191.957C292.447 191.888 293.516 193.149 294.998 194.537C296.474 195.931 297.798 196.921 297.735 197.013C295.559 195.789 293.714 194.053 292.359 191.957Z" fill="#263238"/>
<path d="M295.691 176.331C295.8 176.313 296.132 177.901 296.724 179.804C297.308 181.709 297.928 183.208 297.828 183.254C296.596 181.14 295.865 178.772 295.691 176.331Z" fill="#263238"/>
<path d="M305.604 171.191C305.968 173.029 306.082 174.908 305.944 176.777C305.58 174.939 305.465 173.06 305.604 171.191Z" fill="#263238"/>
<path d="M326.059 184.404C327.481 184.493 328.901 184.609 330.318 184.752C328.899 185.114 327.4 184.992 326.059 184.404Z" fill="#263238"/>
<path d="M325.453 179.245C327.34 177.958 329.364 176.885 331.487 176.043C329.6 177.329 327.576 178.403 325.453 179.245Z" fill="#263238"/>
<path d="M319.922 179.429C320.217 177.649 320.759 175.919 321.535 174.29C321.24 176.07 320.697 177.8 319.922 179.429Z" fill="#263238"/>
<g opacity="0.3">
<path d="M304.433 243.316C304.384 241.944 304.017 240.603 303.361 239.397C302.705 238.192 301.778 237.155 300.652 236.369C298.417 234.868 294.391 234.72 292.809 235.846C295.291 235.913 297.693 236.742 299.69 238.219C301.567 239.616 303.174 241.344 304.433 243.316Z" fill="black"/>
</g>
<g opacity="0.3">
<path d="M313.189 208.687C312.676 207.614 311.921 206.675 310.983 205.945C310.045 205.214 308.95 204.712 307.785 204.477C305.491 204.057 302.243 205.331 301.375 206.772C303.37 205.968 305.564 205.795 307.66 206.278C309.634 206.739 311.507 207.555 313.189 208.687Z" fill="black"/>
</g>
<g opacity="0.3">
<path d="M318.978 188.092C319.427 187.303 319.694 186.423 319.758 185.517C319.822 184.611 319.682 183.703 319.348 182.858C319.018 182.091 318.505 181.416 317.854 180.893C317.203 180.37 316.434 180.014 315.613 179.856C317.394 182.438 318.795 185.059 318.93 188.192" fill="black"/>
</g>
<path d="M283.151 238.663C283.171 238.69 282.853 238.937 282.386 239.488C281.729 240.267 281.154 241.111 280.669 242.007C279.257 245.067 278.422 248.361 278.205 251.723C277.987 255.092 278.155 258.475 278.705 261.806C278.905 263.088 279.097 264.121 279.23 264.836C279.323 265.202 279.38 265.577 279.401 265.954C279.257 265.604 279.147 265.241 279.073 264.87C278.891 264.165 278.653 263.137 278.415 261.855C277.775 258.508 277.565 255.092 277.791 251.691C278.006 248.274 278.897 244.934 280.413 241.864C280.929 240.964 281.551 240.13 282.267 239.378C282.514 239.086 282.814 238.844 283.151 238.663Z" fill="#263238"/>
<path d="M314.288 265.954C314.221 265.969 314.153 265.976 314.084 265.974C313.927 265.979 313.73 265.985 313.485 265.993C312.93 266.001 312.16 266.013 311.181 266.028C309.152 266.042 306.264 266.063 302.708 266.088C295.53 266.102 285.659 266.122 274.756 266.143C264.006 266.122 254.262 266.103 247.136 266.09L247.271 265.954C247.257 269.615 247.246 272.586 247.238 274.674C247.226 275.682 247.216 276.475 247.21 277.045C247.202 277.298 247.197 277.501 247.192 277.661C247.218 277.666 247.242 277.68 247.258 277.701C247.273 277.722 247.281 277.749 247.279 277.775C247.276 277.801 247.264 277.826 247.245 277.844C247.225 277.861 247.2 277.871 247.173 277.871C247.147 277.871 247.122 277.862 247.102 277.844C247.082 277.826 247.07 277.802 247.068 277.775C247.065 277.749 247.073 277.723 247.088 277.702C247.104 277.681 247.127 277.666 247.153 277.661L247.132 277.045C247.122 276.475 247.107 275.682 247.089 274.675C247.068 272.587 247.038 269.615 247.001 265.955L247 265.82L247.136 265.819C254.262 265.806 264.006 265.787 274.756 265.766C285.659 265.787 295.53 265.807 302.708 265.821C306.264 265.846 309.152 265.867 311.181 265.881C312.16 265.896 312.93 265.908 313.485 265.916C313.73 265.924 313.928 265.93 314.084 265.935C314.153 265.933 314.221 265.94 314.288 265.954Z" fill="#263238"/>
<path d="M73.2891 77.2012C73.2891 78.0152 73.0477 78.8108 72.5955 79.4875C72.1433 80.1643 71.5006 80.6917 70.7487 81.0032C69.9967 81.3147 69.1693 81.3961 68.371 81.2374C67.5727 81.0786 66.8394 80.6866 66.2639 80.1111C65.6884 79.5356 65.2965 78.8023 65.1377 78.004C64.9789 77.2058 65.0604 76.3783 65.3718 75.6264C65.6833 74.8744 66.2108 74.2317 66.8875 73.7795C67.5642 73.3273 68.3599 73.0859 69.1738 73.0859C69.7142 73.0859 70.2494 73.1924 70.7487 73.3992C71.248 73.606 71.7016 73.9091 72.0838 74.2913C72.4659 74.6734 72.769 75.1271 72.9759 75.6264C73.1827 76.1257 73.2891 76.6608 73.2891 77.2012Z" fill="white"/>
<path d="M73.2917 77.2008C73.2431 77.2026 73.2438 76.8344 73.0647 76.2207C72.8092 75.36 72.2788 74.6067 71.5547 74.0761C70.9757 73.6462 70.2886 73.3856 69.5701 73.3234C68.8516 73.2613 68.13 73.4 67.4858 73.7241C66.8416 74.0482 66.3 74.5449 65.9217 75.1588C65.5433 75.7727 65.3429 76.4797 65.3429 77.2009C65.343 77.922 65.5434 78.629 65.9218 79.2429C66.3002 79.8568 66.8418 80.3535 67.486 80.6775C68.1303 81.0015 68.8519 81.1402 69.5704 81.078C70.2888 81.0158 70.9759 80.7552 71.5549 80.3253C72.2789 79.7945 72.8092 79.0413 73.0647 78.1807C73.2438 77.567 73.2431 77.1989 73.2917 77.2008C73.3654 77.5412 73.355 77.8945 73.2613 78.2301C73.0641 79.1761 72.5388 80.0219 71.7782 80.6181C71.2096 81.0664 70.5367 81.3634 69.8222 81.4811C69.1078 81.5988 68.3752 81.5336 67.6928 81.2914C66.847 80.9922 66.1147 80.4381 65.5968 79.7056C65.0789 78.973 64.8008 78.0979 64.8008 77.2007C64.8008 76.3035 65.0789 75.4284 65.5968 74.6959C66.1147 73.9633 66.847 73.4093 67.6928 73.1101C68.3751 72.8679 69.1077 72.8026 69.8221 72.9203C70.5365 73.038 71.2093 73.3349 71.7779 73.7832C72.5386 74.3793 73.064 75.2252 73.2613 76.1713C73.355 76.5068 73.3654 76.8602 73.2917 77.2008Z" fill="#263238"/>
<path d="M42.8702 82.2214C47.5066 81.8019 51.9145 80.0169 55.5365 77.0922C59.1585 74.1675 61.8318 70.2345 63.2185 65.7904C64.6052 61.3464 64.6429 56.5909 63.3269 52.1254C62.0109 47.6599 59.4003 43.685 55.8252 40.7032C52.2501 37.7214 47.8711 35.8667 43.2419 35.3736C38.6127 34.8806 33.9413 35.7713 29.8183 37.9332C25.6954 40.095 22.3061 43.431 20.079 47.5191C17.852 51.6072 16.8872 56.2639 17.3067 60.9003C17.5853 63.9788 18.4674 66.9723 19.9029 69.7099C21.3383 72.4474 23.2989 74.8754 25.6727 76.8553C28.0465 78.8351 30.787 80.328 33.7378 81.2488C36.6885 82.1695 39.7917 82.5 42.8702 82.2214Z" fill="white"/>
<path d="M42.8685 82.2218C42.7436 82.2474 42.6165 82.2614 42.489 82.2635C42.211 82.281 41.8404 82.3043 41.369 82.334C41.1196 82.3477 40.844 82.3629 40.5422 82.3795C40.2379 82.3816 39.9052 82.3534 39.5444 82.3391C38.7125 82.3236 37.8829 82.2459 37.0626 82.1066C34.7977 81.7843 32.5959 81.1152 30.5346 80.1227C27.494 78.6821 24.7951 76.6105 22.6173 74.0458C20.4396 71.4811 18.8329 68.482 17.9042 65.2481C16.7439 61.1603 16.6995 56.8362 17.7756 52.7254C18.3297 50.5016 19.2302 48.3788 20.4442 46.435C21.0582 45.4253 21.7386 44.4576 22.4809 43.5381C23.2664 42.6243 24.1125 41.7644 25.0135 40.9643C26.8585 39.3101 28.9586 37.9647 31.2325 36.9802C33.5784 35.9794 36.0619 35.3383 38.599 35.0785C41.1424 34.8779 43.7015 35.0622 46.1898 35.6252C48.6044 36.1854 50.9126 37.1318 53.0253 38.428C54.0557 39.0534 55.0426 39.7475 55.9795 40.5056C56.8752 41.2769 57.7185 42.107 58.5039 42.9902C60.0476 44.6847 61.3148 46.6117 62.2591 48.7003C64.0559 52.5516 64.7884 56.8139 64.3803 61.0441C64.047 64.3922 63.0046 67.6309 61.3224 70.5447C59.6402 73.4586 57.3568 75.9809 54.624 77.9437C52.7745 79.2899 50.7287 80.3432 48.5585 81.0667C47.7767 81.3508 46.9746 81.5761 46.1591 81.7407C45.8068 81.8194 45.4846 81.907 45.1848 81.9594C44.885 81.9972 44.6112 82.0318 44.3634 82.0631C43.8945 82.1185 43.5258 82.1621 43.2492 82.1948C43.1235 82.2156 42.996 82.2247 42.8685 82.2218C42.9908 82.1839 43.1164 82.1571 43.2435 82.1418C43.5175 82.0965 43.8828 82.0362 44.3474 81.9594C44.5928 81.9208 44.8638 81.8782 45.1605 81.8316C45.4571 81.7713 45.7756 81.6761 46.1237 81.5899C46.9292 81.4089 47.7205 81.17 48.4916 80.8753C50.6269 80.1256 52.6366 79.0579 54.453 77.7081C58.8401 74.5137 61.9763 69.8898 63.3218 64.6324C64.6673 59.375 64.1378 53.8131 61.8246 48.9039C60.8943 46.8609 59.6483 44.9769 58.1325 43.321C57.3617 42.458 56.5346 41.647 55.6566 40.8931C54.738 40.153 53.7708 39.4753 52.7614 38.8647C50.693 37.5993 48.434 36.6757 46.0714 36.1295C43.637 35.5811 41.1339 35.4016 38.6461 35.5972C36.1645 35.8518 33.7352 36.4781 31.4397 37.4551C29.2143 38.4165 27.1586 39.7305 25.3515 41.3465C24.4685 42.1283 23.6389 42.9685 22.8682 43.8612C22.1402 44.7603 21.4723 45.7065 20.869 46.6937C19.6754 48.5945 18.7881 50.6712 18.2396 52.8477C16.8573 58.0921 17.3404 63.6538 19.6062 68.5813C21.872 73.5089 25.7797 77.4959 30.6606 79.8602C32.6899 80.8622 34.8589 81.5521 37.0941 81.9064C37.9057 82.058 38.7272 82.1509 39.5521 82.1844C39.9101 82.2067 40.2406 82.2432 40.5432 82.2493C40.8436 82.2419 41.118 82.2352 41.3662 82.2291C41.8371 82.2212 42.2073 82.2151 42.4851 82.2104C42.613 82.2026 42.7413 82.2064 42.8685 82.2218Z" fill="#263238"/>
<path d="M48.2425 270.036L43.1445 313.278H50.9735L64.9955 270.036H48.2425Z" fill="#E0E0E0"/>
<path d="M76.8373 253.478L71.7383 296.72H79.5683L93.5893 253.478H76.8373Z" fill="#E0E0E0"/>
<path d="M182.685 270.036L188.244 313.278H179.708L164.422 270.036H182.685Z" fill="#E0E0E0"/>
<path d="M156.116 254.536L161.674 297.778H153.138L137.852 254.536H156.116Z" fill="#E0E0E0"/>
<path d="M71.6691 111.026C71.6691 111.026 50.2711 112.538 35.9232 119.925C24.6591 125.725 19.1862 133.852 16.9751 154.288C14.7641 174.725 0.39206 178.923 0.0235596 185.919C-0.33594 192.745 3.16346 221.934 28.3207 280.349C28.8876 281.662 29.8268 282.781 31.0223 283.566C32.2178 284.352 33.6171 284.77 35.0476 284.769H122.244V109.658L71.6691 111.026Z" fill="#455A64"/>
<path d="M154.759 111.026C154.759 111.026 176.157 112.538 190.504 119.925C201.769 125.725 207.241 133.852 209.452 154.288C211.664 174.725 226.035 178.923 226.404 185.919C226.765 192.768 223.24 222.132 197.85 280.945C197.359 282.081 196.547 283.048 195.513 283.727C194.479 284.407 193.27 284.769 192.033 284.769H104.184V109.658L154.759 111.026Z" fill="#455A64"/>
<path d="M176.332 255.399C176.838 255.256 177.356 255.16 177.879 255.113C179.313 254.961 180.761 255.027 182.174 255.308C184.295 255.758 186.236 256.823 187.754 258.37C189.546 260.299 190.884 262.605 191.67 265.119C192.487 267.593 193.048 270.145 193.344 272.734C193.644 275.111 193.764 277.263 193.818 279.069C193.872 280.876 193.864 282.337 193.84 283.347C193.855 283.871 193.824 284.395 193.745 284.914C193.666 284.396 193.629 283.872 193.637 283.348C193.599 282.341 193.551 280.883 193.45 279.085C193.349 277.288 193.192 275.15 192.868 272.797C192.549 270.245 191.983 267.731 191.177 265.289C190.416 262.846 189.13 260.6 187.411 258.706C185.967 257.203 184.12 256.149 182.092 255.667C180.194 255.309 178.255 255.219 176.332 255.399Z" fill="#263238"/>
<path d="M185.042 230.513C185.042 230.657 152.668 230.774 112.743 230.774C72.804 230.774 40.4375 230.657 40.4375 230.513C40.4375 230.37 72.804 230.253 112.743 230.253C152.668 230.253 185.042 230.37 185.042 230.513Z" fill="#263238"/>
<path d="M46.8353 254.159C46.3456 254.261 45.8477 254.319 45.3476 254.332C44.8688 254.361 44.2969 254.508 43.6275 254.611C43.2929 254.667 42.9516 254.797 42.581 254.895C42.1882 254.992 41.8055 255.126 41.4381 255.296C39.5916 256.042 37.9671 257.249 36.7198 258.801C35.2331 260.742 34.1722 262.975 33.6065 265.353C33.0122 267.737 32.6758 270.178 32.603 272.633C32.5267 274.643 32.5617 276.656 32.7079 278.663C32.8282 280.378 32.9889 281.762 33.1061 282.717C33.1926 283.21 33.2453 283.708 33.2637 284.208C33.0898 283.737 32.9698 283.247 32.9059 282.749C32.7265 281.799 32.5092 280.415 32.3409 278.693C32.1407 276.674 32.0681 274.645 32.1234 272.617C32.1697 270.122 32.4982 267.641 33.1027 265.221C33.6862 262.772 34.7934 260.478 36.3481 258.498C37.6593 256.901 39.3688 255.678 41.3039 254.953C41.6864 254.789 42.0838 254.663 42.4906 254.576C42.8737 254.488 43.2271 254.369 43.5708 254.325C44.2582 254.247 44.8442 254.129 45.3307 254.13C45.8321 254.094 46.3357 254.103 46.8353 254.159Z" fill="#263238"/>
<path d="M46.8353 254.159C46.7896 254.087 46.7542 254.009 46.73 253.927C46.6607 253.74 46.5753 253.51 46.4699 253.227C46.2445 252.61 45.917 251.697 45.5627 250.502C44.8099 248.124 43.8619 244.643 42.7294 240.333C41.6172 236.006 40.2979 230.873 38.834 225.177C37.3541 219.478 35.7191 213.213 33.7413 206.719C32.8003 203.557 31.7013 200.444 30.4484 197.392C30.158 196.66 29.8233 195.946 29.4462 195.255C29.1075 194.558 28.7272 193.879 28.3297 193.213C27.5613 191.874 26.8291 190.557 26.0599 189.309C24.7087 186.896 22.8658 184.792 20.6505 183.136C18.646 181.803 16.3644 180.945 13.9788 180.626C10.5015 180.133 6.95578 180.644 3.75926 182.099C2.60188 182.658 1.49232 183.311 0.44176 184.051C0.43606 184.044 0.49936 183.985 0.62866 183.877C0.78386 183.752 0.97546 183.598 1.21156 183.408C1.98458 182.837 2.80836 182.337 3.67256 181.916C6.88916 180.366 10.4891 179.791 14.0287 180.261C16.4802 180.564 18.8294 181.426 20.8951 182.78C23.174 184.456 25.073 186.595 26.4678 189.057C27.2503 190.313 27.9901 191.632 28.7606 192.965C29.156 193.622 29.5396 194.301 29.892 195.019C30.2773 195.721 30.6195 196.446 30.9167 197.19C32.1837 200.256 33.2926 203.385 34.239 206.565C36.2218 213.076 37.8437 219.35 39.2988 225.058C40.7221 230.764 42.0047 235.907 43.0861 240.242C44.1724 244.561 45.0654 248.053 45.7569 250.444C46.0811 251.647 46.3764 252.566 46.5692 253.193C46.6547 253.483 46.724 253.718 46.7801 253.909C46.8097 253.989 46.8282 254.074 46.8353 254.159Z" fill="#263238"/>
<path d="M160.286 211.451C160.286 211.451 159.982 211.468 159.39 211.474C158.785 211.478 157.909 211.484 156.763 211.492C154.439 211.495 151.036 211.501 146.658 211.508C137.87 211.498 125.178 211.485 109.497 211.469L83.8351 211.417C79.2229 211.387 74.4577 211.356 69.5395 211.324C67.0856 211.329 64.5905 211.329 62.0787 211.453C61.466 211.471 60.8557 211.538 60.2535 211.652C59.6687 211.871 59.1012 212.134 58.5557 212.438C57.4372 213.041 56.3384 213.707 55.2487 214.401C53.0712 215.794 50.9286 217.296 48.8208 218.908C46.6806 220.512 44.6525 222.26 42.7505 224.141C41.7833 225.064 40.9629 226.13 40.3175 227.302C40.1822 227.58 40.1003 227.881 40.076 228.189C40.1082 228.511 40.1701 228.829 40.2607 229.139L40.7508 231.15C41.4178 233.836 42.1196 236.543 42.8382 239.271C43.574 241.993 44.3162 244.74 45.0648 247.509C45.4598 248.887 45.8564 250.27 46.2546 251.659C46.4612 252.348 46.6723 253.044 46.9124 253.71C46.9424 253.803 46.9697 253.831 46.9915 253.898C47.0029 253.92 47.0124 253.974 47.0231 253.972C47.0339 253.957 47.0281 253.949 47.0318 253.956C47.1974 253.981 47.3626 254.008 47.5445 254.021C47.8974 254.059 48.2619 254.078 48.6223 254.101C54.4301 254.379 60.3505 254.431 66.331 254.525C90.2726 254.811 113.084 254.835 133.83 254.79C144.202 254.758 154.059 254.702 163.282 254.578C167.893 254.512 172.347 254.438 176.622 254.282C177.69 254.238 178.749 254.193 179.788 254.113C180.049 254.095 180.306 254.07 180.56 254.039C180.69 254.028 180.806 254.001 180.928 253.981C181.021 253.967 181.106 253.918 181.164 253.843C181.47 253.459 181.71 253.027 181.874 252.565C182.574 250.693 183.158 248.779 183.622 246.835C184.584 243.038 185.362 239.385 186.086 235.928C186.264 235.063 186.441 234.21 186.614 233.37C186.837 232.571 186.954 231.747 186.965 230.918C186.634 229.363 185.878 227.931 184.782 226.781C182.844 224.641 180.706 222.69 178.397 220.956C176.296 219.314 174.321 217.885 172.557 216.581C171.057 215.351 169.456 214.251 167.769 213.294C166.503 212.65 165.16 212.171 163.772 211.869C162.918 211.68 162.051 211.558 161.179 211.504C160.884 211.477 160.661 211.48 160.511 211.469C160.362 211.461 160.286 211.451 160.286 211.451C160.286 211.451 160.589 211.431 161.182 211.451C162.06 211.482 162.933 211.587 163.793 211.766C165.197 212.051 166.556 212.518 167.838 213.156C169.542 214.101 171.161 215.192 172.677 216.417C174.449 217.708 176.435 219.126 178.55 220.76C180.883 222.493 183.044 224.446 185.004 226.592C186.147 227.783 186.934 229.271 187.275 230.886C187.273 231.747 187.157 232.604 186.929 233.434C186.759 234.275 186.586 235.129 186.41 235.995C185.698 239.457 184.933 243.115 183.979 246.926C183.516 248.889 182.932 250.822 182.23 252.712C182.05 253.224 181.782 253.701 181.438 254.121C181.325 254.244 181.177 254.329 181.014 254.362C180.879 254.386 180.74 254.416 180.61 254.427C180.346 254.461 180.083 254.486 179.82 254.506C178.769 254.589 177.709 254.637 176.638 254.683C172.356 254.851 167.901 254.934 163.288 255.009C154.063 255.153 144.205 255.225 133.831 255.269C113.083 255.341 90.2714 255.332 66.3241 255.046C60.3381 254.952 54.4282 254.899 48.5918 254.619C48.2254 254.594 47.8625 254.576 47.4922 254.537C47.3113 254.523 47.1174 254.493 46.924 254.462C46.8369 254.438 46.7534 254.402 46.6758 254.356C46.6145 254.309 46.6084 254.254 46.5732 254.202C46.5175 254.104 46.4693 254.001 46.429 253.894C46.1768 253.195 45.9681 252.502 45.7598 251.807C45.3612 250.415 44.9642 249.028 44.5688 247.647C43.8213 244.875 43.08 242.126 42.3448 239.4C41.6274 236.671 40.9271 233.962 40.2612 231.271L39.7716 229.255C39.669 228.905 39.6028 228.545 39.5742 228.181C39.5992 227.804 39.6968 227.435 39.8615 227.094C40.5305 225.87 41.3852 224.756 42.395 223.793C44.3152 221.897 46.363 220.136 48.5238 218.52C50.6427 216.907 52.7984 215.399 54.9909 213.996C56.0888 213.299 57.1957 212.63 58.3324 212.019C58.9016 211.703 59.4939 211.431 60.1044 211.204C60.7462 211.074 61.398 211.001 62.0525 210.984C64.5886 210.863 67.0813 210.867 69.5403 210.866C74.4537 210.907 79.2188 210.947 83.8359 210.985C93.0594 211.027 101.652 211.065 109.498 211.101C125.178 211.187 137.871 211.257 146.659 211.305C151.037 211.34 154.439 211.368 156.763 211.387C157.908 211.402 158.784 211.413 159.39 211.421C159.982 211.432 160.286 211.451 160.286 211.451Z" fill="#263238"/>
<path d="M181.895 254.159C181.9 254.073 181.918 253.989 181.947 253.909C182 253.719 182.067 253.484 182.148 253.195C182.334 252.57 182.62 251.655 182.906 250.45C183.54 248.058 184.295 244.555 185.187 240.219C186.058 235.863 187.09 230.696 188.236 224.963C189.41 219.225 190.705 212.912 192.429 206.366C193.251 203.168 194.275 200.025 195.495 196.956C195.818 196.221 196.205 195.516 196.552 194.805C196.918 194.106 197.348 193.46 197.752 192.804C198.556 191.528 199.427 190.296 200.362 189.112C202.072 186.888 204.155 184.979 206.52 183.47C208.609 182.186 210.948 181.364 213.381 181.058C216.902 180.605 220.478 181.186 223.674 182.731C224.532 183.151 225.351 183.649 226.119 184.217L226.699 184.684C226.827 184.791 226.89 184.85 226.884 184.857C225.839 184.121 224.737 183.472 223.587 182.914C220.411 181.465 216.888 180.948 213.429 181.423C211.056 181.746 208.779 182.569 206.747 183.837C204.438 185.335 202.405 187.221 200.738 189.41C199.819 190.585 198.962 191.806 198.172 193.07C197.775 193.72 197.346 194.369 196.99 195.056C196.654 195.751 196.279 196.435 195.963 197.157C194.761 200.206 193.748 203.326 192.932 206.5C191.214 213.025 189.905 219.33 188.707 225.059C187.519 230.792 186.486 235.964 185.547 240.295C184.608 244.625 183.797 248.121 183.102 250.503C182.785 251.702 182.467 252.613 182.248 253.228C182.146 253.511 182.064 253.741 181.997 253.927C181.974 254.008 181.939 254.086 181.895 254.159Z" fill="#263238"/>
<path d="M184.244 125.49C184.384 125.524 179.82 144.812 174.053 168.565C168.283 192.327 163.494 211.555 163.355 211.521C163.215 211.487 167.777 192.204 173.547 168.442C179.314 144.689 184.104 125.456 184.244 125.49Z" fill="#263238"/>
<path d="M41.0625 131.633C41.1792 131.889 41.2743 132.154 41.347 132.426C41.5252 132.997 41.7646 133.765 42.0653 134.729C42.6784 136.787 43.5404 139.679 44.5994 143.232C46.7079 150.421 49.5529 160.372 52.5911 171.391C55.6291 182.415 58.2846 192.419 60.1573 199.673C61.0685 203.267 61.8102 206.192 62.3377 208.273C62.5735 209.255 62.7612 210.037 62.9009 210.618C62.9777 210.889 63.0319 211.166 63.063 211.445C62.9531 211.186 62.8649 210.919 62.7993 210.645C62.6362 210.069 62.417 209.296 62.1416 208.324C61.5754 206.254 60.7794 203.343 59.8014 199.767C57.8161 192.499 55.0954 182.537 52.0891 171.53C49.0321 160.541 46.2648 150.593 44.2454 143.334C43.253 139.761 42.4451 136.854 41.8706 134.786C41.6091 133.81 41.401 133.033 41.2462 132.455C41.1624 132.187 41.101 131.912 41.0625 131.633Z" fill="#263238"/>
<path d="M80.1386 15.5244C80.2637 14.0747 80.9005 12.717 81.9352 11.694C82.9699 10.671 84.3348 10.0496 85.7858 9.94106C84.0817 7.15266 85.509 3.12046 88.3952 1.58766C89.8821 0.896672 91.5414 0.664904 93.1608 0.921989C94.7802 1.17907 96.2861 1.91333 97.486 3.03086C98.2279 1.85779 99.3266 0.953667 100.621 0.451362C101.915 -0.0509437 103.335 -0.124937 104.675 0.240256C105.996 0.665073 107.146 1.50255 107.956 2.62961C108.766 3.75667 109.194 5.11387 109.175 6.50176C111.827 5.65306 114.821 7.83426 115.349 10.5682C115.528 11.9533 115.314 13.3612 114.731 14.6304C114.148 15.8996 113.219 16.9789 112.051 17.7446C113.407 18.7682 113.267 21.0002 112.16 22.2894C110.939 23.491 109.347 24.2437 107.644 24.4249L97.1044 27.5496C94.5755 28.9638 91.4657 29.6763 88.7609 28.6372C86.0561 27.5981 84.1121 24.4084 85.1345 21.6973C83.7044 21.4291 82.4165 20.6607 81.5011 19.5297C80.5858 18.3987 80.1028 16.9789 80.1386 15.5244Z" fill="#263238"/>
<path d="M80.2266 14.3343C80.3309 14.1975 80.455 14.0771 80.5949 13.9769C80.9935 13.6785 81.4418 13.4532 81.9191 13.3112C82.6861 13.086 83.4962 13.0496 84.2804 13.2051C85.3473 13.4002 86.3098 13.9693 86.995 14.8101L86.6777 14.9069C86.778 13.4785 87.3635 12.1273 88.3372 11.0773C89.4599 9.84515 90.9391 8.99408 92.5687 8.64282C94.3941 8.29915 96.2807 8.51058 97.9848 9.24982C99.8143 10.0209 101.451 11.1867 102.777 12.6639C103.457 13.3749 103.964 14.232 104.261 15.1694C104.404 15.6435 104.439 16.1431 104.366 16.6326C104.292 17.122 104.111 17.5892 103.836 18.0006C103.566 18.4134 103.188 18.7446 102.743 18.9587C102.29 19.1644 101.78 19.2088 101.299 19.0846C100.851 18.9524 100.444 18.7068 100.119 18.3717C99.7934 18.0366 99.5599 17.6232 99.4409 17.1715C99.3426 16.7469 99.3342 16.3065 99.4161 15.8785C99.498 15.4505 99.6684 15.0443 99.9165 14.686C100.362 14.0141 100.996 13.4889 101.739 13.1764C103.053 12.667 104.486 12.5498 105.864 12.8391C107.848 13.2047 109.661 14.2004 111.033 15.6784C111.402 16.074 111.73 16.5052 112.013 16.9657C112.118 17.1227 112.203 17.2922 112.266 17.4701C111.841 16.8919 111.381 16.3406 110.888 15.8192C109.504 14.4415 107.727 13.5271 105.801 13.202C104.497 12.9519 103.149 13.0799 101.915 13.5709C101.254 13.8567 100.693 14.331 100.301 14.9345C100.092 15.2398 99.9494 15.5851 99.881 15.9485C99.8126 16.312 99.8204 16.6857 99.904 17.0459C100.004 17.4131 100.196 17.7488 100.462 18.0212C100.727 18.2937 101.058 18.4939 101.423 18.603C101.806 18.6845 102.205 18.6425 102.562 18.483C102.92 18.3236 103.218 18.0549 103.413 17.7156C103.646 17.3651 103.798 16.9672 103.858 16.5507C103.919 16.1343 103.886 15.7096 103.762 15.3074C103.484 14.4481 103.015 13.663 102.389 13.0114C99.7867 10.1216 95.9594 8.42642 92.6654 9.10882C91.1267 9.42814 89.7243 10.2152 88.6503 11.3623C87.7236 12.3341 87.1529 13.5909 87.0311 14.9282L86.9933 15.3912L86.7136 15.025C86.0901 14.2336 85.2087 13.6861 84.223 13.4779C83.4808 13.3094 82.7095 13.3162 81.9704 13.4977C81.3454 13.6745 80.7555 13.9575 80.2266 14.3343Z" fill="#455A64"/>
<path d="M90.0129 25.206C90.0241 25.2111 89.9924 25.3022 89.9081 25.4713C89.7669 25.7125 89.5828 25.9258 89.3649 26.1009C89.0085 26.3834 88.5882 26.574 88.1408 26.6559C87.5243 26.7776 86.8846 26.6677 86.344 26.3473L85.3837 25.7615L86.4661 26.0876C86.8277 26.1965 87.2081 26.3111 87.6073 26.4313L89.0275 26.8591L87.544 26.7469C87.0008 26.7021 86.4817 26.5029 86.048 26.1727C85.6143 25.8426 85.284 25.3953 85.0962 24.8837C84.9083 24.372 84.8707 23.8173 84.9878 23.2849C85.1048 22.7526 85.3717 22.2648 85.7568 21.8791L86.0924 22.1597C85.4222 23.097 84.5026 23.8276 83.438 24.2686C82.3735 24.7095 81.2066 24.8431 80.0699 24.6541C78.9332 24.4652 77.8723 23.9613 77.0076 23.1997C76.1429 22.4381 75.5091 21.4493 75.1781 20.3456C74.8941 19.553 74.7849 18.7083 74.858 17.8694C74.9311 17.0306 75.1848 16.2176 75.6017 15.486C75.9992 14.7667 76.6653 14.2341 77.4544 14.0046C78.2435 13.7751 79.0914 13.8673 79.8126 14.2612L79.5262 14.6482C78.6628 13.8827 78.1337 12.8094 78.0522 11.6584C77.9575 10.6277 78.1925 9.59351 78.7233 8.70492C79.2046 7.91768 79.9503 7.32737 80.827 7.03962C81.715 6.76094 82.6657 6.75249 83.5585 7.01533C84.4513 7.27817 85.2458 7.80045 85.8411 8.51582C86.0877 8.80929 86.2692 9.15182 86.3734 9.52072C86.3329 9.54102 86.1962 9.15782 85.7214 8.61632C85.0215 7.85399 84.0827 7.3531 83.0597 7.19632C82.35 7.07712 81.6217 7.13805 80.9416 7.37352C80.1552 7.65033 79.492 8.19631 79.0693 8.91492C78.6003 9.73344 78.4006 10.6787 78.4984 11.617C78.5817 12.6437 79.0609 13.5977 79.8347 14.2775L79.5482 14.6645C78.9363 14.3491 78.225 14.2869 77.5676 14.4913C76.9103 14.6957 76.3597 15.1504 76.0346 15.7572C75.6615 16.4258 75.4361 17.1666 75.3736 17.9297C75.3111 18.6928 75.4129 19.4604 75.6722 20.1808C75.9768 21.1966 76.5589 22.1072 77.3528 22.8103C78.1467 23.5134 79.121 23.9811 80.1662 24.1607C81.2113 24.3404 82.2859 24.2249 83.269 23.8272C84.2521 23.4296 85.1048 22.7656 85.7312 21.9098L86.0668 22.1904C85.7123 22.5497 85.4739 23.0072 85.3826 23.5036C85.2912 24 85.3511 24.5124 85.5544 24.9744C85.741 25.3669 86.024 25.7056 86.3769 25.9592C86.7299 26.2127 87.1413 26.3728 87.5728 26.4244L87.5095 26.7399C87.1143 26.6084 86.7373 26.483 86.3787 26.3636L86.5009 26.1039C86.9782 26.4037 87.5478 26.521 88.1048 26.4344C88.5242 26.3753 88.9239 26.219 89.2723 25.9781C89.5558 25.7586 89.8054 25.4984 90.0129 25.206Z" fill="#263238"/>
<path d="M119.915 19.0107C120.236 18.5927 120.533 18.1561 120.803 17.7031C121.481 16.4449 121.701 14.9895 121.423 13.5871C121.194 12.5699 120.695 11.6336 119.977 10.8774C119.259 10.1212 118.35 9.57328 117.346 9.29179C116.774 9.12699 116.178 9.05514 115.583 9.07899C115.296 9.06756 115.011 9.12039 114.747 9.2336C114.483 9.34681 114.248 9.51754 114.059 9.73329C113.972 9.83055 113.909 9.9471 113.875 10.0734C113.842 10.1997 113.838 10.3322 113.866 10.46C113.893 10.5878 113.95 10.7073 114.033 10.8087C114.115 10.9101 114.221 10.9905 114.34 11.0434C114.945 11.2256 115.595 11.1734 116.163 10.897C116.769 10.6658 117.324 10.3155 117.793 9.86686C118.262 9.41822 118.637 8.88024 118.895 8.28459C119.117 7.72591 119.21 7.12396 119.165 6.5243C119.121 5.92465 118.94 5.34301 118.638 4.82339C118.115 3.92157 117.362 3.17424 116.457 2.65735C115.552 2.14046 114.526 1.87243 113.483 1.88049C112.053 1.89067 110.67 2.39261 109.567 3.30199C108.786 3.95059 108.482 4.44529 108.441 4.41369C108.486 4.28054 108.555 4.15688 108.645 4.04909C108.873 3.72041 109.138 3.41842 109.434 3.14879C110.541 2.13385 111.978 1.55272 113.479 1.51229C114.518 1.48953 115.547 1.71761 116.479 2.17719C117.564 2.7009 118.464 3.54356 119.058 4.59249C119.402 5.17368 119.608 5.82554 119.662 6.4985C119.715 7.17146 119.615 7.8478 119.368 8.47609C119.087 9.13849 118.674 9.73729 118.156 10.2366C117.638 10.736 117.024 11.1256 116.352 11.3821C115.658 11.712 114.863 11.7608 114.133 11.5184C113.937 11.4379 113.763 11.3099 113.628 11.1457C113.494 10.9816 113.402 10.7866 113.361 10.5781C113.3 10.1765 113.401 9.76721 113.642 9.43989C113.875 9.16095 114.169 8.93879 114.501 8.79021C114.833 8.64164 115.195 8.57054 115.559 8.58229C116.209 8.56051 116.859 8.64471 117.482 8.83159C118.383 9.08136 119.213 9.53777 119.907 10.1646C120.6 10.7914 121.138 11.5713 121.477 12.4423C121.817 13.3134 121.948 14.2516 121.862 15.1824C121.775 16.1132 121.473 17.011 120.978 17.8044C120.77 18.147 120.522 18.4637 120.24 18.7481C120.038 18.9338 119.927 19.0236 119.915 19.0107Z" fill="#263238"/>
<path d="M88.2335 27.4425C89.4215 25.1689 92.6927 24.8796 95.0507 25.8902C94.9428 25.0068 95.0911 24.1109 95.478 23.3094C95.865 22.5079 96.4742 21.8345 97.2332 21.3696C97.9921 20.9046 98.8687 20.6677 99.7585 20.6871C100.648 20.7064 101.514 20.9812 102.252 21.4787C102.815 21.8585 103.373 22.388 104.051 22.3429C104.763 22.2955 105.25 21.6424 105.767 21.1502C106.73 20.3055 107.987 19.8728 109.266 19.9453C110.545 20.0178 111.745 20.5897 112.606 21.5378C113.387 22.5542 113.737 23.8363 113.581 25.1081C113.425 26.3799 112.776 27.5397 111.774 28.3379L111.451 27.0869C107.48 30.86 102.439 33.3133 97.0196 34.1108C94.7687 34.5914 92.4214 34.2959 90.3599 33.2722C88.397 32.1085 87.1765 29.4651 88.2335 27.4425Z" fill="#FF725E"/>
<path d="M82.441 47.4968C81.4851 46.0274 81.0088 44.2976 81.0778 42.546C81.1467 40.7945 81.7576 39.1075 82.826 37.7178C83.6856 36.6669 84.7964 35.8498 86.0557 35.3423C86.1823 33.1825 86.9945 31.1194 88.3742 29.4529C90.4706 27.0976 94.4979 26.3283 96.8044 28.4782C97.2718 27.566 97.9175 26.7568 98.7032 26.0985C99.4889 25.4403 100.399 24.9463 101.379 24.6458C102.359 24.3453 103.389 24.2444 104.408 24.349C105.428 24.4537 106.416 24.7619 107.315 25.2552C110.355 21.704 116.741 21.9328 119.52 25.6924C120.434 25.0695 121.51 24.7277 122.616 24.7091C123.722 24.6905 124.809 24.9959 125.743 25.5877C126.677 26.1794 127.418 27.0317 127.874 28.0394C128.33 29.0471 128.481 30.1661 128.308 31.2586C129.384 31.0806 130.487 31.1896 131.506 31.5746C132.526 31.9596 133.426 32.607 134.115 33.4512C134.804 34.2954 135.258 35.3066 135.431 36.3826C135.604 37.4585 135.49 38.5611 135.1 39.5789C136.012 39.6314 136.887 39.9551 137.613 40.5085C138.339 41.062 138.883 41.8198 139.175 42.6847C139.467 43.5497 139.493 44.4821 139.252 45.3624C139.01 46.2426 138.51 47.0304 137.817 47.6246C138.367 48.3203 138.769 49.1212 138.998 49.9781C139.227 50.8349 139.279 51.7295 139.15 52.607C139.02 53.4845 138.713 54.3262 138.246 55.0805C137.78 55.8348 137.164 56.4857 136.436 56.9932C136.703 58.2937 136.481 59.6468 135.815 60.7948C135.148 61.9427 134.082 62.8053 132.821 63.2184L95.0164 74.4569C88.6655 74.0058 86.9448 69.8766 86.6852 66.0371C85.8911 65.7598 85.1667 65.3133 84.5621 64.7285C83.9575 64.1438 83.4871 63.4347 83.1834 62.6503C82.8797 61.8659 82.7499 61.0249 82.8031 60.1855C82.8563 59.3461 83.0911 58.5282 83.4914 57.7884C82.6392 57.2642 81.9192 56.5507 81.3873 55.7033C80.8554 54.8559 80.5259 53.8974 80.4243 52.902C80.3227 51.9067 80.4518 50.9013 80.8015 49.9639C81.1513 49.0266 81.7123 48.1823 82.441 47.4968Z" fill="#263238"/>
<path d="M97.2074 38.9772L120.4 33.8304C127.796 33.2657 132.433 42.4876 132.683 49.9008C132.961 58.1366 132.975 68.2027 131.822 74.3081C129.503 86.5848 120.004 87.8784 120.004 87.8784C120.003 87.8368 119.97 88.0618 119.792 91.7237L119.626 97.6656C119.6 100.076 118.729 102.4 117.165 104.234C113.514 108.347 107.363 108.508 100.341 105.348C96.2709 103.516 96.5243 101.207 96.0249 95.5273L92.7266 41.8398C93.2259 41.0705 93.8841 40.417 94.657 39.9232C95.4299 39.4294 96.2995 39.1069 97.2074 38.9772Z" fill="#C17560"/>
<path d="M127.84 61.0237C127.832 61.4361 127.663 61.8291 127.37 62.1189C127.076 62.4086 126.681 62.5722 126.268 62.5749C126.067 62.585 125.865 62.5547 125.675 62.4856C125.485 62.4166 125.311 62.3102 125.163 62.1729C125.015 62.0355 124.896 61.8699 124.813 61.6858C124.73 61.5017 124.685 61.3028 124.68 61.1009C124.688 60.6887 124.856 60.2958 125.149 60.0059C125.443 59.716 125.837 59.552 126.25 59.5488C126.452 59.5386 126.653 59.5689 126.843 59.638C127.033 59.707 127.208 59.8134 127.356 59.9509C127.504 60.0883 127.623 60.2541 127.707 60.4383C127.79 60.6226 127.835 60.8216 127.84 61.0237Z" fill="#263238"/>
<path d="M129.789 56.2231C129.586 56.4237 128.414 55.502 126.712 55.4565C125.012 55.3869 123.737 56.2264 123.558 56.0124C123.47 55.9175 123.681 55.551 124.237 55.1708C124.988 54.6818 125.872 54.4372 126.768 54.4708C127.654 54.4934 128.509 54.7973 129.21 55.3385C129.722 55.7554 129.888 56.1337 129.789 56.2231Z" fill="#263238"/>
<path d="M113.059 60.5382C113.051 60.9507 112.882 61.3436 112.589 61.6334C112.295 61.9231 111.9 62.0868 111.488 62.0894C111.286 62.0995 111.084 62.0692 110.894 62.0001C110.705 61.9311 110.53 61.8248 110.382 61.6875C110.234 61.5502 110.115 61.3846 110.032 61.2005C109.949 61.0165 109.904 60.8176 109.898 60.6157C109.907 60.2034 110.075 59.8105 110.369 59.5206C110.662 59.2307 111.057 59.0667 111.469 59.0634C111.671 59.0533 111.873 59.0836 112.063 59.1527C112.253 59.2218 112.427 59.3281 112.575 59.4656C112.723 59.603 112.842 59.7687 112.926 59.953C113.009 60.1372 113.054 60.3362 113.059 60.5382Z" fill="#263238"/>
<path d="M113.695 56.2232C113.493 56.4236 112.319 55.5021 110.618 55.457C108.918 55.3871 107.643 56.2263 107.465 56.0126C107.377 55.9177 107.585 55.5515 108.143 55.1713C108.894 54.6818 109.779 54.4371 110.674 54.4708C111.56 54.4936 112.415 54.7975 113.116 55.3385C113.626 55.7554 113.794 56.1337 113.695 56.2232Z" fill="#263238"/>
<path d="M118.502 67.6291C119.407 67.3744 120.341 67.2339 121.281 67.2108C121.717 67.1787 122.131 67.1045 122.213 66.8101C122.263 66.3622 122.175 65.9097 121.961 65.5132C121.583 64.4497 121.186 63.334 120.772 62.166C119.124 57.4017 117.946 53.4889 118.138 53.4246C118.33 53.3599 119.822 57.1692 121.469 61.9336C121.865 63.108 122.243 64.2298 122.603 65.299C122.861 65.8314 122.924 66.4378 122.779 67.0114C122.711 67.1629 122.61 67.2969 122.483 67.4034C122.356 67.5099 122.206 67.5861 122.046 67.6261C121.803 67.6844 121.554 67.7116 121.304 67.7071C120.371 67.8 119.429 67.7738 118.502 67.6291Z" fill="#263238"/>
<path d="M120.054 87.8818C114.244 87.8007 108.57 86.1084 103.664 82.9932C103.664 82.9932 107.496 91.7434 119.874 90.9498L120.054 87.8818Z" fill="#6F4439"/>
<path d="M112.743 71.0239C112.976 70.689 113.288 70.4171 113.652 70.2325C114.016 70.0479 114.42 69.9564 114.828 69.9661C115.401 69.9404 115.972 70.0693 116.479 70.3392C116.985 70.6091 117.411 71.0101 117.71 71.5004C117.919 71.9538 117.95 72.4692 117.798 72.9446C117.683 73.1858 117.77 73.0682 117.575 73.2306C116.918 73.8662 116.116 74.3318 115.238 74.5871C114.766 74.6906 114.273 74.6496 113.824 74.4694C113.375 74.2892 112.991 73.978 112.721 73.5765C112.491 73.1897 112.371 72.7472 112.375 72.2971C112.379 71.8471 112.506 71.4067 112.743 71.0239Z" fill="#6F4439"/>
<path d="M113.15 68.7132C113.427 68.7037 113.388 70.5518 114.938 71.9003C116.486 73.2533 118.461 73.092 118.469 73.3507C118.492 73.4672 118.022 73.6995 117.191 73.7023C116.108 73.6925 115.063 73.3008 114.241 72.5964C113.451 71.9194 112.956 70.9621 112.86 69.9267C112.807 69.1529 113.024 68.6997 113.15 68.7132Z" fill="#263238"/>
<path d="M113.942 48.8023C113.788 49.2696 112.082 49.0988 110.092 49.3965C108.095 49.6537 106.502 50.2838 106.225 49.8763C106.101 49.6813 106.369 49.2377 107.008 48.7712C107.861 48.1975 108.834 47.8256 109.853 47.6838C110.872 47.542 111.91 47.634 112.887 47.9528C113.629 48.2275 114.008 48.5806 113.942 48.8023Z" fill="#263238"/>
<path d="M129.459 50.1514C129.104 50.5192 127.817 50.0473 126.245 49.9423C124.676 49.7884 123.325 50.0432 123.04 49.6226C122.916 49.419 123.148 49.0439 123.75 48.7099C124.569 48.2997 125.487 48.1298 126.399 48.2197C127.31 48.2788 128.185 48.5968 128.921 49.1362C129.456 49.5633 129.617 49.9708 129.459 50.1514Z" fill="#263238"/>
<path d="M120.567 32.5098C120.582 32.6 120.592 32.6907 120.606 32.7809L120.562 32.7958C120.564 32.7006 120.565 32.6052 120.567 32.5098Z" fill="#263238"/>
<path d="M96.0041 60.9841C96.029 60.5986 95.9143 60.217 95.681 59.909C95.4477 59.6011 95.1114 59.3874 94.7335 59.3069C92.7409 58.8833 89.2103 58.8767 88.8598 63.8887C88.3748 70.8225 95.4362 69.8791 95.4622 69.6812C95.4822 69.5278 95.8428 63.6324 96.0041 60.9841Z" fill="#C17560"/>
<path d="M93.5299 66.9064C93.5008 66.882 93.4029 66.9825 93.1921 67.0619C92.8964 67.1644 92.5724 67.1484 92.2881 67.0173C91.8604 66.7018 91.5242 66.2782 91.3141 65.7899C91.1041 65.3017 91.0277 64.7664 91.0927 64.2389C91.1168 63.6432 91.2736 63.0605 91.5518 62.5333C91.6319 62.3212 91.7624 62.1318 91.932 61.9813C92.1015 61.8308 92.3051 61.7239 92.5252 61.6696C92.6666 61.6425 92.813 61.6658 92.9389 61.7354C93.0649 61.805 93.1626 61.9165 93.2149 62.0506C93.2944 62.2508 93.2405 62.3862 93.2766 62.4006C93.2948 62.4195 93.4334 62.2949 93.3976 62.0046C93.371 61.8302 93.2854 61.6702 93.1552 61.5512C92.9745 61.3935 92.7391 61.3133 92.4997 61.3279C92.2111 61.3643 91.9366 61.4741 91.7025 61.6469C91.4684 61.8197 91.2825 62.0496 91.1625 62.3147C90.8254 62.8944 90.6352 63.5478 90.6086 64.218C90.5553 65.6183 91.1791 66.9758 92.1612 67.3355C92.3436 67.4027 92.5387 67.428 92.7321 67.4097C92.9256 67.3913 93.1124 67.3297 93.2788 67.2293C93.5055 67.073 93.5529 66.9207 93.5299 66.9064Z" fill="#6F4439"/>
<path d="M135.126 53.997C134.478 54.011 133.835 53.8783 133.245 53.609C132.656 53.3397 132.135 52.9407 131.721 52.4418C131.307 51.9429 131.011 51.3569 130.856 50.7277C130.7 50.0984 130.688 49.4421 130.822 48.8078C130.123 48.8232 129.429 48.6747 128.797 48.3742C128.166 48.0737 127.613 47.6295 127.183 47.0771C126.754 46.5248 126.46 45.8796 126.324 45.1932C126.189 44.5068 126.216 43.7982 126.403 43.1241C125.649 43.4942 124.821 43.6889 123.981 43.6939C123.141 43.6988 122.311 43.5138 121.553 43.1527C120.795 42.7916 120.128 42.2637 119.602 41.6085C119.076 40.9534 118.706 40.1879 118.518 39.3692C118.501 39.65 118.411 39.9215 118.257 40.157C118.103 40.3924 117.891 40.5836 117.64 40.7117C117.134 40.9618 116.567 41.0617 116.007 40.9997C115.082 40.922 114.196 40.5998 113.437 40.0661C112.679 39.5325 112.076 38.8066 111.69 37.963C111.103 38.8899 110.208 39.5813 109.164 39.9168C108.119 40.2523 106.989 40.2108 105.971 39.7993C105.237 39.4769 104.522 38.7934 104.647 38.0011C104.71 37.7138 104.832 37.443 105.008 37.2068C107.111 34.0163 110.942 32.2611 114.749 31.9262C118.579 31.7488 122.405 32.3664 125.984 33.7401C128.159 34.3384 130.168 35.4242 131.86 36.9151C133.575 38.6224 134.454 40.9736 135.284 43.2466C135.942 44.8827 136.44 46.5785 136.771 48.3104C137.101 50.0534 136.918 51.8546 136.245 53.4957L135.767 53.5368" fill="#263238"/>
<path d="M105.979 37.8697C105.927 39.3615 105.365 40.7904 104.387 41.9179C103.409 43.0454 102.073 43.8034 100.604 44.0653C101.363 44.3524 101.986 44.9144 102.35 45.6398C102.714 46.3652 102.792 47.2009 102.568 47.981C102.345 48.7611 101.836 49.4286 101.143 49.8509C100.45 50.2732 99.6231 50.4195 98.8272 50.2607C99.3107 51.2429 99.5849 52.3147 99.6324 53.4084C99.6455 53.9556 99.4918 54.4938 99.1918 54.9515C98.8917 55.4093 98.4594 55.7649 97.9524 55.9711C98.2922 56.3298 98.5415 56.7643 98.6798 57.2385C98.8182 57.7128 98.8415 58.2132 98.7479 58.6983C98.614 59.2648 98.2915 59.7689 97.8335 60.1281C97.3755 60.4874 96.809 60.6804 96.2269 60.6755C95.1953 60.6755 94.38 59.4226 93.3663 59.2314C92.6067 59.0952 91.8256 59.1409 91.0871 59.3648C90.3486 59.5887 89.6736 59.9845 89.1175 60.5196L87.8438 47.5862L89.4097 37.2213L95.4622 32.7959L107.128 34.8802L105.979 37.8697Z" fill="#263238"/>
<path d="M86.5547 38.2266C86.9658 38.2119 87.3753 38.1666 87.7797 38.0909C88.2999 37.9606 88.7814 37.7077 89.1839 37.3534C89.5865 36.9991 89.8985 36.5536 90.0939 36.0542L90.3806 35.2822L90.4961 36.1015C90.6507 37.105 91.1829 38.0115 91.9839 38.6355C92.441 38.995 92.9763 39.2418 93.5465 39.3559C94.1167 39.4701 94.7058 39.4484 95.2661 39.2926C96.0077 39.1038 96.6762 38.6981 97.186 38.1273L97.4098 37.8703L97.5928 38.1561C98.2253 39.132 99.156 39.8774 100.246 40.2815C101.121 40.6024 102.065 40.6876 102.983 40.5283C103.816 40.3462 104.616 40.0395 105.357 39.6185C105.374 39.6388 105.208 39.8256 104.834 40.0852C104.292 40.4508 103.686 40.7107 103.047 40.8514C102.069 41.0737 101.049 41.0211 100.098 40.6995C98.8959 40.2899 97.8638 39.492 97.1646 38.4314L97.5712 38.4602C96.9988 39.1152 96.2412 39.5811 95.3984 39.7963C94.7611 39.9721 94.0911 39.9935 93.4439 39.8588C92.7966 39.724 92.1909 39.437 91.6767 39.0214C90.7898 38.3105 90.2174 37.2798 90.0826 36.1511L90.4846 36.1984C90.2573 36.7478 89.8945 37.2307 89.4301 37.6021C88.9658 37.9734 88.4149 38.2212 87.829 38.3221C87.4053 38.4314 86.9574 38.3978 86.5547 38.2266Z" fill="#455A64"/>
<path d="M104.732 24.6562C103.85 25.0763 102.992 25.5463 102.163 26.0641C101.314 26.6593 100.655 27.488 100.267 28.4497C100.031 29.0159 99.956 29.6367 100.051 30.2429C100.147 30.8491 100.409 31.417 100.808 31.8832C101.083 32.1944 101.43 32.4337 101.819 32.5804L102.125 32.6934L101.949 32.9646C101.687 33.4325 101.545 33.958 101.536 34.4941C101.527 35.0301 101.651 35.5601 101.897 36.0366C102.297 36.8393 102.877 37.5383 103.592 38.0786C104.816 39.023 105.666 39.4841 105.62 39.5574C105.604 39.5855 105.381 39.4973 104.99 39.3041C104.431 39.029 103.894 38.7108 103.384 38.3524C102.585 37.8136 101.932 37.085 101.483 36.2319C101.187 35.686 101.035 35.0738 101.041 34.4529C101.047 33.8319 101.21 33.2227 101.517 32.6826L101.646 33.0665C101.175 32.8938 100.753 32.6067 100.42 32.231C99.958 31.6949 99.6564 31.0392 99.5503 30.3394C99.4442 29.6395 99.5378 28.924 99.8203 28.275C100.259 27.2399 101.003 26.3631 101.953 25.7617C102.571 25.3607 103.242 25.0458 103.945 24.8254C104.194 24.718 104.461 24.6605 104.732 24.6562Z" fill="#455A64"/>
<path d="M142.368 66.0564C142.374 66.0732 142.292 66.118 142.126 66.189C141.879 66.2813 141.62 66.3405 141.357 66.3651C140.366 66.4549 139.378 66.1651 138.593 65.5544C138.138 65.1728 137.776 64.6932 137.532 64.1515C137.289 63.6098 137.172 63.0201 137.189 62.4266C137.207 61.8331 137.358 61.2512 137.633 60.7247C137.907 60.1981 138.297 59.7405 138.773 59.3862C139.171 59.0924 139.648 58.927 140.142 58.9119C140.41 58.9077 140.675 58.9659 140.916 59.0818C141.158 59.1978 141.369 59.3684 141.533 59.5801C141.688 59.8055 141.779 60.0694 141.795 60.3429C141.811 60.6164 141.752 60.8891 141.623 61.1312C141.401 61.571 141.055 61.9362 140.628 62.1817C139.834 62.6054 138.913 62.7257 138.037 62.5201C137.26 62.3461 136.544 61.9695 135.961 61.4287C135.466 60.9524 135.084 60.3715 134.843 59.7285C134.504 58.8116 134.412 57.8219 134.574 56.858C134.604 56.5043 134.709 56.161 134.881 55.8506C134.924 55.8622 134.826 56.2228 134.775 56.8819C134.696 57.8047 134.837 58.733 135.185 59.5913C135.427 60.1687 135.791 60.6868 136.252 61.11C136.788 61.581 137.437 61.9052 138.136 62.0507C138.893 62.2167 139.685 62.1074 140.369 61.7424C141.022 61.3771 141.566 60.4897 141.112 59.8866C140.996 59.7416 140.848 59.6252 140.68 59.546C140.512 59.4669 140.328 59.4272 140.143 59.43C139.754 59.4437 139.378 59.5746 139.064 59.8055C138.432 60.2595 137.977 60.9195 137.779 61.6721C137.585 62.3081 137.58 62.9869 137.766 63.6255C137.951 64.264 138.319 64.8346 138.824 65.2675C139.533 65.8541 140.426 66.1713 141.346 66.1628C142.001 66.1551 142.353 66.0083 142.368 66.0564Z" fill="#263238"/>
<path d="M87.7985 57.3409C87.536 57.5605 87.2313 57.7239 86.9032 57.8212C86.0281 58.1433 85.1016 58.3028 84.1692 58.2918C82.7804 58.2989 81.4029 58.043 80.1094 57.5375C79.7055 57.3756 79.3396 57.1314 79.0351 56.8206C78.7305 56.5098 78.4939 56.1391 78.3402 55.7319C78.1736 55.2707 78.1808 54.7647 78.3603 54.3083C78.461 54.0749 78.6079 53.8642 78.7922 53.689C78.9765 53.5138 79.1944 53.3776 79.4327 53.2888C79.7257 53.182 80.045 53.1708 80.3448 53.2569L80.1587 53.7407C79.4124 53.3531 78.7984 52.7521 78.3948 52.0143C77.9912 51.2765 77.8163 50.4353 77.8924 49.5978C77.9534 48.8702 78.2317 48.1777 78.6911 47.61C79.0928 47.1328 79.5976 46.7531 80.1674 46.4993C80.9768 46.1263 81.8874 46.0333 82.7556 46.2349C83.0729 46.2875 83.3709 46.4226 83.6195 46.6267C83.6001 46.6692 83.2985 46.5166 82.7178 46.427C81.8969 46.3114 81.0603 46.4494 80.3201 46.8226C79.7734 47.0758 79.3039 47.4698 78.9597 47.9643C78.6155 48.4587 78.409 49.0359 78.3615 49.6364C78.3081 50.3728 78.4707 51.1088 78.8292 51.7542C79.1877 52.3997 79.7266 52.9266 80.38 53.2704L80.1938 53.7543C80.0005 53.701 79.7953 53.7097 79.6073 53.7794C79.4367 53.8445 79.2808 53.9427 79.1485 54.0684C79.0163 54.1942 78.9103 54.3449 78.8367 54.5119C78.7057 54.8522 78.7014 55.2282 78.8245 55.5713C78.9541 55.9148 79.1529 56.2279 79.4086 56.4913C79.6644 56.7546 79.9716 56.9625 80.3111 57.1021C81.541 57.6 82.8489 57.8781 84.175 57.9236C85.4082 57.9515 86.6362 57.754 87.7985 57.3409Z" fill="#263238"/>
<path d="M135.461 150.199C135.775 150.671 146.934 165.661 146.934 165.661L160.436 153.124L151.795 131.353L146.611 122.476L135.461 150.199Z" fill="#C17560"/>
<g opacity="0.3">
<path d="M91.5273 284.769L85.8903 284.657L83.8893 235.706L71.6562 230.513L93.8883 216.821L153.187 258.735L165.024 284.769H91.5273Z" fill="black"/>
</g>
<path d="M130.598 267.947C130.554 267.97 141.058 287.772 141.058 287.772L156.594 279.118L149.765 257.521L130.598 267.947Z" fill="#C17560"/>
<path d="M139.293 285.076C139.293 285.076 155.266 285.566 155.615 275.265L156.469 277.336L180.33 293.024C184.124 295.723 183.822 298.813 182.822 300.396C182.456 300.984 181.93 301.454 181.305 301.752C180.681 302.049 179.984 302.162 179.297 302.075C171.876 301.128 144.595 297.507 143.22 295.308L141.799 293.389C139.525 290.696 138.776 287.392 139.538 286.19L139.293 285.076Z" fill="#263238"/>
<g opacity="0.6">
<path d="M182.417 300.93L141.805 293.389L142.697 294.593C143.545 295.987 144.497 296.084 145.735 296.466C149.403 297.599 158.59 299.412 179.217 302.139C179.809 302.217 180.411 302.148 180.969 301.937C181.527 301.726 182.025 301.38 182.417 300.93Z" fill="white"/>
</g>
<g opacity="0.6">
<path d="M144.644 288.226C145.184 288.224 145.705 288.421 146.109 288.78C146.512 289.139 146.769 289.634 146.831 290.17C146.853 290.71 146.667 291.237 146.312 291.643C145.957 292.05 145.46 292.305 144.922 292.356C144.35 292.357 143.798 292.146 143.372 291.763C142.946 291.381 142.677 290.854 142.617 290.284C142.659 289.208 143.796 288.026 144.854 288.232" fill="white"/>
</g>
<path d="M163.447 291.419C163.666 291.378 163.204 289.414 164.302 287.361C165.338 285.275 167.205 284.513 167.111 284.31C167.084 284.222 166.56 284.268 165.826 284.667C164.881 285.22 164.113 286.031 163.611 287.004C163.109 287.978 162.894 289.074 162.992 290.165C163.092 290.995 163.359 291.448 163.447 291.419Z" fill="white"/>
<path d="M167.977 293.117C168.203 293.14 168.431 291.54 169.589 290.029C170.715 288.493 172.186 287.826 172.101 287.615C172.076 287.409 170.26 287.819 168.968 289.564C167.657 291.293 167.772 293.15 167.977 293.117Z" fill="white"/>
<path d="M158.313 289.541C158.516 289.572 158.809 287.437 160.193 285.263C161.543 283.067 163.336 281.869 163.219 281.701C163.162 281.54 161.076 282.554 159.622 284.905C158.144 287.241 158.143 289.56 158.313 289.541Z" fill="white"/>
<path d="M158.868 283.235C158.9 283.202 158.607 282.819 157.924 282.285C156.947 281.533 155.83 280.983 154.638 280.667C153.786 280.359 152.857 280.34 151.993 280.613C151.717 280.73 151.484 280.929 151.326 281.183C151.168 281.438 151.091 281.735 151.108 282.034C151.176 282.613 151.455 283.147 151.892 283.534C152.815 284.287 153.972 284.696 155.164 284.688C156.356 284.681 157.508 284.259 158.422 283.494C159.309 282.719 159.946 281.699 160.252 280.562C160.558 279.424 160.519 278.222 160.141 277.107C160.044 276.827 159.888 276.57 159.683 276.356C159.479 276.141 159.23 275.974 158.955 275.864C158.665 275.782 158.357 275.793 158.074 275.896C157.792 275.999 157.549 276.189 157.38 276.439C156.926 277.205 156.682 278.078 156.673 278.969C156.575 280.194 156.696 281.427 157.03 282.61C157.113 283.053 157.291 283.473 157.551 283.842C157.205 282.261 157.093 280.637 157.219 279.023C157.26 278.249 157.49 277.497 157.89 276.833C157.979 276.694 158.111 276.589 158.265 276.531C158.419 276.474 158.588 276.468 158.746 276.514C158.921 276.6 159.076 276.721 159.202 276.869C159.328 277.018 159.422 277.191 159.478 277.377C159.775 278.349 159.786 279.387 159.511 280.365C159.236 281.344 158.685 282.223 157.924 282.897C157.149 283.541 156.179 283.902 155.172 283.923C154.165 283.944 153.181 283.622 152.381 283.011C152.069 282.75 151.86 282.387 151.79 281.987C151.776 281.822 151.815 281.656 151.9 281.514C151.986 281.372 152.114 281.261 152.267 281.196C152.996 280.967 153.779 280.969 154.507 281.2C156.069 281.617 157.546 282.305 158.868 283.235Z" fill="white"/>
<path d="M96.8984 293.99C96.9724 294 97.0863 318.418 97.0863 318.418C97.0863 318.418 114.015 321.073 114.015 320.639C114.015 320.206 119.018 296.871 119.018 296.871L96.8984 293.99Z" fill="#C17560"/>
<path d="M115.386 313.854C115.386 313.854 103.076 323.125 97.0476 314.765L96.8093 316.995L85.7329 343.314C84.0849 347.67 86.0572 350.068 87.7703 350.825C88.4011 351.11 89.1003 351.207 89.7848 351.106C90.4694 351.006 91.1107 350.711 91.6326 350.256C97.2677 345.336 117.907 327.132 117.824 324.54L117.935 322.155C118.323 318.651 117.106 315.49 115.803 314.917L115.386 313.854Z" fill="#263238"/>
<g opacity="0.6">
<path d="M88.4102 351.042L117.937 322.155L117.867 323.653C117.939 325.282 117.202 325.894 116.387 326.901C113.972 329.885 107.352 336.508 91.7411 350.263C91.2931 350.657 90.7546 350.935 90.1734 351.071C89.5923 351.207 88.9865 351.197 88.4102 351.042Z" fill="white"/>
</g>
<g opacity="0.6">
<path d="M112.697 319.451C112.247 319.75 111.924 320.205 111.789 320.728C111.653 321.25 111.716 321.805 111.964 322.284C112.246 322.744 112.694 323.079 113.215 323.219C113.736 323.359 114.291 323.293 114.766 323.036C115.242 322.718 115.583 322.235 115.724 321.68C115.864 321.125 115.794 320.538 115.526 320.032C115.183 319.582 114.678 319.283 114.118 319.197C113.559 319.111 112.988 319.246 112.525 319.573" fill="white"/>
</g>
<path d="M98.8637 332.575C98.6592 332.663 97.9486 330.775 95.8931 329.681C93.8707 328.526 91.895 328.933 91.8605 328.713C91.8338 328.625 92.2942 328.371 93.1265 328.293C94.2196 328.226 95.3092 328.472 96.2682 329C97.2272 329.529 98.0161 330.32 98.543 331.28C98.9217 332.025 98.9525 332.55 98.8637 332.575Z" fill="white"/>
<path d="M96.0481 336.509C95.873 336.653 94.7923 335.452 92.9889 334.842C91.1986 334.194 89.605 334.459 89.5583 334.236C89.4645 334.052 91.2007 333.381 93.2458 334.109C95.2977 334.815 96.2365 336.422 96.0481 336.509Z" fill="white"/>
<path d="M102.082 328.157C101.932 328.296 100.498 326.685 98.1382 325.651C95.7936 324.58 93.6379 324.583 93.6412 324.379C93.5991 324.213 95.8961 323.893 98.4135 325.036C100.942 326.152 102.234 328.078 102.082 328.157Z" fill="white"/>
<path d="M98.105 323.229C98.0918 322.778 98.1789 322.329 98.3601 321.915C98.7529 320.746 99.3742 319.667 100.188 318.74C100.723 318.01 101.485 317.476 102.354 317.222C102.649 317.166 102.953 317.201 103.226 317.324C103.499 317.447 103.728 317.651 103.881 317.909C104.147 318.428 104.213 319.027 104.065 319.591C103.719 320.731 102.985 321.715 101.991 322.373C100.998 323.031 99.8055 323.322 98.6203 323.196C97.4522 323.047 96.3547 322.554 95.4672 321.78C94.5796 321.006 93.9419 319.986 93.635 318.849C93.5591 318.562 93.546 318.263 93.5965 317.971C93.647 317.678 93.7599 317.401 93.9276 317.156C94.1223 316.926 94.3844 316.764 94.6767 316.693C94.969 316.621 95.2765 316.643 95.5553 316.756C96.3594 317.14 97.0481 317.729 97.5522 318.463C98.3158 319.426 98.9021 320.518 99.2837 321.686C99.4613 322.101 99.5478 322.549 99.5374 323C98.9442 321.494 98.1326 320.083 97.1288 318.813C96.6636 318.193 96.0533 317.697 95.3514 317.368C95.2003 317.303 95.0321 317.288 94.872 317.326C94.7119 317.364 94.5684 317.453 94.4631 317.58C94.3658 317.749 94.3043 317.935 94.2825 318.129C94.2606 318.322 94.2789 318.518 94.3362 318.704C94.631 319.677 95.1991 320.545 95.973 321.204C96.747 321.864 97.694 322.287 98.7015 322.423C99.7033 322.526 100.71 322.286 101.558 321.742C102.406 321.198 103.044 320.383 103.368 319.43C103.482 319.039 103.454 318.621 103.289 318.25C103.208 318.105 103.084 317.989 102.933 317.919C102.783 317.849 102.615 317.828 102.452 317.859C101.719 318.075 101.07 318.512 100.594 319.11C99.5282 320.326 98.6857 321.721 98.105 323.229Z" fill="white"/>
<path d="M74.7344 100.714L95.8454 92.5889C95.8454 92.5889 101.167 101.779 110.542 100.977C120.133 100.157 119.83 93.1602 119.83 93.1602L146.36 100.688C146.36 100.688 148.108 136.56 146.36 142.165C144.613 147.769 139.639 155.056 139.639 155.056C139.639 155.056 144.882 167.247 145.016 170.61C145.15 173.973 143.672 173.132 143.672 173.132L79.6636 173.9L74.7344 100.714Z" fill="#4DAF4E"/>
<g opacity="0.3">
<path d="M131.031 137.468C130.211 136.728 128.92 137.224 127.948 137.748C122.431 140.728 116.906 143.714 111.671 147.166C105.069 151.521 98.971 156.593 92.5068 161.15C88.6969 163.836 84.7664 166.339 80.7151 168.659L79.3398 171.054C80.7955 173.423 83.8107 174.494 86.5831 174.276C89.3526 173.911 91.9921 172.879 94.275 171.269C105.14 164.391 112.791 153.26 123.657 146.382C126.345 144.681 129.336 143.133 130.966 140.402C131.511 139.49 131.819 138.18 131.031 137.468Z" fill="black"/>
</g>
<path d="M133.503 154.456C132.629 154.578 131.747 154.626 130.865 154.597C129.238 154.64 126.993 154.721 124.521 154.905C122.047 155.092 119.815 155.346 118.2 155.547C117.332 155.706 116.453 155.791 115.57 155.801C116.402 155.498 117.266 155.291 118.145 155.183C122.342 154.439 126.604 154.12 130.865 154.229C131.75 154.205 132.635 154.281 133.503 154.456Z" fill="#263238"/>
<path d="M65.125 144.162C65.125 144.162 71.0357 160.84 73.6535 165.091C76.2713 169.341 77.3899 174.823 85.7795 172.585C94.169 170.348 98.43 164.882 107.603 157.358C116.775 149.833 122.694 144.162 122.694 144.162L116.235 136.342L89.4709 148.535L83.0948 134.553L65.125 144.162Z" fill="#C17560"/>
<path d="M146.051 119.119L127.658 128.817L112.609 138.404C112.609 138.404 120.086 145.02 122.193 144.858C124.3 144.696 127.163 141.778 127.163 141.778C127.279 142.05 127.449 142.295 127.663 142.499C127.876 142.704 128.129 142.863 128.406 142.967C129.324 143.291 130.404 142.21 130.404 142.21C131.043 142.46 131.718 142.606 132.403 142.643C133.322 142.643 134.391 139.12 134.931 136.797C135.123 136.23 135.19 135.629 135.126 135.034C135.063 134.438 134.871 133.864 134.564 133.351L135.282 132.936L136.296 134.71L134.726 140.32C133.895 143.398 136.869 142.98 136.869 142.98C136.869 142.98 140.143 137.289 140.477 134.056C140.812 130.824 137.579 128.761 137.579 128.761C137.579 128.761 144.379 122.909 146.051 121.794C147.723 120.68 146.051 119.119 146.051 119.119Z" fill="#C17560"/>
<path d="M87.256 160.785C86.9313 160.218 86.7264 159.592 86.654 158.943C86.0959 155.81 86.7838 152.584 88.5709 149.952C88.9016 149.389 89.3443 148.9 89.8717 148.516C88.5897 150.258 87.6933 152.253 87.2423 154.368C86.7913 156.484 86.796 158.671 87.256 160.785Z" fill="#6F4439"/>
<path d="M75.8188 100.288C75.8188 100.288 63.9983 103.779 61.7132 116.25C60.3511 123.684 63.6409 147.817 63.6409 147.817L86.4891 139.316L75.8188 100.288Z" fill="#4DAF4E"/>
<path d="M79.6602 116.87C80.0403 117.969 80.3431 119.093 80.5662 120.235C81.1018 122.465 81.7786 125.283 82.5271 128.399C83.3044 131.584 84.0427 134.458 84.6184 136.525C84.9773 137.629 85.2804 138.75 85.5264 139.885C85.3519 139.623 85.2162 139.337 85.1236 139.036C84.8882 138.479 84.6054 137.654 84.2658 136.631C83.5972 134.582 82.8 131.714 82.0212 128.523C81.2407 125.332 80.6193 122.425 80.2064 120.313C79.9313 119.182 79.7487 118.031 79.6602 116.87Z" fill="#263238"/>
<path d="M80.3561 173.899C80.3561 173.899 65.2579 191.597 65.6156 205.891C65.8506 214.521 68.1617 222.966 72.353 230.513L92.3706 231.689C92.3706 231.689 94.1496 222.143 101.307 222.143C102.858 222.143 128.956 272.136 128.956 272.136L154.526 260.447C154.526 260.447 137.71 216.274 133.595 205.891C129.481 195.509 125.625 190.5 120.129 189.015L114.004 173.518L80.3561 173.899Z" fill="#263238"/>
<path d="M84.5817 191.008C84.5576 191.096 83.6375 190.841 82.1244 190.724C80.158 190.566 78.1798 190.801 76.305 191.415C74.4342 192.033 72.731 193.074 71.3275 194.457C70.2635 195.534 69.7602 196.348 69.6771 196.294C69.6465 196.276 69.7514 196.061 69.9702 195.686C70.2834 195.157 70.6486 194.66 71.0604 194.204C72.441 192.688 74.1913 191.557 76.1402 190.921C78.0788 190.277 80.1386 190.085 82.1629 190.358C83.0026 190.423 83.8228 190.643 84.5817 191.008Z" fill="#455A64"/>
<path d="M109.058 187.292C108.799 185.015 108.712 182.723 108.798 180.433C108.711 178.144 108.799 175.851 109.058 173.574C109.318 175.851 109.405 178.144 109.319 180.433C109.405 182.723 109.318 185.015 109.058 187.292Z" fill="#455A64"/>
<path d="M91.4276 173.518C91.3873 173.798 91.2978 174.069 91.1632 174.318C90.8563 175.021 90.487 175.694 90.0597 176.331C88.6473 178.46 86.7204 180.197 84.4576 181.383C82.1948 182.569 79.6693 183.164 77.1152 183.114C76.3485 183.102 75.5844 183.022 74.8319 182.875C74.5505 182.844 74.2768 182.763 74.0234 182.637C74.0387 182.545 75.2112 182.794 77.1135 182.745C79.5902 182.696 82.0216 182.071 84.2158 180.922C86.4101 179.772 88.3073 178.128 89.7579 176.12C90.881 174.584 91.3437 173.478 91.4276 173.518Z" fill="#455A64"/>
<path d="M144.213 173.132C149.527 178.876 153.101 186.01 154.521 193.705C156.592 206.096 156.718 222.262 153.191 228.242L143.093 230.513L134.205 239.524L121.615 308.065L93.0264 304.14C93.0264 304.14 90.3507 244.584 91.2707 238.91C92.1908 233.237 92.3663 231.689 92.3663 231.689C92.3663 231.689 91.7307 222.35 98.4776 215.603C103.644 210.655 109.125 206.045 114.885 201.803L114 173.518L144.213 173.132Z" fill="#263238"/>
<path d="M150.461 182.857C150.169 183.03 149.855 183.162 149.528 183.251C145.693 184.473 141.535 184.17 137.917 182.406C137.144 181.992 136.419 181.494 135.756 180.92C135.112 180.384 134.512 179.841 133.958 179.306C132.983 178.356 132.06 177.355 131.192 176.306C130.449 175.415 129.875 174.674 129.487 174.157C129.263 173.903 129.074 173.621 128.926 173.317C129.826 174.183 130.675 175.1 131.469 176.064C132.244 176.918 133.178 177.923 134.289 178.958C135.452 180.11 136.752 181.114 138.161 181.946C140.834 183.268 143.829 183.803 146.794 183.488C149.079 183.28 150.431 182.755 150.461 182.857Z" fill="#455A64"/>
<path d="M92.3678 231.69C92.3678 231.69 92.4088 231.361 92.523 230.722C92.5798 230.322 92.6729 229.929 92.8012 229.547C92.9465 229.008 93.1411 228.483 93.3826 227.98C94.0164 226.539 94.9924 225.274 96.2257 224.295C97.9168 222.957 99.9552 222.13 102.101 221.913L102.18 221.904L102.221 221.981C108.138 232.969 117.677 250.683 129.168 272.022L128.852 271.915C136.795 268.279 145.43 264.326 154.415 260.212L154.281 260.542C152.975 257.211 151.589 253.676 150.186 250.099C145.34 237.726 140.694 225.862 136.402 214.903C134.26 209.423 132.207 204.169 130.261 199.191C129.393 196.769 127.957 194.589 126.074 192.835C124.311 191.196 122.169 190.02 119.84 189.412L119.821 189.407C114.342 187.821 108.64 187.142 102.941 187.397C98.6161 187.58 94.3294 188.291 90.1763 189.513C87.5402 190.292 84.9664 191.268 82.4763 192.432C81.6209 192.834 80.9868 193.18 80.5487 193.391C80.1137 193.607 79.8828 193.705 79.8828 193.705C79.8828 193.705 80.094 193.572 80.5202 193.338C80.9494 193.11 81.5756 192.745 82.4247 192.326C84.9021 191.113 87.4724 190.099 90.1112 189.295C99.8205 186.347 110.172 186.252 119.935 189.019L119.916 189.015C122.324 189.628 124.54 190.832 126.364 192.518C128.302 194.311 129.783 196.542 130.683 199.025C132.639 203.998 134.704 209.248 136.857 214.723C141.158 225.679 145.815 237.54 150.67 249.909C152.073 253.487 153.458 257.022 154.764 260.353L154.853 260.582L154.63 260.683C145.64 264.787 137.002 268.73 129.055 272.358L128.847 272.453L128.739 272.251C117.334 250.867 107.866 233.114 101.993 222.103L102.113 222.171C100.015 222.371 98.0168 223.161 96.3495 224.451C95.1269 225.4 94.1514 226.631 93.5056 228.038C93.2582 228.532 93.0554 229.047 92.8997 229.577C92.7637 229.954 92.6604 230.341 92.5909 230.736C92.4551 231.367 92.3678 231.69 92.3678 231.69Z" fill="#455A64"/>
<path d="M150.459 194.695C150.403 194.78 149.305 194.001 147.334 193.159C146.18 192.672 144.985 192.288 143.764 192.013C140.764 191.339 137.654 191.319 134.647 191.956C133.421 192.217 132.222 192.585 131.062 193.058C129.08 193.875 127.973 194.641 127.918 194.555C128.137 194.326 128.388 194.131 128.663 193.974C128.963 193.757 129.278 193.561 129.606 193.39C130.029 193.142 130.466 192.918 130.915 192.72C132.08 192.188 133.296 191.775 134.543 191.488C137.615 190.781 140.81 190.8 143.872 191.546C145.117 191.848 146.327 192.276 147.485 192.823C147.931 193.026 148.366 193.255 148.786 193.509C149.112 193.684 149.424 193.883 149.721 194.104C149.994 194.265 150.243 194.463 150.459 194.695Z" fill="#455A64"/>
<g opacity="0.3">
<path d="M102.109 222.041C102.109 222.041 109.671 254.373 117.926 263.421C126.18 272.469 128.389 274.374 128.389 274.374L128.956 272.136L102.109 222.041Z" fill="black"/>
</g>
<path d="M146.734 165.395C146.734 165.395 147.565 160.351 150.017 157.504C152.157 155.228 154.486 153.138 156.978 151.255H158.244L161.566 143.814L170.892 143.363C170.892 143.363 168.922 161.538 164.413 167.075C159.905 172.611 155.351 172.308 153.453 171.754C151.555 171.201 146.734 165.395 146.734 165.395Z" fill="#C17560"/>
<path d="M130.648 95.1758L123.287 131.508C123.192 131.976 123.202 132.46 123.317 132.924C123.432 133.389 123.649 133.822 123.952 134.192C124.254 134.562 124.636 134.86 125.068 135.065C125.5 135.27 125.972 135.376 126.45 135.376H177.108C177.842 135.376 178.553 135.126 179.126 134.668C179.698 134.21 180.098 133.57 180.258 132.854L188.399 96.5225C188.505 96.0503 188.503 95.5605 188.394 95.0891C188.285 94.6177 188.072 94.1769 187.769 93.7992C187.467 93.4215 187.083 93.1166 186.647 92.9071C186.211 92.6976 185.733 92.5889 185.249 92.5889H133.812C133.067 92.5889 132.345 92.8464 131.769 93.3179C131.192 93.7894 130.796 94.4458 130.648 95.1758Z" fill="#263238"/>
<path d="M130.65 95.1756C130.667 95.0057 130.706 94.8386 130.767 94.6792C130.931 94.2013 131.209 93.77 131.575 93.4218C132.178 92.8458 132.977 92.5204 133.811 92.5114C134.773 92.5044 135.877 92.4965 137.118 92.4875C142.117 92.4679 149.312 92.4396 158.193 92.4047C162.644 92.395 167.517 92.3843 172.746 92.3729C175.362 92.3687 178.065 92.3643 180.854 92.3599C182.247 92.358 183.661 92.356 185.094 92.3541C185.877 92.3245 186.647 92.5586 187.281 93.0188C187.915 93.479 188.377 94.1387 188.591 94.8923C188.773 95.6543 188.741 96.4518 188.498 97.1967C188.336 97.9232 188.173 98.6539 188.01 99.3889C187.682 100.859 187.35 102.345 187.015 103.848C186.343 106.853 185.659 109.918 184.96 113.044C183.562 119.291 182.115 125.758 180.633 132.382C180.558 132.819 180.431 133.246 180.255 133.653C180.059 134.067 179.782 134.438 179.439 134.742C178.757 135.352 177.864 135.673 176.949 135.636C175.273 135.636 173.608 135.636 171.954 135.635C168.648 135.634 165.393 135.633 162.189 135.631C155.787 135.626 149.611 135.621 143.728 135.616C137.846 135.608 132.256 135.6 127.023 135.592C126.344 135.649 125.661 135.542 125.032 135.279C124.411 134.995 123.888 134.533 123.531 133.951C123.177 133.382 123.001 132.72 123.026 132.051C123.094 131.43 123.202 130.814 123.348 130.207C123.835 127.829 124.303 125.548 124.751 123.366C126.549 114.669 128.005 107.624 129.017 102.729C129.528 100.312 129.926 98.4272 130.202 97.1231C130.34 96.5001 130.447 96.0166 130.524 95.6679C130.599 95.3406 130.65 95.1756 130.65 95.1756C130.65 95.1756 130.634 95.3476 130.576 95.6784C130.511 96.0295 130.421 96.5164 130.305 97.1438C130.052 98.4524 129.685 100.344 129.215 102.769C128.242 107.672 126.841 114.728 125.112 123.439C124.675 125.621 124.218 127.904 123.741 130.287C123.604 130.872 123.501 131.465 123.435 132.063C123.416 132.652 123.573 133.233 123.885 133.732C124.201 134.241 124.661 134.645 125.207 134.893C125.782 135.128 126.405 135.22 127.023 135.16C132.256 135.153 137.846 135.145 143.728 135.136C149.611 135.131 155.787 135.126 162.189 135.121C165.39 135.12 168.645 135.118 171.954 135.117C173.607 135.117 175.272 135.116 176.949 135.116C177.735 135.153 178.505 134.88 179.092 134.354C179.383 134.096 179.619 133.781 179.785 133.428C179.944 133.056 180.058 132.667 180.125 132.268C181.61 125.645 183.061 119.179 184.463 112.933C185.164 109.811 185.853 106.746 186.529 103.739C186.867 102.237 187.202 100.751 187.532 99.2819C187.698 98.5473 187.862 97.8169 188.026 97.0907C188.253 96.424 188.289 95.7068 188.129 95.0207C187.944 94.3663 187.544 93.7933 186.993 93.3945C186.443 92.9957 185.773 92.7945 185.094 92.8235C183.661 92.8216 182.248 92.8197 180.854 92.8178C178.068 92.8133 175.365 92.8089 172.746 92.8047C167.517 92.7933 162.644 92.7827 158.193 92.7729C149.312 92.7381 142.117 92.7098 137.118 92.6902C135.877 92.6812 134.773 92.6732 133.811 92.6663C133.011 92.6628 132.239 92.9597 131.647 93.4984C131.163 93.9524 130.818 94.5338 130.65 95.1756Z" fill="#455A64"/>
<path d="M160.812 111.737C160.812 111.737 166.925 122.136 167.555 123.522C168.186 124.909 170.013 127.02 170.139 128.327C170.265 129.635 171.715 137.135 171.589 139.844C171.362 141.934 170.813 143.976 169.962 145.898L161.569 143.815C160.251 142.608 159.185 141.151 158.434 139.529C157.793 137.802 156.672 136.294 155.204 135.181C154.132 134.362 149.91 131.707 149.41 130.752C149.23 130.441 149.136 130.088 149.136 129.728C149.136 129.369 149.23 129.016 149.41 128.705C149.41 128.705 147.457 127.763 147.137 126.673C146.796 125.512 147.137 123.963 149.343 124.972C151.548 125.98 159.678 131.778 160.497 131.148C161.317 130.517 160.308 128.994 160.308 128.994C160.308 128.994 151.674 121.127 151.233 119.741C150.792 118.355 152.053 116.401 154.069 118.102C156.086 119.804 162.703 126.484 163.396 126.484C164.089 126.484 163.333 124.53 163.333 124.53C163.333 124.53 159.936 117.22 159.366 115.267C158.796 113.313 159.111 110.729 160.812 111.737Z" fill="#C17560"/>
<path d="M188.781 94.7299C188.7 94.7503 188.617 94.7593 188.534 94.7565C188.34 94.7634 188.102 94.7719 187.809 94.7824C187.13 94.7943 186.2 94.8106 185.023 94.8313C182.559 94.8512 179.069 94.8794 174.777 94.914C166.086 94.9337 154.153 94.9606 140.971 94.9903C139.321 94.9899 137.691 94.9894 136.082 94.989C135.716 94.9497 135.347 94.9892 134.998 95.1047C134.65 95.2203 134.33 95.4092 134.06 95.6588C133.802 95.9038 133.606 96.2065 133.488 96.542C133.382 96.8598 133.31 97.2876 133.219 97.6524C132.529 100.686 131.89 103.619 131.294 106.415C130.116 112.004 129.056 117.04 128.161 121.286C127.256 125.518 126.483 128.933 125.92 131.287C125.639 132.429 125.416 133.331 125.254 133.993C125.178 134.275 125.116 134.505 125.066 134.693C125.05 134.774 125.023 134.853 124.985 134.927C124.983 134.844 124.993 134.761 125.014 134.681C125.051 134.49 125.096 134.256 125.151 133.969L125.722 131.242C126.222 128.83 126.93 125.414 127.8 121.211C128.664 116.958 129.688 111.914 130.824 106.316C131.408 103.515 132.037 100.578 132.722 97.5397C132.819 97.1497 132.867 96.8011 133.005 96.3724C133.149 95.9607 133.388 95.589 133.703 95.2877C134.02 94.9926 134.396 94.7674 134.806 94.6267C135.216 94.486 135.65 94.4329 136.082 94.4709C137.689 94.4704 139.319 94.4699 140.971 94.4695C154.153 94.4993 166.086 94.5262 174.777 94.5458C179.069 94.5805 182.559 94.6086 185.023 94.6286L187.809 94.6774C188.102 94.6879 188.34 94.6964 188.534 94.7033C188.617 94.7005 188.7 94.7094 188.781 94.7299Z" fill="#455A64"/>
<path d="M147.953 158.777C147.995 158.493 148.083 158.218 148.213 157.962C148.53 157.249 148.922 156.572 149.383 155.942C150.922 153.829 153.132 152.299 155.652 151.601C156.403 151.404 157.174 151.288 157.949 151.254L157.745 151.371C158.886 149.29 159.766 147.314 160.444 145.97C160.768 145.226 161.144 144.506 161.569 143.814C161.386 144.608 161.109 145.377 160.744 146.106C160.136 147.508 159.349 149.452 158.174 151.646L158.117 151.752L157.969 151.763C157.232 151.803 156.5 151.917 155.786 152.105C153.373 152.782 151.234 154.204 149.675 156.167C148.471 157.672 148.042 158.82 147.953 158.777Z" fill="#6F4439"/>
<path d="M158.823 134.313C157.142 133.593 155.533 132.715 154.018 131.691C152.413 130.814 150.895 129.787 149.484 128.623C151.165 129.343 152.774 130.222 154.289 131.246C155.894 132.123 157.412 133.15 158.823 134.313Z" fill="#6F4439"/>
<path d="M161.528 103.498C161.397 103.792 161.185 104.042 160.915 104.218C160.646 104.394 160.331 104.489 160.009 104.49C159.688 104.492 159.372 104.4 159.101 104.227C158.83 104.053 158.615 103.805 158.482 103.512C158.349 103.219 158.303 102.894 158.35 102.576C158.397 102.257 158.535 101.96 158.748 101.718C158.96 101.476 159.238 101.301 159.547 101.213C159.857 101.126 160.185 101.13 160.493 101.224C160.931 101.39 161.285 101.722 161.479 102.148C161.673 102.574 161.69 103.059 161.528 103.498Z" fill="#E0E0E0"/>
<path d="M86.5789 63.708C86.3247 63.4143 86.1359 63.0699 86.0251 62.6977C85.666 61.6923 85.5819 60.6092 85.7815 59.5605C85.9306 58.7749 86.24 58.0286 86.6905 57.368C87.1409 56.7073 87.7226 56.1466 88.3994 55.7209C89.1958 55.2044 90.1015 54.8807 91.0448 54.7755C91.5537 54.7054 92.0711 54.7294 92.5713 54.8462C92.86 54.9117 93.1251 55.0555 93.3376 55.2618C93.55 55.468 93.7016 55.7287 93.7757 56.0154C93.8069 56.1711 93.8066 56.3316 93.7749 56.4872C93.7432 56.6429 93.6806 56.7907 93.5909 56.9218C93.4261 57.1601 93.205 57.3541 92.9472 57.4865C92.4642 57.7297 91.9147 57.8079 91.383 57.709C90.915 57.6372 90.4719 57.4516 90.0924 57.1685C89.7129 56.8855 89.4087 56.5136 89.2065 56.0855C89.0043 55.6574 88.9102 55.1862 88.9326 54.7133C88.955 54.2404 89.0932 53.7802 89.3349 53.3732C89.6971 52.6955 90.2811 52.1629 90.9891 51.8644C91.4958 51.6729 92.0386 51.5958 92.5786 51.6383C93.1186 51.6809 93.6425 51.8423 94.1129 52.1108C94.4681 52.2762 94.7716 52.535 94.991 52.8596C94.9596 52.8957 94.6712 52.5955 94.021 52.2915C93.5722 52.0769 93.0835 51.9582 92.5862 51.943C92.0889 51.9279 91.5939 52.0166 91.1328 52.2035C90.5203 52.4883 90.0216 52.9712 89.7171 53.5742C89.5378 53.9067 89.4332 54.2743 89.4106 54.6514C89.388 55.0285 89.448 55.4059 89.5863 55.7575C89.759 56.1335 90.0206 56.4618 90.3485 56.7142C90.6764 56.9665 91.0607 57.1353 91.4684 57.206C91.8882 57.2821 92.3214 57.2201 92.7031 57.0295C92.8829 56.9592 93.0349 56.8325 93.1363 56.6683C93.2377 56.5041 93.283 56.3114 93.2654 56.1193C93.2098 55.9265 93.1028 55.7525 92.9557 55.616C92.8086 55.4796 92.6271 55.3858 92.4307 55.3448C91.9938 55.2451 91.5427 55.2241 91.0984 55.2829C90.2306 55.3738 89.3951 55.6622 88.6561 56.1262C88.0229 56.5123 87.474 57.022 87.042 57.6249C86.6101 58.2278 86.304 58.9115 86.1421 59.6353C85.9231 60.6266 85.9491 61.6563 86.218 62.6353C86.4199 63.3286 86.6187 63.6866 86.5789 63.708Z" fill="#263238"/>
</svg>
