<svg width="205" height="339" viewBox="0 0 205 339" fill="none" xmlns="http://www.w3.org/2000/svg">
<path d="M20.9297 48.4241C20.9297 48.4241 29.9742 91.4728 36.3609 102.647C39.6467 108.396 67.4616 139.779 67.4616 139.779L79.6499 118.284L50.93 90.774L32.3835 46.686L20.9297 48.4241Z" fill="#FFBF9D"/>
<path d="M20.4005 36.5282C20.3264 36.2285 19.3193 32.7417 19.9787 31.6879C20.2245 31.3679 20.5413 31.1143 20.9023 30.9489C21.2632 30.7835 21.6574 30.711 22.0512 30.7378C22.3178 29.8565 22.8618 29.0933 23.5964 28.5701C24.4237 28.2126 25.3384 28.1332 26.2115 28.3431L27.13 27.5851C27.426 27.2686 27.8008 27.0432 28.2128 26.9337C28.6249 26.8243 29.0581 26.8351 29.4646 26.9649C30.1986 27.4628 31.0639 27.7116 31.9406 27.6769C33.2074 27.5346 35.1058 31.038 36.1396 32.6945C37.2346 34.4491 38.5856 36.5456 37.1395 39.2749C35.5899 42.0462 33.8763 44.7154 32.0084 47.2673L21.6335 49.3007C21.6335 49.3007 20.1052 48.1091 19.612 44.2462C19.3659 41.6447 19.6342 39.0186 20.4005 36.5282Z" fill="#FFBF9D"/>
<path d="M22.0503 30.7388C22.4006 31.3597 22.6864 32.0173 22.9031 32.7006C23.3776 33.9324 24.005 35.645 24.6723 37.5459C24.7554 37.7837 24.8375 38.0186 24.9184 38.2504C24.9468 38.3216 24.9688 38.3953 24.9841 38.4706C24.9943 38.5679 24.981 38.6663 24.9456 38.757C24.886 38.9059 24.7872 39.0345 24.6604 39.128C24.2547 39.393 23.7943 39.5548 23.3167 39.6C22.8717 39.67 22.4176 39.5639 22.0447 39.3027C21.7388 39.0886 21.4726 38.8192 21.2589 38.5072C20.9561 38.0739 20.7117 37.5997 20.5326 37.0978C20.4072 36.7455 20.3716 36.5391 20.3996 36.5291C20.468 36.4948 20.7268 37.2984 21.5009 38.3098C21.6902 38.6058 21.9529 38.8437 22.2615 38.9984C22.57 39.1531 22.913 39.2189 23.2546 39.1891C23.6597 39.1407 24.0496 39.001 24.3972 38.78C24.4614 38.7344 24.5121 38.6712 24.5436 38.5975C24.5645 38.5217 24.5637 38.5526 24.5092 38.398C24.4276 38.1665 24.345 37.9322 24.2613 37.6949C23.5943 35.7956 23.0134 34.0675 22.6133 32.8085C22.3557 32.1411 22.167 31.4473 22.0503 30.7388Z" fill="#FF9A6C"/>
<path d="M26.213 28.3433C26.4462 28.8971 26.6124 29.4787 26.7077 30.0749C26.9602 31.158 27.2811 32.6635 27.6119 34.3407L27.6 34.3003L27.6644 34.4812C27.9609 35.2925 28.0455 36.1706 27.9096 37.0266C27.8408 37.3888 27.6824 37.7262 27.4497 38.0057C27.2171 38.2853 26.9182 38.4973 26.5826 38.621C26.1415 38.7665 25.6701 38.7822 25.2209 38.6663C24.9105 38.5888 24.7561 38.4924 24.7661 38.4652C24.7765 38.4339 24.9443 38.4713 25.2471 38.4926C25.6631 38.5345 26.0827 38.4762 26.4734 38.3225C26.7452 38.2017 26.9831 38.0119 27.1655 37.7707C27.3478 37.5294 27.4685 37.2445 27.5166 36.9422C27.6134 36.1606 27.5228 35.3663 27.253 34.6295L27.1971 34.4712L27.1882 34.4461L27.185 34.4305C26.8578 32.7527 26.5857 31.237 26.4101 30.1376C26.2733 29.5502 26.2071 28.9475 26.213 28.3433Z" fill="#FF9A6C"/>
<path d="M29.4637 26.9653C29.5477 27.8624 29.5538 28.7654 29.4819 29.6636L29.4714 29.5947C30.0067 30.9289 30.704 32.7375 31.4473 34.7316C31.6104 35.1723 31.7702 35.6039 31.924 36.0194L31.958 36.1114L31.9191 36.1918C31.7087 36.6424 31.4196 37.0487 31.0664 37.3902C30.7327 37.7286 30.2955 37.9358 29.8301 37.9759C29.618 37.9901 29.4055 37.9559 29.2076 37.8757C29.0096 37.7954 28.8312 37.6711 28.6847 37.5115C28.446 37.2588 28.2497 36.9666 28.104 36.6468C27.8945 36.2077 27.7371 35.744 27.6351 35.2657C27.5638 34.9319 27.5533 34.7436 27.5794 34.7379C27.6441 34.7164 27.7924 35.4597 28.3522 36.507C28.6294 36.9926 29.0908 37.6732 29.8055 37.5851C30.1952 37.488 30.5559 37.2935 30.8562 37.0185C31.1565 36.7435 31.3872 36.3965 31.5282 36.0078L31.5235 36.1797C31.3677 35.7648 31.2061 35.3341 31.041 34.8942C30.2978 32.9001 29.6408 31.0754 29.1715 29.7147L29.1585 29.677L29.161 29.6455C29.1843 28.7445 29.2856 27.8475 29.4637 26.9653Z" fill="#FF9A6C"/>
<path d="M10.09 53.1839L6.37196 52.3256C3.75525 48.2154 1.98219 43.5915 1.16293 38.7413C0.38334 33.1226 -0.00528943 27.4531 5.43628e-05 21.7767L38.7165 0.165527L42.0053 19.6494L10.09 53.1839Z" fill="#455A64"/>
<path d="M44.0993 28.8983L44.2411 2.66842L41.173 1.26123L1.33774 23.7504C1.33774 23.7504 0.0556715 40.7426 7.08186 51.4633L9.57844 52.0596L44.0993 28.8983Z" fill="white"/>
<path d="M10.0905 53.184L45.5011 29.597C45.5011 29.597 44.8851 6.53603 47.9158 2.38623L5.50289 27.7196C5.50289 27.7196 1.52933 34.7405 10.0905 53.184Z" fill="#455A64"/>
<path d="M42.0352 1.97803C41.5649 2.34166 41.0677 2.66615 40.548 2.94845C39.4909 3.5769 38.0913 4.40895 36.3975 5.41579C32.8816 7.47813 28.007 10.2939 22.6074 13.374C17.206 16.4553 12.3022 19.2173 8.74005 21.1926C7.01314 22.137 5.58623 22.9172 4.50842 23.5067C4.00039 23.8107 3.46987 24.0725 2.92188 24.2895C3.3921 23.926 3.88932 23.6016 4.40889 23.3193C5.46583 22.6909 6.86534 21.859 8.55914 20.852C12.0751 18.7897 16.9501 15.9736 22.3515 12.8925C27.7511 9.81237 32.6544 7.05055 36.2166 5.07529C37.9436 4.13082 39.3706 3.35049 40.4484 2.761C40.9566 2.4571 41.4872 2.19529 42.0352 1.97803Z" fill="#263238"/>
<path d="M43.7617 2.79932C43.2915 3.16292 42.7942 3.48741 42.2746 3.76974C41.2173 4.39819 39.8178 5.23024 38.124 6.23708C34.6081 8.29942 29.7335 11.1152 24.334 14.1953C18.9324 17.2766 14.0288 20.0387 10.4666 22.0138L6.23497 24.328C5.72692 24.632 5.19641 24.8937 4.64844 25.1108C5.11867 24.7473 5.61585 24.4229 6.13535 24.1406C7.19239 23.5122 8.5919 22.6803 10.2857 21.6733C13.8015 19.611 18.6767 16.795 24.0781 13.7138C29.4777 10.6337 34.3809 7.87184 37.9431 5.89657C39.6701 4.95222 41.0971 4.17178 42.175 3.58229C42.6831 3.27836 43.2137 3.01656 43.7617 2.79932Z" fill="#263238"/>
<path d="M32.01 47.268C32.01 47.268 37.1219 39.557 37.1411 39.2756C37.1604 38.9943 35.1511 30.8731 33.723 29.411C32.2949 27.9489 30.3811 26.2476 30.3811 26.2476C30.3811 26.2476 28.3634 26.7835 29.4045 29.9136C30.4456 33.0439 31.754 36.2125 31.754 36.2125L30.0318 38.8818C30.0318 38.8818 23.4054 40.8169 23.8668 47.3964" fill="#FFBF9D"/>
<path d="M23.8624 47.3966C23.8176 47.124 23.7975 46.8478 23.8024 46.5714C23.7865 46.2382 23.8048 45.9043 23.8569 45.5751C23.9049 45.1241 23.9961 44.6791 24.1291 44.2468C24.5142 43.0745 25.1619 42.0134 26.0192 41.1507C27.1463 40.0387 28.4987 39.2015 29.9777 38.7L29.8756 38.7768C30.4191 37.9256 30.9907 37.0302 31.5852 36.0989L31.5678 36.2932C30.9614 34.8225 30.3493 33.2501 29.7525 31.5885C29.4193 30.74 29.1494 29.8664 28.9452 28.9751C28.8582 28.4866 28.873 27.9844 28.9888 27.5023C29.119 26.9904 29.4278 26.5467 29.8554 26.257C29.9996 26.158 30.157 26.0813 30.3225 26.0291L30.432 25.9946L30.5185 26.0765C31.1334 26.6592 31.7402 27.2342 32.339 27.8017C32.6379 28.0853 32.9345 28.3668 33.2289 28.6463C33.5405 28.9144 33.8281 29.2111 34.0882 29.5328C34.523 30.212 34.8789 30.942 35.1483 31.7077C35.4334 32.4363 35.6667 33.1627 35.8962 33.8706C36.3383 35.2913 36.7114 36.653 37.0253 37.9377C37.0993 38.261 37.1721 38.5789 37.2437 38.8912L37.291 39.1374C37.2987 39.189 37.3035 39.2409 37.3056 39.2931C37.2878 39.3492 37.2669 39.4042 37.2429 39.4577C37.1556 39.6213 37.0833 39.7411 37.0008 39.8757C36.6746 40.3871 36.3611 40.8783 36.0605 41.3492C34.8437 43.2078 33.8366 44.6915 33.1346 45.7122C32.8016 46.1869 32.5305 46.573 32.3157 46.8792C32.2275 47.0211 32.1234 47.1517 32.0056 47.2682C32.0682 47.1124 32.1482 46.9648 32.2441 46.8284C32.4414 46.5098 32.6902 46.108 32.996 45.6143C33.691 44.5163 34.6426 43.0127 35.8062 41.1744C36.0973 40.7015 36.4012 40.2078 36.7179 39.6932L36.9329 39.3132L36.9465 39.2883L36.9553 39.2766L36.96 39.2707C36.9781 39.2699 36.9145 39.263 37.0489 39.2715C36.937 39.2563 36.9681 39.253 36.9624 39.2458L36.958 39.2264L36.9512 39.187L36.9054 38.9676C36.8309 38.6607 36.7552 38.3484 36.6782 38.0305C36.3514 36.7587 35.9665 35.4061 35.5173 34.0002C35.2846 33.3006 35.0482 32.5815 34.7643 31.8679C34.5037 31.141 34.1636 30.4474 33.7507 29.8008C33.5012 29.4989 33.227 29.2199 32.9312 28.967C32.6381 28.6904 32.3428 28.4115 32.0451 28.1304C31.4501 27.5679 30.8467 26.9974 30.235 26.419L30.4307 26.4663C30.3109 26.5071 30.1968 26.5642 30.0916 26.6363C29.7682 26.8975 29.5272 27.2526 29.3991 27.6562C29.2711 28.0599 29.2618 28.4938 29.3725 28.903C29.5716 29.766 29.8319 30.6126 30.1513 31.4358C30.7386 33.0912 31.3409 34.6656 31.9315 36.1321L31.9733 36.2359L31.9141 36.3266C31.3108 37.252 30.7306 38.1414 30.1792 38.9871L30.1432 39.0421L30.0767 39.0641C28.6459 39.5343 27.3313 40.3221 26.2245 41.3727C25.3826 42.1903 24.7338 43.1979 24.3285 44.3174C24.0438 45.3182 23.8871 46.3535 23.8624 47.3966Z" fill="#FF9A6C"/>
<path d="M37.0191 57.711C42.7168 66.4393 44.7417 77.7599 51.1061 86.0292C54.1092 89.9313 50.9544 89.2894 54.2719 92.29C60.7215 98.1237 72.2593 108.153 77.8251 113.923C79.5316 115.692 85.3745 112.073 88.3097 116.89C89.4071 118.691 81.3219 122.702 80.5674 124.7C77.1138 133.844 79.2481 145.213 75.7945 154.357C66.5226 145.951 53.7192 133.465 45.6687 123.919C37.6181 114.374 32.0225 105.439 28.3901 93.5496C25.6186 84.6565 23.3981 75.5892 21.7422 66.4029L23.0156 63.5931L22.1802 59.5339L35.431 53.936L37.0191 57.711Z" fill="#4DAF4E"/>
<path d="M174.348 131.54C172.536 128.313 164.888 122.301 159.555 120.221C155.218 118.529 132.027 115.697 129.311 122.905L128.314 179.598C126.757 185.607 125.193 191.67 124.977 197.816C124.761 203.963 125.995 210.281 129.627 215.271C133.079 219.906 138.146 222.955 143.742 223.762C149.338 224.569 155.017 223.07 159.559 219.588C165.359 214.943 167.706 207.591 169.265 200.622C172.234 187.348 173.436 173.833 174.63 160.362C175.226 153.642 175.823 146.915 175.884 140.187C175.911 137.218 175.802 134.129 174.348 131.54Z" fill="#455A64"/>
<path d="M167.27 313.422L189.634 309.693C189.634 309.693 200.803 331.996 205.001 331.724L199.58 286.532L164.504 290.86L167.27 313.422Z" fill="#455A64"/>
<path d="M186.068 295.962C186.143 295.511 186.377 295.104 186.724 294.821C187.07 294.537 187.506 294.396 187.947 294.424C188.385 294.486 188.783 294.719 189.06 295.075C189.336 295.432 189.47 295.885 189.434 296.341C189.353 296.819 189.104 297.249 188.735 297.548C188.366 297.847 187.903 297.993 187.436 297.959C186.985 297.846 186.595 297.556 186.346 297.151C186.097 296.746 186.01 296.257 186.102 295.787" fill="#E0E0E0"/>
<path d="M199.581 286.532L196.062 287.112L202.576 330.224C202.576 330.224 203.662 332.127 205.002 331.724L199.581 286.532Z" fill="#263238"/>
<path d="M189.499 310.454C189.711 310.419 189.675 309.304 190.23 308.13C190.755 306.94 191.61 306.262 191.501 306.07C191.436 305.872 190.202 306.365 189.555 307.798C188.895 309.226 189.309 310.527 189.499 310.454Z" fill="white"/>
<path d="M191.96 314.95C192.172 314.974 192.42 313.971 193.23 313.106C194.017 312.216 194.968 311.901 194.932 311.683C194.941 311.471 193.675 311.479 192.687 312.575C191.69 313.662 191.756 314.971 191.96 314.95Z" fill="white"/>
<path d="M197.759 316.937C197.78 316.731 196.679 316.561 195.581 317.278C194.478 317.987 194.142 319.086 194.331 319.157C194.521 319.259 195.066 318.509 195.977 317.934C196.874 317.338 197.764 317.159 197.759 316.937Z" fill="white"/>
<path d="M184.313 310.718C184.496 310.6 184.081 309.626 184.013 308.368C183.921 307.112 184.208 306.089 184.012 305.997C183.842 305.889 183.168 306.939 183.268 308.419C183.357 309.9 184.159 310.848 184.313 310.718Z" fill="white"/>
<path d="M132.508 319.808L154.873 316.079C154.873 316.079 166.041 338.381 170.239 338.109L164.818 292.917L129.742 297.246L132.508 319.808Z" fill="#455A64"/>
<path d="M151.31 302.348C151.385 301.897 151.619 301.491 151.966 301.207C152.313 300.923 152.748 300.782 153.189 300.811C153.627 300.872 154.025 301.105 154.302 301.462C154.579 301.819 154.713 302.272 154.677 302.728C154.596 303.206 154.346 303.636 153.977 303.935C153.608 304.233 153.145 304.38 152.678 304.345C152.228 304.232 151.837 303.943 151.588 303.538C151.34 303.133 151.252 302.644 151.344 302.173" fill="#E0E0E0"/>
<path d="M164.824 292.917L161.305 293.497L167.818 336.61C167.818 336.61 168.904 338.513 170.244 338.109L164.824 292.917Z" fill="#263238"/>
<path d="M154.741 316.84C154.953 316.805 154.917 315.689 155.472 314.515C155.997 313.326 156.852 312.648 156.743 312.455C156.678 312.257 155.444 312.751 154.797 314.184C154.137 315.611 154.551 316.913 154.741 316.84Z" fill="white"/>
<path d="M157.202 321.336C157.414 321.36 157.662 320.358 158.473 319.492C159.259 318.602 160.21 318.288 160.174 318.069C160.183 317.857 158.918 317.866 157.929 318.961C156.932 320.048 156.998 321.358 157.202 321.336Z" fill="white"/>
<path d="M163.001 323.324C163.022 323.118 161.921 322.948 160.823 323.664C159.72 324.374 159.384 325.473 159.573 325.543C159.763 325.646 160.308 324.895 161.219 324.321C162.116 323.725 163.006 323.546 163.001 323.324Z" fill="white"/>
<path d="M149.555 317.104C149.739 316.987 149.323 316.013 149.256 314.755C149.163 313.498 149.45 312.475 149.254 312.384C149.085 312.276 148.41 313.325 148.51 314.806C148.599 316.286 149.401 317.234 149.555 317.104Z" fill="white"/>
<path d="M74.3268 221.04C74.3268 221.04 60.2599 262.71 58.0903 271.061C55.9208 279.411 49.9674 301.372 56.2034 311.198C62.4395 321.023 75.8233 319.901 81.7472 317.728C87.6712 315.555 132.304 288.414 132.304 288.414L131.611 273.136L92.1806 278.824L100.65 239.073L101.928 216.097L74.3268 221.04Z" fill="#263238"/>
<path d="M93.2663 244.85L96.4519 248.7C96.4519 248.7 87.2331 290.607 87.638 299.539C87.9719 306.907 87.5361 318.161 99.786 323.122C104.489 324.956 109.601 325.356 114.517 324.276L131.779 321.931L180.945 313.975L178.337 287.116L125.809 288.259L135.215 260.712C135.215 260.712 140.534 247.677 141.967 238.42C143.401 229.164 146.038 220.091 145.392 219.868C142.97 219.031 138.251 210.154 138.251 210.154L95.135 209.425L91.4001 234.341L93.2663 244.85Z" fill="#263238"/>
<path d="M135.215 260.711C135.114 261.274 134.968 261.828 134.778 262.365C134.424 263.506 133.96 265.002 133.4 266.808C132.215 270.552 130.543 275.712 128.665 281.4C127.725 284.24 126.83 286.946 126.011 289.42C125.185 291.891 124.313 294.066 123.522 295.862C122.729 297.659 122.018 299.077 121.502 300.043C121.259 300.558 120.971 301.048 120.641 301.508C120.829 300.97 121.055 300.448 121.319 299.945C121.776 298.952 122.433 297.513 123.179 295.705C123.922 293.897 124.753 291.72 125.549 289.257C126.319 286.782 127.229 284.073 128.161 281.226C130.04 275.537 131.768 270.396 133.045 266.683C133.67 264.9 134.188 263.422 134.583 262.296C134.75 261.75 134.962 261.22 135.215 260.711Z" fill="#455A64"/>
<path d="M87.7751 301.911C87.4332 302.643 87 303.326 86.4865 303.942C84.1927 307.051 81.5429 309.86 78.5953 312.308C78.0135 312.854 77.3651 313.319 76.6666 313.69C76.5678 313.56 79.3478 311.244 82.4071 307.988C85.4782 304.747 87.6471 301.812 87.7751 301.911Z" fill="#455A64"/>
<path d="M92.671 318.271C92.4676 318.136 92.2777 317.98 92.104 317.807C91.5993 317.313 91.1496 316.763 90.7634 316.166C89.4331 313.906 88.546 311.396 88.1529 308.78C88.0098 307.954 87.9242 307.09 87.8035 306.19C87.6846 305.291 87.5614 304.355 87.5258 303.374C87.468 302.397 87.3869 301.386 87.4073 300.342C87.4058 299.299 87.3819 298.224 87.4544 297.126C87.6943 292.363 88.2483 287.623 89.1126 282.939C90.8968 272.967 93.0606 264.076 94.4541 257.603C95.1501 254.415 95.7181 251.813 96.1266 249.943C96.3189 249.082 96.4734 248.391 96.5917 247.861C96.6347 247.616 96.7009 247.375 96.7892 247.143C96.7819 247.392 96.7508 247.64 96.6964 247.883C96.6029 248.418 96.4808 249.117 96.3288 249.986C96.0047 251.811 95.4845 254.442 94.8203 257.687C93.52 264.184 91.4134 273.094 89.6347 283.036C88.7751 287.697 88.2099 292.411 87.9428 297.148C87.8639 298.239 87.8805 299.304 87.8737 300.338C87.8451 301.374 87.917 302.375 87.9648 303.344C87.9901 304.315 88.1027 305.247 88.2103 306.143C88.3197 307.039 88.3942 307.905 88.5227 308.715C88.8777 311.295 89.6967 313.783 90.9372 316.05C91.4433 316.848 92.024 317.592 92.671 318.271Z" fill="#455A64"/>
<path d="M178.338 287.116C178.165 287.16 177.987 287.179 177.809 287.174C177.403 287.19 176.902 287.21 176.294 287.234C174.9 287.271 173.016 287.322 170.723 287.385C165.947 287.532 159.486 287.732 152.346 287.953C145.166 288.184 138.664 288.337 133.955 288.36C131.601 288.373 129.696 288.365 128.38 288.336C127.772 288.318 127.271 288.304 126.864 288.292C126.687 288.299 126.509 288.281 126.336 288.239C126.509 288.196 126.686 288.176 126.864 288.181C127.271 288.165 127.771 288.146 128.379 288.122C129.773 288.084 131.657 288.033 133.949 287.971C138.726 287.824 145.187 287.624 152.33 287.403C159.507 287.172 166.009 287.019 170.717 286.996C173.071 286.983 174.977 286.99 176.293 287.02C176.901 287.037 177.402 287.052 177.809 287.064C177.987 287.057 178.165 287.075 178.338 287.116Z" fill="#455A64"/>
<path d="M94.8773 230.837C95.0356 230.837 95.1035 234.17 95.6391 238.229C96.1591 242.292 96.9446 245.524 96.7918 245.567C96.4676 244.913 96.2353 244.214 96.102 243.492C95.2389 240.075 94.7821 236.56 94.7418 233.028C94.686 232.295 94.7316 231.557 94.8773 230.837Z" fill="#455A64"/>
<path d="M143.18 92.6475C140.631 88.9855 136.282 86.9845 131.943 86.564C127.579 86.3161 123.21 86.9772 119.097 88.5083C107.724 92.2952 97.3606 98.7767 88.8279 107.438C87.2612 109.026 85.6939 110.805 85.2498 113.028C84.8056 115.251 85.972 117.968 88.1336 118.34L115.27 128.166C120.136 127.81 124.953 126.943 129.65 125.577C134.295 124.048 138.74 121.433 141.703 117.423C144.521 113.367 146.014 108.485 145.966 103.488C146.017 99.6842 145.328 95.7331 143.18 92.6475Z" fill="#4DAF4E"/>
<path d="M93.8688 113.59C93.0982 113.873 76.155 118.53 74.4644 121.56C72.7738 124.591 69.4821 181.71 69.9093 185.374C70.1229 187.206 71.0267 191.355 71.8771 195.047C72.851 199.274 71.7909 201.534 69.6392 205.384C67.2316 209.692 65.5004 211.411 65.9779 216.523C66.1685 218.563 68.6274 223.578 69.2052 225.763L67.4808 231.566C67.4808 231.566 84.1768 231.848 111.17 232.745C138.163 233.643 144.037 234.687 144.037 234.687L144.11 228.349C146.471 222.563 148.089 216.48 148.922 210.258C149.819 203.456 139.999 181.963 139.999 181.963L148.653 130.934L149.494 123.047C146.068 118.91 141.585 115.856 136.561 114.238C128.078 111.457 93.8688 113.59 93.8688 113.59Z" fill="#4DAF4E"/>
<g opacity="0.3">
<path d="M106.766 167.273C108.646 171.54 111.001 176.255 115.335 177.611C117.373 178.248 119.56 178.02 121.677 178.257C125.33 178.667 128.683 180.447 132.048 181.976C137.483 184.445 143.15 186.322 148.96 187.577C152.242 188.285 155.664 188.791 158.927 187.993C162.191 187.196 165.286 184.84 166.159 181.485L106.766 167.273Z" fill="black"/>
</g>
<path d="M150.786 124.959C149.033 122.739 147.064 120.712 144.909 118.913C142.642 117.266 140.217 115.867 137.672 114.739C138.491 114.848 139.29 115.088 140.039 115.449C143.757 116.988 147.012 119.525 149.471 122.8C150.013 123.445 150.457 124.174 150.786 124.959Z" fill="#263238"/>
<path d="M113.84 156.904L131.366 125.706L138.977 115.064C134.895 112.708 131.303 111.522 126.78 112.645C126.45 113.427 123.434 116.526 119.994 122.964C111.996 137.93 105.281 153.901 105.281 153.901L106.199 166.075L148.831 216.886L152 204.163L135.643 191.461C135.643 191.461 116.391 171.248 116.626 170.447C116.862 169.647 113.84 156.904 113.84 156.904Z" fill="#455A64"/>
<path d="M73.5181 131.477C73.664 131.491 73.1311 138.723 72.3282 147.628C71.525 156.536 70.7559 163.744 70.61 163.73C70.4641 163.716 70.9968 156.485 71.8001 147.577C72.603 138.672 73.3723 131.463 73.5181 131.477Z" fill="#263238"/>
<path d="M94.493 130.05C93.8474 129.568 93.2668 128.999 92.7668 128.358C90.1864 125.424 88.0231 122.124 86.3423 118.557C85.9514 117.839 85.655 117.071 85.4609 116.271C85.6081 116.199 87.1525 119.588 89.6563 123.386C92.1408 127.197 94.612 129.934 94.493 130.05Z" fill="#263238"/>
<path d="M127.251 111.601C127.027 111.992 126.762 112.357 126.463 112.69C125.693 113.636 124.875 114.539 124.013 115.395C118.283 121.019 111.724 125.658 104.582 129.138C103.498 129.658 102.389 130.118 101.258 130.517C100.85 130.684 100.425 130.806 99.9922 130.88C100.37 130.65 100.77 130.461 101.185 130.316C101.959 129.978 103.078 129.482 104.422 128.786C111.424 125.138 117.925 120.54 123.755 115.113C124.87 114.07 125.723 113.171 126.31 112.547C126.591 112.199 126.906 111.881 127.251 111.601Z" fill="#263238"/>
<path d="M84.7822 188.729C84.824 189.029 84.8198 189.334 84.7695 189.633C84.7034 190.45 84.5846 191.263 84.4137 192.064C83.3011 197.412 80.6049 202.266 76.7014 205.949C76.1186 206.505 75.5005 207.019 74.8514 207.489C74.6275 207.684 74.3751 207.841 74.1038 207.954C74.0486 207.878 75.0346 207.107 76.4435 205.667C80.1294 201.901 82.7582 197.169 84.0487 191.975C84.5428 189.989 84.6905 188.718 84.7822 188.729Z" fill="#263238"/>
<path d="M125.895 208.356C125.179 207.775 124.526 207.114 123.949 206.385C122.43 204.726 121.143 202.855 120.125 200.825C119.105 198.759 118.662 196.44 118.845 194.127C118.911 193.432 119.066 192.749 119.304 192.095C119.479 191.637 119.616 191.404 119.646 191.417C119.455 192.322 119.312 193.237 119.219 194.158C119.152 196.386 119.628 198.596 120.602 200.584C121.607 202.568 122.825 204.429 124.233 206.131C124.848 206.821 125.404 207.566 125.895 208.356Z" fill="#263238"/>
<path d="M138.374 227.12C138.149 227.137 137.924 227.13 137.7 227.099C137.206 227.057 136.57 227.002 135.78 226.934C134.05 226.778 131.656 226.562 128.726 226.297C122.768 225.783 114.527 225.202 105.411 224.89C96.2921 224.585 88.0312 224.61 82.0536 224.721C79.113 224.787 76.7107 224.841 74.9742 224.88C74.1825 224.894 73.5437 224.906 73.0483 224.915C72.8237 224.931 72.598 224.923 72.375 224.89C72.5943 224.837 72.8183 224.809 73.0433 224.804C73.5377 224.769 74.1751 224.723 74.9654 224.666C76.6351 224.553 79.0538 224.436 82.0442 224.332C88.0247 224.122 96.2972 224.036 105.428 224.341C114.556 224.653 122.805 225.297 128.759 225.91C131.737 226.216 134.143 226.496 135.803 226.721C136.588 226.831 137.221 226.92 137.712 226.989C137.937 227.008 138.158 227.052 138.374 227.12Z" fill="#263238"/>
<path d="M114.077 187.081C114.051 187.166 112.564 186.726 110.13 186.178C103.785 184.737 97.2694 184.275 90.7941 184.806C88.3102 185.005 86.7794 185.231 86.7656 185.143C87.1059 185.006 87.4615 184.915 87.824 184.871C88.5108 184.726 89.5138 184.568 90.7589 184.419C97.2719 183.669 103.862 184.136 110.216 185.8C111.429 186.123 112.402 186.422 113.064 186.662C113.417 186.757 113.757 186.897 114.077 187.081Z" fill="#263238"/>
<path d="M149.495 123.046C149.495 123.046 167.115 145.403 169.78 150.51C172.444 155.617 177.586 167.673 176.205 172.977C174.823 178.281 171.227 183.169 166.043 184.731C160.858 186.292 143.627 181.894 143.627 181.894C143.627 181.894 145.262 164.272 145.837 165.029C146.412 165.787 150.375 163.761 150.375 163.761L140.75 154.19L140.02 138.081L149.495 123.046Z" fill="#4DAF4E"/>
<path d="M166.411 163.947C163.648 163.269 160.821 162.909 157.982 162.873C155.146 163.022 152.335 163.492 149.598 164.275C150.325 163.824 151.114 163.492 151.938 163.288C155.877 162.082 160.056 162 164.036 163.05C164.867 163.222 165.668 163.524 166.411 163.947Z" fill="#263238"/>
<path d="M148.264 134.868C148.289 135.22 148.268 135.575 148.201 135.922C148.127 136.595 148 137.566 147.826 138.763C147.48 141.158 146.941 144.456 146.263 148.083C145.583 151.71 144.892 154.978 144.349 157.333C144.077 158.511 143.846 159.461 143.671 160.114C143.607 160.461 143.499 160.798 143.348 161.115C143.343 160.762 143.384 160.409 143.469 160.067C143.613 159.28 143.784 158.341 143.982 157.251C144.459 154.736 145.068 151.527 145.742 147.978C146.398 144.426 146.991 141.215 147.456 138.698C147.666 137.608 147.846 136.672 147.997 135.887C148.041 135.537 148.131 135.194 148.264 134.868Z" fill="#263238"/>
<g opacity="0.3">
<path d="M132.154 109.633C131.864 109.403 131.52 109.256 131.157 109.209C130.795 109.161 130.426 109.214 130.09 109.362C129.411 109.647 128.797 110.076 128.287 110.62C121.529 117.415 116.355 123.047 106.086 128.166C113.624 125.84 124.794 120.927 131.253 113.867C131.827 113.312 132.28 112.636 132.58 111.884C132.725 111.506 132.761 111.093 132.686 110.694C132.61 110.295 132.426 109.926 132.154 109.633Z" fill="black"/>
</g>
<path d="M122.452 160.556C122.452 160.556 120.978 152.883 120.36 151.824C119.741 150.766 108.774 148.896 108.774 148.896C108.774 148.896 102.843 149.082 102.959 151.644C103.075 154.206 104.262 154.662 104.262 154.662C104.262 154.662 102.308 155.99 102.589 157.517C102.87 159.044 103.413 159.326 103.413 159.326C103.017 159.51 102.694 159.83 102.5 160.233C102.305 160.636 102.251 161.096 102.347 161.535C102.678 162.573 103.269 163.501 104.06 164.225C103.866 164.608 103.802 165.047 103.879 165.472C103.956 165.897 104.169 166.283 104.484 166.567C105.432 167.377 106.564 167.923 107.773 168.153C107.773 168.153 112.566 174.082 114.591 174.292C116.615 174.502 123.075 174.29 123.075 174.29L143.692 181.202L145.453 166.125L122.452 160.556Z" fill="#FFBF9D"/>
<path d="M109.748 154.486C108.822 154.79 107.851 154.917 106.881 154.862C105.917 154.985 104.94 154.926 103.996 154.688C104.922 154.384 105.893 154.257 106.863 154.312C107.827 154.189 108.805 154.248 109.748 154.486Z" fill="#FF9A6C"/>
<path d="M108.384 159.405C107.626 159.694 106.817 159.808 106.013 159.741C105.213 159.849 104.399 159.776 103.629 159.527C104.386 159.238 105.195 159.123 106 159.191C106.8 159.082 107.614 159.155 108.384 159.405Z" fill="#FF9A6C"/>
<path d="M108.658 163.544C107.969 163.895 107.212 164.078 106.445 164.079C105.696 164.255 104.919 164.252 104.172 164.068C104.861 163.717 105.618 163.534 106.385 163.533C107.134 163.357 107.911 163.361 108.658 163.544Z" fill="#FF9A6C"/>
<path d="M109.458 162.134C109.398 162.161 109.253 162.012 109.191 161.691C109.127 161.268 109.224 160.837 109.46 160.487C109.683 160.133 110.02 159.874 110.411 159.755C110.712 159.677 110.903 159.734 110.91 159.803C110.929 159.956 110.3 160.147 109.902 160.792C109.468 161.42 109.594 162.076 109.458 162.134Z" fill="#FF9A6C"/>
<path d="M112.158 158.189C112.095 158.214 111.969 158.089 111.911 157.818C111.851 157.463 111.924 157.096 112.116 156.794C112.296 156.49 112.575 156.262 112.903 156.152C113.155 156.078 113.319 156.123 113.332 156.193C113.359 156.345 112.872 156.559 112.565 157.087C112.23 157.601 112.296 158.131 112.158 158.189Z" fill="#FF9A6C"/>
<path d="M114.267 152.908C114.124 152.95 113.94 152.361 114.315 151.798C114.684 151.238 115.255 151.177 115.283 151.323C115.331 151.471 115.002 151.715 114.754 152.107C114.49 152.488 114.416 152.887 114.267 152.908Z" fill="#FF9A6C"/>
<path d="M122.152 165.299C121.851 163.77 121.906 162.188 122.313 160.685C122.613 162.215 122.558 163.796 122.152 165.299Z" fill="#FF9A6C"/>
<g opacity="0.3">
<path d="M127.132 92.648C126.487 92.3775 125.777 92.3241 125.101 92.4952C123.232 92.7933 121.406 93.3265 119.662 94.0832C118.708 94.3898 117.894 95.0455 117.372 95.928C117.127 96.5947 117.033 97.3109 117.098 98.0211C117.182 102.481 117.266 106.94 117.349 111.4L118.582 109.955C122.026 106.304 124.961 102.175 127.305 97.6844C127.789 96.8849 128.106 95.9888 128.234 95.0543C128.291 94.586 128.217 94.1107 128.022 93.6844C127.827 93.258 127.518 92.8984 127.132 92.648Z" fill="black"/>
</g>
<path d="M117.014 95.755C117.142 95.5985 117.288 95.4584 117.448 95.3378C117.889 94.9693 118.352 94.6306 118.835 94.3238C120.645 93.2255 122.653 92.5255 124.735 92.2677C125.43 92.1169 126.145 92.091 126.849 92.191C127.259 92.2556 127.642 92.443 127.95 92.7301C128.259 93.0173 128.479 93.3917 128.585 93.8072C128.92 95.5922 127.876 97.2067 127.001 98.6917C121.474 108.13 114.268 116.394 105.764 123.044C103.665 124.684 101.89 125.9 100.649 126.713C100.061 127.079 99.5813 127.378 99.1998 127.615C99.0367 127.731 98.8607 127.826 98.6758 127.898C98.8165 127.753 98.9733 127.627 99.1428 127.521C99.5093 127.261 99.9702 126.935 100.536 126.534C101.739 125.668 103.475 124.408 105.536 122.736C110.912 118.388 115.794 113.421 120.088 107.93C122.443 104.907 124.613 101.733 126.584 98.4274C127.047 97.7108 127.458 96.9592 127.813 96.1788C128.147 95.4783 128.267 94.6892 128.158 93.9162C128.076 93.5805 127.901 93.2772 127.654 93.0443C127.406 92.8114 127.098 92.6593 126.768 92.6069C126.111 92.5067 125.441 92.522 124.789 92.6523C122.741 92.8714 120.754 93.502 118.939 94.5088C117.67 95.2512 117.044 95.7976 117.014 95.755Z" fill="#263238"/>
<path d="M99.4996 55.9606L98.4868 56.0528C93.5715 56.5024 88.9998 58.8532 85.6814 62.6372C82.363 66.4213 80.5413 71.3612 80.5787 76.474C80.6524 86.3384 80.6595 95.2709 81.1705 100.52C82.2289 111.386 92.9902 112.527 92.9902 112.527C93.0137 112.526 93.2423 116.945 93.3816 120.147L97.4649 129.032C104.691 123.584 112.75 116.708 117.353 111.4L116.915 76.473C116.891 65.0921 110.479 55.6203 99.4996 55.9606Z" fill="#FFBF9D"/>
<path d="M92.9961 112.507C97.8439 112.049 102.464 110.162 106.308 107.067C106.308 107.067 103.717 115.546 93.1582 115.527L92.9961 112.507Z" fill="#FF9A6C"/>
<path d="M85.8407 85.339C85.8714 85.7444 86.0537 86.1213 86.3487 86.3893C86.6437 86.6574 87.0281 86.7954 87.42 86.774C87.612 86.7722 87.8018 86.7306 87.9781 86.6516C88.1544 86.5727 88.3137 86.458 88.4465 86.3142C88.5794 86.1705 88.6831 86.0007 88.7517 85.8148C88.8202 85.6289 88.8521 85.4306 88.8456 85.2317C88.815 84.8265 88.633 84.4497 88.3383 84.1815C88.0437 83.9133 87.6596 83.7748 87.2679 83.7955C87.0756 83.7973 86.8857 83.8389 86.7092 83.9179C86.5327 83.9969 86.3733 84.1117 86.2403 84.2555C86.1073 84.3994 86.0034 84.5694 85.9348 84.7554C85.8662 84.9415 85.8341 85.14 85.8407 85.339Z" fill="#263238"/>
<path d="M83.2181 81.0735C83.4212 81.2589 84.4826 80.2838 86.0965 80.1404C87.7063 79.9729 88.9638 80.7245 89.1211 80.5038C89.1993 80.4054 88.9788 80.0569 88.4302 79.7151C87.6893 79.2777 86.8359 79.0885 85.9872 79.1738C85.1479 79.2475 84.3531 79.5962 83.7179 80.1693C83.2556 80.6092 83.1186 80.9909 83.2181 81.0735Z" fill="#263238"/>
<path d="M100.352 84.6328C100.383 85.0381 100.566 85.4148 100.861 85.6828C101.156 85.9508 101.54 86.0888 101.932 86.0674C102.124 86.0657 102.314 86.0242 102.49 85.9453C102.666 85.8663 102.826 85.7516 102.959 85.6079C103.092 85.4642 103.195 85.2943 103.264 85.1084C103.332 84.9224 103.364 84.7242 103.358 84.5252C103.327 84.1201 103.145 83.7434 102.85 83.4752C102.555 83.2071 102.171 83.0687 101.78 83.0894C101.587 83.0912 101.397 83.1327 101.221 83.2117C101.044 83.2907 100.885 83.4055 100.752 83.5493C100.619 83.6932 100.515 83.8631 100.446 84.0492C100.378 84.2353 100.346 84.4337 100.352 84.6328Z" fill="#263238"/>
<path d="M99.0653 80.0116C99.2688 80.1971 100.332 79.2225 101.944 79.0789C103.554 78.9119 104.811 79.6633 104.969 79.4422C105.047 79.3439 104.828 78.9956 104.278 78.6541C103.537 78.2165 102.684 78.0272 101.835 78.1121C100.996 78.1863 100.201 78.5349 99.5653 79.1076C99.1043 79.5478 98.9667 79.9297 99.0653 80.0116Z" fill="#263238"/>
<path d="M94.378 93.3874C93.5042 93.1893 92.6099 93.1054 91.7159 93.1375C91.3001 93.1314 90.9028 93.0824 90.8088 92.7972C90.7364 92.3595 90.7947 91.9093 90.9759 91.5068C91.2749 90.4382 91.5885 89.3175 91.9165 88.1447C93.2134 83.3616 94.1133 79.4443 93.9271 79.3916C93.7405 79.3395 92.5382 83.1735 91.2415 87.9564C90.9318 89.1352 90.6358 90.2608 90.3536 91.3332C90.1386 91.8721 90.1136 92.4722 90.2828 93.0283C90.3554 93.1733 90.4589 93.2993 90.5855 93.3966C90.712 93.494 90.8584 93.5602 91.0134 93.5902C91.2471 93.6334 91.4852 93.6458 91.7219 93.6271C92.6135 93.6639 93.506 93.5834 94.378 93.3874Z" fill="#263238"/>
<path d="M98.0965 74.8301C98.3521 75.2367 99.8794 74.6446 101.781 74.4276C103.68 74.1706 105.299 74.3705 105.454 73.9129C105.521 73.6955 105.166 73.3405 104.466 73.0566C103.541 72.7244 102.556 72.6147 101.585 72.7358C100.614 72.8568 99.6821 73.2055 98.8603 73.7553C98.2451 74.2035 97.9817 74.6354 98.0965 74.8301Z" fill="#263238"/>
<path d="M82.7246 76.1647C83.0873 76.5192 84.3746 76.0245 85.9547 75.8857C87.5304 75.6985 88.8933 75.9189 89.1734 75.4977C89.2946 75.2947 89.0571 74.9297 88.4465 74.6144C87.6087 74.2272 86.6856 74.0811 85.7744 74.1916C84.8644 74.2681 83.9918 74.6 83.2502 75.1518C82.7192 75.5849 82.5634 75.9905 82.7246 76.1647Z" fill="#263238"/>
<path d="M116.742 84.6059C116.914 84.5092 123.767 81.7341 124.172 89.192C124.578 96.6499 117.268 95.5335 117.244 95.3203C117.22 95.1073 116.742 84.6059 116.742 84.6059Z" fill="#FFBF9D"/>
<path d="M119.291 92.3666C119.321 92.3408 119.421 92.4501 119.639 92.5385C119.944 92.653 120.28 92.6404 120.577 92.5036C121.025 92.1708 121.38 91.7206 121.604 91.199C121.829 90.6774 121.916 90.1032 121.856 89.5354C121.839 88.895 121.685 88.2666 121.404 87.696C121.323 87.467 121.191 87.2616 121.017 87.0975C120.843 86.9333 120.634 86.8154 120.406 86.7538C120.26 86.7227 120.108 86.7456 119.976 86.8186C119.844 86.8916 119.742 87.01 119.685 87.1533C119.6 87.3673 119.654 87.5135 119.617 87.5286C119.598 87.5484 119.455 87.4125 119.497 87.1013C119.527 86.9142 119.618 86.7434 119.755 86.6175C119.944 86.4507 120.189 86.3679 120.437 86.387C120.736 86.4304 121.019 86.5524 121.26 86.7414C121.5 86.9305 121.69 87.1802 121.81 87.4667C122.152 88.0946 122.34 88.7996 122.358 89.5201C122.393 91.0256 121.728 92.4754 120.704 92.8476C120.514 92.9171 120.311 92.9415 120.111 92.919C119.911 92.8964 119.718 92.8275 119.546 92.7172C119.314 92.5459 119.267 92.3817 119.291 92.3666Z" fill="#FF9A6C"/>
<path d="M65.5977 67.3653C65.7008 66.9191 65.9671 66.5318 66.3404 66.2851C67.1612 65.8398 68.0811 65.6274 69.0068 65.6696C71.2959 65.4832 73.5144 64.761 75.4952 63.5575C74.7618 63.2401 74.0815 62.8043 73.4797 62.2663C72.8414 61.7238 72.3585 61.0107 72.0833 60.2042C71.808 59.3977 71.751 58.5285 71.9183 57.6908C71.9441 57.5328 72.0049 57.3831 72.0958 57.2535C72.1868 57.1239 72.3055 57.0178 72.4426 56.9436C72.9018 56.7666 73.3376 57.2176 73.6848 57.5752C74.132 58.1344 74.7165 58.5582 75.3766 58.802C76.0368 59.0458 76.7483 59.1004 77.4359 58.9603C78.3938 58.8401 79.313 58.4969 80.1245 57.9563C80.1539 57.9209 80.1794 57.882 80.209 57.8468C80.5607 57.4241 80.9045 57.0197 81.2436 56.6281L81.2459 56.6244L81.2448 56.6268C83.7955 53.6805 86.0154 51.6117 88.3563 50.4669C92.4443 48.6368 96.9365 47.9961 101.35 48.6135C105.07 49.3881 108.533 52.2687 109.261 56.1271C111.214 54.203 114.3 54.0316 116.861 54.9227L116.922 54.8904C119.767 55.7511 121.522 58.7061 122.51 61.6011C122.564 61.7595 122.612 61.9203 122.664 62.0798C123.69 63.5816 125.049 64.8055 126.628 65.6482C126.906 65.7943 127.226 65.9748 127.277 66.2941C127.277 66.4545 127.237 66.6121 127.16 66.7518C127.084 66.8914 126.975 67.0084 126.842 67.0914C126.197 67.6253 125.445 68.0036 124.642 68.199C124.932 68.8866 125.279 69.5468 125.68 70.1722C126.026 70.7052 126.436 71.3437 126.194 71.9346C126.08 72.1538 125.904 72.3316 125.69 72.4442C125.475 72.5567 125.233 72.5986 124.995 72.5643C124.52 72.4856 124.067 72.3051 123.663 72.0344C124.018 72.7866 124.372 73.539 124.726 74.2914C123.724 74.5283 122.682 74.5194 121.683 74.2652C121.246 77.0549 121.088 82.1817 120.509 84.0893C118.601 84.2395 118.125 84.0522 117.18 84.4419C115.958 84.9457 116.562 87.2029 114.903 86.6516C114.059 86.3708 112.609 83.2051 112.284 82.3506C110.123 76.6553 109.17 70.5449 109.489 64.4342C108.259 63.2262 106.816 62.2744 105.239 61.6306L105.37 61.7395C102.368 60.8585 98.9803 60.0179 96.269 61.6182C94.166 62.8597 93.024 65.2651 91.5095 67.2212C90.24 68.9998 88.6209 70.4789 86.7589 71.5611C84.8969 72.6432 82.8345 73.3036 80.708 73.4987C80.481 76.8159 80.6621 82.2072 80.6797 85.2887L77.8017 79.2926L77.8012 79.3176C77.5764 78.9698 77.387 78.6166 77.2034 78.2627L77.141 78.1558L77.1404 78.1419C76.8578 77.56 76.5466 76.9935 76.2081 76.4446L76.1811 76.4726C75.8535 76.7889 75.4264 76.9717 74.9789 76.9872C74.5313 77.0028 74.0934 76.8501 73.746 76.5573C73.3986 76.2645 73.1651 75.8513 73.0887 75.3941C73.0123 74.9369 73.098 74.4665 73.3302 74.0696C73.5608 73.698 73.8452 73.3652 74.1732 73.0829C73.8302 73.4685 73.3968 73.7558 72.915 73.9167C72.4333 74.0777 71.9196 74.1069 71.4238 74.0015C70.932 73.8777 70.4932 73.5895 70.1753 73.1814C69.8574 72.7733 69.6781 72.2681 69.6651 71.7439C69.6848 71.3885 69.7945 71.0447 69.983 70.7471C70.1715 70.4495 70.4322 70.2085 70.739 70.0484C69.4387 70.234 68.1145 70.0145 66.935 69.4177C66.1689 69.0242 65.4006 68.3469 65.5977 67.3653Z" fill="#263238"/>
<path d="M106.016 57.5796C106.41 57.8613 106.782 58.1747 107.128 58.5169C108.019 59.5094 108.647 60.7242 108.949 62.0428C109.181 62.9446 109.323 63.8684 109.375 64.8001C109.435 65.8048 109.418 66.8858 109.408 68.0246C109.377 69.2207 109.418 70.4176 109.53 71.6083C109.599 72.241 109.714 72.8673 109.874 73.482C110.004 74.1427 110.296 74.7577 110.721 75.2683C110.916 75.4693 111.158 75.6145 111.424 75.6895C111.69 75.7645 111.969 75.7668 112.236 75.6962C112.748 75.5655 113.203 75.2614 113.529 74.8323C114.054 73.9829 114.351 73.0038 114.388 71.996L114.169 72.0372C114.533 72.8403 115.008 73.5844 115.579 74.246C116.129 74.8589 116.887 75.2285 117.693 75.2782C118.068 75.2955 118.44 75.2045 118.768 75.0155C119.072 74.8283 119.314 74.5502 119.463 74.2177C119.604 73.9126 119.662 73.5736 119.632 73.2369C119.601 72.9227 119.464 72.6298 119.247 72.4085L119.14 72.5185C119.809 73.2249 120.614 73.7776 121.502 74.1406C121.736 74.2358 121.976 74.316 122.219 74.3806C122.302 74.4066 122.388 74.4231 122.474 74.4299C122.396 74.3912 122.315 74.3608 122.231 74.3391C122.07 74.282 121.832 74.1986 121.533 74.0633C120.673 73.6763 119.896 73.1144 119.249 72.4107L119.143 72.5206C119.328 72.7394 119.444 73.0127 119.473 73.3026C119.502 73.5925 119.443 73.8845 119.304 74.1381C119.167 74.4338 118.948 74.6801 118.674 74.845C118.376 75.012 118.038 75.0901 117.7 75.0707C116.948 75.0153 116.245 74.6632 115.736 74.087C115.185 73.4372 114.727 72.7089 114.376 71.9243L114.205 71.5836L114.156 71.9656C114.118 72.9276 113.837 73.8623 113.339 74.6754C113.046 75.0585 112.639 75.3302 112.182 75.4479C111.955 75.5092 111.717 75.508 111.491 75.4445C111.265 75.3809 111.059 75.2572 110.893 75.0857C110.5 74.6058 110.231 74.0307 110.11 73.4139C109.953 72.8119 109.839 72.1986 109.77 71.579C109.656 70.3986 109.611 69.2121 109.635 68.026C109.639 66.8879 109.649 65.8027 109.579 64.7856C109.518 63.8411 109.364 62.9056 109.117 61.994C108.794 60.655 108.131 59.43 107.196 58.4463C106.853 58.0901 106.454 57.797 106.016 57.5796Z" fill="#455A64"/>
<path d="M74.0312 70.1696C74.0575 70.1969 74.0874 70.2202 74.12 70.2388C74.1941 70.2883 74.2842 70.3483 74.3942 70.4218C74.5417 70.5236 74.6965 70.6137 74.8572 70.6913C75.0707 70.8094 75.2913 70.9132 75.5175 71.0021C76.9671 71.58 78.5327 71.7751 80.0732 71.5698C82.3655 71.2732 84.5258 70.2948 86.2929 68.753C88.4222 66.8508 90.1552 64.5192 91.3865 61.9004C92.0783 60.5327 92.6262 59.1401 93.244 57.8474C93.8028 56.5912 94.5324 55.4244 95.4105 54.3826C96.2021 53.4426 97.2086 52.7232 98.3379 52.2903C98.8499 52.1084 99.3863 52.0113 99.9275 52.0024C100.428 52.0021 100.926 52.0703 101.409 52.2053C102.886 52.632 104.154 53.6182 104.961 54.9682C105.232 55.4757 105.445 56.0138 105.597 56.5718C105.598 56.5333 105.593 56.4948 105.582 56.4579C105.563 56.3681 105.541 56.2596 105.513 56.1266C105.404 55.706 105.246 55.3005 105.044 54.9185C104.708 54.3204 104.278 53.7847 103.771 53.3333C103.099 52.7318 102.309 52.2877 101.456 52.0313C100.958 51.8858 100.444 51.8097 99.9266 51.8052C99.3641 51.8089 98.8056 51.9049 98.272 52.0896C97.1054 52.5256 96.0636 53.2594 95.2432 54.2231C94.3451 55.2774 93.5988 56.4608 93.0276 57.7365C92.4018 59.0385 91.8533 60.4279 91.1675 61.7828C89.951 64.3714 88.2442 66.6798 86.1488 68.5707C84.4184 70.095 82.3027 71.0735 80.0522 71.3904C78.5367 71.6079 76.9929 71.4427 75.5522 70.909C75.0322 70.6923 74.5244 70.4454 74.0312 70.1696Z" fill="#455A64"/>
<path d="M72.8047 65.4325C72.9238 65.5345 73.0561 65.6185 73.1978 65.6822C73.5682 65.8864 73.9533 66.0605 74.3496 66.2031C74.9364 66.4217 75.5402 66.5874 76.1545 66.6986C77.6648 66.9728 79.2129 66.9307 80.7073 66.5747C81.315 66.4299 81.9097 66.2315 82.4847 65.9817C82.8731 65.8175 83.2486 65.6225 83.6081 65.3985C83.7463 65.3271 83.8742 65.236 83.9881 65.128C83.9652 65.0859 83.4009 65.4314 82.4205 65.8133C81.8466 66.0353 81.2577 66.2129 80.6585 66.3446C79.1892 66.6674 77.6752 66.7087 76.1915 66.4664C75.5865 66.3672 74.9894 66.222 74.405 66.032C73.4066 65.7035 72.8253 65.3895 72.8047 65.4325Z" fill="#455A64"/>
<path d="M101.424 94.3059C101.36 94.1477 101.244 94.0188 101.095 93.9427C100.995 93.9234 100.893 93.9264 100.794 93.9516C100.695 93.9768 100.603 94.0235 100.523 94.0887C99.2354 94.8709 97.9476 95.6531 96.6597 96.4354L96.0469 96.7685C96.2336 97.4389 96.5924 98.0442 97.085 98.52C97.5775 98.9957 98.1854 99.3242 98.8439 99.4703C99.5073 99.5871 100.189 99.4601 100.772 99.1111C101.354 98.7621 101.801 98.2131 102.034 97.559C102.144 97.0019 102.147 96.4277 102.042 95.8694C101.938 95.3111 101.727 94.7798 101.424 94.3059Z" fill="#FF9A6C"/>
<path d="M99.304 99.6378C99.88 99.4139 100.417 99.0944 100.894 98.6919C101.371 98.2385 101.694 97.6388 101.817 96.9809C101.907 96.4711 101.875 95.9461 101.724 95.452C101.573 94.9579 101.307 94.5097 100.95 94.1469L101.254 94.1905C99.5751 95.1927 97.8176 96.0455 96 96.7397C97.5838 95.5838 99.2593 94.5692 101.009 93.7068L101.176 93.6147L101.313 93.7504C101.737 94.1723 102.051 94.6999 102.223 95.283C102.395 95.8661 102.42 96.4852 102.296 97.0812C102.133 97.8349 101.725 98.5075 101.14 98.986C100.899 99.2279 100.609 99.4118 100.292 99.5245C99.9748 99.6372 99.6374 99.6759 99.304 99.6378Z" fill="#263238"/>
<g opacity="0.3">
<path d="M70.7383 231.628C74.247 234.25 78.3897 235.81 82.7042 236.135C87.0031 236.322 91.3093 236.211 95.5939 235.802C111.009 234.893 126.707 236.31 142.096 237.603L142.706 234.522L113.288 232.817L70.7383 231.628Z" fill="black"/>
</g>
<g opacity="0.3">
<path d="M80.1484 216.58L80.428 216.909C84.9185 219.731 90.3784 220.201 95.6162 220.6C99.8319 221.069 104.082 221.097 108.304 220.684C112.551 220.257 116.575 218.511 119.849 215.674C106.831 218.92 93.2916 219.229 80.1484 216.58Z" fill="black"/>
</g>
</svg>
