<svg width="57" height="54" viewBox="0 0 57 54" fill="none" xmlns="http://www.w3.org/2000/svg">
<path d="M37.7218 47.7031H10.4355" stroke="#087B42" stroke-width="1.37843" stroke-miterlimit="10"/>
<path d="M37.7218 44.6465H10.4355" stroke="#087B42" stroke-width="0.719792" stroke-miterlimit="10"/>
<path d="M0 20.9863H23.4379" stroke="white" stroke-width="5.98415" stroke-miterlimit="10"/>
<path d="M0.220703 35.6934H19.147" stroke="white" stroke-width="5.98415" stroke-miterlimit="10"/>
<path d="M0 50.3047H8.57164" stroke="white" stroke-width="5.98415" stroke-miterlimit="10"/>
<path d="M25.658 20.9863H29.2569C33.1429 20.9863 36.3137 24.2795 36.3137 28.3395C36.3137 32.3995 33.1617 35.6927 29.2569 35.6927H20.7559" stroke="#4DAF4E" stroke-width="5.98415" stroke-miterlimit="10"/>
<path d="M27.3464 35.6934H33.4623C37.3436 35.6934 40.5191 38.9865 40.5191 43.0465C40.5191 47.1065 37.3671 50.3997 33.4623 50.3997H10.4102" stroke="#4DAF4E" stroke-width="5.98415" stroke-miterlimit="10"/>
<path d="M36.2257 7.65039L33.9863 11.8515C33.9863 11.8515 36.9408 17.2853 46.3875 17.7886L48.8432 12.9524L36.2257 7.65039Z" fill="#25733A"/>
<path d="M31.7688 2.51785L46.3104 5.54286C46.4247 5.56558 46.5305 5.61929 46.6162 5.6981L55.122 13.7428C55.2187 13.8333 55.2842 13.9521 55.309 14.0822C55.3339 14.2122 55.3169 14.3468 55.2604 14.4666C55.2039 14.5863 55.1109 14.6851 54.9947 14.7486C54.8786 14.8122 54.7452 14.8372 54.6139 14.8202L40.3028 13.023C40.159 13.0036 40.0261 12.9356 39.9264 12.8302L31.1854 3.56225C31.0928 3.46554 31.0337 3.34169 31.0168 3.20889C30.9998 3.0761 31.0259 2.94136 31.0912 2.82449C31.1564 2.70761 31.2575 2.61475 31.3795 2.55956C31.5014 2.50437 31.6379 2.48975 31.7688 2.51785Z" fill="#4DAF4E"/>
<path d="M44.0254 8.67572C44.1267 8.64092 44.2154 8.57684 44.2802 8.49161C44.345 8.40638 44.3831 8.30383 44.3896 8.19695C44.3961 8.09006 44.3708 7.98365 44.3168 7.89118C44.2628 7.79872 44.1825 7.72436 44.0862 7.67753C43.9899 7.6307 43.8819 7.6135 43.7758 7.62811C43.6697 7.64272 43.5704 7.68848 43.4903 7.7596C43.4102 7.83072 43.3531 7.92399 43.3261 8.02762C43.2991 8.13124 43.3034 8.24055 43.3386 8.3417C43.3856 8.47692 43.4843 8.588 43.613 8.65061C43.7418 8.71321 43.8901 8.72224 44.0254 8.67572Z" fill="#F79434"/>
<path d="M54.8117 3.97999L54.6329 3.78711C51.3397 6.7886 43.9019 8.02118 43.8125 8.02118L43.8548 8.27993C43.9442 8.28463 51.4385 7.05675 54.8117 3.97999Z" fill="#F79434"/>
<path d="M54.7328 4.25818C54.8248 4.24785 54.9097 4.204 54.9714 4.13501C55.0331 4.06602 55.0672 3.97672 55.0672 3.88417C55.0672 3.79163 55.0331 3.70233 54.9714 3.63334C54.9097 3.56435 54.8248 3.5205 54.7328 3.51016C54.6802 3.50425 54.6269 3.50952 54.5764 3.52562C54.526 3.54171 54.4795 3.56828 54.44 3.60359C54.4005 3.63889 54.3689 3.68213 54.3473 3.73048C54.3256 3.77883 54.3145 3.8312 54.3145 3.88417C54.3145 3.93714 54.3256 3.98952 54.3473 4.03787C54.3689 4.08622 54.4005 4.12946 54.44 4.16476C54.4795 4.20007 54.526 4.22664 54.5764 4.24273C54.6269 4.25883 54.6802 4.2641 54.7328 4.25818Z" fill="#F79434"/>
<path d="M54.7235 3.98003C54.7235 3.98003 56.0643 3.50957 57.0005 1.27963L55.6221 0C55.6221 0 55.6691 2.29581 54.5918 3.80596L54.7235 3.98003Z" fill="#F79434"/>
</svg>
