<svg width="418" height="446" viewBox="0 0 418 446" fill="none" xmlns="http://www.w3.org/2000/svg">
<path d="M418 405.811C416.603 406.049 415.187 406.148 413.771 406.106C410.988 406.194 406.881 406.271 401.593 406.339C391.017 406.475 375.712 406.573 356.8 406.636C318.977 406.762 266.726 406.753 209.019 406.646C151.295 406.47 99.0443 406.311 61.2132 406.195C42.3084 406.099 27.0087 406.021 16.4229 405.968C11.1424 405.928 7.04015 405.898 4.24563 405.877C2.86113 405.861 1.80301 405.849 1.07885 405.841C0.365438 405.829 0 405.811 0 405.811C0 405.811 0.365534 405.794 1.07904 405.789C1.8032 405.785 2.86141 405.781 4.24601 405.775C7.04053 405.774 11.143 405.772 16.4236 405.77C27.0095 405.786 42.3092 405.808 61.2143 405.836C99.0453 405.913 151.296 406.02 209.019 406.138C266.723 406.192 318.968 406.241 356.799 406.277C375.704 406.22 391.004 406.174 401.591 406.142C406.879 406.104 410.985 406.058 413.769 406.003C415.16 405.976 416.221 405.946 416.934 405.913C417.292 405.926 417.65 405.891 418 405.811Z" fill="#263238"/>
<path d="M66.7296 176.589C55.0165 174.179 43.3141 165.742 34.6247 157.405C25.9354 149.068 20.2711 137.075 21.0146 124.956C21.758 112.836 29.6063 101.038 40.9773 97.3012C53.155 93.2993 67.1348 99.1731 74.9693 109.456C82.8036 119.74 83.5334 136.171 79.8247 148.617C75.6362 162.674 74.6599 167.186 66.7296 176.589Z" fill="#43056C"/>
<path d="M71.7398 177.418C69.7968 176.458 68.1449 174.982 66.9579 173.148L66.2271 174.644C65.3329 176.211 65.2706 179.815 65.445 181.617C65.4953 182.138 65.6846 182.759 66.1872 182.873C66.7225 182.994 67.1711 182.43 67.3257 181.895C67.3949 181.342 67.5823 180.811 67.8747 180.339C67.9895 180.91 68.2271 181.449 68.5707 181.917C68.7298 182.172 68.9779 182.357 69.2654 182.435C69.5529 182.512 69.8586 182.477 70.1215 182.336C70.3844 182.194 70.5852 181.957 70.6836 181.672C70.7821 181.387 70.771 181.074 70.6526 180.797C70.4627 180.235 70.1514 179.724 69.7414 179.301C70.2915 179.774 70.9579 180.087 71.6693 180.205C72.0253 180.249 72.384 180.149 72.6686 179.928C72.9532 179.706 73.1412 179.38 73.1922 179.019C73.1953 178.253 72.4059 177.776 71.7398 177.418Z" fill="#43056C"/>
<path d="M68.4889 174.419C68.6601 174.476 68.3537 175.453 67.3277 176.011C66.3056 176.577 65.3336 176.301 65.3805 176.125C65.4 175.933 66.1967 175.879 67.012 175.417C67.8389 174.978 68.3202 174.33 68.4889 174.419Z" fill="#263238"/>
<g opacity="0.2">
<path d="M77.879 127.089C77.487 126.986 77.0736 127.004 76.692 127.142C76.3105 127.28 75.9784 127.531 75.7388 127.862C74.787 129.113 74.9498 130.654 75.0545 132.113C75.8483 143.968 72.0685 155.67 64.516 164.741C63.4253 166.038 62.1795 167.718 62.8711 169.272C63.1836 169.822 63.6617 170.255 64.2347 170.507C64.8077 170.76 65.4455 170.818 66.0539 170.675C67.1269 170.456 68.1285 169.967 68.9667 169.252C69.8371 168.531 70.5595 167.643 71.0926 166.639C77.4792 154.809 79.6586 144.149 79.4696 130.493C79.4509 129.143 79.1959 127.485 77.879 127.089Z" fill="black"/>
</g>
<g opacity="0.2">
<path d="M74.2974 115.606C73.9693 115.511 73.6231 115.499 73.2893 115.572C72.9556 115.644 72.6444 115.799 72.3832 116.022C72.122 116.245 71.9187 116.53 71.7912 116.851C71.6637 117.173 71.6158 117.522 71.6519 117.867L71.6328 117.789C71.7736 119.081 72.2178 120.32 72.928 121.401C73.2761 121.912 73.7949 122.277 74.3879 122.428C74.9809 122.579 75.6078 122.507 76.1521 122.224C77.1941 121.508 77.2312 119.951 76.8868 118.722C76.7488 118.023 76.4391 117.371 75.9864 116.826C75.5336 116.281 74.9526 115.862 74.2974 115.606Z" fill="black"/>
</g>
<path d="M30.6656 106.156C30.614 106.254 30.5499 106.345 30.4749 106.426C30.3157 106.623 30.1198 106.863 29.8823 107.156C29.7492 107.316 29.6048 107.49 29.4489 107.677C29.2962 107.872 29.1441 108.096 28.9723 108.329C28.6382 108.802 28.2251 109.316 27.8547 109.946C27.6598 110.255 27.4565 110.578 27.245 110.913C27.0354 111.251 26.8539 111.625 26.6455 111.999C26.2148 112.742 25.8524 113.585 25.4482 114.461C23.7894 118.318 22.9184 122.478 22.8881 126.687C22.9066 127.654 22.8996 128.575 22.9955 129.431C23.0359 129.859 23.0521 130.275 23.1081 130.671C23.1667 131.065 23.2231 131.443 23.2773 131.807C23.3633 132.535 23.5348 133.176 23.6504 133.746C23.7139 134.03 23.7631 134.297 23.8246 134.538C23.892 134.774 23.9544 134.992 24.0118 135.193L24.2604 136.105C24.2964 136.21 24.3185 136.32 24.3262 136.431C24.2702 136.336 24.2271 136.234 24.1979 136.127C24.1151 135.886 24.0133 135.59 23.8896 135.231C23.8234 135.031 23.7516 134.814 23.6741 134.581C23.6032 134.34 23.5447 134.074 23.4724 133.79C23.2992 133.15 23.1578 132.501 23.0487 131.847C22.9875 131.481 22.9237 131.101 22.8574 130.704C22.7942 130.306 22.7715 129.887 22.7248 129.455C22.6163 128.592 22.6128 127.663 22.5859 126.686C22.5821 122.43 23.4633 118.222 25.1717 114.337C25.5876 113.456 25.9628 112.609 26.4078 111.865C26.6232 111.49 26.8123 111.117 27.0293 110.779C27.2486 110.445 27.4595 110.123 27.662 109.815C28.0237 109.262 28.4128 108.728 28.8276 108.214C29.0072 107.986 29.1674 107.767 29.3282 107.576C29.4928 107.395 29.6454 107.226 29.786 107.071C30.0428 106.794 30.2542 106.566 30.4264 106.381C30.4958 106.295 30.5763 106.219 30.6656 106.156Z" fill="white"/>
<path d="M39.4106 100.779C38.6667 101.368 37.8581 101.868 37.001 102.268C36.1947 102.766 35.3345 103.166 34.4375 103.463C35.1816 102.874 35.9902 102.374 36.8473 101.974C37.6537 101.477 38.5138 101.076 39.4106 100.779Z" fill="white"/>
<g opacity="0.1">
<path d="M34.7542 107.347C27.8124 110.778 25.0838 117.65 26.3647 125.385C26.7732 127.852 27.7405 130.33 29.8858 131.766C30.4515 132.148 31.0858 132.412 31.7522 132.543C35.131 133.194 37.1475 130.406 37.7709 127.618C38.078 125.526 38.2573 123.416 38.3075 121.301C38.5135 119.195 39.1442 116.986 40.7446 115.631C42.3342 114.286 44.7909 113.844 45.2079 111.478C45.2896 110.911 45.2407 110.333 45.0652 109.789C44.8896 109.244 44.5921 108.749 44.1961 108.341C43.5926 107.695 42.8567 107.192 42.0406 106.868C39.9553 106.055 37.6399 106.102 35.5882 106.999L34.7542 107.347Z" fill="white"/>
</g>
<path d="M313.21 328.977C306.33 317.765 304.149 302.058 304.141 288.846C304.133 275.634 309.23 262.12 319.217 253.659C329.203 245.197 344.249 242.684 355.655 249.025C367.871 255.817 373.75 271.438 371.604 285.418C369.459 299.398 357.219 312.265 344.762 318.589C330.694 325.731 326.454 328.319 313.21 328.977Z" fill="#43056C"/>
<path d="M316.306 333.62C315.601 331.341 315.514 328.911 316.055 326.586L314.344 327.118C312.457 327.571 309.606 330.214 308.334 331.701C307.966 332.131 307.625 332.747 307.912 333.236C308.217 333.757 308.992 333.696 309.523 333.42C310.006 333.062 310.559 332.816 311.145 332.698C310.786 333.217 310.544 333.811 310.437 334.436C310.358 334.755 310.399 335.092 310.554 335.381C310.708 335.67 310.964 335.889 311.271 335.995C311.577 336.1 311.912 336.084 312.207 335.95C312.502 335.816 312.737 335.574 312.865 335.272C313.16 334.699 313.325 334.067 313.347 333.422C313.39 334.217 313.645 334.986 314.085 335.646C314.317 335.965 314.663 336.179 315.048 336.242C315.433 336.305 315.827 336.212 316.146 335.983C316.744 335.413 316.526 334.423 316.306 333.62Z" fill="#43056C"/>
<path d="M316.214 328.769C316.298 328.949 315.309 329.433 314.108 329.026C312.903 328.628 312.391 327.641 312.564 327.547C312.728 327.419 313.365 328.019 314.334 328.328C315.294 328.665 316.158 328.567 316.214 328.769Z" fill="#263238"/>
<g opacity="0.2">
<path d="M360.059 300.933C359.846 300.541 359.523 300.223 359.131 300.019C358.738 299.816 358.295 299.737 357.857 299.792C356.173 299.962 355.096 301.245 354.038 302.42C345.408 311.918 333.477 317.628 320.774 318.341C318.949 318.434 316.711 318.689 316.019 320.406C315.825 321.068 315.845 321.776 316.077 322.425C316.309 323.074 316.74 323.63 317.306 324.012C318.278 324.71 319.408 325.149 320.591 325.288C321.802 325.448 323.033 325.365 324.212 325.043C338.191 321.331 348.115 315.114 358.599 304.755C359.636 303.731 360.735 302.287 360.059 300.933Z" fill="black"/>
</g>
<g opacity="0.2">
<path d="M366.314 289.473C366.143 289.138 365.894 288.851 365.588 288.637C365.282 288.423 364.929 288.289 364.56 288.246C364.191 288.202 363.818 288.252 363.472 288.39C363.127 288.528 362.82 288.75 362.578 289.037L362.625 288.963C361.725 290.042 361.092 291.325 360.782 292.704C360.644 293.365 360.748 294.055 361.074 294.644C361.399 295.234 361.924 295.683 362.552 295.909C363.887 296.211 365.127 295.077 365.826 293.882C366.266 293.248 366.542 292.512 366.628 291.741C366.713 290.97 366.605 290.19 366.314 289.473Z" fill="black"/>
</g>
<path d="M341.057 247.361C340.942 247.393 340.823 247.409 340.704 247.41C340.432 247.429 340.099 247.452 339.693 247.48C339.469 247.492 339.226 247.506 338.964 247.521C338.698 247.544 338.411 247.589 338.101 247.625C337.483 247.71 336.774 247.763 336.007 247.936C335.621 248.011 335.218 248.088 334.798 248.169C334.379 248.254 333.952 248.387 333.505 248.499C332.606 248.708 331.679 249.048 330.695 249.377C326.454 250.928 322.567 253.337 319.268 256.459C318.53 257.197 317.808 257.879 317.214 258.596C316.911 258.949 316.599 259.273 316.333 259.613C316.071 259.955 315.818 260.283 315.576 260.598C315.073 261.212 314.703 261.829 314.346 262.348C314.172 262.611 314.001 262.85 313.859 263.08C313.727 263.31 313.603 263.523 313.49 263.72C313.28 264.073 313.107 264.364 312.966 264.601C312.911 264.709 312.842 264.808 312.762 264.897C312.794 264.781 312.841 264.67 312.902 264.567C313.028 264.32 313.182 264.018 313.369 263.65C313.475 263.447 313.59 263.227 313.714 262.99C313.848 262.754 314.011 262.508 314.178 262.238C314.547 261.62 314.946 261.022 315.374 260.445C315.612 260.123 315.861 259.787 316.12 259.437C316.382 259.089 316.692 258.757 316.993 258.397C317.583 257.664 318.304 256.967 319.044 256.216C322.352 253.032 326.285 250.594 330.585 249.062C331.581 248.738 332.521 248.407 333.432 248.208C333.885 248.101 334.317 247.974 334.742 247.896C335.166 247.822 335.574 247.751 335.965 247.683C336.666 247.56 337.372 247.474 338.081 247.423C338.394 247.397 338.684 247.362 338.952 247.349C339.217 247.345 339.462 247.342 339.687 247.339C340.095 247.338 340.43 247.337 340.703 247.337C340.822 247.329 340.941 247.337 341.057 247.361Z" fill="white"/>
<path d="M351.778 250.366C349.773 249.934 347.825 249.266 345.973 248.376C347.977 248.809 349.925 249.476 351.778 250.366Z" fill="white"/>
<g opacity="0.1">
<path d="M342.317 250.176C327.108 249.993 316.33 259.652 311.866 274.427C310.442 279.139 309.993 284.371 312.525 288.826C313.19 290.005 314.078 291.039 315.137 291.868C320.524 296.045 326.499 292.943 330.019 288.591C332.624 285.37 334.26 281.469 336.453 277.944C338.645 274.42 341.676 271.094 345.671 270.144C349.641 269.199 354.352 270.624 357.143 266.831C357.779 265.906 358.195 264.843 358.359 263.727C358.523 262.61 358.429 261.47 358.086 260.397C357.584 258.718 356.724 257.172 355.568 255.869C352.602 252.566 348.482 250.572 344.089 250.312L342.317 250.176Z" fill="white"/>
</g>
<path d="M136.503 62.4426C127.884 59.5766 119.795 52.1692 113.97 45.1073C108.144 38.0454 104.915 28.4993 106.527 19.4312C108.139 10.3629 115.078 2.17403 123.972 0.376038C133.498 -1.5493 143.525 4.12998 148.537 12.5824C153.55 21.0347 152.674 33.4841 148.799 42.5329C144.423 52.7526 143.296 56.0659 136.503 62.4426Z" fill="#43056C"/>
<path d="M140.207 63.5163C138.826 62.6184 137.709 61.3586 136.973 59.8696L136.293 60.9317C135.483 62.0328 135.123 64.7432 135.098 66.1174C135.091 66.5144 135.18 66.9995 135.549 67.1303C135.941 67.2697 136.329 66.8846 136.491 66.4954C136.592 66.0847 136.779 65.7011 137.04 65.3715C137.077 65.8126 137.21 66.24 137.428 66.6231C137.526 66.8297 137.697 66.9912 137.907 67.0754C138.117 67.1596 138.35 67.1603 138.56 67.0773C138.771 66.9943 138.943 66.8337 139.042 66.6276C139.14 66.4216 139.159 66.1851 139.094 65.9656C139 65.5253 138.81 65.1121 138.537 64.7565C138.911 65.1625 139.386 65.4577 139.912 65.6106C140.177 65.6755 140.455 65.6326 140.689 65.4911C140.923 65.3495 141.093 65.1206 141.163 64.8534C141.231 64.2764 140.678 63.846 140.207 63.5163Z" fill="#43056C"/>
<path d="M138.017 60.9641C138.141 61.0224 137.825 61.7312 137.003 62.0599C136.184 62.395 135.475 62.1002 135.526 61.9714C135.557 61.8284 136.162 61.8592 136.817 61.5839C137.478 61.3272 137.897 60.882 138.017 60.9641Z" fill="#263238"/>
<g opacity="0.2">
<path d="M149.2 26.1333C148.913 26.0202 148.6 25.997 148.301 26.0668C148.001 26.1365 147.729 26.296 147.52 26.5245C146.843 27.4201 146.527 28.5436 146.635 29.6674C146.205 38.6731 142.341 47.1547 135.862 53.315C134.927 54.1949 133.842 55.3491 134.229 56.5827C134.417 57.0249 134.739 57.394 135.149 57.6356C135.559 57.8773 136.035 57.9787 136.506 57.9248C137.334 57.8561 138.131 57.577 138.825 57.1132C139.543 56.648 140.165 56.0437 140.654 55.3347C146.494 46.99 149.061 39.1509 150.103 28.8415C150.207 27.8219 150.158 26.5495 149.2 26.1333Z" fill="black"/>
</g>
<g opacity="0.2">
<path d="M147.495 17.1569C147.255 17.0557 146.996 17.0156 146.738 17.0403C146.48 17.0649 146.232 17.1536 146.016 17.2984C145.8 17.4431 145.622 17.6397 145.498 17.8707C145.374 18.1017 145.307 18.3601 145.305 18.6233L145.297 18.5627C145.291 19.5493 145.518 20.5229 145.96 21.4017C146.178 21.8178 146.537 22.1393 146.971 22.3064C147.405 22.4736 147.884 22.475 148.318 22.3105C148.701 22.0205 148.989 21.6191 149.142 21.1594C149.295 20.6997 149.307 20.2035 149.176 19.7367C149.133 19.1975 148.956 18.6782 148.662 18.2271C148.368 17.7761 147.966 17.4079 147.495 17.1569Z" fill="black"/>
</g>
<path d="M115.433 6.12598C115.386 6.19535 115.33 6.25812 115.266 6.31271C115.129 6.4464 114.961 6.61041 114.756 6.80962L114.384 7.16368C114.252 7.29707 114.118 7.45172 113.969 7.61203C113.676 7.93859 113.32 8.28914 112.986 8.73067C112.812 8.94646 112.631 9.17141 112.443 9.40553C112.255 9.64151 112.086 9.90693 111.897 10.1702C111.507 10.6909 111.161 11.2945 110.781 11.9181C110.002 13.3002 109.352 14.7524 108.837 16.2563C108.348 17.7694 107.997 19.3252 107.79 20.9038C107.72 21.6343 107.635 22.3275 107.633 22.9813C107.627 23.3076 107.603 23.6229 107.61 23.926C107.62 24.2281 107.63 24.5185 107.639 24.7973C107.641 25.3542 107.715 25.8525 107.752 26.2924C107.776 26.5122 107.79 26.7178 107.815 26.9052C107.845 27.0888 107.873 27.259 107.899 27.4159C107.943 27.7001 107.978 27.9345 108.008 28.1251C108.026 28.2076 108.033 28.2921 108.029 28.3765C107.995 28.2999 107.971 28.2189 107.958 28.1359C107.917 27.9469 107.866 27.7149 107.804 27.4332C107.771 27.2766 107.736 27.1067 107.698 26.9234C107.665 26.7361 107.644 26.5303 107.614 26.31C107.539 25.8119 107.489 25.3103 107.464 24.8071C107.449 24.5262 107.434 24.2334 107.419 23.9287C107.406 23.6231 107.425 23.3049 107.427 22.9753C107.42 22.3151 107.498 21.6144 107.563 20.8758C107.759 19.2786 108.106 17.7043 108.601 16.1752C109.121 14.6552 109.785 13.19 110.583 11.8C110.973 11.1733 111.329 10.5683 111.729 10.0478C111.924 9.78465 112.099 9.51982 112.292 9.28501C112.486 9.05255 112.673 8.82912 112.852 8.61473C113.173 8.23032 113.512 7.8626 113.869 7.51296C114.025 7.35655 114.164 7.2058 114.302 7.0769C114.442 6.95462 114.572 6.84134 114.691 6.73707C114.909 6.55141 115.088 6.39842 115.234 6.2739C115.293 6.21573 115.361 6.16598 115.433 6.12598Z" fill="white"/>
<path d="M122.489 2.85791C121.877 3.23521 121.224 3.53932 120.544 3.76417C119.893 4.06682 119.21 4.29187 118.508 4.43484C119.12 4.05755 119.772 3.75348 120.453 3.52868C121.104 3.22623 121.787 3.00115 122.489 2.85791Z" fill="white"/>
<g opacity="0.1">
<path d="M117.344 7.05942C109.13 13.8808 107.622 23.9493 111.745 33.8815C113.06 37.0494 115.126 40.0516 118.442 41.2823C119.318 41.6101 120.248 41.759 121.18 41.7204C125.902 41.5036 127.73 37.1264 127.695 33.1981C127.669 30.2899 126.825 27.4595 126.444 24.5772C126.063 21.6948 126.219 18.5377 127.937 16.2117C129.643 13.9008 132.791 12.5195 132.612 9.22132C132.544 8.43706 132.299 7.6794 131.894 7.00793C131.49 6.33645 130.937 5.76949 130.281 5.35163C129.273 4.68225 128.132 4.24657 126.939 4.07551C123.897 3.65877 120.816 4.46638 118.351 6.32605L117.344 7.05942Z" fill="white"/>
</g>
<path d="M334.598 198.148C330.652 186.467 331.915 171.695 334.641 159.661C337.368 147.626 344.806 136.407 355.652 130.833C366.498 125.26 380.721 126.185 389.798 134.397C399.519 143.193 401.641 158.675 396.795 170.95C391.948 183.224 378.138 192.329 365.485 195.427C351.194 198.927 346.796 200.378 334.598 198.148Z" fill="#455A64"/>
<path d="M336.46 203.038C336.289 200.813 336.712 198.581 337.685 196.579L336.018 196.697C334.205 196.707 331.062 198.506 329.595 199.588C329.172 199.901 328.733 200.39 328.893 200.896C329.064 201.436 329.782 201.545 330.323 201.408C330.836 201.185 331.391 201.079 331.949 201.096C331.515 201.493 331.172 201.982 330.945 202.528C330.807 202.802 330.775 203.118 330.856 203.414C330.937 203.71 331.125 203.964 331.382 204.126C331.639 204.287 331.947 204.344 332.244 204.285C332.54 204.226 332.805 204.056 332.983 203.808C333.37 203.35 333.651 202.809 333.806 202.226C333.68 202.96 333.753 203.715 334.017 204.41C334.162 204.75 334.433 205.018 334.771 205.158C335.109 205.297 335.487 205.297 335.824 205.157C336.487 204.766 336.493 203.817 336.46 203.038Z" fill="#455A64"/>
<path d="M337.377 198.6C337.416 198.782 336.415 199.012 335.405 198.385C334.391 197.765 334.128 196.757 334.305 196.708C334.481 196.626 334.937 197.309 335.756 197.798C336.56 198.309 337.367 198.404 337.377 198.6Z" fill="#263238"/>
<g opacity="0.2">
<path d="M383.069 182.615C382.957 182.212 382.728 181.853 382.413 181.584C382.097 181.315 381.71 181.148 381.3 181.105C379.731 180.9 378.484 181.838 377.278 182.683C367.452 189.49 355.404 192.142 343.687 190.077C342.006 189.773 339.915 189.527 338.929 190.943C338.616 191.504 338.488 192.153 338.565 192.794C338.642 193.434 338.919 194.033 339.356 194.501C340.097 195.345 341.035 195.986 342.083 196.365C343.153 196.77 344.291 196.958 345.432 196.916C358.932 196.521 369.256 192.979 380.949 185.784C382.105 185.073 383.405 183.992 383.069 182.615Z" fill="black"/>
</g>
<g opacity="0.2">
<path d="M391.137 173.514C391.051 173.173 390.883 172.858 390.649 172.598C390.414 172.337 390.121 172.14 389.794 172.022C389.467 171.904 389.116 171.869 388.773 171.921C388.43 171.973 388.104 172.109 387.825 172.319L387.883 172.262C386.839 173.052 385.998 174.086 385.43 175.275C385.168 175.848 385.12 176.498 385.295 177.105C385.469 177.711 385.854 178.233 386.379 178.572C387.533 179.133 388.896 178.364 389.78 177.425C390.313 176.943 390.716 176.331 390.954 175.647C391.191 174.963 391.254 174.229 391.137 173.514Z" fill="black"/>
</g>
<path d="M376.848 129.764C376.737 129.768 376.625 129.758 376.516 129.733C376.265 129.692 375.956 129.641 375.582 129.58C375.375 129.544 375.151 129.504 374.909 129.462C374.662 129.426 374.391 129.406 374.101 129.372C373.521 129.318 372.864 129.214 372.13 129.208C371.762 129.194 371.379 129.179 370.981 129.163C370.581 129.15 370.165 129.18 369.735 129.187C368.872 129.185 367.958 129.296 366.994 129.386C362.81 129.893 358.771 131.257 355.121 133.395C354.296 133.909 353.497 134.377 352.808 134.903C352.459 135.159 352.108 135.388 351.795 135.641C351.485 135.896 351.188 136.141 350.902 136.377C350.317 136.828 349.852 137.311 349.419 137.707C349.207 137.91 349.002 138.091 348.825 138.27C348.656 138.451 348.5 138.619 348.356 138.774C348.091 139.051 347.874 139.279 347.697 139.465C347.624 139.551 347.541 139.627 347.449 139.691C347.502 139.592 347.569 139.501 347.646 139.42C347.811 139.222 348.014 138.979 348.26 138.684C348.399 138.522 348.549 138.347 348.711 138.157C348.882 137.971 349.082 137.782 349.289 137.571C349.753 137.087 350.24 136.627 350.749 136.193C351.033 135.951 351.329 135.698 351.638 135.435C351.949 135.174 352.299 134.938 352.648 134.674C353.337 134.133 354.137 133.652 354.967 133.126C358.639 130.933 362.725 129.553 366.958 129.076C367.933 128.994 368.857 128.892 369.728 128.906C370.163 128.905 370.583 128.882 370.986 128.902C371.387 128.925 371.773 128.947 372.144 128.969C372.807 129.007 373.469 129.079 374.125 129.185C374.415 129.227 374.687 129.257 374.934 129.302C375.175 129.356 375.399 129.405 375.605 129.45C375.977 129.537 376.282 129.608 376.531 129.666C376.641 129.684 376.747 129.717 376.848 129.764Z" fill="white"/>
<path d="M385.989 134.79C384.252 133.968 382.616 132.944 381.113 131.738C382.849 132.559 384.486 133.584 385.989 134.79Z" fill="white"/>
<g opacity="0.1">
<path d="M377.414 132.595C363.6 129.18 351.786 135.675 344.663 148.177C342.391 152.165 340.9 156.835 342.283 161.433C342.645 162.649 343.24 163.78 344.034 164.761C348.076 169.717 354.159 168.167 358.265 164.956C361.305 162.579 363.602 159.375 366.328 156.633C369.054 153.892 372.502 151.51 376.338 151.498C380.149 151.486 384.145 153.79 387.471 150.931C388.242 150.225 388.841 149.346 389.221 148.364C389.601 147.382 389.752 146.324 389.662 145.273C389.552 143.637 389.089 142.045 388.305 140.611C386.287 136.969 382.947 134.273 379 133.097L377.414 132.595Z" fill="white"/>
</g>
<path d="M93.2465 317.864C82.9307 318.271 71.4129 313.617 62.4441 308.423C53.4755 303.228 46.311 294.338 44.4994 284.011C42.6876 273.684 46.9041 262.153 55.6972 256.657C65.1141 250.772 78.0283 252.801 86.6707 259.807C95.313 266.812 99.2277 280.452 98.6161 291.668C97.9256 304.336 98.0131 308.326 93.2465 317.864Z" fill="#455A64"/>
<path d="M97.6139 317.52C95.7901 317.117 94.107 316.222 92.7421 314.928L92.4293 316.336C91.9938 317.836 92.6658 320.874 93.1743 322.351C93.3212 322.777 93.605 323.259 94.0497 323.251C94.5234 323.241 94.7865 322.675 94.8088 322.194C94.7557 321.715 94.8062 321.23 94.9568 320.774C95.168 321.23 95.4757 321.633 95.8581 321.954C96.043 322.135 96.2884 322.238 96.5452 322.244C96.802 322.249 97.0514 322.156 97.2436 321.983C97.4357 321.81 97.5566 321.569 97.5819 321.309C97.6073 321.05 97.5353 320.79 97.3804 320.582C97.1082 320.15 96.7441 319.785 96.315 319.515C96.8719 319.798 97.494 319.922 98.1149 319.874C98.4225 319.837 98.7035 319.679 98.8979 319.434C99.0923 319.189 99.1845 318.876 99.1548 318.563C99.0034 317.919 98.245 317.683 97.6139 317.52Z" fill="#455A64"/>
<path d="M94.2861 315.677C94.4414 315.689 94.3806 316.572 93.6314 317.254C92.8873 317.941 92.0161 317.911 92.0201 317.753C91.9978 317.588 92.6557 317.377 93.247 316.821C93.8529 316.281 94.1266 315.637 94.2861 315.677Z" fill="#263238"/>
<g opacity="0.2">
<path d="M92.653 274.002C92.3032 273.997 91.9598 274.098 91.6673 274.293C91.3748 274.488 91.1466 274.767 91.0121 275.095C90.4645 276.342 90.911 277.602 91.2921 278.805C94.3408 288.59 93.5201 299.197 89.0039 308.378C88.3491 309.693 87.641 311.361 88.5338 312.522C88.9066 312.918 89.3948 313.183 89.9266 313.276C90.4583 313.369 91.0054 313.286 91.4872 313.039C92.3438 312.633 93.0862 312.014 93.6461 311.24C94.2318 310.455 94.6597 309.56 94.9053 308.606C97.8882 297.351 97.5753 287.952 94.6722 276.529C94.385 275.4 93.8379 274.061 92.653 274.002Z" fill="black"/>
</g>
<g opacity="0.2">
<path d="M87.3409 265.108C87.0463 265.096 86.7533 265.158 86.4877 265.288C86.2221 265.418 85.992 265.612 85.8176 265.854C85.6432 266.095 85.5298 266.377 85.4874 266.673C85.4451 266.97 85.475 267.272 85.5746 267.554L85.5429 267.493C85.9208 268.548 86.5426 269.496 87.3559 270.256C87.7508 270.613 88.2596 270.811 88.7878 270.815C89.3159 270.819 89.8275 270.628 90.2275 270.278C90.9582 269.461 90.6764 268.146 90.1403 267.186C89.884 266.628 89.493 266.145 89.0035 265.781C88.514 265.418 87.9421 265.187 87.3409 265.108Z" fill="black"/>
</g>
<path d="M48.8226 266.229C48.7989 266.322 48.7633 266.411 48.7168 266.495C48.6226 266.693 48.5066 266.936 48.3663 267.231C48.2865 267.393 48.2001 267.568 48.1071 267.758C48.0181 267.953 47.9354 268.172 47.838 268.404C47.6526 268.87 47.4092 269.387 47.2249 269.993C47.1234 270.293 47.0177 270.606 46.9077 270.932C46.7996 271.259 46.7225 271.61 46.6227 271.967C46.4103 272.68 46.2758 273.463 46.1123 274.282C45.4954 277.864 45.6003 281.535 46.4208 285.075C46.6306 285.883 46.8096 286.657 47.0624 287.356C47.1822 287.706 47.2795 288.053 47.4059 288.373L47.7763 289.291C47.9949 289.885 48.2675 290.387 48.4792 290.842C48.5896 291.067 48.6846 291.281 48.7847 291.47C48.8886 291.654 48.9849 291.825 49.0734 291.982C49.2304 292.268 49.36 292.503 49.4654 292.695C49.5167 292.776 49.5573 292.863 49.586 292.955C49.5199 292.887 49.4631 292.81 49.4171 292.726C49.2993 292.541 49.1544 292.314 48.9784 292.038C48.8827 291.885 48.7788 291.717 48.6667 291.537C48.5591 291.35 48.4564 291.139 48.3387 290.916C48.0647 290.414 47.8156 289.899 47.5925 289.372C47.4677 289.078 47.3376 288.772 47.2022 288.453C47.0693 288.132 46.9659 287.785 46.8399 287.432C46.5754 286.73 46.3857 285.951 46.1669 285.137C45.3086 281.566 45.2024 277.851 45.8553 274.235C46.0275 273.409 46.1722 272.621 46.3963 271.904C46.5018 271.545 46.5852 271.192 46.6997 270.864C46.8165 270.537 46.9289 270.224 47.0368 269.923C47.2293 269.384 47.4485 268.855 47.6935 268.338C47.7983 268.108 47.8887 267.891 47.9855 267.698C48.0871 267.512 48.1813 267.339 48.2681 267.179C48.4281 266.894 48.5596 266.658 48.6669 266.467C48.708 266.381 48.7604 266.3 48.8226 266.229Z" fill="white"/>
<path d="M55.08 259.903C54.574 260.552 53.9958 261.139 53.357 261.652C52.7801 262.237 52.1386 262.752 51.4453 263.187C51.9514 262.538 52.5297 261.951 53.1687 261.437C53.7456 260.853 54.3869 260.338 55.08 259.903Z" fill="white"/>
<g opacity="0.1">
<path d="M51.2262 266.454C45.1158 277.038 47.4284 288.391 55.6977 297.334C58.3353 300.186 61.7092 302.56 65.7284 302.54C66.7903 302.538 67.8413 302.323 68.8211 301.906C73.7761 299.776 74.0222 294.369 72.4547 290.191C71.2943 287.097 69.2908 284.416 67.7618 281.492C66.233 278.569 65.1688 275.137 66.0966 271.963C67.0183 268.811 69.8396 266.07 68.3636 262.622C67.9861 261.812 67.4289 261.102 66.7357 260.548C66.0425 259.994 65.2323 259.611 64.3687 259.429C63.0319 259.12 61.6446 259.114 60.3052 259.411C56.8961 260.19 53.9213 262.291 52.0156 265.267L51.2262 266.454Z" fill="white"/>
</g>
<path d="M261.397 58.1443L267.474 57.2584C272.406 60.4457 278.334 61.6432 284.091 60.6155C289.848 59.5878 295.018 56.4092 298.586 51.7045C302.154 46.9998 303.861 41.1093 303.371 35.1908C302.881 29.2723 300.231 23.754 295.94 19.7204C291.65 15.6869 286.029 13.4299 280.184 13.393C274.339 13.3562 268.692 15.5423 264.352 19.5214C260.013 23.5006 257.295 28.9852 256.733 34.897C256.172 40.8089 257.806 46.7204 261.317 51.4697L261.306 51.4614L261.397 58.1443Z" fill="white"/>
<path d="M261.397 58.1446C261.381 58.0068 261.373 57.8682 261.373 57.7295C261.363 57.4202 261.35 57.0001 261.332 56.4609C261.303 55.2971 261.26 53.6223 261.205 51.4633C261.205 51.4498 261.207 51.4364 261.212 51.4239C261.217 51.4113 261.224 51.3998 261.233 51.39C261.242 51.3803 261.253 51.3724 261.265 51.367C261.277 51.3615 261.29 51.3585 261.303 51.3582C261.327 51.3581 261.35 51.3659 261.369 51.3805L261.379 51.3887L261.236 51.5319C258.912 48.4414 257.374 44.8162 256.758 40.9775C256.362 38.4595 256.357 35.8941 256.742 33.3744C257.197 30.5066 258.164 27.7472 259.593 25.2315C261.19 22.4565 263.31 20.0292 265.832 18.0886C268.553 15.9659 271.705 14.4868 275.06 13.759C278.633 12.9976 282.329 13.0704 285.87 13.972C289.588 14.9245 293.014 16.802 295.84 19.4353C297.287 20.7643 298.571 22.2661 299.663 23.908C300.163 24.7444 300.674 25.5744 301.103 26.4389L301.696 27.7587L301.987 28.4172L302.213 29.0999C303.442 32.6335 303.855 36.407 303.42 40.1287C303.001 43.6215 301.811 46.9731 299.939 49.9334C298.232 52.6705 296.006 55.0356 293.392 56.8913C291.026 58.5543 288.381 59.7642 285.587 60.4615C284.925 60.5913 284.273 60.719 283.633 60.8447C282.99 60.9547 282.347 60.9799 281.722 61.0494C280.516 61.1505 279.303 61.1465 278.098 61.0375C274.295 60.7146 270.628 59.4459 267.422 57.3432L267.488 57.3578C265.531 57.6177 264.005 57.8203 262.94 57.9617C262.449 58.0235 262.064 58.0716 261.779 58.1075C261.653 58.128 261.525 58.1404 261.397 58.1446C261.403 58.1378 261.543 58.1115 261.811 58.0657C262.1 58.0178 262.49 57.9532 262.989 57.8705C264.036 57.704 265.536 57.4656 267.46 57.1595C267.484 57.1564 267.507 57.1615 267.527 57.1742C270.726 59.207 274.362 60.4216 278.123 60.7139C279.313 60.8119 280.509 60.8068 281.697 60.6987C282.312 60.6253 282.945 60.5971 283.577 60.4843C284.207 60.3569 284.847 60.2272 285.498 60.0953C288.241 59.3934 290.835 58.1904 293.155 56.545C295.714 54.7114 297.89 52.3811 299.558 49.6884C301.384 46.7814 302.542 43.4936 302.946 40.0694C303.365 36.4237 302.955 32.7291 301.748 29.2696L301.527 28.6014L301.241 27.9572L300.66 26.6656C300.239 25.8197 299.737 25.0078 299.249 24.1888C298.178 22.5822 296.921 21.1125 295.505 19.8116C292.739 17.2336 289.386 15.3941 285.748 14.4585C282.281 13.5725 278.661 13.4957 275.16 14.2338C271.871 14.9404 268.778 16.3823 266.105 18.4548C263.623 20.3521 261.533 22.7272 259.954 25.4445C258.538 27.9114 257.575 30.6188 257.111 33.4352C256.718 35.9153 256.706 38.4423 257.077 40.9259C257.66 44.7242 259.143 48.3215 261.398 51.408C261.414 51.4297 261.422 51.4571 261.418 51.4842C261.414 51.5113 261.4 51.5358 261.379 51.5524C261.361 51.5659 261.339 51.5732 261.317 51.573C261.294 51.5728 261.272 51.5652 261.255 51.5514L261.244 51.5431L261.408 51.4605C261.411 53.5924 261.414 55.2465 261.416 56.3958C261.413 56.9459 261.411 57.3745 261.41 57.6901C261.407 57.984 261.403 58.1376 261.397 58.1446Z" fill="#263238"/>
<path d="M267.59 38.2196L270.76 34.7716L277.28 40.2692L289.296 27.6934L292.456 30.9219L277.026 46.7166L267.59 38.2196Z" fill="#43056C"/>
<path d="M275.367 87.3928C275.367 87.3928 278.493 90.6526 280.315 92.9866C282.136 95.3205 287.205 97.735 287.205 97.735L288.948 98.8616V104.415L301.462 104.978C300.652 101.483 300.096 97.9326 299.799 94.3548C299.165 87.6748 295.918 81.6389 295.047 81.4779C294.175 81.317 294.571 81.4779 294.571 81.4779C294.571 81.4779 293.938 79.3854 292.75 79.3854C292.75 79.3854 291.958 77.0515 288.631 78.1782C288.631 78.1782 288.156 77.7245 286.73 77.8709C285.304 78.0172 278.493 81.0755 278.176 81.7999C277.859 82.5242 278.968 84.9385 278.968 84.9385C278.968 84.9385 276.75 83.168 275.879 83.7313C275.008 84.2948 274.191 85.2605 275.367 87.3928Z" fill="#FFBF9D"/>
<path d="M293.75 86.2196C293.673 86.292 293.589 86.3579 293.501 86.4168C293.276 86.5814 293.027 86.7621 292.747 86.9667C292.391 87.2265 291.995 87.516 291.559 87.8352C291.333 88.0064 291.08 88.1912 290.851 88.394C290.828 88.4135 290.807 88.4345 290.788 88.457C290.789 88.4458 290.776 88.493 290.807 88.4038C290.806 88.3181 290.797 88.3259 290.787 88.3017C290.769 88.2747 290.767 88.283 290.776 88.2844C290.838 88.3096 290.902 88.3283 290.967 88.3401C291.131 88.3715 291.297 88.3938 291.463 88.4067L291.472 88.4073L291.489 88.4108C291.841 88.4869 292.149 88.702 292.345 89.0088C292.541 89.3156 292.609 89.689 292.535 90.0469C292.393 90.4104 292.15 90.7239 291.835 90.9488C291.52 91.1738 291.148 91.3003 290.763 91.3129C289.993 91.4353 289.205 91.3804 288.458 91.1524C287.655 90.8898 286.949 90.3884 286.43 89.7131C285.84 88.9543 285.547 87.9998 285.61 87.0346C285.66 86.5857 285.804 86.153 286.032 85.7654C286.26 85.3778 286.568 85.0443 286.933 84.7875C287.258 84.559 287.605 84.3639 287.968 84.205C288.3 84.0423 288.625 83.8836 288.94 83.7289C289.56 83.429 290.143 83.1465 290.69 82.8816C291.761 82.3673 292.632 81.9589 293.239 81.6869C293.543 81.5209 293.867 81.3946 294.203 81.311C293.934 81.5321 293.639 81.7178 293.325 81.864C292.745 82.1904 291.898 82.6476 290.847 83.2031C290.31 83.4847 289.736 83.7856 289.126 84.1057C288.814 84.2675 288.493 84.4338 288.164 84.6045C287.829 84.7586 287.509 84.9454 287.209 85.1623C286.9 85.3834 286.642 85.6687 286.45 85.9991C286.259 86.3295 286.139 86.6975 286.098 87.0788C286.053 87.9172 286.312 88.7431 286.825 89.4015C287.283 89.9974 287.905 90.4416 288.612 90.6781C289.288 90.8872 290 90.943 290.7 90.8416C290.996 90.843 291.287 90.7586 291.538 90.5983C291.789 90.4379 291.99 90.2082 292.118 89.9361C292.169 89.6879 292.123 89.4292 291.99 89.2149C291.856 89.0006 291.646 88.8475 291.403 88.788L291.429 88.7922C291.247 88.7723 291.066 88.7416 290.888 88.7003C290.788 88.6789 290.692 88.6442 290.601 88.5969C290.559 88.5739 290.522 88.541 290.495 88.5009C290.479 88.4787 290.467 88.453 290.461 88.4257C290.455 88.3983 290.455 88.3701 290.461 88.3428C290.495 88.2322 290.5 88.2657 290.513 88.2377C290.547 88.198 290.585 88.1616 290.625 88.1289C290.893 87.9117 291.145 87.7458 291.385 87.5817C291.863 87.2604 292.283 86.9965 292.63 86.7853C293.319 86.3686 293.74 86.1486 293.75 86.2196Z" fill="#FF9A6C"/>
<path d="M291.825 79.6597C291.044 80.0795 290.235 80.4417 289.403 80.7435C288.652 81.0648 287.762 81.4564 286.786 81.9162C286.295 82.1546 285.787 82.4009 285.263 82.6552C284.724 82.9032 284.206 83.1966 283.716 83.5323C283.252 83.8375 282.922 84.3119 282.793 84.8575C282.717 85.3856 282.777 85.9248 282.966 86.4226C283.25 87.3195 283.683 88.16 284.248 88.907C284.703 89.3241 285.289 89.5644 285.901 89.5853C286.34 89.5917 286.57 89.4615 286.589 89.5048C286.603 89.5211 286.396 89.7229 285.912 89.7827C285.222 89.8419 284.536 89.6212 284.006 89.1686C283.675 88.8321 283.4 88.4436 283.192 88.018C282.94 87.5534 282.72 87.072 282.532 86.5773C282.301 86.0026 282.225 85.3757 282.313 84.7614C282.459 84.0907 282.856 83.5038 283.419 83.1236C283.934 82.769 284.48 82.4624 285.049 82.2076C285.581 81.9481 286.1 81.7092 286.597 81.4894C287.592 81.0493 288.503 80.6892 289.275 80.4088C290.093 80.0575 290.949 79.8061 291.825 79.6597Z" fill="#FF9A6C"/>
<path d="M287.87 78.5781C287.19 78.9337 286.486 79.2403 285.763 79.4958C285.114 79.7735 284.349 80.121 283.52 80.5464C282.62 80.9805 281.76 81.4925 280.947 82.0766C280.59 82.383 280.326 82.7854 280.184 83.2376C280.043 83.6898 280.03 84.1734 280.147 84.6328C280.313 85.424 280.654 86.1664 281.144 86.8041C281.319 86.9994 281.531 87.1564 281.767 87.2657C282.004 87.3749 282.259 87.434 282.519 87.4394C282.896 87.4545 283.09 87.3372 283.11 87.3753C283.13 87.3929 282.953 87.5867 282.527 87.6368C282.227 87.6706 281.924 87.6351 281.639 87.533C281.355 87.4309 281.097 87.2648 280.884 87.0471C280.305 86.3869 279.897 85.5904 279.697 84.7296C279.574 84.2063 279.575 83.6608 279.701 83.1383C279.847 82.5661 280.171 82.0572 280.625 81.688C281.468 81.0755 282.37 80.552 283.318 80.1257C284.074 79.7631 284.848 79.441 285.637 79.1606C286.348 78.8547 287.101 78.6584 287.87 78.5781Z" fill="#FF9A6C"/>
<path d="M283.329 88.2898C283.35 88.3566 283.035 88.5234 282.511 88.739C282.352 88.8171 282.183 88.8692 282.008 88.8934C281.888 88.8812 281.773 88.8415 281.67 88.7772C281.568 88.7128 281.481 88.6256 281.417 88.5222C281.152 88.1878 280.909 87.881 280.656 87.5615C279.949 86.774 279.369 85.8776 278.938 84.9058C279.759 85.5689 280.472 86.36 281.05 87.2496L281.78 88.2348C281.889 88.3947 281.968 88.4709 282.016 88.4724C282.148 88.4601 282.278 88.4347 282.405 88.3964C282.957 88.2685 283.308 88.2228 283.329 88.2898Z" fill="#FF9A6C"/>
<path d="M291.065 95.0363C290.92 95.0637 290.655 93.9128 289.881 92.7347C289.123 91.5447 288.188 90.8415 288.271 90.7168C288.324 90.5974 289.468 91.1608 290.298 92.4558C290.87 93.1843 291.144 94.108 291.065 95.0363Z" fill="#FF9A6C"/>
<path d="M287.824 99.7871L286.867 115.052L300.85 141.222C300.85 141.222 304.907 118.926 303.406 115.491C301.905 112.057 301.123 110.466 301.123 110.466L301.427 101.847L287.824 99.7871Z" fill="#E0E0E0"/>
<path d="M177.01 393.775L177.561 416.408C177.561 416.408 155.445 424.603 155.152 428.796L197.73 429.24L198.275 393.938L177.01 393.775Z" fill="#263238"/>
<path d="M190.743 414.643C191.154 414.78 191.501 415.065 191.719 415.445C191.937 415.824 192.01 416.272 191.924 416.702C191.815 417.125 191.549 417.489 191.182 417.717C190.815 417.946 190.375 418.022 189.955 417.929C189.52 417.783 189.153 417.479 188.924 417.075C188.696 416.672 188.621 416.197 188.716 415.741C188.874 415.312 189.191 414.963 189.6 414.768C190.008 414.573 190.475 414.549 190.901 414.7" fill="#E0E0E0"/>
<path d="M197.729 429.24L197.649 425.68L156.856 426.586C156.856 426.586 154.952 427.417 155.151 428.796L197.729 429.24Z" fill="#455A64"/>
<path d="M176.872 416.178C176.877 416.393 177.915 416.501 178.931 417.201C179.965 417.875 180.482 418.809 180.675 418.726C180.866 418.687 180.57 417.401 179.326 416.575C178.089 415.738 176.829 415.981 176.872 416.178Z" fill="white"/>
<path d="M172.385 418.037C172.335 418.244 173.232 418.618 173.928 419.533C174.651 420.426 174.819 421.409 175.026 421.401C175.221 421.437 175.378 420.183 174.491 419.063C173.614 417.935 172.391 417.832 172.385 418.037Z" fill="white"/>
<path d="M169.79 423.525C169.979 423.572 170.279 422.504 169.758 421.324C169.244 420.139 168.269 419.666 168.179 419.843C168.06 420.019 168.684 420.655 169.098 421.631C169.534 422.596 169.584 423.501 169.79 423.525Z" fill="white"/>
<path d="M177.3 411.006C177.385 411.202 178.342 410.916 179.516 411.011C180.692 411.081 181.603 411.497 181.713 411.314C181.835 411.16 180.95 410.357 179.566 410.266C178.182 410.164 177.2 410.836 177.3 411.006Z" fill="white"/>
<path d="M225.633 393.354L225.531 420.742L219.394 442.398C219.287 442.764 219.256 443.149 219.301 443.529C219.347 443.908 219.468 444.274 219.658 444.604C219.848 444.934 220.102 445.221 220.406 445.448C220.709 445.674 221.054 445.835 221.421 445.921C221.845 446.016 222.286 446.006 222.705 445.89C223.125 445.774 223.51 445.557 223.829 445.256C227.983 441.349 243.198 426.899 243.097 424.894C242.98 422.573 245.065 396.006 245.065 396.006L225.633 393.354Z" fill="#263238"/>
<path d="M221.422 445.921L243.146 423.047L243.116 424.207C243.093 425.208 242.724 426.169 242.074 426.921C240.336 428.922 235.418 434.341 223.91 445.259C223.582 445.572 223.183 445.796 222.749 445.911C222.314 446.027 221.858 446.03 221.422 445.921Z" fill="#455A64"/>
<g opacity="0.6">
<path d="M237.926 414.079C237.592 414.321 237.357 414.679 237.263 415.085C237.17 415.491 237.225 415.917 237.418 416.285C237.634 416.635 237.975 416.886 238.369 416.985C238.764 417.085 239.181 417.024 239.532 416.817C239.886 416.559 240.134 416.18 240.231 415.749C240.328 415.318 240.267 414.866 240.058 414.479C239.796 414.137 239.412 413.914 238.99 413.857C238.567 413.801 238.139 413.915 237.799 414.176" fill="white"/>
</g>
<path d="M227.798 434.108C227.646 434.18 227.085 432.731 225.526 431.921C224.564 431.499 223.532 431.268 222.485 431.242C222.464 431.174 222.806 430.97 223.429 430.895C224.249 430.818 225.073 430.99 225.797 431.387C226.53 431.778 227.135 432.377 227.539 433.111C227.834 433.682 227.865 434.087 227.798 434.108Z" fill="white"/>
<path d="M225.813 437.727C225.684 437.843 224.855 436.931 223.493 436.492C222.64 436.303 221.778 436.167 220.909 436.083C220.836 435.941 222.129 435.392 223.675 435.92C225.225 436.43 225.953 437.657 225.813 437.727Z" fill="white"/>
<path d="M231.436 429.496C231.308 429.623 230.04 428.215 227.98 427.34C225.933 426.431 224.067 426.478 224.067 426.295C224.028 426.148 226.01 425.817 228.208 426.785C230.414 427.73 231.566 429.422 231.436 429.496Z" fill="white"/>
<path d="M232.144 421.171C232.069 421.333 230.619 420.665 228.713 420.546C226.808 420.401 225.281 420.864 225.229 420.692C225.159 420.556 226.706 419.795 228.754 419.946C230.802 420.079 232.232 421.046 232.144 421.171Z" fill="white"/>
<path d="M232.372 413.132C232.286 413.288 230.835 412.338 228.817 412.383C226.798 412.382 225.362 413.363 225.273 413.208C225.231 413.15 225.53 412.813 226.152 412.464C226.972 412.026 227.883 411.792 228.81 411.782C229.737 411.772 230.653 411.986 231.483 412.406C232.109 412.742 232.413 413.072 232.372 413.132Z" fill="white"/>
<path d="M228.905 410.855C228.828 410.514 228.824 410.16 228.896 409.818C229.009 408.872 229.304 407.957 229.764 407.126C230.047 406.49 230.527 405.967 231.13 405.635C231.338 405.546 231.568 405.526 231.787 405.576C232.007 405.627 232.206 405.746 232.356 405.917C232.63 406.271 232.768 406.714 232.743 407.163C232.665 408.076 232.276 408.933 231.644 409.587C231.012 410.241 230.176 410.652 229.279 410.749C228.395 410.816 227.51 410.613 226.741 410.165C225.971 409.716 225.351 409.044 224.961 408.234C224.863 408.028 224.808 407.803 224.801 407.574C224.795 407.345 224.836 407.117 224.923 406.905C225.029 406.701 225.197 406.538 225.402 406.438C225.606 406.338 225.837 406.306 226.06 406.347C226.71 406.513 227.306 406.851 227.784 407.328C228.492 407.941 229.087 408.676 229.541 409.5C229.734 409.788 229.864 410.114 229.924 410.457C229.264 409.41 228.456 408.468 227.525 407.66C227.092 407.263 226.568 406.983 226.002 406.843C225.88 406.817 225.754 406.833 225.642 406.887C225.529 406.941 225.438 407.031 225.38 407.143C225.334 407.286 225.317 407.437 225.33 407.587C225.342 407.737 225.385 407.882 225.455 408.015C225.813 408.703 226.359 409.271 227.028 409.65C227.697 410.029 228.459 410.203 229.223 410.15C229.981 410.066 230.688 409.723 231.229 409.179C231.771 408.634 232.115 407.919 232.206 407.15C232.232 406.837 232.149 406.525 231.971 406.268C231.891 406.171 231.782 406.103 231.661 406.073C231.54 406.043 231.413 406.054 231.298 406.103C230.789 406.384 230.377 406.816 230.118 407.343C229.516 408.433 229.106 409.622 228.905 410.855Z" fill="white"/>
<path d="M172.455 205.518C170.708 215.294 169.737 225.196 169.552 235.13C169.469 241.226 175.18 412.871 175.18 412.871L200.171 413.49L205.949 253.548L208.095 254.238C208.095 254.238 216.766 322.711 216.998 333.691C217.206 343.559 223.341 414.564 223.341 414.564H247.706L248.154 323.578L245.213 233.161L243.719 207.82L172.455 205.518Z" fill="#455A64"/>
<path d="M228.109 79.3839C229.803 75.2077 231.138 70.8905 232.1 66.4806C233.061 62.05 232.923 57.4464 231.699 53.0834C231.496 52.431 229.708 48.0318 229.036 48.0651C228.555 48.0889 229.59 52.1608 229.327 52.5709C226.941 56.5997 225.815 61.2697 226.097 65.9631C226.276 70.4987 226.95 75.0001 228.109 79.3839Z" fill="#263238"/>
<path d="M226.99 103.763L229.388 62.2029C230.302 50.9186 224.602 40.9727 213.475 40.3564L212.443 40.3603C207.438 40.3792 202.622 42.3125 198.955 45.7754C195.289 49.2384 193.04 53.9772 192.656 59.0487C191.917 68.8337 191.224 79.6548 191.308 84.9023C191.481 95.7656 202.182 97.4129 202.182 97.4129C202.206 97.4139 201.807 108.457 201.683 111.642L217.809 111.344L221.669 111.126L226.99 103.763Z" fill="#FFBF9D"/>
<path d="M202.179 97.4125C207.117 97.3801 211.943 95.9097 216.084 93.1758C216.084 93.1758 212.766 101.357 202.094 100.421L202.179 97.4125Z" fill="#FF9A6C"/>
<path d="M197.613 69.0916C197.611 69.496 197.764 69.8854 198.04 70.1766C198.317 70.4679 198.694 70.6381 199.092 70.6509C199.286 70.6659 199.481 70.6412 199.666 70.5782C199.851 70.5153 200.021 70.4154 200.167 70.2844C200.314 70.1535 200.432 69.9941 200.517 69.8157C200.602 69.6374 200.65 69.4436 200.66 69.2458C200.662 68.8415 200.509 68.4522 200.234 68.1608C199.958 67.8693 199.581 67.6987 199.183 67.6854C198.989 67.6704 198.793 67.6952 198.609 67.7582C198.424 67.8212 198.253 67.9212 198.107 68.0522C197.96 68.1833 197.841 68.3427 197.757 68.5212C197.672 68.6997 197.623 68.8936 197.613 69.0916Z" fill="#263238"/>
<path d="M194.947 63.8375C195.137 64.039 196.29 63.1645 197.933 63.1625C199.574 63.1363 200.783 63.9907 200.961 63.7853C201.048 63.6947 200.854 63.3301 200.327 62.9436C199.614 62.4456 198.767 62.184 197.902 62.1947C197.048 62.195 196.216 62.4717 195.526 62.9847C195.023 63.3806 194.853 63.7471 194.947 63.8375Z" fill="#263238"/>
<path d="M212.113 69.4106C212.111 69.8151 212.264 70.2045 212.54 70.4958C212.817 70.7871 213.194 70.9573 213.592 70.9701C213.786 70.9851 213.981 70.9603 214.166 70.8974C214.351 70.8345 214.521 70.7346 214.667 70.6036C214.814 70.4727 214.933 70.3134 215.017 70.135C215.102 69.9566 215.15 69.7628 215.16 69.5651C215.162 69.1608 215.009 68.7715 214.734 68.4801C214.458 68.1887 214.081 68.0182 213.683 68.0047C213.489 67.9898 213.293 68.0145 213.108 68.0775C212.924 68.1405 212.753 68.2404 212.607 68.3714C212.46 68.5024 212.341 68.6619 212.257 68.8403C212.172 69.0188 212.123 69.2127 212.113 69.4106Z" fill="#263238"/>
<path d="M211.055 64.16C211.246 64.3615 212.401 63.4876 214.043 63.4854C215.683 63.4595 216.893 64.3136 217.071 64.1082C217.157 64.0174 216.965 63.6533 216.436 63.2668C215.724 62.7687 214.877 62.5069 214.012 62.5174C213.157 62.5181 212.325 62.7947 211.636 63.3072C211.133 63.7034 210.963 64.07 211.055 64.16Z" fill="#263238"/>
<path d="M205.209 77.0121C204.342 76.7399 203.444 76.5791 202.538 76.5333C202.118 76.4912 201.721 76.4081 201.649 76.1172C201.612 75.677 201.708 75.2358 201.924 74.8525C202.315 73.8192 202.724 72.7355 203.153 71.6014C204.858 66.9725 206.091 63.1676 205.907 63.0991C205.723 63.031 204.191 66.7274 202.486 71.356C202.075 72.4978 201.683 73.5854 201.31 74.6266C201.048 75.1421 200.973 75.7347 201.098 76.3006C201.16 76.4506 201.254 76.5845 201.374 76.692C201.494 76.7995 201.636 76.8778 201.791 76.921C202.023 76.9841 202.263 77.0171 202.504 77.019C203.402 77.1331 204.311 77.1308 205.209 77.0121Z" fill="#263238"/>
<path d="M210.503 58.9408C210.728 59.3662 212.321 58.9117 214.261 58.8619C216.202 58.7721 217.822 59.1105 218.016 58.6705C218.101 58.4609 217.773 58.0781 217.088 57.7359C216.181 57.3264 215.194 57.1321 214.203 57.1677C213.211 57.2034 212.24 57.4682 211.364 57.9419C210.705 58.3325 210.403 58.7379 210.503 58.9408Z" fill="#263238"/>
<path d="M194.49 59.3202C194.827 59.7031 196.169 59.3245 197.778 59.3241C199.386 59.2754 200.746 59.6123 201.064 59.219C201.203 59.0282 200.993 58.646 200.402 58.2804C199.587 57.8237 198.666 57.5987 197.736 57.6292C196.809 57.6259 195.9 57.8792 195.105 58.3619C194.532 58.7451 194.341 59.1336 194.49 59.3202Z" fill="#263238"/>
<path d="M228.544 70.2504C228.726 70.1697 235.882 68.0136 235.677 75.4418C235.472 82.8699 228.175 81.1285 228.168 80.9152C228.161 80.702 228.544 70.2504 228.544 70.2504Z" fill="#FFBF9D"/>
<path d="M230.48 78.165C230.513 78.142 230.605 78.259 230.817 78.3654C231.117 78.5055 231.458 78.5224 231.769 78.4124C232.549 78.1465 233.234 76.919 233.306 75.5811C233.342 74.9449 233.238 74.3085 233.001 73.7184C232.939 73.4844 232.822 73.2693 232.659 73.0915C232.497 72.9138 232.295 72.7787 232.07 72.6979C231.925 72.6543 231.769 72.6638 231.63 72.7247C231.491 72.7856 231.378 72.894 231.309 73.0312C231.205 73.236 231.248 73.3857 231.208 73.3973C231.188 73.4153 231.055 73.2682 231.122 72.9632C231.168 72.7804 231.274 72.6191 231.423 72.5061C231.628 72.3572 231.883 72.2964 232.132 72.337C232.431 72.4059 232.707 72.5514 232.934 72.7596C233.161 72.9678 233.333 73.2318 233.431 73.5263C233.724 74.1785 233.856 74.8937 233.815 75.6095C233.727 77.1049 232.934 78.4844 231.869 78.7644C231.671 78.8169 231.464 78.8235 231.263 78.7838C231.063 78.744 230.873 78.6589 230.71 78.5347C230.488 78.3446 230.454 78.1777 230.48 78.165Z" fill="#FF9A6C"/>
<path d="M197.832 46.9243C196.673 46.2168 200.364 42.4576 203.319 41.2264C207.786 39.3661 214.539 38.3701 218.547 39.6891C223.373 41.2771 227.335 43.8941 229.62 48.4963C231.811 53.177 232.738 58.3658 232.305 63.5305C232.309 65.1112 231.896 66.6641 231.111 68.0287C230.031 69.6325 228.541 70.3893 228.038 72.861C227.983 73.6755 227.69 74.4548 227.197 75.0997C225.807 76.4951 224.221 75.0759 223.518 73.6857C222.017 70.7171 221.964 67.2377 221.944 63.9001C221.802 61.5276 222.045 59.1476 222.662 56.8549C223.065 55.6307 223.682 54.4825 224.017 53.2374C224.222 52.6251 224.295 51.9746 224.228 51.3311C224.162 50.6876 223.959 50.0663 223.633 49.5105C223.462 49.2822 223.271 49.0705 223.062 48.878C222.075 47.9361 220.86 47.278 219.541 46.9712C218.221 46.6644 216.845 46.72 215.554 47.1322C211.384 48.4574 204.276 50.4035 202.492 48.9155C199.925 46.775 199.341 45.4199 199.341 45.4199L197.832 46.9243Z" fill="#263238"/>
<path d="M203.906 80.589L204.186 80.3922C205.611 80.2777 207.037 80.1632 208.462 80.0486C208.693 80.0091 208.929 80.0337 209.147 80.12C209.387 80.2728 209.558 80.5158 209.622 80.7962C209.771 81.2683 209.806 81.7699 209.724 82.2586C209.642 82.7473 209.446 83.2088 209.151 83.604C208.857 83.9993 208.473 84.3167 208.032 84.5295C207.591 84.7422 207.107 84.8441 206.619 84.8264C206.132 84.8087 205.655 84.672 205.231 84.4279C204.806 84.1838 204.445 83.8394 204.179 83.4238C203.913 83.0082 203.749 82.5337 203.702 82.0403C203.654 81.5468 203.725 81.0491 203.906 80.589Z" fill="#FF9A6C"/>
<path d="M204.373 83.8327C204.367 83.8381 204.397 83.879 204.46 83.9527C204.553 84.0599 204.656 84.1578 204.768 84.2452C205.289 84.6473 205.917 84.8798 206.571 84.9122C207.224 84.9446 207.872 84.7753 208.43 84.4266C208.828 84.153 209.164 83.7956 209.415 83.3788C209.665 82.9619 209.825 82.4951 209.883 82.0101C209.951 81.5027 209.886 80.986 209.693 80.513C209.641 80.3922 209.565 80.284 209.469 80.1955C209.373 80.107 209.259 80.0402 209.136 79.9997C208.909 79.9435 208.673 79.9341 208.442 79.9722C207.606 80.0729 206.846 80.1645 206.188 80.2438C205.583 80.3248 205.074 80.3929 204.67 80.4469C204.483 80.4623 204.297 80.4978 204.117 80.5529C204.305 80.5677 204.493 80.5623 204.68 80.5367C205.086 80.5021 205.597 80.4587 206.205 80.407C206.864 80.3421 207.626 80.2672 208.464 80.1848C208.666 80.1534 208.873 80.1623 209.072 80.2113C209.166 80.2435 209.252 80.296 209.324 80.3652C209.397 80.4343 209.454 80.5185 209.491 80.612C209.662 81.0466 209.719 81.5185 209.656 81.982C209.602 82.4345 209.454 82.8702 209.223 83.2607C208.991 83.6512 208.682 83.9877 208.314 84.2483C207.69 84.6549 206.943 84.818 206.21 84.7074C205.713 84.6376 205.238 84.4546 204.82 84.1721C204.526 83.9674 204.389 83.8171 204.373 83.8327Z" fill="#263238"/>
<path d="M177.41 31.4431C177.681 31.5459 198.372 37.2849 198.372 37.2849L230.406 43.6382L252.075 45.379L252.248 44.0576L211.481 33.5977L177.533 30.5054L177.41 31.4431Z" fill="#263238"/>
<path d="M195.012 50.3302L199.35 37.2809C199.35 37.2809 212.189 33.1748 231.899 43.7584C233.665 49.1815 234.464 54.8817 234.257 60.5902C226.309 54.0526 216.343 50.5789 206.118 50.7822C206.118 50.7822 199.287 47.3813 195.012 50.3302Z" fill="#455A64"/>
<path d="M234.147 55.791C234.147 55.7909 225.93 50.3988 218.92 48.4042C214.928 47.208 210.747 46.8067 206.605 47.2223C203.305 45.5983 199.51 45.3497 196.032 46.5297L195.012 50.3295C199.287 47.3806 206.118 50.7815 206.118 50.7815C216.344 50.5798 226.304 54.0954 234.205 60.6949C234.371 59.0635 234.352 57.4179 234.147 55.791Z" fill="#43056C"/>
<path d="M206.121 50.7786C206.232 48.2366 206.508 45.705 206.949 43.2004C207.226 40.6713 207.668 38.1638 208.272 35.6943C208.162 38.2365 207.885 40.7684 207.444 43.2732C207.167 45.802 206.725 48.3093 206.121 50.7786Z" fill="#263238"/>
<path d="M252.075 45.3786L211.134 34.9733L177.41 31.4434L177.532 30.5054L211.674 33.5233L252.247 44.0573L252.075 45.3786Z" fill="#455A64"/>
<path d="M211.152 35.1091C211.016 35.0907 210.952 34.7162 211.01 34.2728C211.068 33.8292 211.225 33.4846 211.362 33.5032C211.499 33.5216 211.563 33.896 211.505 34.3396C211.447 34.783 211.289 35.1276 211.152 35.1091Z" fill="#263238"/>
<path d="M180.52 40.3469L179.365 40.2373C178.834 40.4195 178.363 40.7458 178.002 41.1808C177.64 41.6158 177.403 42.143 177.315 42.7053C176.289 46.3772 175.523 50.119 175.023 53.902C176.22 54.0619 177.417 54.2219 178.614 54.3818C178.9 54.4201 179.456 45.0104 179.471 54.3915C179.471 54.7128 181.522 54.7773 181.462 54.4173C180.919 50.4016 180.831 46.3358 181.2 42.2997C181.269 41.9422 181.243 41.5723 181.123 41.2288C181.004 40.8852 180.795 40.5806 180.52 40.3469Z" fill="#43056C"/>
<path d="M180.758 38.6822C180.897 37.5578 181.107 36.4435 181.385 35.3462C181.571 34.4165 181.899 33.5221 182.357 32.6955C182.566 32.3203 182.852 31.9955 183.196 31.7435C183.54 31.4914 183.933 31.3181 184.35 31.2354C185.44 31.2002 186.51 31.5477 187.378 32.2193C188.035 32.6355 188.638 31.5814 187.984 31.1668C186.923 30.3825 185.636 29.9786 184.325 30.0188C183.78 30.0909 183.255 30.277 182.784 30.5653C182.312 30.8537 181.905 31.2381 181.587 31.6943C180.977 32.6019 180.544 33.6209 180.313 34.6951C179.969 36.0044 179.717 37.3368 179.559 38.6822C179.559 38.8436 179.623 38.9981 179.735 39.1122C179.847 39.2263 180 39.2908 180.158 39.2917C180.316 39.2879 180.467 39.2224 180.578 39.1089C180.69 38.9955 180.754 38.8427 180.758 38.6822Z" fill="#43056C"/>
<path d="M181.556 39.5047C181.525 39.8472 181.393 40.1724 181.178 40.4383C180.964 40.7043 180.675 40.8989 180.351 40.9972C180.026 41.0955 179.68 41.0929 179.357 40.9899C179.034 40.8869 178.749 40.688 178.538 40.419C178.327 40.1499 178.2 39.8229 178.173 39.4799C178.147 39.1369 178.221 38.7936 178.388 38.4942C178.555 38.1948 178.806 37.9529 179.109 37.7995C179.412 37.6462 179.753 37.5884 180.089 37.6336C180.528 37.6842 180.929 37.9097 181.204 38.2606C181.479 38.6114 181.606 39.0589 181.556 39.5047Z" fill="#43056C"/>
<path d="M181.557 39.5046C181.487 39.0225 181.267 38.5755 180.931 38.228C180.744 38.0671 180.523 37.9523 180.285 37.8926C180.047 37.8329 179.799 37.8298 179.559 37.8836C179.272 37.9389 179.01 38.0847 178.809 38.3003C178.608 38.5159 178.48 38.7903 178.441 39.0845C178.403 39.3788 178.457 39.6778 178.595 39.9392C178.733 40.2005 178.95 40.4108 179.212 40.5402C179.43 40.6556 179.67 40.7184 179.915 40.7238C180.16 40.7291 180.403 40.6769 180.625 40.5712C181.419 40.1694 181.476 39.4641 181.557 39.5046C181.586 39.5071 181.616 39.6661 181.539 39.9439C181.416 40.3429 181.149 40.68 180.792 40.8877C180.523 41.0467 180.22 41.1363 179.908 41.1488C179.597 41.1612 179.288 41.0961 179.007 40.9592C178.648 40.7943 178.351 40.5165 178.16 40.1669C177.969 39.8172 177.894 39.4143 177.946 39.0177C177.997 38.6212 178.174 38.2521 178.448 37.9652C178.722 37.6783 179.08 37.4888 179.469 37.4248C179.775 37.3669 180.09 37.3861 180.387 37.4805C180.685 37.575 180.954 37.7419 181.173 37.9667C181.465 38.2617 181.636 38.6579 181.652 39.0757C181.655 39.3642 181.585 39.5098 181.557 39.5046Z" fill="#263238"/>
<path d="M176.594 51.3443C176.438 51.3408 176.54 48.824 177.278 45.8452C177.572 44.567 177.964 43.3141 178.449 42.0976C178.818 41.1566 179.287 40.659 179.342 40.7322C179.371 40.78 179.066 41.2653 178.78 42.2246C178.477 43.165 178.121 44.4917 177.764 45.9654C177.034 48.9145 176.715 51.3489 176.594 51.3443Z" fill="#263238"/>
<path d="M178.596 48.9391C178.421 47.5684 178.468 46.1779 178.734 44.8225C178.838 43.4443 179.162 42.0925 179.694 40.8203C179.65 42.1882 179.494 43.5499 179.229 44.8917C179.128 46.2562 178.916 47.61 178.596 48.9391Z" fill="#263238"/>
<path d="M180.211 43.1869C180.073 43.1803 179.985 42.6752 180.013 42.059C180.042 41.4424 180.176 40.9481 180.314 40.9547C180.452 40.9613 180.541 41.4662 180.512 42.0827C180.484 42.699 180.349 43.1934 180.211 43.1869Z" fill="#263238"/>
<path d="M186.007 31.291L188.706 31.5172L188.648 32.4319L185.742 31.9941L186.007 31.291Z" fill="#455A64"/>
<path d="M209.64 49.8525C210.101 47.5157 209.135 43.9943 205.898 42.9682C204.769 42.6386 203.562 42.721 202.486 43.2012C201.41 43.6814 200.534 44.529 200.009 45.597C199.809 45.2669 199.507 45.0141 199.15 44.879C198.792 44.7439 198.401 44.7343 198.037 44.8517C197.312 45.1108 196.714 45.6479 196.373 46.3483C196.128 46.7518 195.977 47.207 195.932 47.6789C195.887 48.1509 195.949 48.627 196.114 49.0707C196.298 49.5054 196.64 49.8512 197.069 50.0363C197.498 50.2215 197.98 50.2317 198.416 50.0648C198.525 50.7857 198.82 51.4645 199.27 52.0322C199.721 52.5999 200.311 53.0364 200.981 53.2973C201.651 53.5581 202.378 53.6341 203.086 53.5174C203.795 53.4008 204.46 53.0956 205.015 52.633C205.613 53.3085 206.377 53.8115 207.228 54.091C208.079 54.3706 208.988 54.4169 209.862 54.2253C210.737 54.0336 211.546 53.6108 212.208 52.9996C212.87 52.3884 213.362 51.6104 213.633 50.7443C212.302 50.4471 210.971 50.1498 209.64 49.8525Z" fill="#263238"/>
<path d="M169.923 111.776C169.923 111.776 165.081 112.545 163.265 114.697C161.45 116.849 157.818 120.385 156.003 126.689C154.187 132.992 148.437 151.133 148.437 151.133L138.905 154.516L134.232 166.893C130.155 177.559 128.488 189.02 129.356 200.429C129.526 203.368 130.04 206.277 130.886 209.093C134.063 218.471 146.693 219.866 149.263 218.944C151.834 218.021 171.738 187.108 171.738 187.108L175.521 142.216L169.923 111.776Z" fill="#263238"/>
<g opacity="0.3">
<path d="M155.192 163.725L141.05 158.249C139.242 165.713 134.164 175.145 133.185 182.767C132.066 190.386 132.211 198.142 133.612 205.714C134.291 209.037 135.38 212.439 137.77 214.811C138.628 215.78 139.828 216.367 141.109 216.444C143.193 216.41 144.657 214.409 145.703 212.578C153.824 198.358 156.926 179.542 155.192 163.725Z" fill="black"/>
</g>
<path d="M154.198 189.686C154.198 189.686 156.853 175.97 155.437 165.679C154.66 160.037 150.341 155.147 150.341 155.147C150.341 155.147 141.069 155.465 141.051 158.248C141.461 160.295 141.982 162.317 142.613 164.305C142.695 165.725 141.844 167.716 141.918 169.735C141.918 169.735 147.655 186.224 154.198 189.686Z" fill="#E0E0E0"/>
<path d="M144.402 215.403C144.463 215.215 144.544 215.035 144.644 214.866L145.421 213.379C146.128 212.108 147.047 210.209 148.126 207.843C150.881 201.647 152.907 195.141 154.162 188.462C155.444 181.788 155.881 174.974 155.465 168.186C155.421 167.538 155.38 166.919 155.34 166.33C155.275 165.749 155.213 165.199 155.155 164.681C155.042 163.651 154.946 162.763 154.814 162.045C154.712 161.367 154.629 160.816 154.564 160.382C154.524 160.188 154.505 159.991 154.509 159.794C154.582 159.977 154.633 160.167 154.662 160.361C154.752 160.792 154.866 161.339 155.006 162.011C155.168 162.727 155.292 163.614 155.432 164.645C155.502 165.164 155.577 165.714 155.657 166.297C155.708 166.887 155.761 167.508 155.817 168.16C156.341 174.981 155.949 181.843 154.653 188.558C153.397 195.276 151.312 201.807 148.447 207.994C147.321 210.351 146.351 212.231 145.591 213.476C145.24 214.064 144.956 214.541 144.731 214.918C144.64 215.092 144.53 215.254 144.402 215.403Z" fill="#455A64"/>
<path d="M168.145 170.177C167.341 169.374 166.593 168.515 165.907 167.605C164.196 165.476 162.347 163.465 160.371 161.587C158.399 159.718 156.139 158.191 153.68 157.065C151.778 156.242 150.501 155.999 150.524 155.899C150.829 155.896 151.133 155.937 151.427 156.022C152.242 156.187 153.041 156.424 153.814 156.733C156.363 157.782 158.7 159.3 160.706 161.211C162.705 163.101 164.537 165.165 166.182 167.379C166.823 168.218 167.32 168.911 167.66 169.394C167.857 169.63 168.021 169.894 168.145 170.177Z" fill="#455A64"/>
<path d="M162.472 184.164C162.391 184.15 162.59 182.846 162.742 180.73C163.149 175.209 162.57 169.659 161.032 164.348C160.447 162.311 159.983 161.08 160.059 161.048C160.237 161.303 160.378 161.581 160.478 161.876C160.723 162.42 161.031 163.228 161.37 164.241C163.113 169.557 163.702 175.194 163.094 180.763C162.973 181.826 162.838 182.681 162.711 183.265C162.674 183.575 162.593 183.878 162.472 184.164Z" fill="#455A64"/>
<path d="M253.267 113.779C253.267 113.779 255.629 111.948 257.422 113.017C259.215 114.086 277.376 130.424 277.376 130.424L286.352 104.978C286.352 104.978 312.692 166.352 308.141 170.276C303.59 174.199 272.163 176.213 263.199 171.589C254.235 166.965 242.762 146.967 242.762 146.967L253.267 113.779Z" fill="#263238"/>
<path d="M193.719 105.995L199.172 103.962L202.097 98.8207L212.62 106.338L227.411 96.46L228.513 103.139L235.595 107.718L213.351 143.142L202.491 139.657L193.719 105.995Z" fill="#E0E0E0"/>
<path d="M211.478 107.927L208.895 111.217L210.194 114.653L213.316 115.187L215.27 111.867L213.466 108.163L211.478 107.927Z" fill="#43056C"/>
<path d="M210.195 114.653L202.492 139.657L213.353 143.142L216.842 137.586L213.317 115.187L210.195 114.653Z" fill="#43056C"/>
<path d="M228.273 103.466C228.002 103.756 227.705 104.021 227.385 104.255C226.726 104.787 225.869 105.478 224.826 106.319C222.553 108.101 219.476 110.512 215.94 113.283L215.706 113.467L215.577 113.193C214.83 111.61 214.03 109.917 213.205 108.168C212.932 107.587 212.663 107.014 212.397 106.447L212.815 106.497C211.024 108.737 209.339 110.844 207.838 112.721L207.681 112.917L207.509 112.739C205.178 110.317 203.206 108.268 201.749 106.755C201.102 106.062 200.569 105.491 200.151 105.042C199.95 104.849 199.771 104.634 199.617 104.4C199.847 104.557 200.059 104.738 200.249 104.942C200.692 105.369 201.254 105.911 201.934 106.566C203.424 108.047 205.44 110.052 207.823 112.42L207.494 112.438C208.982 110.551 210.652 108.432 212.428 106.18L212.675 105.866L212.846 106.229C213.112 106.794 213.382 107.367 213.656 107.949C214.476 109.7 215.27 111.397 216.012 112.982L215.649 112.892C219.226 110.178 222.34 107.816 224.641 106.071C225.719 105.276 226.604 104.624 227.286 104.122C227.594 103.873 227.925 103.653 228.273 103.466Z" fill="#263238"/>
<path d="M169.244 111.908L195.088 104.401L210.393 141.226L233.824 104.401L256.012 113.088L247.799 152.21L251.536 201.978C251.536 201.978 264.244 330.663 263.662 334.51L240.906 337.06C240.906 337.06 242.493 360.043 240.906 360.456C219.18 366.107 213.655 352.85 213.655 352.85C199.078 358.373 178.336 353.129 169.57 339.651L155.152 333.223L168.148 164.727L169.244 111.908Z" fill="#263238"/>
<path d="M163.266 114.698C163.327 114.844 163.373 114.997 163.403 115.153C163.487 115.494 163.596 115.937 163.732 116.491C164.014 117.71 164.409 119.416 164.904 121.553C165.888 125.948 167.267 132.108 168.892 139.372L168.897 139.39L168.898 139.411C169.163 144.81 169.199 150.877 169.024 157.259C168.678 169.186 167.835 179.947 167.47 187.746C167.268 191.645 167.142 194.802 167.058 196.984C167.018 198.04 166.986 198.878 166.962 199.497L166.925 200.15C166.926 200.225 166.916 200.3 166.895 200.373C166.877 200.3 166.869 200.224 166.874 200.149L166.862 199.495C166.862 198.876 166.863 198.037 166.864 196.979C166.888 194.794 166.96 191.633 167.117 187.73C167.392 179.921 168.179 169.153 168.524 157.245C168.699 150.873 168.679 144.82 168.443 139.433L168.448 139.472C166.895 132.192 165.577 126.018 164.637 121.613C164.195 119.464 163.842 117.749 163.59 116.523C163.483 115.962 163.397 115.514 163.331 115.169C163.293 115.015 163.271 114.857 163.266 114.698Z" fill="#455A64"/>
<path d="M255.811 114.719C255.74 115.253 255.625 115.781 255.469 116.296C255.194 117.386 254.832 118.82 254.395 120.552C253.489 124.146 252.286 129.122 251.103 134.651C249.924 140.183 248.99 145.219 248.348 148.871C248.04 150.632 247.784 152.089 247.59 153.197C247.522 153.732 247.411 154.26 247.258 154.776C247.261 154.237 247.308 153.699 247.398 153.167C247.518 152.136 247.722 150.647 248 148.812C248.553 145.141 249.433 140.085 250.615 134.544C251.799 129.005 253.06 124.033 254.053 120.459C254.55 118.672 254.971 117.231 255.282 116.242C255.417 115.72 255.594 115.211 255.811 114.719Z" fill="#455A64"/>
<path d="M279.515 165.832C279.501 165.843 279.416 165.75 279.266 165.561C279.048 165.284 278.854 164.988 278.686 164.678C278.072 163.527 277.659 162.276 277.465 160.982C277.192 159.078 277.057 157.157 277.063 155.233C277.01 153.071 276.975 150.694 276.97 148.199C276.958 143.206 277.068 138.688 277.205 135.421C277.272 133.787 277.345 132.465 277.408 131.553C277.415 131.078 277.465 130.604 277.559 130.138C277.617 130.61 277.631 131.086 277.602 131.56C277.59 132.569 277.576 133.87 277.558 135.431C277.512 138.698 277.458 143.211 277.469 148.198C277.489 150.684 277.507 153.054 277.524 155.224C277.497 157.129 277.594 159.033 277.814 160.925C278.039 162.663 278.618 164.335 279.515 165.832Z" fill="#455A64"/>
<path d="M272.277 163.979C272.219 163.53 272.204 163.077 272.233 162.626C272.233 161.756 272.273 160.498 272.357 158.944C272.817 150.842 274.128 142.813 276.268 134.994C276.682 133.497 277.044 132.293 277.321 131.469C277.437 131.033 277.595 130.609 277.792 130.204C277.74 130.653 277.644 131.095 277.507 131.525C277.271 132.461 276.97 133.656 276.609 135.086C275.868 138.096 274.94 142.278 274.175 146.947C273.416 151.616 272.964 155.878 272.709 158.97C272.596 160.441 272.501 161.671 272.427 162.635C272.421 163.087 272.37 163.537 272.277 163.979Z" fill="#455A64"/>
<path d="M248.213 142.041C248.21 142.181 230.347 141.846 208.319 141.292C186.284 140.739 168.43 140.176 168.434 140.036C168.437 139.896 186.297 140.231 208.332 140.785C230.359 141.338 248.217 141.9 248.213 142.041Z" fill="#455A64"/>
<path d="M187.563 252.353C187.539 252.259 187.526 252.163 187.525 252.066C187.508 251.847 187.488 251.567 187.462 251.218C187.403 250.471 187.347 249.368 187.324 247.949C187.242 245.109 187.209 241 187.211 235.922C187.208 225.768 187.347 211.742 187.594 196.253C187.846 180.758 188.156 166.734 188.445 156.584C188.588 151.51 188.726 147.404 188.855 144.567C188.911 143.148 188.974 142.047 189.03 141.301C189.056 140.952 189.078 140.673 189.094 140.453C189.096 140.356 189.109 140.26 189.133 140.166C189.082 142.935 188.661 165.647 188.093 196.261C187.846 211.749 187.652 225.773 187.564 235.924C187.518 241 187.496 245.108 187.519 247.945C187.511 249.365 187.536 250.465 187.562 251.211C187.568 251.562 187.572 251.842 187.576 252.062C187.583 252.159 187.578 252.257 187.563 252.353Z" fill="#455A64"/>
<path d="M196.987 172.607C196.928 172.197 196.908 171.782 196.926 171.367C196.894 170.468 196.853 169.339 196.804 167.995C196.669 165.039 196.491 161.156 196.295 156.864C196.105 152.568 195.933 148.684 195.802 145.727C195.76 144.381 195.724 143.25 195.696 142.349C195.662 141.935 195.671 141.518 195.723 141.106C195.822 141.51 195.878 141.922 195.89 142.338C195.965 143.133 196.056 144.284 196.155 145.707C196.354 148.553 196.589 152.489 196.794 156.839C196.998 161.188 197.129 165.129 197.157 167.985C197.17 169.413 197.156 170.57 197.121 171.369C197.124 171.786 197.079 172.201 196.987 172.607Z" fill="#455A64"/>
<path d="M213.636 351.278C213.592 348.483 212.885 303.944 211.966 246.044C211.555 216.984 211.184 190.68 210.914 171.618C210.833 162.109 210.767 154.408 210.721 149.062C210.715 146.399 210.706 144.332 210.737 142.929C210.75 142.243 210.76 141.712 210.768 141.334C210.777 140.974 210.795 140.791 210.795 140.791C210.84 143.584 211.546 188.115 212.466 246.035C212.876 275.085 213.247 301.386 213.517 320.448C213.598 329.957 213.664 337.659 213.71 343.006C213.716 345.669 213.726 347.737 213.694 349.14C213.681 349.826 213.671 350.357 213.663 350.735C213.654 351.094 213.636 351.278 213.636 351.278Z" fill="#455A64"/>
<path d="M215.433 155.899C215.25 155.193 215.127 154.473 215.064 153.746C214.839 152.216 214.581 150.468 214.296 148.539C214.008 146.502 213.777 144.65 213.671 143.301C213.559 142.574 213.553 141.835 213.653 141.106C213.836 141.812 213.96 142.533 214.022 143.26C214.248 144.789 214.506 146.537 214.791 148.467C215.079 150.504 215.31 152.355 215.415 153.705C215.528 154.431 215.534 155.171 215.433 155.899Z" fill="#455A64"/>
<path d="M240.904 337.055C240.767 337.064 237.9 293.202 234.503 239.099C231.104 184.977 228.461 141.11 228.599 141.102C228.737 141.093 231.603 184.945 235.001 239.067C238.399 293.169 241.042 337.046 240.904 337.055Z" fill="#455A64"/>
<path d="M177.416 196.259C177.43 196.382 177.432 196.506 177.423 196.63C177.415 196.899 177.405 197.258 177.392 197.715C177.353 198.697 177.297 200.096 177.226 201.883C177.058 205.531 176.818 210.76 176.521 217.21C175.877 230.173 174.988 248.035 174.007 267.764C172.969 287.498 172.029 305.36 171.346 318.323C170.983 324.77 170.688 329.997 170.483 333.644C170.371 335.43 170.284 336.828 170.223 337.81C170.189 338.265 170.162 338.624 170.143 338.893C170.139 339.017 170.124 339.141 170.098 339.262C170.085 339.139 170.082 339.016 170.091 338.893C170.099 338.624 170.109 338.265 170.122 337.809C170.161 336.828 170.217 335.43 170.288 333.643C170.456 329.996 170.697 324.768 170.993 318.319C171.638 305.354 172.526 287.489 173.508 267.751C174.546 248.021 175.486 230.158 176.168 217.194C176.531 210.748 176.826 205.521 177.032 201.874C177.143 200.088 177.23 198.691 177.292 197.71C177.326 197.254 177.352 196.896 177.372 196.627C177.376 196.503 177.39 196.38 177.416 196.259Z" fill="#455A64"/>
<path d="M187.292 266.463C187.05 264.144 187.142 261.802 187.566 259.511C187.808 261.829 187.715 264.171 187.292 266.463Z" fill="#455A64"/>
<g opacity="0.3">
<path d="M232.91 209.473L240.891 334.509C244.418 295.047 239.31 248.326 232.91 209.473Z" fill="black"/>
</g>
<g opacity="0.3">
<path d="M166.88 192.747C165.425 176.215 165.877 159.568 168.225 143.143C169.011 159.269 168.53 175.433 166.787 191.482" fill="black"/>
</g>
<g opacity="0.3">
<path d="M277.012 131.255C274.379 137.078 271.728 142.951 270.303 149.193C268.878 155.436 268.749 162.154 271.092 168.104C271.613 155.806 273.633 143.621 277.105 131.829L277.265 134.389" fill="black"/>
</g>
<path d="M149.444 138.397C149.222 135.628 149.193 132.794 148.289 130.172C148.095 129.503 147.748 128.89 147.277 128.382C147.038 128.132 146.738 127.951 146.407 127.858C146.077 127.765 145.728 127.763 145.396 127.853C145.113 127.97 144.86 128.151 144.658 128.383C144.455 128.615 144.307 128.892 144.226 129.191C144.069 129.791 144.005 130.411 144.038 131.031C144.144 132.799 143.953 134.573 143.472 136.275C142.801 138.205 141.396 139.782 140.569 141.649C139.946 143.092 139.677 144.667 139.785 146.238C139.892 147.81 140.373 149.332 141.187 150.674C142.06 152.084 143.576 153.344 145.187 153.033L151.515 149.727C150.446 146.032 149.752 142.236 149.444 138.397Z" fill="#FF9A6C"/>
<path d="M143.047 152.046L117.113 86.2189C117.113 86.2189 119.665 81.4518 126.787 81.9268L152.298 148.084L143.047 152.046Z" fill="#E0E0E0"/>
<path d="M150.276 148.951C150.145 148.746 150.032 148.529 149.941 148.303C149.721 147.824 149.431 147.194 149.069 146.405C148.325 144.751 147.27 142.347 146.007 139.359C143.469 133.389 140.095 125.084 136.499 115.86C132.907 106.63 129.766 98.2316 127.558 92.1279C126.451 89.0773 125.578 86.6 124.987 84.8836C124.711 84.0603 124.489 83.4015 124.321 82.9019C124.233 82.6745 124.166 82.4392 124.121 82.1992C124.24 82.412 124.338 82.6355 124.416 82.8668C124.606 83.358 124.857 84.0058 125.17 84.8152C125.832 86.5641 126.756 89.0059 127.889 92.0014C130.181 98.071 133.373 106.446 136.964 115.673C140.559 124.894 143.879 133.216 146.332 139.22C147.547 142.182 148.538 144.596 149.247 146.326C149.574 147.13 149.835 147.774 150.033 148.262C150.135 148.483 150.216 148.714 150.276 148.951Z" fill="#263238"/>
<path d="M132.724 136.784C132.648 136.957 133.49 143.612 133.785 145.469C134.079 147.325 134.728 147.325 134.728 147.325C134.728 147.325 134.728 149.721 135.317 150.62C135.655 151.145 136.097 151.594 136.614 151.937C136.95 152.891 137.406 153.797 137.97 154.633C138.595 155.333 143.157 160.263 143.157 160.263C143.157 160.263 145.986 161.461 147.991 159.903C149.234 158.874 150.122 157.468 150.525 155.89L149.287 150.859C149.287 150.859 151.115 150.021 151.115 149.182C150.999 148.447 150.717 147.75 150.289 147.146C149.131 147.404 147.986 147.724 146.86 148.104C145.574 148.583 142.45 149.841 142.45 149.841L141.917 148.499L147.106 145.349C147.106 145.349 149.869 145.052 150.58 144.332C151.291 143.612 150.82 141.695 150.054 141.516C149.287 141.336 145.868 141.815 145.338 141.755C144.807 141.695 140.229 143.733 140.229 143.733C140.229 143.733 146.222 140.557 146.399 140.497C146.576 140.438 149.523 140.378 149.936 139.839C150.348 139.3 150.584 137.143 149.287 136.784C147.782 136.571 146.254 136.571 144.749 136.784C144.218 136.844 137.439 139.359 137.439 139.359V137.323L141.624 131.873C141.889 131.454 141.987 130.95 141.9 130.461C141.812 129.971 141.545 129.534 141.153 129.237C140.75 129.091 140.312 129.076 139.9 129.194C139.488 129.313 139.123 129.558 138.854 129.896C138.111 130.62 132.959 136.245 132.724 136.784Z" fill="#FFBF9D"/>
<path d="M143.254 153.139C145.098 152.097 147.093 151.359 149.165 150.953C148.283 151.546 147.314 151.996 146.295 152.284C145.331 152.729 144.305 153.018 143.254 153.139Z" fill="#FF9A6C"/>
<path d="M144.636 154.295C144.517 154.218 144.649 153.8 144.803 153.308C144.962 152.816 145.096 152.4 145.236 152.408C145.372 152.413 145.459 152.902 145.278 153.464C145.1 154.027 144.748 154.371 144.636 154.295Z" fill="#FF9A6C"/>
<path d="M135.868 140.86C135.76 140.777 135.967 140.314 136.397 139.889C136.825 139.463 137.286 139.264 137.365 139.377C137.447 139.491 137.145 139.855 136.746 140.253C136.345 140.649 135.979 140.947 135.868 140.86Z" fill="#FF9A6C"/>
<path d="M129.715 118.207C129.715 118.207 132.089 113.258 139.181 114.068L141.059 118.94C141.059 118.94 136.972 117.606 131.7 123.246L129.715 118.207Z" fill="#43056C"/>
<path d="M124.275 121.066C122.106 122.3 120.491 124.34 119.769 126.757C119.661 127.245 119.679 127.754 119.822 128.232C119.965 128.711 120.228 129.144 120.585 129.488C120.965 129.713 121.397 129.832 121.836 129.834C122.276 129.836 122.709 129.721 123.091 129.5C125.049 128.588 126.737 127.169 127.986 125.386C129.227 123.61 130.312 121.727 131.23 119.759C128.833 119.249 126.334 119.718 124.275 121.066ZM125.797 125.913C124.922 127.004 123.796 127.86 122.518 128.404C122.328 128.491 122.119 128.527 121.911 128.51C121.703 128.493 121.503 128.422 121.329 128.305C121.213 128.201 121.122 128.07 121.064 127.924C121.007 127.777 120.984 127.619 120.999 127.462C121.081 126.589 121.421 125.762 121.974 125.09C122.558 124.44 123.215 123.622 123.857 123.032C124.549 122.305 125.38 121.73 126.3 121.345C127.32 120.902 128.402 120.626 129.507 120.528C128.052 122.299 127.251 124.141 125.797 125.913Z" fill="#43056C"/>
<path d="M129.994 113.438C128.736 111.259 126.696 109.66 124.302 108.976C123.82 108.876 123.32 108.905 122.852 109.06C122.384 109.215 121.963 109.491 121.632 109.861C121.419 110.252 121.31 110.692 121.317 111.139C121.324 111.586 121.446 112.023 121.671 112.406C122.609 114.377 124.039 116.063 125.819 117.296C127.592 118.52 129.466 119.585 131.422 120.477C131.875 118.031 131.362 115.503 129.994 113.438ZM125.256 115.082C124.164 114.216 123.299 113.09 122.738 111.802C122.649 111.611 122.608 111.4 122.621 111.188C122.634 110.976 122.699 110.772 122.811 110.593C122.911 110.472 123.038 110.377 123.181 110.316C123.324 110.254 123.479 110.228 123.634 110.239C124.494 110.306 125.315 110.634 125.988 111.182C126.639 111.762 127.457 112.413 128.051 113.053C128.781 113.741 129.363 114.574 129.761 115.501C130.217 116.528 130.51 117.622 130.63 118.742C128.857 117.3 127.028 116.524 125.256 115.082Z" fill="#43056C"/>
</svg>
