<svg width="483" height="175" viewBox="0 0 483 175" fill="none" xmlns="http://www.w3.org/2000/svg">
<path d="M334.414 52.6108H148.582V174.663H334.414V52.6108Z" fill="#43056C"/>
<path opacity="0.4" d="M334.414 52.6108H148.582V174.663H334.414V52.6108Z" fill="white"/>
<path opacity="0.5" d="M224.944 157.228H148.582V174.663H224.944V157.228Z" fill="#43056C"/>
<path opacity="0.5" d="M334.413 157.228H258.051V174.663H334.413V157.228Z" fill="#43056C"/>
<path d="M335.525 48.6367H147.469V52.6105H335.525V48.6367Z" fill="#43056C"/>
<path opacity="0.5" d="M334.414 52.6108H148.582V57.9471L334.414 55.9731V52.6108Z" fill="#43056C"/>
<path d="M334.412 60.728H148.582V65.8083H334.412V60.728Z" fill="white"/>
<path opacity="0.5" d="M334.412 65.8091H148.582V67.5289L334.412 66.6694V65.8091Z" fill="#43056C"/>
<path d="M334.412 110.434H148.582V115.514H334.412V110.434Z" fill="white"/>
<path opacity="0.5" d="M334.412 115.514H148.582V117.234L334.412 116.374V115.514Z" fill="#43056C"/>
<path d="M183.257 73.7354H168.941V106.09H183.257V73.7354Z" fill="white"/>
<path d="M181.549 75.3594H170.648V104.467H181.549V75.3594Z" fill="#455A64"/>
<g opacity="0.1">
<path d="M181.549 83.3438L170.648 96.7813V104.466L181.549 91.0294V83.3438Z" fill="white"/>
<path d="M181.549 77.5918L170.648 91.0293V94.4011L181.549 80.9636V77.5918Z" fill="white"/>
</g>
<path d="M184.89 71.2656H167.305V73.7355H184.89V71.2656Z" fill="white"/>
<path d="M168.941 74.7402V73.7354H183.257V74.2378L168.941 74.7402Z" fill="#EBEBEB"/>
<path d="M209.417 73.7354H195.102V106.09H209.417V73.7354Z" fill="white"/>
<path d="M207.709 75.3594H196.809V104.467H207.709V75.3594Z" fill="#455A64"/>
<g opacity="0.1">
<path d="M207.709 83.3438L196.809 96.7813V104.466L207.709 91.0294V83.3438Z" fill="white"/>
<path d="M207.709 77.5918L196.809 91.0293V94.4011L207.709 80.9636V77.5918Z" fill="white"/>
</g>
<path d="M211.051 71.2656H193.465V73.7355H211.051V71.2656Z" fill="white"/>
<path d="M195.102 74.7402V73.7354H209.417V74.2378L195.102 74.7402Z" fill="#EBEBEB"/>
<path d="M235.577 73.7354H221.262V106.09H235.577V73.7354Z" fill="white"/>
<path d="M233.87 75.3594H222.969V104.467H233.87V75.3594Z" fill="#455A64"/>
<g opacity="0.1">
<path d="M233.87 83.3438L222.969 96.7813V104.466L233.87 91.0294V83.3438Z" fill="white"/>
<path d="M233.87 77.5918L222.969 91.0293V94.4011L233.87 80.9636V77.5918Z" fill="white"/>
</g>
<path d="M237.211 71.2656H219.625V73.7355H237.211V71.2656Z" fill="white"/>
<path d="M221.262 74.7402V73.7354H235.577V74.2378L221.262 74.7402Z" fill="#EBEBEB"/>
<path d="M261.738 73.7354H247.422V106.09H261.738V73.7354Z" fill="white"/>
<path d="M260.03 75.3594H249.129V104.467H260.03V75.3594Z" fill="#455A64"/>
<g opacity="0.1">
<path d="M260.03 83.3438L249.129 96.7813V104.466L260.03 91.0294V83.3438Z" fill="white"/>
<path d="M260.03 77.5918L249.129 91.0293V94.4011L260.03 80.9636V77.5918Z" fill="white"/>
</g>
<path d="M263.371 71.2656H245.785V73.7355H263.371V71.2656Z" fill="white"/>
<path d="M247.422 74.7402V73.7354H261.738V74.2378L247.422 74.7402Z" fill="#EBEBEB"/>
<path d="M287.898 73.7354H273.582V106.09H287.898V73.7354Z" fill="white"/>
<path d="M286.19 75.3594H275.289V104.467H286.19V75.3594Z" fill="#455A64"/>
<g opacity="0.1">
<path d="M286.19 83.3438L275.289 96.7813V104.466L286.19 91.0294V83.3438Z" fill="white"/>
<path d="M286.19 77.5918L275.289 91.0293V94.4011L286.19 80.9636V77.5918Z" fill="white"/>
</g>
<path d="M289.531 71.2656H271.945V73.7355H289.531V71.2656Z" fill="white"/>
<path d="M273.582 74.7402V73.7354H287.898V74.2378L273.582 74.7402Z" fill="#EBEBEB"/>
<path d="M314.058 73.7354H299.742V106.09H314.058V73.7354Z" fill="white"/>
<path d="M312.35 75.3594H301.449V104.467H312.35V75.3594Z" fill="#455A64"/>
<g opacity="0.1">
<path d="M312.35 83.3438L301.449 96.7813V104.466L312.35 91.0294V83.3438Z" fill="white"/>
<path d="M312.35 77.5918L301.449 91.0293V94.4011L312.35 80.9636V77.5918Z" fill="white"/>
</g>
<path d="M315.691 71.2656H298.105V73.7355H315.691V71.2656Z" fill="white"/>
<path d="M299.742 74.7402V73.7354H314.058V74.2378L299.742 74.7402Z" fill="#EBEBEB"/>
<path d="M183.257 123.221H168.941V155.575H183.257V123.221Z" fill="white"/>
<path d="M181.549 124.845H170.648V153.952H181.549V124.845Z" fill="#455A64"/>
<g opacity="0.1">
<path d="M181.549 132.83L170.648 146.267V153.953L181.549 140.515V132.83Z" fill="white"/>
<path d="M181.549 127.078L170.648 140.515V143.887L181.549 130.45V127.078Z" fill="white"/>
</g>
<path d="M184.89 120.751H167.305V123.221H184.89V120.751Z" fill="white"/>
<path d="M168.941 124.225V123.221H183.257V123.722L168.941 124.225Z" fill="#EBEBEB"/>
<path d="M209.417 123.221H195.102V155.575H209.417V123.221Z" fill="white"/>
<path d="M207.709 124.845H196.809V153.952H207.709V124.845Z" fill="#455A64"/>
<g opacity="0.1">
<path d="M207.709 132.83L196.809 146.267V153.953L207.709 140.515V132.83Z" fill="white"/>
<path d="M207.709 127.078L196.809 140.515V143.887L207.709 130.45V127.078Z" fill="white"/>
</g>
<path d="M211.051 120.751H193.465V123.221H211.051V120.751Z" fill="white"/>
<path d="M195.102 124.225V123.221H209.417V123.722L195.102 124.225Z" fill="#EBEBEB"/>
<path d="M287.898 123.221H273.582V155.575H287.898V123.221Z" fill="white"/>
<path d="M286.19 124.845H275.289V153.952H286.19V124.845Z" fill="#455A64"/>
<g opacity="0.1">
<path d="M286.19 132.83L275.289 146.267V153.953L286.19 140.515V132.83Z" fill="white"/>
<path d="M286.19 127.078L275.289 140.515V143.887L286.19 130.45V127.078Z" fill="white"/>
</g>
<path d="M289.531 120.751H271.945V123.221H289.531V120.751Z" fill="white"/>
<path d="M273.582 124.225V123.221H287.898V123.722L273.582 124.225Z" fill="#EBEBEB"/>
<path d="M314.058 123.221H299.742V155.575H314.058V123.221Z" fill="white"/>
<path d="M312.35 124.845H301.449V153.952H312.35V124.845Z" fill="#455A64"/>
<g opacity="0.1">
<path d="M312.35 132.83L301.449 146.266V153.952L312.35 140.515V132.83Z" fill="white"/>
<path d="M312.35 127.078L301.449 140.514V143.886L312.35 130.449V127.078Z" fill="white"/>
</g>
<path d="M315.691 120.751H298.105V123.221H315.691V120.751Z" fill="white"/>
<path d="M299.742 124.225V123.221H314.058V123.722L299.742 124.225Z" fill="#EBEBEB"/>
<path d="M223.309 135.292H259.686L241.497 122.74L223.309 135.292Z" fill="white"/>
<path d="M227.566 133.937H255.433L241.5 124.322L227.566 133.937Z" fill="#43056C"/>
<path opacity="0.5" d="M227.566 133.937H255.433L241.5 124.322L227.566 133.937Z" fill="white"/>
<path opacity="0.5" d="M241.5 124.322L240.742 124.845L253.886 133.937H255.434L241.5 124.322Z" fill="#43056C"/>
<path d="M259.686 137.6H223.309V138.827H259.686V137.6Z" fill="white"/>
<path d="M258.706 135.292H224.293V137.6H258.706V135.292Z" fill="#43056C"/>
<path opacity="0.7" d="M258.706 135.292H224.293V137.6H258.706V135.292Z" fill="white"/>
<path d="M229.453 140.245H224.522L224.094 138.827H229.881L229.453 140.245Z" fill="white"/>
<path d="M229.293 140.245H224.684V140.714H229.293V140.245Z" fill="#43056C"/>
<path opacity="0.7" d="M229.293 140.245H224.684V140.714H229.293V140.245Z" fill="white"/>
<path d="M224.522 173.244H229.453L229.881 174.663H224.094L224.522 173.244Z" fill="white"/>
<path d="M224.684 173.245H229.293V172.776H224.684V173.245Z" fill="#43056C"/>
<path opacity="0.7" d="M224.684 173.245H229.293V172.776H224.684V173.245Z" fill="white"/>
<path d="M229.031 140.714H224.945V172.776H229.031V140.714Z" fill="white"/>
<path opacity="0.3" d="M225.888 141.423H225.68V172.067H225.888V141.423Z" fill="#43056C"/>
<path opacity="0.3" d="M226.689 141.423H226.48V172.067H226.689V141.423Z" fill="#43056C"/>
<path opacity="0.3" d="M227.494 141.423H227.285V172.067H227.494V141.423Z" fill="#43056C"/>
<path opacity="0.3" d="M228.295 141.423H228.086V172.067H228.295V141.423Z" fill="#43056C"/>
<path d="M258.715 140.245H253.783L253.355 138.827H259.143L258.715 140.245Z" fill="white"/>
<path d="M258.555 140.245H253.945V140.714H258.555V140.245Z" fill="#43056C"/>
<path opacity="0.7" d="M258.555 140.245H253.945V140.714H258.555V140.245Z" fill="white"/>
<path d="M253.783 173.244H258.715L259.143 174.663H253.355L253.783 173.244Z" fill="white"/>
<path d="M253.945 173.245H258.555V172.776H253.945V173.245Z" fill="#43056C"/>
<path opacity="0.7" d="M253.945 173.245H258.555V172.776H253.945V173.245Z" fill="white"/>
<path d="M258.293 140.714H254.207V172.776H258.293V140.714Z" fill="white"/>
<path opacity="0.3" d="M255.15 141.423H254.941V172.067H255.15V141.423Z" fill="#43056C"/>
<path opacity="0.3" d="M255.955 141.423H255.746V172.067H255.955V141.423Z" fill="#43056C"/>
<path opacity="0.3" d="M256.755 141.423H256.547V172.067H256.755V141.423Z" fill="#43056C"/>
<path opacity="0.3" d="M257.56 141.423H257.352V172.067H257.56V141.423Z" fill="#43056C"/>
<path d="M241.329 141.095H230.68V174.663H241.329V141.095Z" fill="#43056C"/>
<path d="M252.317 141.095H241.668V174.663H252.317V141.095Z" fill="#43056C"/>
<path d="M239.116 143.363H232.887V163.043H239.116V143.363Z" fill="white"/>
<path d="M238.593 143.916H233.414V162.49H238.593V143.916Z" fill="#455A64"/>
<path d="M250.108 143.363H243.879V163.043H250.108V143.363Z" fill="white"/>
<path d="M249.585 143.916H244.406V162.49H249.585V143.916Z" fill="#455A64"/>
<path d="M155.422 38.748H39.3906V174.663H155.422V38.748Z" fill="#43056C"/>
<path opacity="0.6" d="M155.422 38.748H39.3906V174.663H155.422V38.748Z" fill="white"/>
<path opacity="0.5" d="M155.422 157.228H39.3906V174.663H155.422V157.228Z" fill="#43056C"/>
<path d="M156.534 34.7739H38.2773V38.7477H156.534V34.7739Z" fill="#43056C"/>
<path opacity="0.5" d="M155.422 38.748H39.3906V44.0836L155.422 42.1103V38.748Z" fill="#43056C"/>
<path d="M155.421 46.8652H39.3906V51.9456H155.421V46.8652Z" fill="white"/>
<path opacity="0.5" d="M155.421 51.9453H39.3906V53.6659L155.421 52.8056V51.9453Z" fill="#43056C"/>
<path d="M155.421 96.5708H39.3906V101.651H155.421V96.5708Z" fill="white"/>
<path opacity="0.5" d="M155.421 101.651H39.3906V103.372L155.421 102.512V101.651Z" fill="#43056C"/>
<path d="M65.3235 59.8726H51.0078V92.2272H65.3235V59.8726Z" fill="white"/>
<path d="M63.6157 61.4966H52.7148V90.6039H63.6157V61.4966Z" fill="#455A64"/>
<g opacity="0.1">
<path d="M63.6159 69.4814L52.7148 82.9182V90.6039L63.6159 77.1664V69.4814Z" fill="white"/>
<path d="M63.6159 63.729L52.7148 77.1665V80.5383L63.6159 67.1015V63.729Z" fill="white"/>
</g>
<path d="M66.9568 57.4028H49.3711V59.8727H66.9568V57.4028Z" fill="white"/>
<path d="M51.0078 60.8772V59.873H65.3234V60.3748L51.0078 60.8772Z" fill="#EBEBEB"/>
<path d="M91.4837 59.8726H77.168V92.2272H91.4837V59.8726Z" fill="white"/>
<path d="M89.7759 61.4966H78.875V90.6039H89.7759V61.4966Z" fill="#455A64"/>
<g opacity="0.1">
<path d="M89.776 69.4814L78.875 82.9182V90.6039L89.776 77.1664V69.4814Z" fill="white"/>
<path d="M89.776 63.729L78.875 77.1665V80.5383L89.776 67.1015V63.729Z" fill="white"/>
</g>
<path d="M93.1171 57.4028H75.5312V59.8727H93.1171V57.4028Z" fill="white"/>
<path d="M77.168 60.8772V59.873H91.4843V60.3748L77.168 60.8772Z" fill="#EBEBEB"/>
<path d="M117.644 59.8726H103.328V92.2272H117.644V59.8726Z" fill="white"/>
<path d="M115.936 61.4966H105.035V90.6039H115.936V61.4966Z" fill="#455A64"/>
<g opacity="0.1">
<path d="M115.936 69.4814L105.035 82.9182V90.6039L115.936 77.1664V69.4814Z" fill="white"/>
<path d="M115.936 63.729L105.035 77.1665V80.5383L115.936 67.1015V63.729Z" fill="white"/>
</g>
<path d="M119.277 57.4028H101.691V59.8727H119.277V57.4028Z" fill="white"/>
<path d="M103.328 60.8772V59.873H117.644V60.3748L103.328 60.8772Z" fill="#EBEBEB"/>
<path d="M143.804 59.8726H129.488V92.2272H143.804V59.8726Z" fill="white"/>
<path d="M142.096 61.4966H131.195V90.6039H142.096V61.4966Z" fill="#455A64"/>
<g opacity="0.1">
<path d="M142.096 69.4814L131.195 82.9182V90.6039L142.096 77.1664V69.4814Z" fill="white"/>
<path d="M142.096 63.729L131.195 77.1665V80.5383L142.096 67.1015V63.729Z" fill="white"/>
</g>
<path d="M145.437 57.4028H127.852V59.8727H145.437V57.4028Z" fill="white"/>
<path d="M129.488 60.8772V59.873H143.804V60.3748L129.488 60.8772Z" fill="#EBEBEB"/>
<path d="M65.3235 109.283H51.0078V141.638H65.3235V109.283Z" fill="white"/>
<path d="M63.6157 110.907H52.7148V140.015H63.6157V110.907Z" fill="#455A64"/>
<g opacity="0.1">
<path d="M63.6159 118.892L52.7148 132.329V140.015L63.6159 126.577V118.892Z" fill="white"/>
<path d="M63.6159 113.14L52.7148 126.577V129.949L63.6159 116.512V113.14Z" fill="white"/>
</g>
<path d="M66.9568 106.813H49.3711V109.283H66.9568V106.813Z" fill="white"/>
<path d="M51.0078 110.287V109.283H65.3234V109.786L51.0078 110.287Z" fill="#EBEBEB"/>
<path d="M91.4837 109.283H77.168V141.638H91.4837V109.283Z" fill="white"/>
<path d="M89.7759 110.907H78.875V140.015H89.7759V110.907Z" fill="#455A64"/>
<g opacity="0.1">
<path d="M89.776 118.892L78.875 132.329V140.015L89.776 126.577V118.892Z" fill="white"/>
<path d="M89.776 113.14L78.875 126.577V129.949L89.776 116.512V113.14Z" fill="white"/>
</g>
<path d="M93.1171 106.813H75.5312V109.283H93.1171V106.813Z" fill="white"/>
<path d="M77.168 110.287V109.283H91.4843V109.786L77.168 110.287Z" fill="#EBEBEB"/>
<path d="M117.644 109.283H103.328V141.638H117.644V109.283Z" fill="white"/>
<path d="M115.936 110.907H105.035V140.015H115.936V110.907Z" fill="#455A64"/>
<g opacity="0.1">
<path d="M115.936 118.892L105.035 132.329V140.015L115.936 126.577V118.892Z" fill="white"/>
<path d="M115.936 113.14L105.035 126.577V129.949L115.936 116.512V113.14Z" fill="white"/>
</g>
<path d="M119.277 106.813H101.691V109.283H119.277V106.813Z" fill="white"/>
<path d="M103.328 110.287V109.283H117.644V109.786L103.328 110.287Z" fill="#EBEBEB"/>
<path d="M143.804 109.283H129.488V141.638H143.804V109.283Z" fill="white"/>
<path d="M142.096 110.907H131.195V140.015H142.096V110.907Z" fill="#455A64"/>
<g opacity="0.1">
<path d="M142.096 118.892L131.195 132.329V140.015L142.096 126.577V118.892Z" fill="white"/>
<path d="M142.096 113.14L131.195 126.577V129.949L142.096 116.512V113.14Z" fill="white"/>
</g>
<path d="M145.437 106.813H127.852V109.283H145.437V106.813Z" fill="white"/>
<path d="M129.488 110.287V109.283H143.804V109.786L129.488 110.287Z" fill="#EBEBEB"/>
<path d="M443.61 38.748H327.578V174.663H443.61V38.748Z" fill="#43056C"/>
<path opacity="0.6" d="M443.61 38.748H327.578V174.663H443.61V38.748Z" fill="white"/>
<path opacity="0.5" d="M443.61 157.228H327.578V174.663H443.61V157.228Z" fill="#43056C"/>
<path d="M444.721 34.7739H326.465V38.7477H444.721V34.7739Z" fill="#43056C"/>
<path opacity="0.5" d="M443.606 38.748H327.574V44.0836L443.606 42.1103V38.748Z" fill="#43056C"/>
<path d="M443.608 46.8652H327.578V51.9456H443.608V46.8652Z" fill="white"/>
<path opacity="0.5" d="M443.605 51.9453H327.574V53.6659L443.605 52.8056V51.9453Z" fill="#43056C"/>
<path d="M443.608 96.5708H327.578V101.651H443.608V96.5708Z" fill="white"/>
<path opacity="0.5" d="M443.605 101.651H327.574V103.372L443.605 102.512V101.651Z" fill="#43056C"/>
<path d="M353.511 59.8726H339.195V92.2272H353.511V59.8726Z" fill="white"/>
<path d="M351.799 61.4966H340.898V90.6039H351.799V61.4966Z" fill="#455A64"/>
<g opacity="0.1">
<path d="M351.803 69.4814L340.902 82.9182V90.6039L351.803 77.1664V69.4814Z" fill="white"/>
<path d="M351.803 63.729L340.902 77.1665V80.5383L351.803 67.1015V63.729Z" fill="white"/>
</g>
<path d="M355.144 57.4028H337.559V59.8727H355.144V57.4028Z" fill="white"/>
<path d="M339.195 60.8772V59.873H353.511V60.3748L339.195 60.8772Z" fill="#EBEBEB"/>
<path d="M379.671 59.8726H365.355V92.2272H379.671V59.8726Z" fill="white"/>
<path d="M377.959 61.4966H367.059V90.6039H377.959V61.4966Z" fill="#455A64"/>
<g opacity="0.1">
<path d="M377.963 69.4814L367.062 82.9182V90.6039L377.963 77.1664V69.4814Z" fill="white"/>
<path d="M377.963 63.729L367.062 77.1665V80.5383L377.963 67.1015V63.729Z" fill="white"/>
</g>
<path d="M381.304 57.4028H363.719V59.8727H381.304V57.4028Z" fill="white"/>
<path d="M365.355 60.8772V59.873H379.671V60.3748L365.355 60.8772Z" fill="#EBEBEB"/>
<path d="M405.831 59.8726H391.516V92.2272H405.831V59.8726Z" fill="white"/>
<path d="M404.124 61.4966H393.223V90.6039H404.124V61.4966Z" fill="#455A64"/>
<g opacity="0.1">
<path d="M404.12 69.4814L393.219 82.9182V90.6039L404.12 77.1664V69.4814Z" fill="white"/>
<path d="M404.12 63.729L393.219 77.1665V80.5383L404.12 67.1015V63.729Z" fill="white"/>
</g>
<path d="M407.465 57.4028H389.879V59.8727H407.465V57.4028Z" fill="white"/>
<path d="M391.516 60.8772V59.873H405.831V60.3748L391.516 60.8772Z" fill="#EBEBEB"/>
<path d="M431.991 59.8726H417.676V92.2272H431.991V59.8726Z" fill="white"/>
<path d="M430.284 61.4966H419.383V90.6039H430.284V61.4966Z" fill="#455A64"/>
<g opacity="0.1">
<path d="M430.284 69.4814L419.383 82.9182V90.6039L430.284 77.1664V69.4814Z" fill="white"/>
<path d="M430.284 63.729L419.383 77.1665V80.5383L430.284 67.1015V63.729Z" fill="white"/>
</g>
<path d="M433.625 57.4028H416.039V59.8727H433.625V57.4028Z" fill="white"/>
<path d="M417.676 60.8772V59.873H431.991V60.3748L417.676 60.8772Z" fill="#EBEBEB"/>
<path d="M353.511 109.283H339.195V141.638H353.511V109.283Z" fill="white"/>
<path d="M351.799 110.907H340.898V140.015H351.799V110.907Z" fill="#455A64"/>
<g opacity="0.1">
<path d="M351.803 118.892L340.902 132.329V140.015L351.803 126.577V118.892Z" fill="white"/>
<path d="M351.803 113.14L340.902 126.577V129.949L351.803 116.512V113.14Z" fill="white"/>
</g>
<path d="M355.144 106.813H337.559V109.283H355.144V106.813Z" fill="white"/>
<path d="M339.195 110.287V109.283H353.511V109.786L339.195 110.287Z" fill="#EBEBEB"/>
<path d="M379.671 109.283H365.355V141.638H379.671V109.283Z" fill="white"/>
<path d="M377.959 110.907H367.059V140.015H377.959V110.907Z" fill="#455A64"/>
<g opacity="0.1">
<path d="M377.963 118.892L367.062 132.329V140.015L377.963 126.577V118.892Z" fill="white"/>
<path d="M377.963 113.14L367.062 126.577V129.949L377.963 116.512V113.14Z" fill="white"/>
</g>
<path d="M381.304 106.813H363.719V109.283H381.304V106.813Z" fill="white"/>
<path d="M365.355 110.287V109.283H379.671V109.786L365.355 110.287Z" fill="#EBEBEB"/>
<path d="M405.831 109.283H391.516V141.638H405.831V109.283Z" fill="white"/>
<path d="M404.124 110.907H393.223V140.015H404.124V110.907Z" fill="#455A64"/>
<g opacity="0.1">
<path d="M404.12 118.892L393.219 132.329V140.015L404.12 126.577V118.892Z" fill="white"/>
<path d="M404.12 113.14L393.219 126.577V129.949L404.12 116.512V113.14Z" fill="white"/>
</g>
<path d="M407.465 106.813H389.879V109.283H407.465V106.813Z" fill="white"/>
<path d="M391.516 110.287V109.283H405.831V109.786L391.516 110.287Z" fill="#EBEBEB"/>
<path d="M431.991 109.283H417.676V141.638H431.991V109.283Z" fill="white"/>
<path d="M430.284 110.907H419.383V140.015H430.284V110.907Z" fill="#455A64"/>
<g opacity="0.1">
<path d="M430.284 118.892L419.383 132.329V140.015L430.284 126.577V118.892Z" fill="white"/>
<path d="M430.284 113.14L419.383 126.577V129.949L430.284 116.512V113.14Z" fill="white"/>
</g>
<path d="M433.625 106.813H416.039V109.283H433.625V106.813Z" fill="white"/>
<path d="M417.676 110.287V109.283H431.991V109.786L417.676 110.287Z" fill="#EBEBEB"/>
<path d="M165.262 52.6108H317.739L241.5 0L165.262 52.6108Z" fill="#43056C"/>
<path opacity="0.8" d="M165.262 52.6108H317.739L241.5 0L165.262 52.6108Z" fill="white"/>
<path d="M183.098 46.9329H299.903L241.5 6.62988L183.098 46.9329Z" fill="#43056C"/>
<path opacity="0.4" d="M183.098 46.9329H299.903L241.5 6.62988L183.098 46.9329Z" fill="white"/>
<path opacity="0.5" d="M241.499 6.62988L238.324 8.82078L293.414 46.9329H299.902L241.499 6.62988Z" fill="#43056C"/>
<path d="M215.972 37.0861C215.972 37.1348 215.862 37.162 215.643 37.1678C215.371 37.1746 215.207 37.2193 215.148 37.3032C215.122 37.354 215.109 37.4105 215.11 37.4676V41.557C215.11 43.0784 214.38 43.839 212.919 43.8389C212.596 43.8578 212.272 43.8064 211.971 43.6884C211.669 43.5703 211.398 43.3884 211.174 43.1554C210.809 42.6258 210.644 41.9846 210.709 41.3457V37.6492C210.709 37.444 210.677 37.3188 210.612 37.2738C210.416 37.2022 210.21 37.1663 210.001 37.1678C209.93 37.1617 209.895 37.1359 209.895 37.0907C209.895 37.0331 209.953 37.0044 210.069 37.0044H210.893C211.462 37.0109 211.882 37.0109 212.153 37.0044H212.783C212.893 37.0044 212.948 37.0363 212.948 37.1008C212.948 37.1584 212.847 37.1875 212.648 37.1875C212.363 37.1875 212.211 37.2388 212.192 37.3415C212.179 37.4084 212.172 37.4762 212.172 37.5442V41.1497C212.165 41.481 212.175 41.8124 212.202 42.1427C212.212 42.477 212.338 42.7974 212.56 43.049C212.686 43.1663 212.833 43.2574 212.995 43.3171C213.156 43.3767 213.328 43.4036 213.5 43.3961C213.685 43.4106 213.87 43.3795 214.039 43.3055C214.208 43.2315 214.356 43.1171 214.47 42.9723C214.774 42.4129 214.906 41.7769 214.848 41.1437V37.5818C214.857 37.5194 214.848 37.4557 214.823 37.3979C214.798 37.3401 214.757 37.2904 214.705 37.2545C214.586 37.2062 214.458 37.1864 214.33 37.1968C214.1 37.1903 213.985 37.1519 213.985 37.0814C213.985 37.0299 214.031 37.0044 214.121 37.0044C214.218 37.0044 214.36 37.0092 214.547 37.0187C214.735 37.0284 214.877 37.0332 214.974 37.0331C214.98 37.0331 215.036 37.0234 215.139 37.0044H215.672C215.872 37.0044 215.972 37.0316 215.972 37.0861Z" fill="white"/>
<path d="M223.542 37.1193C223.542 37.1516 223.518 37.1709 223.47 37.177C223.422 37.1835 223.253 37.1932 222.963 37.206C222.792 37.2125 222.694 37.2478 222.668 37.3121C222.631 37.5151 222.621 37.7223 222.64 37.9279V43.5978C222.64 43.7066 222.617 43.7614 222.572 43.7614C222.052 43.2763 221.579 42.7429 221.161 42.1684C220.293 41.1063 219.338 39.8917 218.297 38.5246V43.1933C218.297 43.3284 218.34 43.4118 218.424 43.4437C218.578 43.498 218.741 43.5241 218.905 43.5207C219.12 43.5207 219.24 43.5369 219.267 43.5687C219.275 43.58 219.278 43.5938 219.276 43.6074C219.276 43.6587 219.228 43.6844 219.131 43.6844C219.082 43.6851 219.034 43.6819 218.985 43.6747C218.598 43.6619 218.356 43.6554 218.258 43.6554C218.032 43.6554 217.735 43.6618 217.367 43.6747C217.185 43.6812 217.108 43.6844 217.134 43.6844C217.037 43.6844 216.988 43.6587 216.988 43.6074C216.988 43.5626 217.131 43.5305 217.415 43.5111C217.745 43.4856 217.935 43.4343 217.987 43.3573C218.037 43.1302 218.053 42.8971 218.035 42.6653V38.7152C218.035 38.3115 218.029 38.0679 218.016 37.9845C218.007 37.8637 217.973 37.7462 217.914 37.64C217.856 37.5338 217.775 37.4415 217.677 37.3693C217.43 37.2489 217.156 37.1927 216.882 37.206C216.779 37.1992 216.727 37.1688 216.727 37.1147C216.727 37.0538 216.772 37.0229 216.863 37.0229C216.901 37.0229 217.04 37.0294 217.279 37.0423C217.396 37.0487 217.57 37.052 217.803 37.052C218.281 37.052 218.669 37.0423 218.966 37.0229L222.368 41.3743V37.5539C222.368 37.3995 222.342 37.3013 222.291 37.2594C222.19 37.2054 222.076 37.1803 221.961 37.187L221.544 37.1677C221.467 37.1616 221.428 37.1391 221.428 37.1004C221.428 37.0487 221.487 37.0229 221.603 37.0229H222.233C222.886 37.0229 223.267 37.0262 223.377 37.0327C223.487 37.0391 223.541 37.068 223.542 37.1193Z" fill="white"/>
<path d="M227.795 43.6024C227.795 43.6572 227.753 43.6844 227.67 43.6844C227.627 43.6847 227.585 43.6815 227.544 43.6747C227.156 43.6554 226.823 43.6457 226.545 43.6457C226.254 43.6457 225.828 43.6554 225.266 43.6747C225.078 43.6812 224.939 43.6845 224.849 43.6844C224.751 43.6844 224.703 43.6554 224.703 43.5978C224.703 43.5831 224.708 43.5688 224.718 43.558C224.728 43.5471 224.742 43.5407 224.757 43.5401C224.792 43.5336 224.917 43.5271 225.13 43.5207C225.33 43.4824 225.446 43.423 225.479 43.3427C225.526 43.0872 225.542 42.8271 225.527 42.5678V37.5814C225.521 37.4657 225.518 37.4112 225.518 37.4177C225.518 37.2576 225.356 37.1773 225.033 37.177C224.852 37.177 224.762 37.1548 224.762 37.1096C224.762 37.0649 224.775 37.0391 224.801 37.0327C224.884 37.0234 224.968 37.0201 225.052 37.0229H227.602C227.686 37.0229 227.727 37.0473 227.727 37.0961C227.729 37.1106 227.726 37.1254 227.718 37.1379C227.71 37.1503 227.698 37.1596 227.684 37.1641C227.586 37.1792 227.487 37.1868 227.388 37.1867C227.188 37.1995 227.065 37.2412 227.02 37.3117L226.991 37.4944V42.9246C226.991 43.2005 227.022 43.3639 227.083 43.415C227.281 43.4945 227.495 43.5305 227.708 43.5207C227.766 43.5275 227.795 43.5547 227.795 43.6024Z" fill="white"/>
<path d="M235.026 37.1183C235.026 37.1627 234.993 37.1881 234.929 37.1942C234.708 37.1816 234.487 37.2207 234.284 37.3085C234.145 37.4628 234.047 37.6489 233.998 37.8501C233.946 37.9894 233.869 38.2016 233.766 38.4867C233.423 39.4299 232.871 41.0213 232.108 43.261C232.005 43.5824 231.931 43.7428 231.885 43.7424C231.827 43.7424 231.778 43.6846 231.74 43.5691C231.656 43.3062 231.549 43.0078 231.42 42.6739C231.226 42.1541 230.964 41.4643 230.635 40.6045C230.493 40.2258 230.273 39.6642 229.976 38.9198C229.814 38.5157 229.652 38.0665 229.491 37.5721C229.467 37.4544 229.401 37.3494 229.304 37.2767C229.208 37.204 229.088 37.1687 228.968 37.1773H228.647C228.57 37.1773 228.531 37.1502 228.531 37.0957C228.531 37.0413 228.647 37.0137 228.88 37.0137H231.691C231.814 37.0137 231.876 37.0427 231.876 37.1004C231.876 37.1519 231.763 37.1809 231.536 37.1874C231.168 37.1938 230.983 37.2515 230.983 37.3604C230.983 37.3733 231.039 37.5435 231.149 37.8709C231.643 39.3349 232.078 40.5325 232.455 41.4638C232.539 41.2585 232.694 40.8318 232.921 40.1835C232.978 40.0102 233.114 39.6187 233.328 39.0093C233.533 38.4947 233.683 37.9603 233.775 37.4149C233.782 37.3693 233.771 37.3228 233.744 37.2853C233.717 37.2478 233.676 37.2223 233.63 37.2143C233.591 37.2082 233.443 37.2017 233.184 37.1953C233.055 37.1953 232.991 37.1634 232.991 37.0996C232.991 37.0427 233.035 37.0137 233.126 37.0137H234.881C234.977 37.0137 235.026 37.0488 235.026 37.1183Z" fill="white"/>
<path d="M241.25 41.99C241.25 42.0029 241.247 42.3013 241.241 42.8852C241.234 43.1933 241.229 43.4148 241.226 43.5497C241.223 43.6844 241.221 43.7485 241.221 43.742C239.515 43.665 238.022 43.6426 236.742 43.6747H235.928C235.812 43.6747 235.754 43.6504 235.754 43.602C235.754 43.5658 235.768 43.5443 235.797 43.5386C235.827 43.5325 235.925 43.5232 236.093 43.511C236.397 43.4917 236.562 43.4054 236.587 43.2516C236.601 43.1592 236.607 43.0659 236.607 42.9726V38.0994C236.607 37.715 236.604 37.5035 236.597 37.465C236.599 37.4247 236.591 37.3846 236.574 37.3478C236.557 37.3111 236.532 37.2789 236.501 37.2536C236.388 37.2047 236.264 37.1849 236.141 37.1959C235.941 37.1959 235.841 37.1671 235.841 37.1096C235.841 37.0455 235.93 37.0134 236.107 37.0133C236.286 37.0133 236.532 37.0104 236.849 37.0039C238.038 36.9781 239.011 36.9717 239.767 36.9846H240.426C240.568 36.9846 240.743 36.9749 240.95 36.9556L241.037 38.0048C241.069 38.3387 241.085 38.5439 241.085 38.6209C241.087 38.6341 241.086 38.6474 241.082 38.66C241.078 38.6725 241.07 38.6839 241.061 38.6933C241.052 38.7026 241.04 38.7096 241.027 38.7138C241.015 38.718 241.001 38.7192 240.988 38.7173C240.923 38.7173 240.881 38.6339 240.862 38.4669C240.849 38.2762 240.794 38.0906 240.7 37.9234C240.607 37.7562 240.478 37.6116 240.321 37.4997C239.915 37.2712 239.45 37.1658 238.985 37.1963C238.804 37.1963 238.492 37.206 238.051 37.2253V40.0649C238.506 40.1075 238.966 40.0567 239.4 39.9155C239.586 39.8099 239.711 39.5356 239.775 39.0927C239.808 38.8552 239.857 38.7366 239.922 38.7366C239.98 38.7366 240.009 38.7943 240.009 38.9096C240.009 39.0254 239.999 39.2629 239.98 39.6222C239.974 39.7439 239.971 39.9075 239.971 40.1129C239.971 40.665 239.977 41.0822 239.99 41.3645C239.997 41.4123 240 41.4606 240 41.5089C240 41.586 239.97 41.6242 239.912 41.6242C239.894 41.6268 239.877 41.624 239.861 41.6163C239.845 41.6085 239.833 41.5962 239.824 41.5809C239.797 41.4784 239.777 41.3738 239.766 41.2682C239.755 40.9655 239.662 40.6713 239.498 40.4163C239.264 40.2726 238.987 40.2132 238.714 40.248H238.051V43.4823H238.674C239.386 43.4695 239.821 43.4534 239.977 43.434C240.178 43.4058 240.37 43.3335 240.54 43.2223C240.686 43.115 240.801 42.9726 240.876 42.8086C240.967 42.5424 241.034 42.2684 241.075 41.99C241.094 41.894 241.127 41.8457 241.172 41.8457C241.224 41.8457 241.25 41.894 241.25 41.99Z" fill="white"/>
<path d="M248.902 43.2991C248.902 43.6584 248.666 43.8381 248.194 43.8382C247.93 43.8502 247.666 43.8065 247.421 43.71C247.175 43.6135 246.953 43.4663 246.769 43.2782C246.512 43.03 246.345 42.7043 246.293 42.3519L246.197 41.5602C246.177 41.1842 246.055 40.8205 245.843 40.5081C245.736 40.401 245.606 40.3193 245.462 40.2692C245.319 40.2191 245.166 40.2019 245.014 40.2187V42.4103C245.014 42.9186 245.017 43.192 245.024 43.2306C245.02 43.2778 245.031 43.3249 245.055 43.3655C245.08 43.4062 245.116 43.4384 245.159 43.4578C245.325 43.5103 245.499 43.5316 245.673 43.5204C245.828 43.5204 245.906 43.5494 245.906 43.6071C245.906 43.6584 245.867 43.6841 245.79 43.6841H242.862C242.771 43.6841 242.727 43.6612 242.727 43.6154C242.727 43.5638 242.859 43.5319 243.124 43.5204C243.343 43.5075 243.473 43.4563 243.512 43.366C243.54 43.2328 243.549 43.0964 243.541 42.9605V37.9884C243.547 37.7902 243.541 37.5919 243.522 37.3945C243.514 37.3627 243.498 37.3333 243.476 37.3089C243.454 37.2845 243.426 37.2658 243.395 37.2544C243.255 37.2086 243.107 37.189 242.959 37.1967C242.817 37.1967 242.746 37.1678 242.746 37.1097C242.746 37.0649 242.775 37.0373 242.833 37.0277C242.988 37.014 243.143 37.0091 243.299 37.013H245.247C245.872 36.9757 246.498 37.0475 247.099 37.2251C247.35 37.3284 247.565 37.5023 247.718 37.7255C247.871 37.9427 247.953 38.2016 247.951 38.4667C247.953 38.7663 247.86 39.0588 247.686 39.3037C247.512 39.5487 247.266 39.7339 246.982 39.8336C246.578 39.9908 246.154 40.088 245.722 40.1223L245.712 40.18C246.274 40.1705 246.819 40.3678 247.244 40.7338C247.608 41.1792 247.809 41.7338 247.816 42.3075C247.815 42.6818 247.898 43.0516 248.058 43.3903C248.094 43.4503 248.143 43.5012 248.202 43.5388C248.261 43.5765 248.328 43.5999 248.397 43.6071C248.494 43.6071 248.543 43.5817 248.543 43.5301C248.543 43.5046 248.505 43.4692 248.431 43.4241C248.397 43.4053 248.368 43.3774 248.348 43.3434C248.329 43.3095 248.319 43.2708 248.32 43.2317C248.32 43.0583 248.417 42.9716 248.611 42.9716C248.804 42.9716 248.902 43.0808 248.902 43.2991ZM246.449 38.438C246.449 37.6102 246.119 37.1962 245.46 37.196C245.247 37.196 245.115 37.2666 245.063 37.4077C245.014 37.7552 244.998 38.1065 245.014 38.457V40.055C245.213 40.0764 245.415 40.0538 245.604 39.9889C245.793 39.924 245.966 39.8184 246.109 39.6795C246.367 39.3188 246.488 38.8787 246.449 38.438Z" fill="white"/>
<path d="M254.552 41.7787C254.559 42.0507 254.507 42.321 254.399 42.5711C254.291 42.8211 254.13 43.045 253.926 43.2273C253.49 43.6167 252.918 43.8222 252.332 43.8001C251.77 43.7621 251.219 43.6287 250.703 43.4057C250.66 43.3882 250.614 43.3784 250.568 43.3767C250.457 43.3767 250.374 43.4921 250.315 43.7231C250.296 43.7937 250.27 43.8291 250.238 43.8291C250.186 43.8291 250.16 43.784 250.16 43.6944C250.167 43.546 250.183 43.3981 250.208 43.2516C250.236 43.0507 250.249 42.848 250.247 42.6452C250.247 42.4589 250.244 42.3113 250.238 42.2024C250.225 41.9843 250.219 41.8557 250.219 41.8173C250.219 41.7146 250.251 41.6633 250.315 41.6633C250.38 41.6633 250.438 41.8013 250.49 42.0771C250.555 42.5065 250.771 42.8989 251.101 43.1843C251.406 43.4525 251.798 43.6028 252.205 43.6077C252.531 43.6163 252.848 43.499 253.088 43.2803C253.202 43.1808 253.293 43.0579 253.355 42.92C253.417 42.7821 253.448 42.6324 253.446 42.4815C253.452 42.364 253.435 42.2466 253.395 42.1359C253.355 42.0251 253.294 41.9233 253.214 41.8363C252.862 41.5731 252.486 41.3443 252.089 41.1532C251.53 40.8976 251.038 40.515 250.655 40.0363C250.416 39.677 250.295 39.2536 250.306 38.8233C250.299 38.566 250.349 38.3102 250.451 38.0735C250.553 37.8369 250.705 37.6248 250.897 37.4518C251.304 37.0843 251.84 36.8892 252.39 36.908C252.748 36.9155 253.1 36.9941 253.427 37.139C253.509 37.1792 253.598 37.2053 253.689 37.216C253.785 37.216 253.85 37.1326 253.883 36.9657C253.896 36.908 253.925 36.8789 253.97 36.8789C254.034 36.8789 254.067 36.9208 254.067 37.0043C254.067 37.0362 254.06 37.126 254.047 37.2737C254.034 37.4213 254.028 37.5432 254.028 37.6394C254.025 37.9223 254.038 38.2052 254.067 38.4867C254.074 38.5117 254.077 38.5376 254.076 38.5636C254.076 38.6213 254.051 38.6503 253.999 38.6503C253.941 38.6503 253.883 38.5475 253.824 38.3423C253.759 38.1226 253.656 37.9157 253.519 37.7308C253.403 37.5575 253.253 37.4087 253.078 37.2931C252.873 37.1743 252.638 37.1143 252.4 37.1197C252.09 37.1032 251.785 37.1953 251.537 37.3797C251.431 37.4656 251.348 37.5747 251.292 37.6983C251.237 37.8219 251.211 37.9567 251.217 38.0919C251.217 38.2223 251.244 38.3513 251.295 38.4712C251.347 38.5911 251.422 38.6994 251.517 38.7897C251.867 39.0953 252.255 39.3557 252.671 39.5649C253.17 39.8135 253.636 40.1239 254.057 40.4887C254.222 40.6605 254.35 40.863 254.435 41.0844C254.52 41.3059 254.559 41.5419 254.552 41.7787Z" fill="white"/>
<path d="M259.116 43.6023C259.116 43.6572 259.074 43.6844 258.99 43.6844C258.948 43.6847 258.906 43.6814 258.864 43.6747C258.476 43.6554 258.144 43.6457 257.865 43.6457C257.575 43.6457 257.148 43.6554 256.586 43.6747C256.399 43.6812 256.26 43.6845 256.169 43.6844C256.073 43.6844 256.023 43.6554 256.023 43.5977C256.023 43.5831 256.028 43.5688 256.038 43.5579C256.048 43.5471 256.062 43.5407 256.077 43.5401C256.113 43.5336 256.237 43.5271 256.451 43.5207C256.65 43.4824 256.767 43.423 256.799 43.3427C256.846 43.0872 256.863 42.8271 256.848 42.5678V37.5814C256.842 37.4657 256.838 37.4112 256.838 37.4177C256.838 37.2576 256.676 37.1773 256.353 37.177C256.172 37.177 256.082 37.1548 256.082 37.1096C256.082 37.0649 256.095 37.0391 256.121 37.0326C256.204 37.0234 256.289 37.0202 256.373 37.0229H258.922C259.006 37.0229 259.049 37.0473 259.049 37.096C259.05 37.1107 259.047 37.1255 259.039 37.138C259.031 37.1504 259.019 37.1596 259.005 37.1641C258.907 37.1792 258.808 37.1868 258.709 37.1867C258.509 37.1995 258.386 37.2414 258.341 37.3117L258.311 37.4943V42.9246C258.311 43.2005 258.342 43.3639 258.404 43.415C258.602 43.4945 258.815 43.5305 259.029 43.5207C259.087 43.5275 259.116 43.5547 259.116 43.6023Z" fill="white"/>
<path d="M266.106 38.8047C266.106 38.856 266.083 38.8814 266.038 38.8814C265.966 38.8814 265.902 38.7578 265.844 38.5103C265.786 38.1368 265.618 37.7888 265.36 37.5112C265.072 37.3096 264.722 37.2153 264.371 37.2447H263.915V43.0977C263.922 43.2582 263.968 43.3609 264.052 43.4058C264.274 43.4768 264.505 43.5156 264.738 43.5211C264.81 43.5275 264.845 43.5566 264.845 43.6078C264.845 43.6719 264.794 43.7042 264.69 43.7042C264.671 43.7042 264.622 43.7006 264.545 43.6945C264.448 43.688 264.367 43.6848 264.303 43.6848L263.304 43.6557L261.656 43.7042C261.565 43.7042 261.521 43.6779 261.521 43.6268C261.521 43.588 261.534 43.5655 261.56 43.5591C261.666 43.5473 261.773 43.541 261.879 43.5401C262.235 43.5268 262.426 43.4432 262.451 43.289C262.464 43.2052 262.471 42.5518 262.471 41.3288V37.2447H262.218C261.821 37.2122 261.424 37.3116 261.089 37.5274C260.816 37.792 260.651 38.1488 260.629 38.5275C260.584 38.8083 260.525 38.9487 260.454 38.9487C260.396 38.9487 260.367 38.91 260.367 38.8331C260.367 38.7818 260.38 38.6053 260.406 38.3036C260.457 37.675 260.49 37.245 260.503 37.0137H261.356C261.375 37.0137 261.6 37.0186 262.029 37.0284C262.459 37.038 263.007 37.0428 263.673 37.0427C264.041 37.0427 264.37 37.0403 264.661 37.0355C264.952 37.0308 265.217 37.0284 265.456 37.0284C265.67 37.0284 265.831 37.0233 265.941 37.0137C265.961 37.4288 266.009 37.9589 266.086 38.6038C266.099 38.7123 266.106 38.7793 266.106 38.8047Z" fill="white"/>
<path d="M273.104 37.1141C273.104 37.1567 273.062 37.1807 272.978 37.1868C272.74 37.1723 272.503 37.2189 272.289 37.3222C271.981 37.7676 271.733 38.2519 271.553 38.7623C271.463 38.9682 271.327 39.2645 271.146 39.651C270.995 39.9359 270.865 40.2311 270.757 40.5344C270.709 40.7838 270.69 41.0379 270.7 41.2917V43.2314C270.696 43.278 270.707 43.3247 270.733 43.364C270.758 43.4033 270.796 43.4331 270.841 43.4485C271.023 43.4955 271.21 43.5166 271.398 43.5112C271.54 43.5112 271.611 43.5417 271.611 43.6022C271.611 43.6506 271.55 43.6749 271.427 43.6749C271.401 43.6749 271.326 43.6717 271.203 43.6652C271.054 43.6652 270.846 43.662 270.581 43.6555L269.803 43.6459C269.784 43.6459 269.7 43.6495 269.55 43.6555C269.369 43.662 269.207 43.6652 269.064 43.6652L268.451 43.6749C268.348 43.6749 268.296 43.6495 268.296 43.5979C268.296 43.5466 268.341 43.5209 268.432 43.5209C268.891 43.5144 269.143 43.4728 269.188 43.3958C269.246 43.3042 269.27 43.1954 269.256 43.0882V40.8102C268.984 40.1303 268.668 39.4689 268.309 38.8304C268.122 38.4395 267.859 37.9493 267.518 37.3598C267.458 37.2966 267.384 37.2481 267.301 37.2181C267.219 37.1881 267.131 37.1774 267.044 37.1868H266.841C266.713 37.1868 266.648 37.1516 266.648 37.0811C266.648 37.0231 266.716 36.9945 266.852 36.9945C266.832 36.9945 266.86 36.9977 266.934 37.0041C267.008 37.0106 267.133 37.0134 267.307 37.0134L268.451 37.0231H268.664C268.806 37.0023 268.948 36.9927 269.091 36.9945H269.964C270.093 36.9945 270.158 37.0202 270.158 37.0714C270.158 37.1098 270.142 37.1323 270.114 37.1388C270.085 37.1453 269.97 37.1517 269.769 37.1581C269.414 37.171 269.236 37.2482 269.236 37.3896C269.237 37.4976 269.26 37.6044 269.304 37.7034C269.35 37.8094 269.501 38.1232 269.759 38.6448C269.984 39.095 270.256 39.6227 270.572 40.2277C270.771 39.8745 271.054 39.2899 271.421 38.4739C271.604 38.1308 271.746 37.7673 271.844 37.391C271.844 37.2491 271.75 37.1782 271.563 37.1782C271.279 37.1846 271.137 37.1556 271.137 37.0912C271.137 37.0202 271.198 36.988 271.321 36.9945L271.592 37.0088C271.773 37.0184 272.08 37.0232 272.513 37.0231H272.881C273.03 37.0231 273.104 37.0534 273.104 37.1141Z" fill="white"/>
<path d="M308.921 52.6108H174.074V57.7521H308.921V52.6108Z" fill="#43056C"/>
<path opacity="0.7" d="M308.921 52.6108H174.074V57.7521H308.921V52.6108Z" fill="white"/>
<path d="M197.238 62.3806H181.15L179.754 57.752H198.634L197.238 62.3806Z" fill="#43056C"/>
<path opacity="0.8" d="M197.238 62.3806H181.15L179.754 57.752H198.634L197.238 62.3806Z" fill="white"/>
<path d="M196.713 62.3809H181.676V63.9109H196.713V62.3809Z" fill="#43056C"/>
<path opacity="0.7" d="M196.713 62.3809H181.676V63.9109H196.713V62.3809Z" fill="white"/>
<path d="M181.15 170.035H197.238L198.634 174.664H179.754L181.15 170.035Z" fill="#43056C"/>
<path opacity="0.8" d="M181.15 170.035H197.238L198.634 174.664H179.754L181.15 170.035Z" fill="white"/>
<path d="M181.678 170.035H196.715V168.505H181.678V170.035Z" fill="#43056C"/>
<path opacity="0.7" d="M181.678 170.035H196.715V168.505H181.678V170.035Z" fill="white"/>
<path d="M195.856 63.9106H182.527V168.505H195.856V63.9106Z" fill="#43056C"/>
<path opacity="0.8" d="M195.856 63.9106H182.527V168.505H195.856V63.9106Z" fill="white"/>
<path opacity="0.3" d="M185.606 66.2217H184.926V166.193H185.606V66.2217Z" fill="#43056C"/>
<path opacity="0.3" d="M188.223 66.2217H187.543V166.193H188.223V66.2217Z" fill="#43056C"/>
<path opacity="0.3" d="M190.845 66.2217H190.164V166.193H190.845V66.2217Z" fill="#43056C"/>
<path opacity="0.3" d="M193.462 66.2217H192.781V166.193H193.462V66.2217Z" fill="#43056C"/>
<path d="M223.399 62.3806H207.311L205.914 57.752H224.794L223.399 62.3806Z" fill="#43056C"/>
<path opacity="0.8" d="M223.399 62.3806H207.311L205.914 57.752H224.794L223.399 62.3806Z" fill="white"/>
<path d="M222.873 62.3809H207.836V63.9109H222.873V62.3809Z" fill="#43056C"/>
<path opacity="0.7" d="M222.873 62.3809H207.836V63.9109H222.873V62.3809Z" fill="white"/>
<path d="M207.311 170.035H223.399L224.794 174.664H205.914L207.311 170.035Z" fill="#43056C"/>
<path opacity="0.8" d="M207.311 170.035H223.399L224.794 174.664H205.914L207.311 170.035Z" fill="white"/>
<path d="M207.838 170.035H222.875V168.505H207.838V170.035Z" fill="#43056C"/>
<path opacity="0.7" d="M207.838 170.035H222.875V168.505H207.838V170.035Z" fill="white"/>
<path d="M222.016 63.9106H208.688V168.505H222.016V63.9106Z" fill="#43056C"/>
<path opacity="0.8" d="M222.016 63.9106H208.688V168.505H222.016V63.9106Z" fill="white"/>
<path opacity="0.3" d="M211.766 66.2217H211.086V166.193H211.766V66.2217Z" fill="#43056C"/>
<path opacity="0.3" d="M214.388 66.2217H213.707V166.193H214.388V66.2217Z" fill="#43056C"/>
<path opacity="0.3" d="M217.005 66.2217H216.324V166.193H217.005V66.2217Z" fill="#43056C"/>
<path opacity="0.3" d="M219.622 66.2217H218.941V166.193H219.622V66.2217Z" fill="#43056C"/>
<path d="M275.718 62.3806H259.63L258.234 57.752H277.115L275.718 62.3806Z" fill="#43056C"/>
<path opacity="0.8" d="M275.718 62.3806H259.63L258.234 57.752H277.115L275.718 62.3806Z" fill="white"/>
<path d="M275.193 62.3809H260.156V63.9109H275.193V62.3809Z" fill="#43056C"/>
<path opacity="0.7" d="M275.193 62.3809H260.156V63.9109H275.193V62.3809Z" fill="white"/>
<path d="M259.63 170.035H275.718L277.115 174.664H258.234L259.63 170.035Z" fill="#43056C"/>
<path opacity="0.8" d="M259.63 170.035H275.718L277.115 174.664H258.234L259.63 170.035Z" fill="white"/>
<path d="M260.158 170.035H275.195V168.505H260.158V170.035Z" fill="#43056C"/>
<path opacity="0.7" d="M260.158 170.035H275.195V168.505H260.158V170.035Z" fill="white"/>
<path d="M274.34 63.9106H261.012V168.505H274.34V63.9106Z" fill="#43056C"/>
<path opacity="0.8" d="M274.34 63.9106H261.012V168.505H274.34V63.9106Z" fill="white"/>
<path opacity="0.3" d="M264.087 66.2217H263.406V166.193H264.087V66.2217Z" fill="#43056C"/>
<path opacity="0.3" d="M266.708 66.2217H266.027V166.193H266.708V66.2217Z" fill="#43056C"/>
<path opacity="0.3" d="M269.325 66.2217H268.645V166.193H269.325V66.2217Z" fill="#43056C"/>
<path opacity="0.3" d="M271.942 66.2217H271.262V166.193H271.942V66.2217Z" fill="#43056C"/>
<path d="M301.879 62.3806H285.791L284.395 57.752H303.275L301.879 62.3806Z" fill="#43056C"/>
<path opacity="0.8" d="M301.879 62.3806H285.791L284.395 57.752H303.275L301.879 62.3806Z" fill="white"/>
<path d="M301.354 62.3809H286.316V63.9109H301.354V62.3809Z" fill="#43056C"/>
<path opacity="0.7" d="M301.354 62.3809H286.316V63.9109H301.354V62.3809Z" fill="white"/>
<path d="M285.791 170.035H301.879L303.275 174.664H284.395L285.791 170.035Z" fill="#43056C"/>
<path opacity="0.8" d="M285.791 170.035H301.879L303.275 174.664H284.395L285.791 170.035Z" fill="white"/>
<path d="M286.318 170.035H301.355V168.505H286.318V170.035Z" fill="#43056C"/>
<path opacity="0.7" d="M286.318 170.035H301.355V168.505H286.318V170.035Z" fill="white"/>
<path d="M300.5 63.9106H287.172V168.505H300.5V63.9106Z" fill="#43056C"/>
<path opacity="0.8" d="M300.5 63.9106H287.172V168.505H300.5V63.9106Z" fill="white"/>
<path opacity="0.3" d="M290.247 66.2217H289.566V166.193H290.247V66.2217Z" fill="#43056C"/>
<path opacity="0.3" d="M292.868 66.2217H292.188V166.193H292.868V66.2217Z" fill="#43056C"/>
<path opacity="0.3" d="M295.485 66.2217H294.805V166.193H295.485V66.2217Z" fill="#43056C"/>
<path opacity="0.3" d="M298.102 66.2217H297.422V166.193H298.102V66.2217Z" fill="#43056C"/>
<path d="M0 174.663C154.721 174.216 328.28 174.213 483 174.663C328.279 175.114 154.72 175.11 0 174.663Z" fill="#4DAF4E"/>
<path d="M11.9531 174.663H40.661L37.3003 159.943C34.0492 159.788 30.8922 158.809 28.1302 157.099L37.0266 158.742L32.9226 140.751C31.6085 140.142 30.3801 139.364 29.2686 138.439L32.6331 139.496L32.0893 137.099C30.2189 136.293 28.5054 135.168 27.0269 133.773L31.7451 135.603L26.311 111.788L23.2399 125.246L25.9981 124.562C25.0539 125.191 24.058 125.739 23.0208 126.202L18.6156 145.483L21.8119 144.69C20.7269 145.411 19.5771 146.03 18.377 146.54L15.3254 159.888L21.5616 158.346C19.5465 159.666 17.3333 160.66 15.0047 161.291L14.4766 163.614L24.0576 161.24C21.097 163.175 17.7224 164.396 14.2027 164.807L13.4437 168.136L16.632 167.348C15.5486 168.067 14.4 168.685 13.2012 169.193L11.9531 174.663Z" fill="#455A64"/>
<path d="M17.2347 155.615C18.8223 156.216 24.704 158.595 25.9741 159.288C25.9748 159.022 25.9766 158.756 25.9773 158.491C24.5588 157.661 23.1371 156.838 21.7121 156.019C20.1348 155.197 18.6024 154.293 17.1215 153.31C17.0519 153.259 17.0906 153.117 17.1865 153.157C18.7375 153.877 20.2379 154.7 21.6775 155.621C23.1233 156.463 24.5531 157.33 25.9786 158.205C25.9848 156.172 25.9935 154.139 26.0046 152.107C23.686 151.152 21.4451 150.021 19.3019 148.723C19.2287 148.68 19.2774 148.546 19.3623 148.581C21.6563 149.498 23.8773 150.585 26.0067 151.834C26.014 150.777 25.974 142.636 26.2386 132.328C24.8437 131.63 23.4077 131.014 22.0138 130.311C21.9224 130.265 21.9866 130.107 22.0844 130.144C23.499 130.693 24.8614 131.343 26.2493 131.949C26.3247 129.14 26.4327 126.333 26.605 123.53C26.6057 123.511 26.6136 123.493 26.6272 123.48C26.6407 123.467 26.6589 123.46 26.6777 123.46C26.6966 123.46 26.7147 123.467 26.7283 123.48C26.7418 123.493 26.7498 123.511 26.7504 123.53C26.9466 128.743 26.9302 138.829 26.8644 144.048C28.3089 142.902 29.8492 141.889 31.3196 140.779C31.3763 140.736 31.4319 140.831 31.3755 140.874C29.8384 142.035 28.4004 143.322 26.8587 144.48C26.8549 144.775 26.8512 145.07 26.8474 145.365C28.4139 144.654 30.0032 143.992 31.5865 143.318C31.7104 143.266 31.8212 143.442 31.6945 143.502C30.0818 144.27 28.4748 145.053 26.8417 145.778C26.8044 148.363 26.5674 157.688 26.4701 162.2C29.4271 160.714 32.4059 159.27 35.4065 157.866C35.5207 157.813 35.6202 157.972 35.5071 158.037C32.5764 159.701 29.5573 161.207 26.463 162.548C26.3827 166.297 26.3045 170.742 26.2562 174.491C26.2546 174.537 26.2351 174.58 26.2019 174.612C26.1687 174.644 26.1243 174.662 26.0781 174.662C26.0319 174.662 25.9875 174.644 25.9543 174.612C25.9211 174.58 25.9016 174.537 25.9 174.491C25.9526 169.709 25.9603 164.231 25.9737 159.449C22.9612 158.417 20.007 157.224 17.124 155.875C16.98 155.805 17.0817 155.557 17.2347 155.615Z" fill="#4DAF4E"/>
<path d="M352.461 174.663H381.169L377.808 159.943C374.557 159.788 371.4 158.809 368.638 157.099L377.534 158.742L373.43 140.751C372.116 140.142 370.888 139.364 369.776 138.439L373.141 139.496L372.597 137.099C370.727 136.293 369.013 135.168 367.535 133.773L372.253 135.603L366.819 111.788L363.748 125.246L366.506 124.562C365.562 125.191 364.566 125.739 363.529 126.202L359.123 145.483L362.32 144.69C361.235 145.411 360.085 146.03 358.885 146.54L355.833 159.888L362.069 158.346C360.054 159.666 357.841 160.66 355.512 161.291L354.984 163.614L364.565 161.24C361.605 163.175 358.23 164.396 354.71 164.807L353.951 168.136L357.14 167.348C356.056 168.067 354.908 168.685 353.709 169.193L352.461 174.663Z" fill="#455A64"/>
<path d="M357.746 155.614C359.334 156.216 365.216 158.594 366.486 159.288C366.486 159.022 366.488 158.756 366.489 158.49C365.07 157.661 363.649 156.837 362.224 156.019C360.646 155.197 359.114 154.292 357.633 153.309C357.563 153.259 357.602 153.117 357.698 153.156C359.249 153.877 360.749 154.7 362.189 155.621C363.635 156.462 365.065 157.33 366.49 158.205C366.496 156.172 366.505 154.139 366.516 152.106C364.198 151.152 361.957 150.021 359.813 148.723C359.74 148.68 359.789 148.546 359.874 148.581C362.168 149.498 364.389 150.585 366.518 151.833C366.526 150.777 366.486 142.636 366.75 132.328C365.355 131.629 363.919 131.013 362.525 130.311C362.434 130.265 362.498 130.106 362.596 130.144C364.011 130.692 365.373 131.343 366.761 131.949C366.836 129.14 366.944 126.333 367.117 123.529C367.117 123.511 367.125 123.493 367.139 123.48C367.153 123.468 367.171 123.46 367.189 123.46C367.208 123.46 367.226 123.468 367.24 123.48C367.253 123.493 367.261 123.511 367.262 123.529C367.458 128.743 367.442 138.829 367.376 144.047C368.82 142.902 370.361 141.889 371.831 140.778C371.888 140.736 371.944 140.831 371.887 140.874C370.35 142.035 368.912 143.322 367.37 144.48C367.367 144.775 367.363 145.07 367.359 145.364C368.926 144.653 370.515 143.992 372.098 143.318C372.222 143.265 372.333 143.442 372.206 143.502C370.594 144.27 368.986 145.053 367.353 145.778C367.316 148.363 367.079 157.687 366.982 162.199C369.939 160.714 372.917 159.27 375.918 157.866C376.032 157.812 376.132 157.972 376.019 158.037C373.088 159.701 370.069 161.207 366.975 162.547C366.894 166.297 366.816 170.741 366.768 174.491C366.766 174.537 366.747 174.58 366.714 174.612C366.68 174.644 366.636 174.662 366.59 174.662C366.544 174.662 366.499 174.644 366.466 174.612C366.433 174.58 366.413 174.537 366.412 174.491C366.464 169.709 366.472 164.231 366.485 159.449C363.473 158.417 360.519 157.224 357.636 155.875C357.492 155.805 357.593 155.556 357.746 155.614Z" fill="#4DAF4E"/>
<path d="M424.293 174.663H453.001L449.64 159.943C446.389 159.788 443.232 158.809 440.47 157.099L449.366 158.742L445.262 140.751C443.948 140.142 442.72 139.364 441.608 138.439L444.973 139.496L444.429 137.099C442.559 136.293 440.845 135.168 439.367 133.773L444.085 135.603L438.651 111.788L435.58 125.246L438.338 124.562C437.394 125.191 436.398 125.739 435.361 126.202L430.955 145.483L434.152 144.69C433.067 145.411 431.917 146.03 430.717 146.54L427.665 159.888L433.901 158.346C431.886 159.666 429.673 160.66 427.345 161.291L426.816 163.614L436.397 161.24C433.437 163.175 430.062 164.396 426.543 164.807L425.784 168.136L428.972 167.348C427.888 168.067 426.74 168.685 425.541 169.193L424.293 174.663Z" fill="#455A64"/>
<path d="M429.574 155.614C431.162 156.216 437.044 158.594 438.314 159.288C438.315 159.022 438.316 158.756 438.317 158.49C436.899 157.661 435.477 156.837 434.052 156.019C432.475 155.197 430.942 154.292 429.461 153.309C429.392 153.259 429.43 153.117 429.526 153.156C431.077 153.877 432.578 154.7 434.017 155.621C435.463 156.462 436.893 157.33 438.319 158.205C438.325 156.172 438.333 154.139 438.344 152.106C436.026 151.152 433.785 150.021 431.642 148.723C431.568 148.68 431.617 148.546 431.702 148.581C433.996 149.498 436.217 150.585 438.347 151.833C438.354 150.777 438.314 142.636 438.578 132.328C437.184 131.629 435.747 131.013 434.354 130.311C434.262 130.265 434.326 130.106 434.424 130.144C435.839 130.692 437.201 131.343 438.589 131.949C438.665 129.14 438.773 126.333 438.945 123.529C438.946 123.511 438.954 123.493 438.967 123.48C438.981 123.468 438.999 123.46 439.018 123.46C439.036 123.46 439.054 123.468 439.068 123.48C439.081 123.493 439.089 123.511 439.09 123.529C439.286 128.743 439.27 138.829 439.204 144.047C440.649 142.902 442.189 141.889 443.659 140.778C443.716 140.736 443.772 140.831 443.715 140.874C442.178 142.035 440.74 143.322 439.199 144.48C439.195 144.775 439.191 145.07 439.187 145.364C440.754 144.653 442.343 143.992 443.926 143.318C444.05 143.265 444.161 143.442 444.034 143.502C442.422 144.27 440.815 145.053 439.181 145.778C439.144 148.363 438.907 157.687 438.81 162.199C441.767 160.714 444.746 159.27 447.746 157.866C447.86 157.812 447.96 157.972 447.847 158.037C444.916 159.701 441.897 161.207 438.803 162.547C438.723 166.297 438.644 170.741 438.596 174.491C438.594 174.537 438.575 174.58 438.542 174.612C438.509 174.644 438.464 174.662 438.418 174.662C438.372 174.662 438.327 174.644 438.294 174.612C438.261 174.58 438.242 174.537 438.24 174.491C438.292 169.709 438.3 164.231 438.313 159.449C435.301 158.417 432.347 157.224 429.464 155.875C429.32 155.805 429.422 155.556 429.574 155.614Z" fill="#4DAF4E"/>
<path d="M141.149 174.663H118.586L121.227 163.093C123.783 162.972 126.264 162.202 128.435 160.858L121.443 162.15L124.668 148.009C125.701 147.53 126.666 146.92 127.54 146.192L124.896 147.023L125.323 145.139C126.793 144.506 128.14 143.621 129.302 142.525L125.594 143.963L129.865 125.246L132.278 135.823L130.111 135.285C130.853 135.78 131.635 136.211 132.45 136.574L135.913 151.728L133.401 151.105C134.253 151.672 135.157 152.158 136.1 152.559L138.499 163.051L133.597 161.838C135.181 162.876 136.921 163.657 138.751 164.153L139.166 165.979L131.636 164.113C133.963 165.634 136.615 166.593 139.381 166.916L139.978 169.533L137.472 168.913C138.323 169.479 139.226 169.964 140.168 170.364L141.149 174.663Z" fill="#4DAF4E"/>
<path d="M136.998 159.692C135.75 160.165 131.128 162.034 130.129 162.579C130.129 162.37 130.127 162.161 130.127 161.952C131.242 161.3 132.359 160.653 133.479 160.01C134.719 159.364 135.923 158.653 137.087 157.88C137.142 157.84 137.111 157.729 137.036 157.76C135.817 158.326 134.638 158.973 133.506 159.697C132.37 160.358 131.246 161.04 130.126 161.728C130.121 160.13 130.114 158.532 130.105 156.935C131.928 156.184 133.689 155.295 135.373 154.276C135.431 154.241 135.393 154.136 135.326 154.164C133.523 154.884 131.777 155.739 130.104 156.72C130.098 155.889 130.129 149.491 129.921 141.39C131.018 140.84 132.146 140.356 133.242 139.804C133.314 139.768 133.263 139.643 133.186 139.673C132.075 140.104 131.004 140.615 129.913 141.091C129.854 138.884 129.769 136.678 129.634 134.474C129.633 134.46 129.627 134.446 129.616 134.435C129.605 134.425 129.591 134.419 129.576 134.419C129.561 134.419 129.547 134.425 129.537 134.435C129.526 134.446 129.52 134.46 129.519 134.474C129.365 138.572 129.378 146.499 129.43 150.601C128.294 149.7 127.084 148.904 125.928 148.031C125.883 147.998 125.84 148.073 125.884 148.106C127.092 149.019 128.222 150.031 129.434 150.941C129.437 151.172 129.44 151.404 129.443 151.636C128.212 151.077 126.962 150.557 125.718 150.027C125.621 149.986 125.534 150.125 125.633 150.172C126.901 150.776 128.164 151.391 129.447 151.961C129.477 153.992 129.663 161.321 129.739 164.867C127.416 163.7 125.074 162.565 122.716 161.461C122.626 161.419 122.548 161.545 122.637 161.596C124.94 162.904 127.313 164.087 129.745 165.141C129.808 168.088 129.87 171.581 129.908 174.528C129.909 174.564 129.924 174.598 129.95 174.623C129.976 174.648 130.011 174.662 130.048 174.662C130.084 174.662 130.119 174.648 130.145 174.623C130.171 174.598 130.186 174.564 130.188 174.528C130.146 170.769 130.14 166.464 130.13 162.706C132.497 161.894 134.819 160.957 137.085 159.897C137.198 159.841 137.118 159.646 136.998 159.692Z" fill="#455A64"/>
<path d="M471.048 174.663H448.484L451.126 163.093C453.681 162.972 456.162 162.202 458.333 160.858L451.341 162.15L454.566 148.009C455.599 147.53 456.565 146.92 457.438 146.192L454.794 147.023L455.221 145.139C456.691 144.506 458.038 143.621 459.2 142.525L455.492 143.963L459.763 125.246L462.177 135.823L460.009 135.285C460.751 135.78 461.534 136.211 462.349 136.574L465.811 151.728L463.299 151.105C464.152 151.672 465.056 152.158 465.999 152.559L468.397 163.051L463.496 161.838C465.08 162.876 466.819 163.657 468.649 164.153L469.064 165.979L461.534 164.113C463.861 165.634 466.513 166.593 469.28 166.916L469.876 169.533L467.37 168.913C468.222 169.479 469.125 169.964 470.067 170.364L471.048 174.663Z" fill="#4DAF4E"/>
<path d="M466.897 159.692C465.649 160.165 461.026 162.034 460.028 162.579C460.027 162.37 460.026 162.161 460.025 161.952C461.14 161.3 462.257 160.653 463.378 160.01C464.617 159.364 465.822 158.653 466.986 157.88C467.04 157.84 467.01 157.729 466.934 157.76C465.715 158.326 464.536 158.973 463.405 159.697C462.268 160.358 461.145 161.04 460.024 161.728C460.019 160.13 460.012 158.532 460.004 156.935C461.826 156.184 463.587 155.295 465.272 154.275C465.329 154.241 465.291 154.136 465.224 154.163C463.421 154.884 461.676 155.739 460.002 156.72C459.996 155.889 460.028 149.491 459.82 141.39C460.916 140.84 462.045 140.356 463.14 139.804C463.212 139.768 463.162 139.643 463.085 139.673C461.973 140.104 460.902 140.615 459.811 141.091C459.752 138.884 459.667 136.678 459.532 134.474C459.531 134.459 459.525 134.446 459.514 134.435C459.504 134.425 459.49 134.419 459.475 134.419C459.46 134.419 459.446 134.425 459.435 134.435C459.424 134.446 459.418 134.459 459.418 134.474C459.263 138.572 459.276 146.499 459.328 150.6C458.193 149.7 456.982 148.904 455.826 148.031C455.782 147.998 455.738 148.073 455.782 148.106C456.991 149.019 458.121 150.03 459.332 150.941C459.335 151.172 459.338 151.404 459.341 151.636C458.11 151.077 456.861 150.557 455.617 150.027C455.519 149.986 455.432 150.125 455.532 150.172C456.799 150.776 458.062 151.391 459.346 151.96C459.375 153.992 459.561 161.321 459.638 164.867C457.314 163.7 454.973 162.565 452.614 161.461C452.525 161.419 452.446 161.545 452.535 161.595C454.839 162.904 457.211 164.087 459.643 165.141C459.707 168.088 459.768 171.581 459.806 174.528C459.807 174.564 459.823 174.598 459.849 174.623C459.875 174.648 459.91 174.662 459.946 174.662C459.982 174.662 460.017 174.648 460.043 174.623C460.069 174.598 460.085 174.564 460.086 174.528C460.045 170.769 460.039 166.464 460.028 162.705C462.396 161.894 464.718 160.956 466.984 159.897C467.097 159.841 467.017 159.646 466.897 159.692Z" fill="#455A64"/>
<path d="M58.2741 174.662H27.3594L28.868 166.589C35.3455 166.169 40.3966 161.808 40.3966 161.808L29.1255 165.223L33.2859 142.955C34.9653 142.177 36.541 141.194 37.9767 140.031L33.5794 141.36L34.259 137.73C36.6734 136.863 38.9239 135.599 40.9168 133.992L34.6041 135.899L38.543 114.812C39.3786 114.311 40.1754 113.749 40.927 113.13L38.7336 113.795L42.8219 91.9102L48.6763 123.264L43.5892 120.851C45.1167 122.634 46.9659 124.118 49.0419 125.228V125.233L54.5565 154.757L46.004 151.479C48.4377 153.944 51.5125 155.689 54.886 156.521L55.4524 159.537L50.8493 158.499C52.3243 159.667 53.9842 160.582 55.7614 161.21L58.2741 174.662Z" fill="#4DAF4E"/>
<path d="M53.1036 147.756C51.2547 148.457 44.6793 151.098 43.1999 151.906C43.1991 151.597 43.1969 151.287 43.196 150.978C44.8482 150.012 46.5066 149.057 48.1637 148.099C49.9421 147.071 51.1237 146.704 52.7819 145.493C52.8628 145.434 52.8179 145.269 52.7062 145.315C51.1461 145.969 49.6406 146.745 48.204 147.635C46.5201 148.616 44.855 149.626 43.1946 150.645C43.1875 148.277 43.1774 145.91 43.1644 143.542C45.8649 142.43 48.4748 141.113 50.9711 139.602C51.0564 139.551 50.9994 139.395 50.9006 139.436C48.2289 140.504 45.642 141.77 43.162 143.224C43.1534 141.993 43.1486 140.762 43.1354 139.531C43.0673 133.192 43.0546 126.846 42.8918 120.507C44.5165 119.693 46.1892 118.976 47.8125 118.157C47.9189 118.104 47.8441 117.919 47.7301 117.963C46.0827 118.601 44.4959 119.359 42.8793 120.065C42.7915 116.794 42.6657 113.525 42.4652 110.259C42.4644 110.237 42.4551 110.217 42.4393 110.201C42.4235 110.186 42.4024 110.178 42.3804 110.178C42.3584 110.178 42.3372 110.186 42.3214 110.201C42.3056 110.217 42.2963 110.237 42.2956 110.259C42.0674 116.331 42.0865 122.409 42.1632 128.487C40.4808 127.153 38.6867 125.973 36.9742 124.679C36.908 124.629 36.8435 124.741 36.9089 124.79C38.6992 126.143 40.3742 127.642 42.1696 128.991C42.1741 129.334 42.1785 129.677 42.1828 130.021C40.358 129.192 38.507 128.422 36.6633 127.637C36.519 127.576 36.3899 127.781 36.5373 127.851C38.4156 128.746 40.2875 129.658 42.1896 130.502C42.233 133.512 42.2845 136.522 42.3237 139.531C42.3927 144.787 42.5091 150.042 42.6219 155.297C39.1782 153.568 35.709 151.885 32.2141 150.25C32.0811 150.188 31.9654 150.374 32.0971 150.449C35.5102 152.387 39.0265 154.141 42.6305 155.703C42.724 160.069 42.8151 170.096 42.8715 174.463C42.8733 174.517 42.896 174.567 42.9347 174.604C42.9734 174.641 43.025 174.662 43.0788 174.662C43.1326 174.662 43.1843 174.641 43.223 174.604C43.2616 174.567 43.2843 174.517 43.2862 174.463C43.2251 168.894 43.2159 157.664 43.2005 152.094C45.0168 151.648 51.6029 148.859 53.2327 148.06C53.4002 147.977 53.2819 147.688 53.1036 147.756Z" fill="#455A64"/>
<path d="M406.673 174.662H375.758L377.266 166.589C383.744 166.169 388.795 161.808 388.795 161.808L377.524 165.223L381.684 142.955C383.364 142.177 384.939 141.194 386.375 140.031L381.978 141.36L382.658 137.73C385.072 136.863 387.322 135.599 389.315 133.992L383.003 135.899L386.941 114.812C387.777 114.311 388.574 113.749 389.325 113.13L387.132 113.795L391.22 91.9102L397.075 123.264L391.988 120.851C393.515 122.634 395.364 124.118 397.44 125.228V125.233L402.955 154.757L394.402 151.479C396.836 153.944 399.911 155.689 403.285 156.521L403.851 159.537L399.248 158.499C400.723 159.667 402.383 160.582 404.16 161.21L406.673 174.662Z" fill="#4DAF4E"/>
<path d="M401.506 147.756C399.657 148.457 393.082 151.098 391.602 151.906C391.601 151.596 391.599 151.287 391.598 150.978C393.251 150.012 394.909 149.056 396.566 148.099C398.344 147.071 399.526 146.704 401.184 145.493C401.265 145.434 401.22 145.268 401.109 145.315C399.548 145.969 398.043 146.744 396.606 147.635C394.922 148.615 393.257 149.626 391.597 150.645C391.59 148.277 391.58 145.909 391.567 143.542C394.267 142.43 396.877 141.113 399.373 139.602C399.459 139.551 399.402 139.395 399.303 139.436C396.631 140.504 394.044 141.77 391.564 143.224C391.556 141.993 391.551 140.762 391.538 139.531C391.47 133.192 391.457 126.846 391.294 120.507C392.919 119.693 394.592 118.975 396.215 118.157C396.321 118.104 396.246 117.919 396.132 117.963C394.485 118.601 392.898 119.359 391.282 120.065C391.194 116.794 391.068 113.524 390.868 110.259C390.867 110.237 390.857 110.216 390.842 110.201C390.826 110.186 390.805 110.178 390.783 110.178C390.761 110.178 390.74 110.186 390.724 110.201C390.708 110.216 390.699 110.237 390.698 110.259C390.47 116.33 390.489 122.409 390.566 128.487C388.883 127.153 387.089 125.973 385.377 124.679C385.31 124.629 385.246 124.741 385.311 124.79C387.102 126.143 388.777 127.642 390.572 128.991C390.576 129.334 390.581 129.677 390.585 130.02C388.76 129.192 386.909 128.422 385.066 127.637C384.921 127.576 384.792 127.781 384.94 127.851C386.818 128.746 388.69 129.658 390.592 130.502C390.635 133.512 390.687 136.522 390.726 139.531C390.795 144.787 390.911 150.042 391.024 155.297C387.581 153.568 384.111 151.885 380.617 150.25C380.483 150.188 380.368 150.374 380.499 150.449C383.913 152.387 387.429 154.141 391.033 155.702C391.126 160.069 391.217 170.096 391.274 174.463C391.276 174.517 391.298 174.567 391.337 174.604C391.376 174.641 391.427 174.662 391.481 174.662C391.535 174.662 391.587 174.641 391.625 174.604C391.664 174.567 391.687 174.517 391.689 174.463C391.627 168.894 391.618 157.664 391.603 152.094C393.419 151.648 400.005 148.858 401.635 148.06C401.803 147.977 401.684 147.688 401.506 147.756Z" fill="#455A64"/>
<path d="M97.0359 174.663H74.4727L77.1139 163.093C79.6692 162.972 82.1506 162.202 84.3213 160.858L77.3292 162.15L80.5547 148.009C81.5876 147.53 82.553 146.92 83.4266 146.192L80.7822 147.023L81.2096 145.139C82.6797 144.506 84.0265 143.621 85.1885 142.525L81.4802 143.963L85.7512 125.246L88.165 135.823L85.9972 135.285C86.7392 135.78 87.5219 136.211 88.3371 136.574L91.7994 151.728L89.2873 151.105C90.1401 151.672 91.0438 152.158 91.987 152.559L94.3854 163.051L89.484 161.838C91.0678 162.876 92.8073 163.657 94.6376 164.153L95.0526 165.979L87.5224 164.113C89.8493 165.634 92.5015 166.593 95.2679 166.916L95.8645 169.533L93.3584 168.913C94.2101 169.479 95.1128 169.964 96.055 170.364L97.0359 174.663Z" fill="#455A64"/>
<path d="M92.8849 159.692C91.637 160.165 87.0144 162.034 86.0161 162.579C86.0154 162.37 86.0141 162.161 86.0135 161.952C87.1284 161.3 88.2458 160.653 89.3659 160.01C90.6056 159.364 91.8099 158.653 92.9739 157.88C93.0286 157.84 92.9982 157.729 92.9228 157.76C91.7038 158.326 90.5245 158.973 89.393 159.697C88.2567 160.358 87.133 161.04 86.0125 161.728C86.0076 160.13 86.0008 158.532 85.9921 156.935C87.8144 156.184 89.5756 155.295 91.2601 154.275C91.3177 154.241 91.2794 154.136 91.2127 154.164C89.4097 154.884 87.664 155.739 85.9904 156.72C85.9847 155.889 86.0161 149.491 85.8082 141.39C86.9044 140.84 88.0331 140.356 89.1287 139.804C89.2005 139.768 89.1501 139.643 89.0732 139.673C87.9614 140.104 86.8905 140.615 85.7998 141.091C85.7404 138.884 85.6556 136.678 85.5202 134.474C85.5197 134.46 85.5134 134.446 85.5028 134.435C85.4921 134.425 85.4779 134.419 85.4631 134.419C85.4482 134.419 85.434 134.425 85.4233 134.435C85.4127 134.446 85.4064 134.46 85.4059 134.474C85.2517 138.572 85.2646 146.499 85.3163 150.601C84.181 149.7 82.9704 148.904 81.8147 148.031C81.77 147.998 81.7265 148.073 81.7707 148.106C82.9789 149.019 84.1091 150.03 85.3208 150.941C85.3237 151.172 85.3266 151.404 85.3296 151.636C84.0985 151.077 82.8493 150.557 81.6049 150.027C81.5075 149.986 81.4205 150.125 81.52 150.172C82.7874 150.776 84.0507 151.391 85.3342 151.961C85.3635 153.992 85.5497 161.321 85.6261 164.867C83.3022 163.7 80.961 162.565 78.6025 161.461C78.5128 161.419 78.4346 161.545 78.5235 161.595C80.8269 162.904 83.1997 164.087 85.6317 165.141C85.6949 168.088 85.7564 171.581 85.7943 174.528C85.7956 174.564 85.8109 174.598 85.837 174.623C85.8631 174.648 85.898 174.662 85.9343 174.662C85.9706 174.662 86.0055 174.648 86.0316 174.623C86.0577 174.598 86.073 174.564 86.0742 174.528C86.033 170.769 86.0269 166.464 86.0164 162.705C88.3841 161.894 90.7059 160.956 92.9719 159.897C93.0851 159.841 93.0051 159.646 92.8849 159.692Z" fill="#4DAF4E"/>
</svg>
