<svg width="400" height="375" viewBox="0 0 400 375" fill="none" xmlns="http://www.w3.org/2000/svg">
<path d="M322.566 83.2275L309 108.081C309 108.081 326.897 140.225 384.123 143.203L399 114.593L322.566 83.2275Z" fill="#25733A"/>
<path d="M295.578 52.8315L383.516 70.9353C384.207 71.0713 384.846 71.3928 385.365 71.8644L436.802 120.01C437.386 120.551 437.782 121.262 437.933 122.041C438.083 122.819 437.98 123.625 437.638 124.341C437.297 125.058 436.734 125.649 436.032 126.029C435.329 126.41 434.523 126.559 433.729 126.457L347.186 115.702C346.316 115.586 345.513 115.179 344.91 114.548L292.05 59.0819C291.491 58.5031 291.133 57.7619 291.031 56.9672C290.928 56.1725 291.086 55.3661 291.48 54.6666C291.875 53.9672 292.486 53.4114 293.224 53.0811C293.961 52.7508 294.787 52.6633 295.578 52.8315Z" fill="#4DAF4E"/>
<path d="M369.637 89.9232C370.293 89.7018 370.866 89.2943 371.286 88.7522C371.705 88.21 371.951 87.5578 371.994 86.8779C372.036 86.198 371.872 85.5212 371.522 84.933C371.173 84.3449 370.654 83.8719 370.031 83.5741C369.408 83.2762 368.709 83.1668 368.022 83.2597C367.336 83.3526 366.693 83.6437 366.175 84.0961C365.658 84.5485 365.288 85.1418 365.113 85.8009C364.938 86.46 364.967 87.1552 365.194 87.7986C365.498 88.6587 366.136 89.3652 366.969 89.7635C367.802 90.1617 368.762 90.2191 369.637 89.9232Z" fill="#F79434"/>
<path d="M435 61.7535L433.911 60.6138C413.851 78.3485 368.544 85.6314 368 85.6314L368.258 87.1603C368.802 87.1881 414.453 79.933 435 61.7535Z" fill="#F79434"/>
</svg>
