<svg width="106" height="85" viewBox="0 0 106 85" fill="none" xmlns="http://www.w3.org/2000/svg">
<path d="M102.469 77.8125H95.4062V28.375C96.3428 28.375 97.241 28.003 97.9032 27.3407C98.5655 26.6785 98.9375 25.7803 98.9375 24.8438C98.9375 23.9072 98.5655 23.009 97.9032 22.3468C97.241 21.6845 96.3428 21.3125 95.4062 21.3125H74.2188V7.1875C75.1553 7.1875 76.0535 6.81546 76.7157 6.15322C77.378 5.49098 77.75 4.5928 77.75 3.65625C77.75 2.7197 77.378 1.82152 76.7157 1.15928C76.0535 0.497042 75.1553 0.125 74.2188 0.125H10.6562C9.7197 0.125 8.82152 0.497042 8.15928 1.15928C7.49704 1.82152 7.125 2.7197 7.125 3.65625C7.125 4.5928 7.49704 5.49098 8.15928 6.15322C8.82152 6.81546 9.7197 7.1875 10.6562 7.1875V77.8125H3.59375C2.6572 77.8125 1.75902 78.1845 1.09678 78.8468C0.434541 79.509 0.0625 80.4072 0.0625 81.3438C0.0625 82.2803 0.434541 83.1785 1.09678 83.8407C1.75902 84.503 2.6572 84.875 3.59375 84.875H102.469C103.405 84.875 104.303 84.503 104.966 83.8407C105.628 83.1785 106 82.2803 106 81.3438C106 80.4072 105.628 79.509 104.966 78.8468C104.303 78.1845 103.405 77.8125 102.469 77.8125ZM88.3438 28.375V77.8125H74.2188V28.375H88.3438ZM17.7188 7.1875H67.1562V77.8125H56.5625V56.625C56.5625 55.6885 56.1905 54.7903 55.5282 54.128C54.866 53.4658 53.9678 53.0938 53.0312 53.0938H31.8438C30.9072 53.0938 30.009 53.4658 29.3468 54.128C28.6845 54.7903 28.3125 55.6885 28.3125 56.625V77.8125H17.7188V7.1875ZM49.5 77.8125H35.375V60.1562H49.5V77.8125ZM24.7812 21.3125C24.7812 20.376 25.1533 19.4778 25.8155 18.8155C26.4778 18.1533 27.376 17.7812 28.3125 17.7812H35.375C36.3115 17.7812 37.2097 18.1533 37.872 18.8155C38.5342 19.4778 38.9062 20.376 38.9062 21.3125C38.9062 22.249 38.5342 23.1472 37.872 23.8095C37.2097 24.4717 36.3115 24.8438 35.375 24.8438H28.3125C27.376 24.8438 26.4778 24.4717 25.8155 23.8095C25.1533 23.1472 24.7812 22.249 24.7812 21.3125ZM45.9688 21.3125C45.9688 20.376 46.3408 19.4778 47.003 18.8155C47.6653 18.1533 48.5635 17.7812 49.5 17.7812H56.5625C57.499 17.7812 58.3972 18.1533 59.0595 18.8155C59.7217 19.4778 60.0938 20.376 60.0938 21.3125C60.0938 22.249 59.7217 23.1472 59.0595 23.8095C58.3972 24.4717 57.499 24.8438 56.5625 24.8438H49.5C48.5635 24.8438 47.6653 24.4717 47.003 23.8095C46.3408 23.1472 45.9688 22.249 45.9688 21.3125ZM24.7812 38.9688C24.7812 38.0322 25.1533 37.134 25.8155 36.4718C26.4778 35.8095 27.376 35.4375 28.3125 35.4375H35.375C36.3115 35.4375 37.2097 35.8095 37.872 36.4718C38.5342 37.134 38.9062 38.0322 38.9062 38.9688C38.9062 39.9053 38.5342 40.8035 37.872 41.4657C37.2097 42.128 36.3115 42.5 35.375 42.5H28.3125C27.376 42.5 26.4778 42.128 25.8155 41.4657C25.1533 40.8035 24.7812 39.9053 24.7812 38.9688ZM45.9688 38.9688C45.9688 38.0322 46.3408 37.134 47.003 36.4718C47.6653 35.8095 48.5635 35.4375 49.5 35.4375H56.5625C57.499 35.4375 58.3972 35.8095 59.0595 36.4718C59.7217 37.134 60.0938 38.0322 60.0938 38.9688C60.0938 39.9053 59.7217 40.8035 59.0595 41.4657C58.3972 42.128 57.499 42.5 56.5625 42.5H49.5C48.5635 42.5 47.6653 42.128 47.003 41.4657C46.3408 40.8035 45.9688 39.9053 45.9688 38.9688Z" fill="#43056C"/>
</svg>
