<svg width="1440" height="904" viewBox="0 0 1440 904" fill="none" xmlns="http://www.w3.org/2000/svg">
<path d="M811.725 337.525H831.389V323.133H811.725V337.525Z" fill="#4DAF4E"/>
<path opacity="0.3" d="M811.725 337.525H831.389V323.133H811.725V337.525Z" fill="black"/>
<path d="M817.252 811.79C810.962 792.444 812.808 323.133 812.808 323.133L633.378 324.372L630.508 811.79L673.274 811.015C673.274 811.015 666.02 572.833 666.823 555.379C667.625 537.926 665.419 388.468 665.419 388.468C683.18 378.336 703.354 373.206 723.798 373.622C757.099 374.626 774.954 385.659 774.954 385.659L768.984 811.418L817.252 811.79Z" fill="#4DAF4E"/>
<path opacity="0.3" d="M817.252 811.79C810.962 792.444 812.808 323.133 812.808 323.133L633.378 324.372L630.508 811.79L673.274 811.015C673.274 811.015 666.02 572.833 666.823 555.379C667.625 537.926 665.419 388.468 665.419 388.468C683.18 378.336 703.354 373.206 723.798 373.622C757.099 374.626 774.954 385.659 774.954 385.659L768.984 811.418L817.252 811.79Z" fill="black"/>
<path d="M668.232 299.754H648.568V324.373H668.232V299.754Z" fill="#2F1043"/>
<path d="M-28.5238 616.008C41.9601 608.295 112.156 597.699 181.604 583.355C234.266 572.478 286.518 559.468 337.927 543.67C372.984 532.897 407.673 520.838 441.641 506.994C452.789 502.45 463.851 497.701 474.826 492.747C498.887 482.219 522.391 470.463 545.246 457.525C560.299 448.913 574.527 438.932 587.747 427.708C597.96 418.597 606.967 408.22 614.553 396.829C628.738 376.568 640.346 354.621 649.111 331.493C650.144 328.918 650.952 326.259 651.525 323.545C651.876 321.598 648.896 320.763 648.542 322.722C647.202 330.156 643.55 337.477 640.462 344.291C635.091 356.121 629.064 367.643 622.41 378.803C615.423 390.877 607.352 402.29 598.296 412.902C587.767 424.923 574.878 434.766 561.655 443.637C535.585 461.127 506.987 474.544 478.547 487.662C468.513 492.29 458.394 496.727 448.19 500.973C416.177 514.319 383.483 526.013 350.436 536.521C301.85 551.969 252.456 564.833 202.657 575.723C135.75 590.355 68.0732 601.406 0.0877228 609.625C-9.443 610.777 -18.9802 611.874 -28.5238 612.915C-30.4811 613.129 -30.503 616.224 -28.5238 616.008Z" fill="#2F1043"/>
<path d="M408.889 539.143V831.893" stroke="#2F1043" stroke-width="2.062" stroke-miterlimit="10"/>
<path d="M414.844 539.143V831.893" stroke="#2F1043" stroke-width="2.062" stroke-miterlimit="10"/>
<path d="M474.42 512.48V812.856" stroke="#2F1043" stroke-width="2.062" stroke-miterlimit="10"/>
<path d="M480.375 512.48V812.856" stroke="#2F1043" stroke-width="2.062" stroke-miterlimit="10"/>
<path d="M522.334 487.767V815.882" stroke="#2F1043" stroke-width="2.062" stroke-miterlimit="10"/>
<path d="M528.287 487.767V815.882" stroke="#2F1043" stroke-width="2.062" stroke-miterlimit="10"/>
<path d="M557.639 466.585V815.883" stroke="#2F1043" stroke-width="2.062" stroke-miterlimit="10"/>
<path d="M563.592 466.585V815.883" stroke="#2F1043" stroke-width="2.062" stroke-miterlimit="10"/>
<path d="M583.359 446.412V815.882" stroke="#2F1043" stroke-width="2.062" stroke-miterlimit="10"/>
<path d="M587.482 446.412V815.882" stroke="#2F1043" stroke-width="2.062" stroke-miterlimit="10"/>
<path d="M600.963 429.511V811.79" stroke="#2F1043" stroke-width="2.062" stroke-miterlimit="10"/>
<path d="M605.084 429.511V811.79" stroke="#2F1043" stroke-width="2.062" stroke-miterlimit="10"/>
<path d="M416.757 537.762H406.461V540.527H416.757V537.762Z" fill="#2F1043"/>
<path d="M402.096 519.687L407.881 539.144H415.481C415.481 539.144 419.751 520.225 420.565 515.39" stroke="#2F1043" stroke-width="2.062" stroke-miterlimit="10"/>
<path d="M335.303 564.282V843.533" stroke="#2F1043" stroke-width="2.062" stroke-miterlimit="10"/>
<path d="M341.256 564.282V843.533" stroke="#2F1043" stroke-width="2.062" stroke-miterlimit="10"/>
<path d="M343.169 562.899H332.873V565.665H343.169V562.899Z" fill="#2F1043"/>
<path d="M328.51 544.822L334.295 564.28H341.895C341.895 564.28 346.165 545.36 346.979 540.525" stroke="#2F1043" stroke-width="2.062" stroke-miterlimit="10"/>
<path d="M272.467 582.147V861.398" stroke="#2F1043" stroke-width="2.062" stroke-miterlimit="10"/>
<path d="M278.42 582.147V861.398" stroke="#2F1043" stroke-width="2.062" stroke-miterlimit="10"/>
<path d="M280.333 580.764H270.037V583.529H280.333V580.764Z" fill="#2F1043"/>
<path d="M265.672 562.689L271.457 582.147H279.057C279.057 582.147 283.327 563.227 284.142 558.392" stroke="#2F1043" stroke-width="2.062" stroke-miterlimit="10"/>
<path d="M165.445 605.901V885.153" stroke="#2F1043" stroke-width="2.062" stroke-miterlimit="10"/>
<path d="M171.398 605.901V885.153" stroke="#2F1043" stroke-width="2.062" stroke-miterlimit="10"/>
<path d="M173.312 604.519H163.016V607.284H173.312V604.519Z" fill="#2F1043"/>
<path d="M158.652 586.444L164.437 605.902H172.038C172.038 605.902 176.307 586.982 177.122 582.147" stroke="#2F1043" stroke-width="2.062" stroke-miterlimit="10"/>
<path d="M52.9883 628.414V907.665" stroke="#2F1043" stroke-width="2.062" stroke-miterlimit="10"/>
<path d="M58.9414 628.414V907.665" stroke="#2F1043" stroke-width="2.062" stroke-miterlimit="10"/>
<path d="M60.8544 627.031H50.5586V629.797H60.8544V627.031Z" fill="#2F1043"/>
<path d="M46.1934 608.955L51.9787 628.413H59.5788C59.5788 628.413 63.8486 609.493 64.6631 604.658" stroke="#2F1043" stroke-width="2.062" stroke-miterlimit="10"/>
<path d="M469.619 492.598L474.252 511.299H480.339C480.339 511.299 483.759 493.115 484.411 488.468" stroke="#2F1043" stroke-width="2.062" stroke-miterlimit="10"/>
<path d="M518.129 469.515L522.762 488.217H528.849C528.849 488.217 532.757 468.447 533.41 463.8" stroke="#2F1043" stroke-width="2.062" stroke-miterlimit="10"/>
<path d="M552.957 448.91L557.59 466.703H563.677C563.677 466.703 568.041 446.263 568.694 441.842" stroke="#2F1043" stroke-width="2.062" stroke-miterlimit="10"/>
<path d="M578.918 431.871L582.753 446.599H587.791C587.791 446.599 590.688 428.05 591.228 424.391" stroke="#2F1043" stroke-width="2.062" stroke-miterlimit="10"/>
<path d="M598.545 415.962L601.508 429.444H605.401C605.401 429.444 607.64 408.713 608.057 405.363" stroke="#2F1043" stroke-width="2.062" stroke-miterlimit="10"/>
<path d="M482.531 510.427H472.012V513.134H482.531V510.427Z" fill="#2F1043"/>
<path d="M530.785 487.113H520.266V489.82H530.785V487.113Z" fill="#2F1043"/>
<path d="M566.088 465.931H555.568V468.638H566.088V465.931Z" fill="#2F1043"/>
<path d="M589.281 445.757H581.285V448.464H589.281V445.757Z" fill="#2F1043"/>
<path d="M607.3 428.653H599.305V431.361H607.3V428.653Z" fill="#2F1043"/>
<path d="M620.053 408.215V800.721" stroke="#2F1043" stroke-width="2.062" stroke-miterlimit="10"/>
<path d="M624.174 408.215V800.721" stroke="#2F1043" stroke-width="2.062" stroke-miterlimit="10"/>
<path d="M616.887 391.661L620.362 407.471H624.255C624.255 407.471 626.493 380.332 626.91 376.982" stroke="#2F1043" stroke-width="2.062" stroke-miterlimit="10"/>
<path d="M626.076 406.86H618.08V409.567H626.076V406.86Z" fill="#2F1043"/>
<path d="M643.895 381.268V800.72" stroke="#2F1043" stroke-width="2.062" stroke-miterlimit="10"/>
<path d="M648.018 381.268V800.72" stroke="#2F1043" stroke-width="2.062" stroke-miterlimit="10"/>
<path d="M637.537 356.888L644.204 380.475H648.097C648.097 380.475 649.501 331.605 649.918 328.025" stroke="#2F1043" stroke-width="2.062" stroke-miterlimit="10"/>
<path d="M649.918 379.821H641.922V382.714H649.918V379.821Z" fill="#2F1043"/>
<path d="M637.537 324.333H617.873V338.724H637.537V324.333Z" fill="#4DAF4E"/>
<path opacity="0.3" d="M637.537 324.333H617.873V338.724H637.537V324.333Z" fill="black"/>
<path d="M655.654 281.001H652.395V301.141H655.654V281.001Z" fill="#2F1043"/>
<path d="M787.387 323.371H807.051V298.752H787.387V323.371Z" fill="#2F1043"/>
<path d="M1468.15 611.912C1398.96 604.539 1330.19 593.701 1262.09 579.442C1211.78 568.901 1162.05 555.792 1113.09 540.164C1079.88 529.467 1047.11 517.41 1015.03 503.701C1004.34 499.135 993.728 494.403 983.189 489.507C960.352 478.949 937.439 468.402 915.561 455.941C900.066 447.32 885.4 437.285 871.75 425.965C861.181 416.812 851.865 406.303 844.046 394.712C829.844 374.552 818.231 352.689 809.479 329.635C808.452 327.071 807.648 324.423 807.078 321.72C806.725 319.764 803.744 320.593 804.095 322.542C805.431 329.957 809.071 337.255 812.134 344.066C817.419 355.785 823.347 367.203 829.891 378.268C836.831 390.306 844.791 401.726 853.684 412.403C863.821 423.817 875.382 433.881 888.083 442.35C915.068 461.177 945.035 475.134 974.764 488.989C984.427 493.493 994.118 497.936 1003.88 502.221C1034.15 515.503 1064.97 527.397 1096.34 537.901C1143.38 553.608 1191.2 566.884 1239.6 577.678C1305.45 592.355 1372.01 603.691 1439.01 611.645C1448.71 612.825 1458.43 613.945 1468.15 615.006C1470.13 615.222 1470.11 612.127 1468.15 611.912Z" fill="#2F1043"/>
<path d="M1046.73 538.143V830.893" stroke="#2F1043" stroke-width="2.062" stroke-miterlimit="10"/>
<path d="M1040.78 538.143V830.893" stroke="#2F1043" stroke-width="2.062" stroke-miterlimit="10"/>
<path d="M981.201 511.478V811.853" stroke="#2F1043" stroke-width="2.062" stroke-miterlimit="10"/>
<path d="M975.246 511.478V811.853" stroke="#2F1043" stroke-width="2.062" stroke-miterlimit="10"/>
<path d="M933.287 486.766V814.881" stroke="#2F1043" stroke-width="2.062" stroke-miterlimit="10"/>
<path d="M927.332 486.766V814.881" stroke="#2F1043" stroke-width="2.062" stroke-miterlimit="10"/>
<path d="M897.982 465.581V814.879" stroke="#2F1043" stroke-width="2.062" stroke-miterlimit="10"/>
<path d="M892.029 465.581V814.879" stroke="#2F1043" stroke-width="2.062" stroke-miterlimit="10"/>
<path d="M872.26 445.409V814.879" stroke="#2F1043" stroke-width="2.062" stroke-miterlimit="10"/>
<path d="M868.139 445.409V814.879" stroke="#2F1043" stroke-width="2.062" stroke-miterlimit="10"/>
<path d="M854.66 428.51V810.789" stroke="#2F1043" stroke-width="2.062" stroke-miterlimit="10"/>
<path d="M850.537 428.51V810.789" stroke="#2F1043" stroke-width="2.062" stroke-miterlimit="10"/>
<path d="M1038.86 539.525H1049.16V536.76H1038.86V539.525Z" fill="#2F1043"/>
<path d="M1053.52 518.685L1047.74 538.143H1040.14C1040.14 538.143 1035.87 519.223 1035.05 514.388" stroke="#2F1043" stroke-width="2.062" stroke-miterlimit="10"/>
<path d="M1120.32 563.279V842.53" stroke="#2F1043" stroke-width="2.062" stroke-miterlimit="10"/>
<path d="M1114.36 563.279V842.53" stroke="#2F1043" stroke-width="2.062" stroke-miterlimit="10"/>
<path d="M1112.45 564.662H1122.75V561.897H1112.45V564.662Z" fill="#2F1043"/>
<path d="M1127.11 543.822L1121.33 563.28H1113.72C1113.72 563.28 1109.46 544.36 1108.64 539.525" stroke="#2F1043" stroke-width="2.062" stroke-miterlimit="10"/>
<path d="M1183.15 581.147V860.398" stroke="#2F1043" stroke-width="2.062" stroke-miterlimit="10"/>
<path d="M1177.2 581.147V860.398" stroke="#2F1043" stroke-width="2.062" stroke-miterlimit="10"/>
<path d="M1175.29 582.528H1185.58V579.763H1175.29V582.528Z" fill="#2F1043"/>
<path d="M1189.95 561.688L1184.16 581.146H1176.56C1176.56 581.146 1172.29 562.226 1171.48 557.391" stroke="#2F1043" stroke-width="2.062" stroke-miterlimit="10"/>
<path d="M1290.17 604.899V884.151" stroke="#2F1043" stroke-width="2.062" stroke-miterlimit="10"/>
<path d="M1284.22 604.899V884.151" stroke="#2F1043" stroke-width="2.062" stroke-miterlimit="10"/>
<path d="M1282.31 606.283H1292.6V603.518H1282.31V606.283Z" fill="#2F1043"/>
<path d="M1296.97 585.444L1291.18 604.902H1283.58C1283.58 604.902 1279.31 585.982 1278.5 581.147" stroke="#2F1043" stroke-width="2.062" stroke-miterlimit="10"/>
<path d="M1402.63 627.412V906.663" stroke="#2F1043" stroke-width="2.062" stroke-miterlimit="10"/>
<path d="M1396.68 627.412V906.663" stroke="#2F1043" stroke-width="2.062" stroke-miterlimit="10"/>
<path d="M1394.77 628.796H1405.06V626.031H1394.77V628.796Z" fill="#2F1043"/>
<path d="M1409.42 607.955L1403.64 627.413H1396.04C1396.04 627.413 1391.77 608.493 1390.96 603.658" stroke="#2F1043" stroke-width="2.062" stroke-miterlimit="10"/>
<path d="M986.001 491.595L981.368 510.297H975.281C975.281 510.297 971.861 492.112 971.209 487.465" stroke="#2F1043" stroke-width="2.062" stroke-miterlimit="10"/>
<path d="M937.492 468.515L932.859 487.216H926.772C926.772 487.216 922.863 467.446 922.211 462.799" stroke="#2F1043" stroke-width="2.062" stroke-miterlimit="10"/>
<path d="M902.663 447.908L898.029 465.701H891.942C891.942 465.701 887.578 445.261 886.926 440.84" stroke="#2F1043" stroke-width="2.062" stroke-miterlimit="10"/>
<path d="M876.704 430.87L872.869 445.598H867.831C867.831 445.598 864.935 427.049 864.395 423.39" stroke="#2F1043" stroke-width="2.062" stroke-miterlimit="10"/>
<path d="M857.075 414.961L854.111 428.443H850.218C850.218 428.443 847.98 407.712 847.562 404.362" stroke="#2F1043" stroke-width="2.062" stroke-miterlimit="10"/>
<path d="M973.09 512.132H983.609V509.425H973.09V512.132Z" fill="#2F1043"/>
<path d="M924.836 488.82H935.355V486.113H924.836V488.82Z" fill="#2F1043"/>
<path d="M889.533 467.636H900.053V464.929H889.533V467.636Z" fill="#2F1043"/>
<path d="M866.338 447.463H874.334V444.756H866.338V447.463Z" fill="#2F1043"/>
<path d="M848.321 430.359H856.316V427.652H848.321V430.359Z" fill="#2F1043"/>
<path d="M835.57 407.211V799.718" stroke="#2F1043" stroke-width="2.062" stroke-miterlimit="10"/>
<path d="M831.447 407.211V799.718" stroke="#2F1043" stroke-width="2.062" stroke-miterlimit="10"/>
<path d="M838.735 390.658L835.259 406.468H831.366C831.366 406.468 829.128 379.329 828.711 375.979" stroke="#2F1043" stroke-width="2.062" stroke-miterlimit="10"/>
<path d="M829.545 408.565H837.541V405.858H829.545V408.565Z" fill="#2F1043"/>
<path d="M811.725 380.268V799.72" stroke="#2F1043" stroke-width="2.062" stroke-miterlimit="10"/>
<path d="M807.604 380.268V799.72" stroke="#2F1043" stroke-width="2.062" stroke-miterlimit="10"/>
<path d="M818.082 355.884L811.416 379.471H807.523C807.523 379.471 806.118 330.601 805.701 327.021" stroke="#2F1043" stroke-width="2.062" stroke-miterlimit="10"/>
<path d="M805.701 381.712H813.697V378.819H805.701V381.712Z" fill="#2F1043"/>
<path d="M799.968 300.141H803.227V280.001H799.968V300.141Z" fill="#2F1043"/>
<path d="M775.432 314.275H676.541V324.373H775.432V314.275Z" fill="#4DAF4E"/>
<path opacity="0.3" d="M775.432 314.275H676.541V324.373H775.432V314.275Z" fill="black"/>
<path d="M688.781 288.083H686.52V314.274H688.781V288.083Z" fill="#4DAF4E"/>
<path d="M674.418 789.734C674.418 789.734 -27.8375 817.3 -29.8906 817.239V829.509L674.434 792.408L674.418 789.734Z" fill="#2F1043"/>
<path d="M-28.5254 876.113L674.416 795.508V809.622L-28.5254 989.101V876.113Z" fill="#2F1043"/>
<path d="M0.258041 822.941H-26.3652V888.958H0.258041V822.941Z" fill="#2F1043"/>
<path d="M61.0597 819.072H36.9805V885.089H61.0597V819.072Z" fill="#2F1043"/>
<path d="M118.427 817.121H94.3477V883.138H118.427V817.121Z" fill="#2F1043"/>
<path d="M175.794 815.169H151.715V881.185H175.794V815.169Z" fill="#2F1043"/>
<path d="M233.159 813.217H209.08V879.233H233.159V813.217Z" fill="#2F1043"/>
<path d="M284.647 811.266H266.447V877.282H284.647V811.266Z" fill="#2F1043"/>
<path d="M337.743 809.315H318.422V875.332H337.743V809.315Z" fill="#2F1043"/>
<path d="M387.306 804.634H367.984V870.65H387.306V804.634Z" fill="#2F1043"/>
<path d="M436.868 799.95H417.547V865.967H436.868V799.95Z" fill="#2F1043"/>
<path d="M480.375 799.95H467.107V852.114H480.375V799.95Z" fill="#2F1043"/>
<path d="M521.019 796.711H507.752V842.325H521.019V796.711Z" fill="#2F1043"/>
<path d="M557.267 795.832H544V831.893H557.267V795.832Z" fill="#2F1043"/>
<path d="M593.476 794.507H580.209V830.568H593.476V794.507Z" fill="#2F1043"/>
<path d="M629.687 793.761H616.42V818.447H629.687V793.761Z" fill="#2F1043"/>
<path d="M665.9 791.853H652.633V807.251H665.9V791.853Z" fill="#2F1043"/>
<path d="M767.262 789.734C767.262 789.734 1453.29 817.3 1455.29 817.239V829.509L767.246 792.408L767.262 789.734Z" fill="#2F1043"/>
<path d="M1453.96 876.113L767.262 795.508V809.622L1453.96 989.101V876.113Z" fill="#2F1043"/>
<path d="M1425.84 888.96H1451.85V822.943H1425.84V888.96Z" fill="#2F1043"/>
<path d="M1366.45 885.088H1389.97V819.071H1366.45V885.088Z" fill="#2F1043"/>
<path d="M1310.41 883.136H1333.93V817.119H1310.41V883.136Z" fill="#2F1043"/>
<path d="M1254.36 881.185H1277.89V815.168H1254.36V881.185Z" fill="#2F1043"/>
<path d="M1198.32 879.234H1221.84V813.218H1198.32V879.234Z" fill="#2F1043"/>
<path d="M1148.03 877.283H1165.8V811.267H1148.03V877.283Z" fill="#2F1043"/>
<path d="M1096.15 875.332H1115.03V809.316H1096.15V875.332Z" fill="#2F1043"/>
<path d="M1047.74 870.649H1066.61V804.633H1047.74V870.649Z" fill="#2F1043"/>
<path d="M999.322 865.965H1018.2V799.948H999.322V865.965Z" fill="#2F1043"/>
<path d="M956.821 852.114H969.781V799.95H956.821V852.114Z" fill="#2F1043"/>
<path d="M913.227 842.323H926.188V796.709H913.227V842.323Z" fill="#2F1043"/>
<path d="M881.706 831.895H894.666V795.833H881.706V831.895Z" fill="#2F1043"/>
<path d="M848.917 823.855H861.877V794.791H848.917V823.855Z" fill="#2F1043"/>
<path d="M811.866 816.033H824.826V792.392H811.866V816.033Z" fill="#2F1043"/>
<path d="M780.909 810.537H793.869V791.394H780.909V810.537Z" fill="#2F1043"/>
<path d="M-28.6113 989.101C-24.7385 989.101 675.124 808.222 675.124 808.222H778.405L1453.96 989.101L1455.29 1071H-28.5241L-28.6113 989.101Z" fill="#2F1043"/>
<path opacity="0.5" d="M-28.6113 989.101C-24.7385 989.101 675.124 808.222 675.124 808.222H778.405L1453.96 989.101L1455.29 1071H-28.5241L-28.6113 989.101Z" fill="white"/>
<path d="M709.977 859.066H720.313L719.144 837.182H711.869L709.977 859.066Z" fill="white"/>
<path d="M723.693 922.312L721.606 883.241H707.884L704.502 922.312H723.693Z" fill="white"/>
<path d="M718.734 829.51L717.597 808.222H714.377L712.533 829.51H718.734Z" fill="white"/>
<path d="M674.416 809.621L-28.6113 1014.24V1022.19L677.796 809.621" fill="white"/>
<path d="M774.737 809.621L1453.59 1006.12L1453.96 1018.47L771.359 809.621" fill="white"/>
<path d="M811.357 80.9517C809.906 79.8918 808.181 79.2722 806.387 79.1669C804.593 79.0617 802.807 79.4754 801.242 80.3585C799.028 76.2921 795.331 73.2356 790.921 71.8242C786.511 70.4128 781.727 70.7552 777.562 72.7801C776.489 68.2721 773.914 64.2635 770.26 61.4132C766.607 58.5629 762.092 57.0404 757.458 57.0962C752.825 57.152 748.348 58.7826 744.764 61.72C741.18 64.6574 738.702 68.7268 737.738 73.2593C737.617 74.7197 737.088 76.1169 736.212 77.2919C734.554 78.9853 731.787 78.4169 729.424 78.2326C725.688 78.0359 721.994 79.0914 718.926 81.2317C715.859 83.3721 713.593 86.475 712.488 90.0487L814.861 89.6759C815.247 88.0379 815.118 86.3206 814.491 84.7589C813.864 83.1972 812.769 81.8674 811.357 80.9517Z" fill="#E0E0E0"/>
<path d="M1111.13 195.847C1109.68 194.787 1107.96 194.167 1106.16 194.062C1104.37 193.957 1102.58 194.371 1101.02 195.254C1098.81 191.187 1095.11 188.131 1090.7 186.719C1086.29 185.308 1081.5 185.65 1077.34 187.676C1076.27 183.168 1073.69 179.159 1070.04 176.309C1066.38 173.458 1061.87 171.936 1057.24 171.992C1052.6 172.047 1048.13 173.678 1044.54 176.615C1040.96 179.553 1038.48 183.622 1037.51 188.155C1037.39 189.615 1036.87 191.012 1035.99 192.187C1034.33 193.881 1031.56 193.312 1029.2 193.128C1025.47 192.931 1021.77 193.987 1018.7 196.127C1015.64 198.267 1013.37 201.37 1012.27 204.944L1114.64 204.571C1115.02 202.933 1114.9 201.216 1114.27 199.654C1113.64 198.092 1112.55 196.763 1111.13 195.847Z" fill="#F0F0F0"/>
<path d="M1073.11 39.2761C1070.73 37.5312 1067.89 36.5111 1064.93 36.3379C1061.98 36.1646 1059.04 36.8456 1056.46 38.2992C1049.71 24.6556 1030.9 18.6345 1017.48 25.8233C1015.71 18.4017 1011.47 11.8023 1005.46 7.10968C999.441 2.4171 992.008 -0.089321 984.38 0.00243245C976.751 0.0941859 969.381 2.77865 963.48 7.61455C957.58 12.4504 953.5 19.15 951.912 26.6119C951.713 29.016 950.843 31.316 949.402 33.2504C946.672 36.0388 942.114 35.1026 938.225 34.7993C932.075 34.4756 925.993 36.2133 920.943 39.7371C915.892 43.2609 912.162 48.3692 910.344 54.2527L1078.88 53.6395C1080.36 47.9328 1077.82 42.8292 1073.11 39.2761Z" fill="#F5F5F5"/>
<path d="M1426.39 104.292C1424.61 102.991 1422.49 102.231 1420.29 102.102C1418.09 101.973 1415.89 102.48 1413.97 103.564C1411.26 98.5732 1406.72 94.8218 1401.31 93.0896C1395.89 91.3574 1390.02 91.7777 1384.91 94.2631C1383.59 88.7303 1380.43 83.8103 1375.95 80.312C1371.46 76.8137 1365.92 74.9451 1360.24 75.0135C1354.55 75.082 1349.05 77.0833 1344.65 80.6885C1340.26 84.2937 1337.21 89.2882 1336.03 94.8511C1335.88 96.6434 1335.23 98.3581 1334.16 99.8002C1332.12 101.879 1328.73 101.181 1325.83 100.955C1321.24 100.714 1316.71 102.009 1312.94 104.636C1309.18 107.263 1306.4 111.071 1305.04 115.457L1430.69 115C1431.16 112.99 1431 110.882 1430.23 108.965C1429.46 107.048 1428.12 105.416 1426.39 104.292Z" fill="#F5F5F5"/>
<path d="M487.398 70.6806C484.749 68.7456 481.599 67.6145 478.325 67.4224C475.05 67.2304 471.789 67.9855 468.932 69.5975C461.445 54.4678 440.581 47.7909 425.701 55.7626C423.742 47.5328 419.04 40.2146 412.37 35.0109C405.7 29.8073 397.458 27.0279 388.999 27.1297C380.539 27.2314 372.366 30.2082 365.823 35.5708C359.28 40.9334 354.756 48.3626 352.995 56.6371C352.774 59.3032 351.809 61.8537 350.211 63.9987C347.183 67.0909 342.13 66.0526 337.816 65.7164C330.997 65.3574 324.253 67.2844 318.652 71.1919C313.052 75.0994 308.915 80.764 306.898 87.2882L493.794 86.6085C495.431 80.2804 492.613 74.6208 487.398 70.6806Z" fill="#F5F5F5"/>
<path d="M393.232 212.325C391.781 211.265 390.056 210.646 388.262 210.541C386.468 210.436 384.682 210.849 383.117 211.732C380.903 207.666 377.206 204.609 372.796 203.198C368.386 201.786 363.602 202.129 359.438 204.154C358.364 199.646 355.789 195.637 352.135 192.787C348.482 189.937 343.967 188.414 339.334 188.47C334.7 188.526 330.223 190.157 326.639 193.094C323.055 196.031 320.577 200.101 319.613 204.633C319.492 206.093 318.963 207.49 318.088 208.665C316.43 210.359 313.661 209.79 311.299 209.606C307.563 209.41 303.869 210.465 300.801 212.605C297.734 214.746 295.468 217.849 294.363 221.422L396.736 221.05C397.122 219.412 396.993 217.695 396.366 216.133C395.739 214.571 394.644 213.241 393.232 212.325Z" fill="#F0F0F0"/>
<path d="M147.821 171.785C145.666 170.211 143.104 169.291 140.44 169.134C137.777 168.978 135.124 169.592 132.801 170.904C129.512 164.865 124.022 160.326 117.473 158.23C110.924 156.134 103.819 156.643 97.6357 159.65C96.0417 152.956 92.2176 147.003 86.7919 142.77C81.3662 138.538 74.6619 136.277 67.781 136.36C60.9001 136.442 54.2522 138.864 48.9299 143.226C43.6077 147.588 39.9279 153.631 38.4954 160.362C38.3159 162.53 37.5312 164.605 36.2306 166.35C33.7686 168.865 29.6581 168.02 26.1493 167.747C20.6022 167.455 15.1164 169.022 10.5609 172.201C6.00535 175.379 2.64071 179.987 1 185.294L153.023 184.741C153.597 182.308 153.406 179.758 152.474 177.439C151.543 175.119 149.918 173.145 147.821 171.785Z" fill="#F0F0F0"/>
</svg>
