<svg width="1430" height="222" viewBox="0 0 1430 222" fill="none" xmlns="http://www.w3.org/2000/svg">
<path d="M810.357 80.9517C808.906 79.8918 807.181 79.2722 805.387 79.1669C803.593 79.0617 801.807 79.4754 800.242 80.3585C798.028 76.2921 794.331 73.2356 789.921 71.8242C785.511 70.4128 780.727 70.7552 776.562 72.7801C775.489 68.2721 772.914 64.2635 769.26 61.4132C765.607 58.5629 761.092 57.0404 756.458 57.0962C751.825 57.152 747.348 58.7826 743.764 61.72C740.18 64.6574 737.702 68.7268 736.738 73.2593C736.617 74.7197 736.088 76.1169 735.212 77.2919C733.554 78.9853 730.787 78.4169 728.424 78.2326C724.688 78.0359 720.994 79.0914 717.926 81.2317C714.859 83.3721 712.593 86.475 711.488 90.0487L813.861 89.6759C814.247 88.0379 814.118 86.3206 813.491 84.7589C812.864 83.1972 811.769 81.8674 810.357 80.9517Z" fill="#E0E0E0"/>
<path d="M1110.13 195.847C1108.68 194.787 1106.96 194.167 1105.16 194.062C1103.37 193.957 1101.58 194.371 1100.02 195.254C1097.81 191.187 1094.11 188.131 1089.7 186.719C1085.29 185.308 1080.5 185.65 1076.34 187.676C1075.27 183.168 1072.69 179.159 1069.04 176.309C1065.38 173.458 1060.87 171.936 1056.24 171.992C1051.6 172.047 1047.13 173.678 1043.54 176.615C1039.96 179.553 1037.48 183.622 1036.51 188.155C1036.39 189.615 1035.87 191.012 1034.99 192.187C1033.33 193.881 1030.56 193.312 1028.2 193.128C1024.47 192.931 1020.77 193.987 1017.7 196.127C1014.64 198.267 1012.37 201.37 1011.27 204.944L1113.64 204.571C1114.02 202.933 1113.9 201.216 1113.27 199.654C1112.64 198.092 1111.55 196.763 1110.13 195.847Z" fill="#F0F0F0"/>
<path d="M1072.11 39.2761C1069.73 37.5312 1066.89 36.5111 1063.93 36.3379C1060.98 36.1646 1058.04 36.8456 1055.46 38.2992C1048.71 24.6556 1029.9 18.6345 1016.48 25.8233C1014.71 18.4017 1010.47 11.8023 1004.46 7.10968C998.441 2.4171 991.008 -0.089321 983.38 0.00243245C975.751 0.0941859 968.381 2.77865 962.48 7.61455C956.58 12.4504 952.5 19.15 950.912 26.6119C950.713 29.016 949.843 31.316 948.402 33.2504C945.672 36.0388 941.114 35.1026 937.225 34.7993C931.075 34.4756 924.993 36.2133 919.943 39.7371C914.892 43.2609 911.162 48.3692 909.344 54.2527L1077.88 53.6395C1079.36 47.9328 1076.82 42.8292 1072.11 39.2761Z" fill="#F5F5F5"/>
<path d="M1425.39 104.292C1423.61 102.991 1421.49 102.231 1419.29 102.102C1417.09 101.973 1414.89 102.48 1412.97 103.564C1410.26 98.5732 1405.72 94.8218 1400.31 93.0896C1394.89 91.3574 1389.02 91.7777 1383.91 94.2631C1382.59 88.7303 1379.43 83.8103 1374.95 80.312C1370.46 76.8137 1364.92 74.9451 1359.24 75.0135C1353.55 75.082 1348.05 77.0833 1343.65 80.6885C1339.26 84.2937 1336.21 89.2882 1335.03 94.8511C1334.88 96.6434 1334.23 98.3581 1333.16 99.8002C1331.12 101.879 1327.73 101.181 1324.83 100.955C1320.24 100.714 1315.71 102.009 1311.94 104.636C1308.18 107.263 1305.4 111.071 1304.04 115.457L1429.69 115C1430.16 112.99 1430 110.882 1429.23 108.965C1428.46 107.048 1427.12 105.416 1425.39 104.292Z" fill="#F5F5F5"/>
<path d="M486.398 70.6806C483.749 68.7456 480.599 67.6145 477.325 67.4224C474.05 67.2304 470.789 67.9855 467.932 69.5975C460.445 54.4678 439.581 47.7909 424.701 55.7626C422.742 47.5328 418.04 40.2146 411.37 35.0109C404.7 29.8073 396.458 27.0279 387.999 27.1297C379.539 27.2314 371.366 30.2082 364.823 35.5708C358.28 40.9334 353.756 48.3626 351.995 56.6371C351.774 59.3032 350.809 61.8537 349.211 63.9987C346.183 67.0909 341.13 66.0526 336.816 65.7164C329.997 65.3574 323.253 67.2844 317.652 71.1919C312.052 75.0994 307.915 80.764 305.898 87.2882L492.794 86.6085C494.431 80.2804 491.613 74.6208 486.398 70.6806Z" fill="#F5F5F5"/>
<path d="M392.232 212.325C390.781 211.265 389.056 210.646 387.262 210.541C385.468 210.436 383.682 210.849 382.117 211.732C379.903 207.666 376.206 204.609 371.796 203.198C367.386 201.786 362.602 202.129 358.438 204.154C357.364 199.646 354.789 195.637 351.135 192.787C347.482 189.937 342.967 188.414 338.334 188.47C333.7 188.526 329.223 190.157 325.639 193.094C322.055 196.031 319.577 200.101 318.613 204.633C318.492 206.093 317.963 207.49 317.088 208.665C315.43 210.359 312.661 209.79 310.299 209.606C306.563 209.41 302.869 210.465 299.801 212.605C296.734 214.746 294.468 217.849 293.363 221.422L395.736 221.05C396.122 219.412 395.993 217.695 395.366 216.133C394.739 214.571 393.644 213.241 392.232 212.325Z" fill="#F0F0F0"/>
<path d="M146.821 171.785C144.666 170.211 142.104 169.291 139.44 169.134C136.777 168.978 134.124 169.592 131.801 170.904C128.512 164.865 123.022 160.326 116.473 158.23C109.924 156.134 102.819 156.643 96.6357 159.65C95.0417 152.956 91.2176 147.003 85.7919 142.77C80.3662 138.538 73.6619 136.277 66.781 136.36C59.9001 136.442 53.2522 138.864 47.9299 143.226C42.6077 147.588 38.9279 153.631 37.4954 160.362C37.3159 162.53 36.5312 164.605 35.2306 166.35C32.7686 168.865 28.6581 168.02 25.1493 167.747C19.6022 167.455 14.1164 169.022 9.56085 172.201C5.00535 175.379 1.64071 179.987 0 185.294L152.023 184.741C152.597 182.308 152.406 179.758 151.474 177.439C150.543 175.119 148.918 173.145 146.821 171.785Z" fill="#F0F0F0"/>
</svg>
