<svg width="36" height="22" viewBox="0 0 36 22" fill="none" xmlns="http://www.w3.org/2000/svg">
<path d="M35.0249 9.45927L22.0124 1.06397C21.3033 0.606495 20.4657 0.373292 19.6228 0.398634L4.14351 0.860906C2.83728 0.89981 2.38935 2.50856 3.48752 3.21693L5.75611 4.68051C5.02139 5.21043 4.45485 5.94866 4.16812 6.84999C3.59689 6.99832 3.10731 7.41663 2.93623 8.03109C2.78112 8.58818 2.94069 9.13767 3.27499 9.55373L0.318153 15.1275C0.0610306 15.6122 0.312759 16.2102 0.835211 16.3557L3.70078 17.1535C4.22374 17.2992 4.74829 16.9173 4.77866 16.3695L5.12783 10.0696C5.62904 9.8862 6.04963 9.49824 6.20475 8.94115C6.37123 8.34323 6.18008 7.75098 5.79161 7.32986C6.04655 6.56446 6.62986 5.98737 7.37663 5.72643L16.4999 11.6127C16.9226 11.8852 17.7602 12.3117 18.8895 12.2781L34.3687 11.8158C35.6756 11.7765 36.1234 10.1683 35.0249 9.45927ZM18.9294 13.9926C17.3463 14.0396 16.1744 13.4438 15.5796 13.0599L8.81442 8.6955L6.45766 14.3573C5.94901 16.1842 9.9268 18.8871 15.3423 20.3949C20.7578 21.9028 25.5601 21.6445 26.0688 19.8177L26.9773 13.7521L18.9294 13.9926Z" fill="#43056C"/>
</svg>
